<svg width="54" height="54" viewBox="0 0 54 54" fill="none" xmlns="http://www.w3.org/2000/svg">
<mask id="path-1-inside-1_9_2960" fill="white">
<path d="M51.3 21.0375L46.125 16.7625V8.4375C46.1214 8.22178 46.0559 8.01163 45.9362 7.83211C45.8165 7.65259 45.6477 7.51127 45.45 7.425L34.3125 2.3625H33.8625L33.1875 2.5875L27 6.6375L20.8125 2.475L20.1375 2.25H19.6875L8.54997 7.425C8.35222 7.51127 8.18344 7.65259 8.06376 7.83211C7.94408 8.01163 7.87855 8.22178 7.87497 8.4375V16.7625L2.69997 21.0375C2.54386 21.1256 2.41762 21.2584 2.33745 21.4187C2.25727 21.5791 2.22681 21.7597 2.24997 21.9375V32.0625C2.22681 32.2403 2.25727 32.4209 2.33745 32.5813C2.41762 32.7416 2.54386 32.8744 2.69997 32.9625L7.87497 37.2375V45.5625C7.87855 45.7782 7.94408 45.9884 8.06376 46.1679C8.18344 46.3474 8.35222 46.4887 8.54997 46.575L19.6875 51.6375H20.1375L20.8125 51.4125L27 47.3625L33.1875 51.525L33.8625 51.75H34.3125L45.45 46.6875C45.6477 46.6012 45.8165 46.4599 45.9362 46.2804C46.0559 46.1009 46.1214 45.8907 46.125 45.675V37.2375L51.3 32.9625C51.438 32.8828 51.5524 32.7679 51.6314 32.6296C51.7105 32.4912 51.7514 32.3344 51.75 32.175V21.825C51.7514 21.6656 51.7105 21.5088 51.6314 21.3704C51.5524 21.2321 51.438 21.1172 51.3 21.0375ZM45.5625 28.6875H47.25V30.4875L43.3125 33.6375L42.8625 33.975L42.4125 33.75C42.2164 33.6373 41.9983 33.5681 41.7731 33.5472C41.5479 33.5263 41.3208 33.5542 41.1073 33.6289C40.8938 33.7036 40.6989 33.8235 40.5359 33.9802C40.3728 34.137 40.2455 34.3271 40.1625 34.5375C39.9606 34.9267 39.9182 35.3793 40.0442 35.7992C40.1702 36.2192 40.4547 36.5736 40.8375 36.7875L41.625 37.125V43.2L34.2 46.6875L29.475 43.5375L28.6875 42.975V28.6875H30.375C30.8225 28.6875 31.2517 28.5097 31.5682 28.1932C31.8847 27.8768 32.0625 27.4476 32.0625 27C32.0625 26.5524 31.8847 26.1232 31.5682 25.8068C31.2517 25.4903 30.8225 25.3125 30.375 25.3125H28.6875V10.9125L29.475 10.35L34.2 7.2L41.625 10.6875V16.7625L40.8375 17.1C40.4547 17.3139 40.1702 17.6683 40.0442 18.0883C39.9182 18.5082 39.9606 18.9608 40.1625 19.35C40.2758 19.6465 40.4761 19.9018 40.7371 20.0825C40.9981 20.2632 41.3076 20.3608 41.625 20.3625L42.4125 20.1375L42.8625 19.9125L43.3125 20.25L47.25 23.5125V25.3125H45.5625C45.1149 25.3125 44.6857 25.4903 44.3692 25.8068C44.0528 26.1232 43.875 26.5524 43.875 27C43.875 27.4476 44.0528 27.8768 44.3692 28.1932C44.6857 28.5097 45.1149 28.6875 45.5625 28.6875ZM23.625 28.6875H25.3125V43.0875L24.525 43.65L19.8 46.8L12.375 43.3125V37.2375L13.1625 36.9C13.5452 36.6861 13.8298 36.3317 13.9557 35.9117C14.0817 35.4918 14.0393 35.0392 13.8375 34.65C13.7545 34.4396 13.6271 34.2495 13.4641 34.0928C13.301 33.936 13.1062 33.8161 12.8927 33.7414C12.6792 33.6667 12.4521 33.6388 12.2269 33.6597C12.0017 33.6806 11.7836 33.7498 11.5875 33.8625L11.1375 34.0875L10.6875 33.75L6.74997 30.4875V28.6875H8.43747C8.88503 28.6875 9.31425 28.5097 9.63072 28.1932C9.94718 27.8768 10.125 27.4476 10.125 27C10.125 26.5524 9.94718 26.1232 9.63072 25.8068C9.31425 25.4903 8.88503 25.3125 8.43747 25.3125H6.74997V23.5125L10.6875 20.3625L11.1375 20.025L11.5875 20.25L12.375 20.475C12.6924 20.4733 13.0019 20.3757 13.2628 20.195C13.5238 20.0143 13.7241 19.759 13.8375 19.4625C14.0393 19.0733 14.0817 18.6207 13.9557 18.2008C13.8298 17.7808 13.5452 17.4264 13.1625 17.2125L12.375 16.875V10.6875L19.8 7.2L24.525 10.35L25.3125 10.9125V25.3125H23.625C23.1774 25.3125 22.7482 25.4903 22.4317 25.8068C22.1153 26.1232 21.9375 26.5524 21.9375 27C21.9375 27.4476 22.1153 27.8768 22.4317 28.1932C22.7482 28.5097 23.1774 28.6875 23.625 28.6875Z"/>
</mask>
<path d="M51.3 21.0375L46.125 16.7625V8.4375C46.1214 8.22178 46.0559 8.01163 45.9362 7.83211C45.8165 7.65259 45.6477 7.51127 45.45 7.425L34.3125 2.3625H33.8625L33.1875 2.5875L27 6.6375L20.8125 2.475L20.1375 2.25H19.6875L8.54997 7.425C8.35222 7.51127 8.18344 7.65259 8.06376 7.83211C7.94408 8.01163 7.87855 8.22178 7.87497 8.4375V16.7625L2.69997 21.0375C2.54386 21.1256 2.41762 21.2584 2.33745 21.4187C2.25727 21.5791 2.22681 21.7597 2.24997 21.9375V32.0625C2.22681 32.2403 2.25727 32.4209 2.33745 32.5813C2.41762 32.7416 2.54386 32.8744 2.69997 32.9625L7.87497 37.2375V45.5625C7.87855 45.7782 7.94408 45.9884 8.06376 46.1679C8.18344 46.3474 8.35222 46.4887 8.54997 46.575L19.6875 51.6375H20.1375L20.8125 51.4125L27 47.3625L33.1875 51.525L33.8625 51.75H34.3125L45.45 46.6875C45.6477 46.6012 45.8165 46.4599 45.9362 46.2804C46.0559 46.1009 46.1214 45.8907 46.125 45.675V37.2375L51.3 32.9625C51.438 32.8828 51.5524 32.7679 51.6314 32.6296C51.7105 32.4912 51.7514 32.3344 51.75 32.175V21.825C51.7514 21.6656 51.7105 21.5088 51.6314 21.3704C51.5524 21.2321 51.438 21.1172 51.3 21.0375ZM45.5625 28.6875H47.25V30.4875L43.3125 33.6375L42.8625 33.975L42.4125 33.75C42.2164 33.6373 41.9983 33.5681 41.7731 33.5472C41.5479 33.5263 41.3208 33.5542 41.1073 33.6289C40.8938 33.7036 40.6989 33.8235 40.5359 33.9802C40.3728 34.137 40.2455 34.3271 40.1625 34.5375C39.9606 34.9267 39.9182 35.3793 40.0442 35.7992C40.1702 36.2192 40.4547 36.5736 40.8375 36.7875L41.625 37.125V43.2L34.2 46.6875L29.475 43.5375L28.6875 42.975V28.6875H30.375C30.8225 28.6875 31.2517 28.5097 31.5682 28.1932C31.8847 27.8768 32.0625 27.4476 32.0625 27C32.0625 26.5524 31.8847 26.1232 31.5682 25.8068C31.2517 25.4903 30.8225 25.3125 30.375 25.3125H28.6875V10.9125L29.475 10.35L34.2 7.2L41.625 10.6875V16.7625L40.8375 17.1C40.4547 17.3139 40.1702 17.6683 40.0442 18.0883C39.9182 18.5082 39.9606 18.9608 40.1625 19.35C40.2758 19.6465 40.4761 19.9018 40.7371 20.0825C40.9981 20.2632 41.3076 20.3608 41.625 20.3625L42.4125 20.1375L42.8625 19.9125L43.3125 20.25L47.25 23.5125V25.3125H45.5625C45.1149 25.3125 44.6857 25.4903 44.3692 25.8068C44.0528 26.1232 43.875 26.5524 43.875 27C43.875 27.4476 44.0528 27.8768 44.3692 28.1932C44.6857 28.5097 45.1149 28.6875 45.5625 28.6875ZM23.625 28.6875H25.3125V43.0875L24.525 43.65L19.8 46.8L12.375 43.3125V37.2375L13.1625 36.9C13.5452 36.6861 13.8298 36.3317 13.9557 35.9117C14.0817 35.4918 14.0393 35.0392 13.8375 34.65C13.7545 34.4396 13.6271 34.2495 13.4641 34.0928C13.301 33.936 13.1062 33.8161 12.8927 33.7414C12.6792 33.6667 12.4521 33.6388 12.2269 33.6597C12.0017 33.6806 11.7836 33.7498 11.5875 33.8625L11.1375 34.0875L10.6875 33.75L6.74997 30.4875V28.6875H8.43747C8.88503 28.6875 9.31425 28.5097 9.63072 28.1932C9.94718 27.8768 10.125 27.4476 10.125 27C10.125 26.5524 9.94718 26.1232 9.63072 25.8068C9.31425 25.4903 8.88503 25.3125 8.43747 25.3125H6.74997V23.5125L10.6875 20.3625L11.1375 20.025L11.5875 20.25L12.375 20.475C12.6924 20.4733 13.0019 20.3757 13.2628 20.195C13.5238 20.0143 13.7241 19.759 13.8375 19.4625C14.0393 19.0733 14.0817 18.6207 13.9557 18.2008C13.8298 17.7808 13.5452 17.4264 13.1625 17.2125L12.375 16.875V10.6875L19.8 7.2L24.525 10.35L25.3125 10.9125V25.3125H23.625C23.1774 25.3125 22.7482 25.4903 22.4317 25.8068C22.1153 26.1232 21.9375 26.5524 21.9375 27C21.9375 27.4476 22.1153 27.8768 22.4317 28.1932C22.7482 28.5097 23.1774 28.6875 23.625 28.6875Z" fill="#474646" stroke="#00C2FF" stroke-width="2" mask="url(#path-1-inside-1_9_2960)"/>
<path d="M19.0625 16.425V16.2121L18.9091 16.0646L16.0126 13.2795C15.8197 13.0177 15.7154 12.7008 15.7154 12.375C15.7154 12.0593 15.8133 11.7519 15.9949 11.495C16.2519 11.3134 16.5593 11.2154 16.875 11.2154C17.2012 11.2154 17.5185 11.32 17.7805 11.5133L21.4375 15.2779V20.7179L17.0839 25.0715L16.9375 25.2179V25.425V28.575V28.7821L17.0839 28.9286L21.4375 33.2821V38.7221L17.7634 42.5043C17.6487 42.609 17.5146 42.6902 17.3686 42.7433C17.219 42.7977 17.06 42.8215 16.901 42.8132L16.875 42.8118L16.849 42.8132C16.69 42.8215 16.531 42.7977 16.3814 42.7433C16.2445 42.6935 16.118 42.619 16.0082 42.5235C15.8181 42.2629 15.7154 41.9483 15.7154 41.625C15.7154 41.2992 15.8197 40.9823 16.0126 40.7205L18.9091 37.9354L19.0625 37.7879V37.575V34.425V34.2179L18.9161 34.0715L14.5625 29.7179V24.2821L18.9161 19.9286L19.0625 19.7821V19.575V16.425Z" fill="#474646" stroke="#00C2FF"/>
<path d="M35.0909 16.0646L34.9375 16.2121V16.425V19.575V19.7821L35.0839 19.9286L39.4375 24.2821V29.7179L35.0839 34.0715L34.9375 34.2179V34.425V37.575V37.7879L35.0909 37.9354L37.9874 40.7205C38.1803 40.9823 38.2846 41.2992 38.2846 41.625C38.2846 41.9446 38.1842 42.2556 37.9984 42.5145C37.7498 42.71 37.4423 42.8168 37.125 42.8168C36.7976 42.8168 36.4807 42.7031 36.2281 42.4956L32.5625 38.7221V33.2821L36.9161 28.9286L37.0625 28.7821V28.575V25.425V25.2179L36.9161 25.0715L32.5625 20.7179V15.2779L36.2195 11.5133C36.4815 11.32 36.7988 11.2154 37.125 11.2154C37.4407 11.2154 37.7481 11.3134 38.0051 11.495C38.1867 11.7519 38.2846 12.0593 38.2846 12.375C38.2846 12.7008 38.1803 13.0177 37.9874 13.2795L35.0909 16.0646Z" fill="#474646" stroke="#00C2FF"/>
</svg>
