<svg width="101" height="65" viewBox="0 0 101 65" fill="none" xmlns="http://www.w3.org/2000/svg">
<g filter="url(#filter0_d_151_20668)">
<rect x="5" width="91" height="53" rx="10" fill="white"/>
<rect x="5.15" y="0.15" width="90.7" height="52.7" rx="9.85" stroke="#999999" stroke-width="0.3"/>
</g>
<path d="M73 12.5603V40.548C73 41.345 72.3514 42.0001 71.5624 42.0001H29.4375C28.6485 42.0001 28 41.345 28 40.548V12.5603C28 11.7633 28.6485 11.1149 29.4375 11.1149H71.5624C72.3514 11.1149 73 11.7633 73 12.5603Z" fill="url(#paint0_linear_151_20668)"/>
<g opacity="0.2">
<path d="M54.312 20.2831C54.2147 20.1726 54.154 20.0744 54.0324 20.1296C53.9109 20.1848 53.9109 20.2647 53.7832 20.1665C53.6555 20.0683 53.7102 19.9515 53.4245 19.8472C53.1387 19.7428 53.078 19.6815 52.7679 19.6385C52.4579 19.5956 52.233 19.5526 52.2148 19.5526C52.1966 19.5526 52.2816 19.6078 52.1601 19.6692C52.0385 19.7307 51.9412 19.7429 51.8197 19.6631C51.6981 19.5833 51.7042 19.5587 51.4976 19.5772C51.2908 19.5956 51.1693 19.6447 51.0781 19.657C50.987 19.6692 51.0781 19.6509 50.9383 19.5526C50.7985 19.4543 50.8958 19.3991 50.6526 19.4175C50.4095 19.4359 50.3061 19.4473 50.2453 19.4139C50.1845 19.3806 50.2574 19.2087 50.0204 19.135C49.7833 19.0613 49.7347 19.1166 49.6131 19.0981C49.4915 19.0798 49.4976 19.0491 49.1511 19.0245C48.8047 18.9999 48.8229 19.0552 48.5858 19.1289C48.3488 19.2025 48.288 19.2025 48.0691 19.1903C47.8503 19.178 47.905 19.3131 47.7713 19.3315C47.6375 19.3499 47.4248 19.2149 47.4005 19.1351C47.3761 19.0553 47.5828 18.9693 47.4005 18.8956C47.2181 18.822 46.8777 18.6807 46.8108 18.7053C46.7439 18.7299 46.7804 18.8404 46.6588 18.8711C46.5373 18.9018 46.3793 18.9018 46.1908 18.8158C46.0024 18.7299 45.9294 18.6874 45.7289 18.7025C45.5283 18.7176 45.4189 18.779 45.2486 18.7912C45.0784 18.8035 44.9751 18.7298 45.0906 18.6746C45.2061 18.6194 45.352 18.4535 45.352 18.3737C45.352 18.2939 45.4371 18.122 45.2426 18.1036C45.0481 18.0852 45.0116 18.2202 44.8292 18.1036C44.6468 17.9869 44.4098 17.9808 44.3429 18.0177C44.276 18.0545 44.276 18.1159 44.1605 18.1343C44.0451 18.1527 44.0876 18.2571 43.9478 18.2939C43.8079 18.3308 43.8262 18.2202 43.504 18.251C43.1818 18.2817 42.8718 18.3246 42.7928 18.4167C42.7138 18.5088 42.8111 18.6132 42.6408 18.693C42.4706 18.7728 42.0816 18.7114 42.033 18.7789C41.9844 18.8465 42.2458 19.0798 42.0694 19.1842C41.8931 19.2886 41.7837 19.1105 41.3765 19.1842C40.9692 19.2579 41.0178 19.2456 40.866 19.3377C40.714 19.4297 40.6836 19.3684 40.5924 19.4973C40.5013 19.6262 40.2277 19.7429 40.0393 19.7429C39.8508 19.7429 39.7718 19.6263 39.5286 19.7245C39.2855 19.8228 39.322 19.8903 38.939 19.8597C38.556 19.8289 38.398 19.8351 38.325 19.8843C38.2521 19.9333 38.2521 20.0562 38.0637 20.1114C37.8752 20.1666 37.5834 20.2649 37.5105 20.2465C37.4375 20.2282 37.1884 20.3509 37.0181 20.3693C36.8479 20.3878 36.7507 20.3754 36.696 20.3079C36.6412 20.2403 36.5805 20.1237 36.6656 20.1605C36.7507 20.1974 36.8236 20.2465 36.9756 20.2403C37.1275 20.2342 37.2978 20.1114 37.2613 20.0439C37.2248 19.9763 37.2552 19.8781 36.9574 19.8044C36.6595 19.7308 36.5319 19.743 36.307 19.5773C36.0821 19.4115 36.3921 19.301 35.8025 19.3623C35.2128 19.4238 35.0548 19.4851 34.8178 19.6632C34.5807 19.8413 34.532 19.9948 34.2889 20.2096C34.0458 20.4245 34.1309 20.4859 33.827 20.6394C33.5231 20.7929 33.4744 20.7192 33.3832 20.9525C33.292 21.1858 33.2313 21.4559 33.4197 21.5051C33.6081 21.5542 33.8026 21.4683 33.8999 21.4314C33.9972 21.3946 34.0702 21.4622 34.0823 21.5727C34.0944 21.6832 34.1005 21.8674 34.2221 21.8919C34.3437 21.9165 34.599 21.7445 34.5869 21.5666C34.5748 21.3885 34.5322 21.2657 34.6538 21.0876C34.7753 20.9095 34.8543 20.7806 34.982 20.7192C35.1097 20.6578 35.286 20.5473 35.2191 20.6885C35.1522 20.8297 35.0306 20.9955 35.1157 21.1367C35.2008 21.2779 35.3953 21.1797 35.444 21.3209C35.4926 21.4622 35.3771 21.5972 35.3467 21.6464C35.3163 21.6955 35.4196 21.7569 35.2798 21.8552C35.14 21.9533 35.0488 22.0577 34.8969 22.1744C34.7449 22.291 34.2951 22.3709 34.1917 22.3464C34.0884 22.3218 33.9182 22.3464 33.906 22.2051C33.8939 22.0639 34.058 21.9104 33.8878 21.8428C33.7176 21.7753 33.5291 21.8674 33.4744 22.1068C33.4197 22.3463 33.3346 22.3892 33.1949 22.5059C33.055 22.6225 33.1705 22.9786 32.7633 23.0462C32.356 23.1137 32.1251 23.0155 32.1555 23.1628C32.1859 23.3102 32.4412 23.218 32.4473 23.4637C32.4533 23.7092 32.5142 23.7953 32.3378 23.8444C32.1615 23.8934 32.119 23.8014 31.882 23.8812C31.6449 23.961 31.657 24.2619 31.6084 24.3908C31.5598 24.5197 31.5355 24.6363 31.6935 24.6916C31.8515 24.7469 32.1069 24.8451 32.2953 24.7653C32.4837 24.6855 32.5932 24.6733 32.6175 24.5259C32.6419 24.3785 32.7026 24.2865 32.8303 24.2619C32.9579 24.2373 33.0431 24.0899 33.1159 24.004C33.1889 23.918 33.1159 23.9488 33.3044 23.9549C33.4928 23.961 33.6691 23.7584 33.7359 23.8136C33.8028 23.8689 34.0034 23.9856 34.131 24.1084C34.2586 24.2312 34.4349 24.268 34.4045 24.4522C34.3741 24.6364 34.362 24.85 34.4835 24.7954C34.6051 24.7408 34.5625 24.575 34.6415 24.4952C34.7206 24.4154 34.8239 24.489 34.8118 24.3478C34.7997 24.2066 34.5929 24.1697 34.4835 24.0408C34.3741 23.9119 34.289 23.7707 34.4227 23.8136C34.5564 23.8566 34.8117 23.9733 34.8361 24.0715C34.8604 24.1698 35.0853 24.3724 35.1096 24.5627C35.1339 24.7531 35.2676 24.925 35.3284 24.8267C35.3892 24.7285 35.3345 24.6548 35.4682 24.6303C35.6019 24.6057 35.5533 24.5075 35.6263 24.3785C35.6992 24.2496 35.8998 24.44 35.9727 24.2004C36.0457 23.961 35.8816 23.8785 36.0639 23.7479C36.2463 23.6172 36.3253 23.5312 36.3799 23.6479C36.4346 23.7645 36.5744 23.8873 36.6413 23.7645C36.7082 23.6418 36.5198 23.6049 36.6778 23.5128C36.8358 23.4207 36.9757 23.3102 36.9331 23.4698C36.8906 23.6294 36.8298 23.7338 36.9392 23.8444C37.0486 23.9549 37.3707 24.0224 37.1945 24.1206C37.0182 24.2189 36.763 24.1636 36.5258 24.268C36.2888 24.3724 36.2523 24.3232 36.1915 24.5198C36.1307 24.7162 36.1246 24.7777 36.3252 24.7777C36.5257 24.7777 36.617 24.6364 36.6716 24.8145C36.7263 24.9926 36.7142 25.3916 36.6291 25.4285C36.544 25.4653 36.5076 25.4101 36.1307 25.4531C35.7538 25.496 35.772 25.5882 35.4681 25.4346C35.1641 25.2811 35.0912 25.0908 34.9818 25.2811C34.8723 25.4714 34.9514 25.5683 34.7143 25.5199C34.4773 25.4714 34.6474 25.3671 34.3314 25.2873C34.0153 25.2075 33.9545 25.2321 33.9545 25.0909C33.9545 24.9496 33.997 24.7654 33.7478 24.747C33.4985 24.7287 33.0609 24.833 32.7022 24.9374C32.3436 25.0418 32.4165 24.9128 32.0032 25.0601C31.5898 25.2075 31.3345 25.2566 31.2919 25.4838C31.2494 25.711 31.1096 25.8399 31.0184 25.9627C30.9273 26.0855 30.8786 26.6259 30.8543 26.9574C30.83 27.2889 30.9152 27.1354 30.8239 27.381C30.7327 27.6266 30.988 28.0134 31.0914 28.1177C31.1947 28.2221 31.5291 28.5536 31.7418 28.5782C31.9546 28.6028 31.9363 28.4984 32.2645 28.5475C32.5928 28.5966 32.5868 28.4063 32.9211 28.4923C33.2554 28.5782 33.377 28.6397 33.5715 28.7441C33.766 28.8485 33.7843 28.9344 33.7843 29.1862C33.7843 29.4379 33.7964 29.2476 33.9727 29.6037C34.149 29.9598 34.459 30.2913 34.2766 30.5983C34.0943 30.9053 34.0152 30.9605 34.1307 31.2491C34.2462 31.5377 34.5684 32.121 34.6049 32.4157C34.6414 32.7105 34.5502 32.7288 34.5867 32.9069C34.6232 33.085 34.9515 33.2815 35.2493 33.1587C35.5472 33.0359 35.6383 33.0298 35.8815 32.8026C36.1246 32.5754 36.3678 32.7474 36.5502 32.2746C36.7326 31.8018 36.6717 31.7465 36.7507 31.5562C36.8298 31.3659 37.3039 31.0896 37.3221 30.7458C37.3403 30.4019 37.2188 30.1441 37.2613 29.8126C37.3038 29.481 37.3343 29.1925 37.6503 28.9284C37.9664 28.6644 38.0393 28.9223 38.2582 28.425C38.477 27.9277 38.7384 27.8049 38.4952 27.811C38.252 27.8172 37.7779 28.0136 37.5774 27.9031C37.3768 27.7926 37.0485 27.2891 36.9816 27.0558C36.9148 26.8225 36.9391 26.9392 36.8236 26.6076C36.7081 26.276 36.5987 26.1041 36.5501 25.9751C36.5015 25.8462 36.4711 25.6191 36.617 25.8033C36.7629 25.9875 36.9027 26.2638 37.0972 26.6874C37.2917 27.111 37.4072 27.4365 37.5774 27.504C37.7477 27.5716 37.8024 27.6514 38.0577 27.547C38.313 27.4426 38.4041 27.4304 38.6473 27.2952C38.8904 27.1601 39.0363 27.1356 39.2127 26.9575C39.389 26.7795 39.7901 26.7058 39.3464 26.5339C38.9027 26.362 38.7507 26.4602 38.6231 26.2638C38.4955 26.0673 38.2887 25.8708 38.4772 25.9016C38.6656 25.9323 38.5927 25.9875 38.8055 26.0305C39.0182 26.0734 39.1702 25.9767 39.2857 26.1325C39.4012 26.2884 39.5957 26.3989 39.7781 26.3129C39.9604 26.2269 40.0334 26.1778 40.2279 26.2883C40.4224 26.3988 40.2948 26.7119 40.5866 26.7978C40.8784 26.8838 40.927 26.5645 40.9878 26.9698C41.0486 27.3751 41.1641 27.7495 41.2674 27.8294C41.3707 27.9092 41.2127 28.2776 41.5409 28.1794C41.8691 28.0811 41.9664 28.0934 41.9664 27.7496C41.9664 27.4058 41.9542 27.3198 42.1304 27.197C42.3068 27.0742 42.5499 26.9514 42.6593 26.8224C42.7687 26.6935 42.7018 26.6136 42.9207 26.6382C43.1395 26.6628 43.6805 27.2768 43.6561 27.4057C43.6318 27.5346 43.6075 27.5838 43.7108 27.6636C43.8142 27.7434 43.8081 27.768 43.8871 28.0565C43.9661 28.3451 43.9479 28.302 44.1971 28.5723C44.4464 28.8424 44.7989 29.0328 44.7685 28.8363C44.7381 28.6398 44.6165 28.6643 44.5071 28.3512C44.3977 28.0381 44.2701 27.7556 44.416 27.8355C44.5619 27.9153 44.5193 28.032 44.6713 28.0566C44.8232 28.0812 44.8476 27.9031 44.9631 27.8478C45.0786 27.7926 45.2853 27.3443 45.1211 27.1479C44.957 26.9514 44.7868 26.8163 44.957 26.755C45.1273 26.6935 45.0481 26.7366 45.2488 26.7733C45.4494 26.8102 45.3886 26.7119 45.6317 26.6444C45.8748 26.5769 46.2275 26.4663 46.4159 26.2208C46.6043 25.9752 46.811 25.9016 46.7563 25.5761C46.7016 25.2507 46.6287 25.1095 46.5132 25.0235C46.3977 24.9375 46.3916 24.8761 46.4949 24.8393C46.5983 24.8024 46.8657 24.7963 46.7138 24.7165C46.5618 24.6367 46.6348 24.6796 46.4584 24.6367C46.2821 24.5937 46.0937 24.6796 46.2517 24.5323C46.4097 24.3849 46.5313 24.2621 46.5313 24.2621C46.5313 24.2621 46.4888 24.2929 46.5921 24.4034C46.6955 24.5139 46.7624 24.4648 46.811 24.4402C46.8596 24.4156 47.0055 24.3113 47.0238 24.428C47.042 24.5446 46.8353 24.6306 46.9569 24.6735C47.0784 24.7165 47.1878 24.606 47.1392 24.827C47.0906 25.0481 47.1878 25.2507 47.2912 25.1401C47.3946 25.0296 47.5465 24.7042 47.5161 24.5691C47.4857 24.4341 47.3823 24.5016 47.5222 24.256C47.662 24.0105 47.662 23.8385 47.8505 23.8692C48.0389 23.8999 48.2213 23.7157 48.2942 23.642C48.3672 23.5684 48.6772 23.3964 48.7258 23.1877C48.7744 22.9789 48.7501 22.9483 48.8169 22.7087C48.8838 22.4693 49.0297 22.4693 48.8473 22.3588C48.6649 22.2483 48.5251 22.2729 48.4948 22.15C48.4644 22.0272 48.9811 21.4316 49.206 21.3396C49.4309 21.2475 49.5889 21.2905 49.7409 21.3579C49.8929 21.4255 49.9415 21.493 50.0813 21.407C50.2211 21.3211 50.3123 21.2719 50.3913 21.2658C50.4703 21.2597 50.6891 21.0938 50.7803 21.1675C50.8714 21.2412 50.8836 21.321 50.9931 21.2719C51.1025 21.2228 51.2484 20.9649 51.297 21.057C51.3456 21.149 51.3335 21.2596 51.1997 21.4376C51.0659 21.6157 50.9504 21.6465 50.7803 21.7876C50.61 21.9288 50.5432 22.0762 50.5432 22.2051C50.5432 22.334 50.4946 22.7639 50.5614 22.77C50.6283 22.7761 50.6465 22.7577 50.8228 22.5306C50.9991 22.3034 51.0903 22.2911 51.2058 22.2051C51.3213 22.1192 51.3638 22.0148 51.3821 21.8122C51.4004 21.6096 51.2727 21.5604 51.4611 21.4561C51.6495 21.3517 51.8744 21.2412 52.0629 21.2719C52.2513 21.3026 52.2088 21.2965 52.3486 21.1553C52.4884 21.014 52.5856 20.922 52.7315 20.9342C52.8774 20.9465 53.1145 20.9772 53.151 20.9035C53.1874 20.8298 53.157 20.7685 53.1631 20.6641C53.1692 20.5597 53.157 20.5167 53.2969 20.4798C53.4367 20.443 53.4305 20.3939 53.4974 20.3693C53.5643 20.3447 53.6069 20.4184 53.7163 20.4614C53.8257 20.5044 54.0932 20.5105 54.154 20.4307C54.2147 20.3507 54.312 20.2831 54.312 20.2831Z" fill="#9FA6A9"/>
<path d="M48.975 23.6232C49.0544 23.6527 49.206 23.7767 49.2972 23.7705C49.3883 23.7644 49.437 23.8872 49.3641 23.8995C49.2911 23.9117 49.048 24.0284 49.048 24.0284C49.048 24.0284 48.9751 23.9363 48.9325 24.0284C48.89 24.1204 48.8657 24.188 48.8779 24.2433C48.89 24.2985 48.9752 24.4582 48.9265 24.538C48.8779 24.6178 48.811 24.6608 48.811 24.7591C48.811 24.8573 48.8718 24.9617 48.7866 25.0046C48.7016 25.0476 48.6164 25.0599 48.5435 25.0844C48.4706 25.109 48.4159 25.1151 48.3855 25.1827C48.3551 25.2503 48.2821 25.3484 48.1302 25.3423C47.9782 25.3362 47.9782 25.2134 47.8384 25.3301C47.6986 25.4467 47.6925 25.5143 47.6195 25.4836C47.5466 25.4528 47.6013 25.4099 47.6195 25.2932C47.6377 25.1766 47.3703 25.2073 47.6135 25.0722C47.8566 24.9371 47.8566 24.9187 48.0208 24.8941C48.1849 24.8695 48.2761 24.9493 48.3429 24.8082C48.4098 24.6669 48.3429 24.6117 48.4766 24.6056C48.6104 24.5994 48.6955 24.6609 48.7198 24.5073C48.7441 24.3538 48.7258 24.2249 48.7198 24.1266C48.7137 24.0284 48.6772 23.9363 48.7866 23.8995C48.8961 23.8626 48.9082 23.9302 48.9204 23.8442C48.9324 23.7582 48.8595 23.5802 48.975 23.6232Z" fill="#9FA6A9"/>
<path d="M46.5314 26.9511C46.6469 26.9696 46.7015 27.1783 46.6652 27.2642C46.6287 27.3501 46.5922 27.4484 46.6956 27.4668C46.7989 27.4853 46.8719 27.4975 46.8719 27.5712C46.8719 27.6449 46.9144 27.4914 46.9934 27.6879C47.0724 27.8843 46.9995 27.915 47.0907 28.0624C47.1819 28.2098 47.2913 28.2834 47.1637 28.3571C47.0361 28.4308 47.1333 28.5106 46.9996 28.4677C46.8659 28.4247 46.9206 28.4492 46.8537 28.3203C46.7868 28.1914 46.7443 28.2957 46.6835 28.2896C46.6227 28.2834 46.6045 28.2834 46.6531 28.1975C46.7017 28.1116 46.7261 28.1177 46.6714 28.0194C46.6167 27.9212 46.7018 27.8045 46.6228 27.7861C46.5438 27.7677 46.5194 27.9028 46.3797 27.9887C46.2399 28.0746 46.0332 28.0992 46.0393 28.0685C46.0453 28.0378 46.1244 27.9948 46.2521 27.8352C46.3797 27.6756 46.4588 27.7738 46.4344 27.5282C46.4101 27.2827 46.325 27.3501 46.404 27.1783C46.4828 27.0064 46.5314 26.9511 46.5314 26.9511Z" fill="#9FA6A9"/>
<path d="M46.1423 28.3445C46.2344 28.4375 46.3551 28.4121 46.3186 28.5041C46.2822 28.5962 46.1739 28.6085 46.2341 28.7006C46.2943 28.7928 46.3491 28.9278 46.4281 28.9155C46.5071 28.9033 46.501 28.8418 46.6955 28.8418C46.89 28.8418 47.0116 28.7989 47.0238 28.8787C47.0359 28.9585 46.9387 28.9646 46.811 29.0813C46.6834 29.1979 46.5557 29.3146 46.659 29.3883C46.7624 29.4619 46.8049 29.5971 46.7685 29.6462C46.732 29.6952 46.6955 29.7444 46.7806 29.8058C46.8657 29.8672 47.273 29.8487 47.1757 29.9961C47.0784 30.1435 46.8413 30.2233 46.5921 30.2294C46.3428 30.2355 46.5432 30.1619 46.0388 30.1128C45.5344 30.0637 45.4493 30.1926 45.0968 30.0207C44.7443 29.8487 44.5132 29.9961 44.3187 29.683C44.1242 29.3699 44.2032 29.5234 43.96 29.1979C43.7169 28.8726 43.8324 28.8726 43.6257 28.7436C43.419 28.6147 43.2427 28.4305 43.3826 28.4305C43.5224 28.4305 43.4555 28.2647 43.8871 28.6269C44.3186 28.9891 44.2031 28.9708 44.5193 29.1857C44.8353 29.4006 44.9387 29.4251 45.0542 29.4006C45.1696 29.376 45.3399 29.4006 45.2305 29.2594C45.121 29.1181 45.0602 28.9401 45.1515 28.9094C45.2427 28.8787 45.2365 29.0322 45.3885 28.8664C45.5405 28.7007 45.5405 28.6576 45.6742 28.6024C45.808 28.5472 45.735 28.6024 45.8627 28.5226C45.9904 28.4428 46.039 28.2401 46.1423 28.3445Z" fill="#9FA6A9"/>
<path d="M47.814 29.057C47.8801 29.1428 47.9903 29.2534 48.0389 29.3456C48.0875 29.4377 48.1787 29.2676 48.3549 29.2728C48.5312 29.278 48.7926 29.3762 48.9021 29.4254C49.0115 29.4746 49.1999 29.5052 49.3154 29.6648C49.4309 29.8244 49.516 29.7324 49.5221 29.892C49.5282 30.0516 49.5525 30.0332 49.6558 30.1253C49.7592 30.2174 49.7774 30.3893 49.595 30.3156C49.4126 30.2419 49.3579 29.9903 49.1634 30.0148C48.9689 30.0394 49.048 30.0946 48.896 30.1253C48.744 30.156 48.6771 30.1007 48.4948 30.0885C48.3124 30.0762 48.1787 30.1375 48.2638 29.9718C48.3489 29.8061 48.4097 29.7999 48.1118 29.6771C47.814 29.5543 47.6985 29.6156 47.6985 29.4867C47.6985 29.3578 47.7471 29.3455 47.6316 29.235C47.5161 29.1244 47.4796 29.0446 47.5526 28.9893C47.6255 28.9341 47.7714 29.0017 47.814 29.057Z" fill="#9FA6A9"/>
<path d="M48.1666 30.8251C48.3672 30.9295 48.4462 31.1382 48.5435 31.1013C48.6408 31.0645 48.6043 31.0031 48.6772 30.7821C48.7501 30.561 48.7562 30.3339 48.8474 30.426C48.9386 30.5181 48.8535 30.6978 48.9994 30.7554C49.1453 30.8128 49.1757 30.8559 49.2061 31.0277C49.2365 31.1997 49.2669 31.1444 49.4189 31.3225C49.5708 31.5006 49.7073 31.4698 49.7333 31.6724C49.7593 31.875 50.0146 32.0838 50.0267 32.2925C50.0389 32.5013 50.0753 32.6486 49.9234 32.9126C49.7714 33.1766 49.7106 33.3117 49.662 33.4223C49.6134 33.5328 49.4675 33.588 49.3095 33.588C49.1514 33.588 49.0602 33.5205 48.963 33.5451C48.8657 33.5697 48.7989 33.6924 48.6834 33.6065C48.5679 33.5206 48.501 33.41 48.4646 33.3425C48.4281 33.2749 48.4099 33.0477 48.2397 33.0723C48.0695 33.0969 48.0938 33.1829 47.9904 33.0723C47.887 32.9618 47.96 32.8697 47.6561 32.8206C47.3521 32.7715 47.2731 32.7469 47.1454 32.7776C47.0178 32.8083 46.884 32.8513 46.7442 32.9618C46.6044 33.0723 46.3855 33.0171 46.264 33.0723C46.1424 33.1275 45.96 33.2504 45.8263 33.1767C45.6925 33.103 45.7412 33.0662 45.7473 32.8943C45.7533 32.7224 45.7412 32.8391 45.6561 32.5444C45.571 32.2496 45.6075 32.2926 45.5285 32.1515C45.4495 32.0102 45.3887 32.0778 45.4981 31.8752C45.6075 31.6726 45.571 31.6296 45.6318 31.5621C45.6926 31.4945 45.7473 31.5805 45.954 31.4393C46.1607 31.2981 46.2214 31.3595 46.4099 31.2858C46.5983 31.2121 46.6408 30.9297 46.7563 30.8437C46.8718 30.7578 46.9022 30.6902 46.9873 30.6902C47.0724 30.6902 47.1697 30.7393 47.3216 30.8007C47.4736 30.8622 47.4432 30.8683 47.5709 30.7271C47.6985 30.5858 47.5709 30.4508 47.8019 30.4753C48.0328 30.4999 48.1179 30.463 48.1483 30.5981C48.1787 30.733 48.1666 30.8251 48.1666 30.8251Z" fill="#9FA6A9"/>
<path d="M52.3852 33.7234C52.5067 33.5638 52.5675 33.5453 52.525 33.3611C52.4825 33.1769 52.4946 33.0325 52.6526 33.1968C52.8106 33.3611 52.9869 33.4533 53.1085 33.4594C53.2301 33.4655 53.5219 33.5577 53.224 33.7848C52.9261 34.012 52.9809 33.8524 52.7438 34.1901C52.5067 34.5278 52.6891 34.5339 52.4034 34.6997C52.1176 34.8654 51.8016 34.9391 51.8624 34.7918C51.9232 34.6444 51.8928 34.6444 52.1542 34.448C52.4156 34.2515 52.5857 34.1042 52.5857 33.9384C52.5857 33.7726 52.3852 33.7234 52.3852 33.7234Z" fill="#9FA6A9"/>
<path d="M37.8692 32.0653C37.7598 31.9057 37.7598 31.8565 37.7477 31.5987C37.7356 31.3408 37.6504 31.218 37.7477 31.0707C37.845 30.9233 38.1002 30.6777 38.1975 30.5058C38.2948 30.3339 38.3191 29.9655 38.3799 30.297C38.4407 30.6285 38.6352 30.825 38.3434 31.2671C38.0516 31.7091 37.8692 32.0653 37.8692 32.0653Z" fill="#9FA6A9"/>
<path d="M32.0217 22.9293C31.9973 22.8802 32.1067 22.7205 32.1067 22.7205C32.1067 22.7205 32.2405 22.6469 32.204 22.3767C32.1676 22.1066 32.1432 22.2662 32.046 22.0083C31.9487 21.7504 31.8029 21.7995 31.9487 21.6276C32.0946 21.4557 32.2648 21.1979 32.3012 21.4066C32.3377 21.6153 32.2526 21.7504 32.3377 21.8487C32.4228 21.9469 32.593 21.9672 32.6902 22.1289C32.7875 22.2907 33.1765 22.3521 32.8847 22.5608C32.5929 22.7696 32.4593 22.6345 32.3498 22.7819C32.2404 22.9293 32.0217 22.9293 32.0217 22.9293Z" fill="#9FA6A9"/>
<path d="M31.6326 22.7329C31.8271 22.6224 31.8982 22.647 31.8869 22.4505C31.8757 22.254 32.0095 22.082 31.8027 22.0698C31.5961 22.0575 31.5353 22.1803 31.5109 22.2662C31.4866 22.3522 31.4866 22.3768 31.5474 22.4627C31.6082 22.5486 31.6204 22.6715 31.596 22.7329C31.5718 22.7944 31.6326 22.7329 31.6326 22.7329Z" fill="#9FA6A9"/>
<path d="M30.9274 20.8172C31.0854 20.7066 31.3408 20.8049 31.3529 20.5715C31.365 20.3382 31.4258 20.2768 31.0733 20.2523C30.7208 20.2277 30.7208 20.2277 30.5019 20.2523C30.2831 20.2769 30.0765 20.0558 30.2466 20.3874C30.4168 20.719 30.4411 20.7927 30.5749 20.8172C30.7087 20.8417 30.9274 20.8172 30.9274 20.8172Z" fill="#9FA6A9"/>
<path d="M55.4001 19.9329C55.2103 19.7138 54.9016 19.6996 55.1447 19.5645C55.3878 19.4295 55.5337 19.3435 55.7648 19.2944C55.9958 19.2453 56.239 19.3435 56.6158 19.4417C56.9927 19.54 57.6006 19.454 57.8802 19.54C58.1598 19.6259 58.2936 19.7979 58.3787 19.7856C58.4637 19.7733 58.7069 19.5154 58.95 19.5154C59.1932 19.5154 59.3148 19.4786 59.8132 19.54C60.3116 19.6014 60.7979 19.6259 60.8101 19.7488C60.8222 19.8716 60.8222 19.933 61.0046 19.933C61.1869 19.933 61.345 19.8225 61.4544 19.9944C61.5638 20.1664 61.734 20.2892 61.7097 20.1541C61.6854 20.019 61.5638 19.9085 61.6611 19.8593C61.7584 19.8102 62.038 19.7856 62.1109 19.8102C62.1839 19.8348 62.4149 19.8717 62.4878 19.8593C62.5608 19.8471 62.5122 19.7242 62.7553 19.7979C62.9984 19.8716 63.0349 20.0558 63.0835 20.068C63.1321 20.0803 63.2416 19.8792 63.2537 19.7465C63.2658 19.6137 63.3752 19.6137 63.1565 19.4418C62.9376 19.2699 63.1353 19.0612 63.2918 19.1348C63.4482 19.2085 63.351 19.3068 63.509 19.4664C63.667 19.626 63.6914 19.7611 63.8008 19.712C63.9102 19.6629 63.8494 19.4541 63.9953 19.6137C64.1412 19.7733 64.1777 19.6929 64.3114 19.6655C64.4451 19.6382 64.3357 19.5523 64.4937 19.6382C64.6518 19.7241 64.9192 19.8224 64.7247 19.982C64.5302 20.1416 64.2384 20.1171 64.0318 20.2399C63.8251 20.3627 63.8859 20.3258 63.8251 20.4732C63.7643 20.6206 63.7886 20.6328 63.5455 20.6943C63.3023 20.7557 63.2294 20.7065 63.2416 20.9153C63.2537 21.1241 63.2294 21.1486 63.1443 21.2591C63.0592 21.3697 63.1078 21.4679 63.2051 21.517C63.3024 21.5661 63.4117 21.4802 63.4117 21.6276C63.4117 21.7749 63.5941 21.8855 63.8372 21.8855C64.0803 21.8855 64.1897 21.9469 64.3356 22.131C64.4815 22.3152 64.2748 22.3275 64.518 22.5608C64.7611 22.7941 64.9922 22.9046 65.0286 22.6959C65.0651 22.4872 65.0286 22.438 65.0651 22.1924C65.1016 21.9469 65.3326 21.9223 65.211 21.7012C65.0895 21.4802 64.9071 21.382 65.0773 21.2591C65.2475 21.1364 65.0408 21.0229 65.3326 20.963C65.6244 20.9031 65.8189 20.8539 65.9404 21.0749C66.062 21.296 65.9283 21.4434 66.0499 21.5415C66.1714 21.6398 66.5483 21.4924 66.6212 21.4065C66.6942 21.3206 66.9008 21.3328 66.9738 21.6521C67.0467 21.9713 67.0953 22.0573 67.2047 22.0942C67.3142 22.131 67.3142 22.2047 67.4479 22.3275C67.5816 22.4502 67.8369 22.6467 67.4479 22.6835C67.0589 22.7204 66.7428 22.6713 66.5969 22.8063C66.451 22.9414 66.4389 22.8432 66.5361 23.0274C66.6334 23.2116 66.5604 23.0888 66.6334 23.3221C66.7063 23.5554 67.0711 23.5554 66.8035 23.715C66.536 23.8747 66.5847 23.9115 66.4266 23.8624C66.2686 23.8133 66.2321 23.4607 66.0498 23.7475C65.8674 24.0344 65.8917 24.1449 65.7337 24.2308C65.5757 24.3168 65.5635 24.1449 65.4177 24.415C65.2718 24.6852 65.5027 24.7098 65.1745 25.0168C64.8463 25.3237 64.6882 25.1764 64.6639 25.4343C64.6396 25.6922 64.7977 25.9991 64.7125 26.0606C64.6274 26.122 64.6396 26.1097 64.5424 25.9378C64.4451 25.7658 64.4937 25.6677 64.1533 25.6431C63.8129 25.6185 63.8373 25.5325 63.7035 25.6799C63.5698 25.8273 63.7521 25.8764 63.3753 25.8273C62.9984 25.7782 62.9498 25.3238 62.8768 25.8519C62.8039 26.3799 62.7917 26.4412 62.9133 26.5886C63.0349 26.736 63.3631 27.0921 63.509 26.9324C63.6549 26.7728 63.4725 26.5764 63.7522 26.6377C64.0318 26.6991 64.1047 26.6255 64.0561 26.7851C64.0075 26.9447 63.6307 26.9693 63.9346 27.1166C64.2385 27.264 64.4938 27.0921 64.5181 27.3254C64.5424 27.5588 64.4816 27.6202 64.4937 27.7552C64.5059 27.8902 64.5667 27.9885 64.8463 27.9885C65.1259 27.9885 65.1137 27.878 65.1867 28.0254C65.2596 28.1727 65.4906 28.099 65.5879 27.8902C65.6852 27.6814 65.7581 27.4481 65.904 27.6938C66.0499 27.9393 66.0741 27.9885 66.22 27.8902C66.3659 27.792 66.3659 27.792 66.3659 27.792C66.3659 27.792 66.5239 27.6446 66.6577 27.7674C66.7915 27.8902 67.0102 27.7551 67.0589 27.927C67.1075 28.0989 67.0346 28.1235 67.2413 28.1849C67.448 28.2463 67.6911 28.148 67.8127 28.3199C67.9342 28.4919 67.606 28.3813 67.9586 28.5901C68.3111 28.7989 68.4205 28.8234 68.3963 28.9585C68.3719 29.0936 68.4692 29.1181 68.7853 29.1918C69.1013 29.2655 69.0527 29.2286 69.308 29.4251C69.5634 29.6215 69.77 29.5356 69.8552 29.6339C69.9402 29.7322 70.0861 29.7567 69.9646 30.0268C69.843 30.2969 69.7215 30.2356 69.6242 30.4443C69.5269 30.6531 69.4418 30.7022 69.4662 31.0706C69.4905 31.439 69.5026 31.4022 69.4297 31.5864C69.3567 31.7706 69.0893 31.7951 68.8704 31.9302C68.6516 32.0654 68.6395 31.9548 68.4936 32.3232C68.3477 32.6916 68.4327 32.4951 68.3112 32.8144C68.1896 33.1336 68.3598 32.974 68.0073 33.1582C67.6547 33.3424 67.521 33.1828 67.4845 33.2933C67.448 33.4038 67.6912 33.3179 67.4359 33.5512C67.1806 33.7845 67.0711 33.8459 66.9131 33.9441C66.7551 34.0423 66.6578 34.1529 66.6943 34.3616C66.7307 34.5703 66.9131 34.5581 66.7064 34.7545C66.4997 34.951 66.4146 34.7545 66.3539 35.0738C66.293 35.393 66.2323 35.2457 66.293 35.5772C66.3539 35.9088 66.6699 35.9088 66.3781 36.093C66.0863 36.2772 65.7703 36.3632 65.5879 35.9211C65.4055 35.479 65.4055 35.3072 65.4055 35.0124C65.4055 34.7177 65.3691 34.9388 65.5149 34.4353C65.6608 33.9319 65.4177 34.1037 65.5393 33.5512C65.6608 32.9986 65.6366 32.4092 65.7581 32.0039C65.8797 31.5987 66.1471 31.7092 65.8797 31.3409C65.6122 30.9724 65.5636 31.0339 65.3327 30.7882C65.1017 30.5427 65.2476 30.5918 65.1138 30.297C64.98 30.0023 64.895 30.0269 64.7855 29.8058C64.6761 29.5848 64.6153 29.6585 64.7247 29.2901C64.8341 28.9217 64.591 28.9341 64.8341 28.8235C65.0773 28.713 65.0409 28.4429 65.0044 28.3446C64.9679 28.2463 65.1868 28.2095 64.8464 28.1604C64.506 28.1113 64.4087 28.2218 64.2871 28.013C64.1656 27.8042 64.2628 27.7675 64.0075 27.6446C63.7522 27.5218 63.4726 27.5218 63.3753 27.4235C63.278 27.3253 63.278 27.3253 63.278 27.3253C63.278 27.3253 63.4604 27.2516 63.0471 27.2025C62.6337 27.1534 62.3298 27.2025 62.1231 26.9078C61.9164 26.613 61.965 26.785 61.9164 26.5148C61.8678 26.2447 61.8069 26.2447 61.6124 26.0727C61.4179 25.9009 61.4179 25.8026 61.2356 25.7289C61.0532 25.6552 61.0167 25.6798 61.0167 25.7167C61.0167 25.7535 61.0046 25.9009 61.1747 26.0359C61.345 26.171 61.3571 26.2938 61.3571 26.3551C61.3571 26.4166 61.1261 26.4902 61.1261 26.4902C61.1261 26.4902 61.1261 26.4166 61.0532 26.2447C60.9802 26.0727 60.9559 25.9868 60.81 25.7781C60.6641 25.5694 60.6276 25.5448 60.6276 25.5448C60.6276 25.5448 60.4574 25.2746 60.1657 24.9186C59.8739 24.5625 59.7888 24.7834 59.7888 24.3783C59.7888 23.973 59.8617 23.973 59.7888 23.6906C59.7158 23.4082 59.5457 23.2731 59.6915 23.224C59.8374 23.1749 59.9225 23.1012 59.655 22.8679C59.3876 22.6346 59.2903 22.7574 59.1931 22.4382C59.0958 22.1189 59.3025 22.1434 58.9013 21.9961C58.5 21.8487 58.4514 21.7259 58.2691 21.64C58.0867 21.5541 57.9773 21.505 57.9773 21.505C57.9773 21.505 58.0137 21.4681 57.5761 21.4313C57.1384 21.3944 57.187 21.1857 56.8588 21.3208C56.5305 21.4559 56.4819 21.4804 56.4819 21.4804C56.4819 21.4804 56.6643 21.2593 56.3482 21.2839C56.0322 21.3085 56.105 21.3822 56.0929 21.5296C56.0808 21.6769 56.1294 21.8488 55.9105 21.9348C55.6917 22.0208 55.3756 22.2541 55.4972 22.0085C55.6187 21.7629 55.9227 21.591 55.8132 21.5296C55.7038 21.4681 55.4728 21.6646 55.4485 21.4681C55.4241 21.2717 55.4728 21.1734 55.2175 21.1611C54.9622 21.1489 54.7556 21.0384 54.9501 20.9523C55.1446 20.8664 55.3269 20.9032 55.3878 20.6944C55.4486 20.4856 55.8984 20.4366 55.3999 20.4489C54.9015 20.4611 54.6826 20.4611 54.7434 20.363C54.8042 20.2647 54.7799 20.0806 55.1324 20.1297C55.4851 20.1785 55.4851 20.0311 55.4001 19.9329Z" fill="#9FA6A9"/>
</g>
<path d="M35.462 30.3968C35.4085 30.2753 35.3417 30.174 35.2548 30.093C35.1612 30.0119 35.0609 29.9512 34.9405 29.9039C34.8268 29.8633 34.6998 29.8431 34.5728 29.8431C34.439 29.8431 34.312 29.8634 34.1983 29.9039C34.185 29.9106 34.1649 29.9174 34.1515 29.9242C34.0579 29.9715 33.9643 30.0254 33.8907 30.093C33.7971 30.1741 33.7302 30.2754 33.6767 30.3969C33.6232 30.5118 33.5965 30.6536 33.5965 30.8022V32.1665C33.5965 32.3218 33.6232 32.4569 33.6767 32.5784C33.7301 32.7 33.797 32.7946 33.8907 32.8824C33.9776 32.9634 34.0846 33.0241 34.1983 33.0646C34.3119 33.1052 34.439 33.1254 34.5727 33.1254C34.6329 33.1254 34.6998 33.1187 34.7599 33.1119C34.8201 33.0985 34.8869 33.0849 34.9404 33.0646C35.0608 33.0241 35.1611 32.9634 35.2547 32.8824C35.3416 32.7946 35.4085 32.7 35.4619 32.5784C35.5155 32.4569 35.5422 32.3218 35.5422 32.1665V30.8022C35.5423 30.6535 35.5156 30.5116 35.462 30.3968ZM34.9605 32.1596C34.9605 32.3014 34.9205 32.4027 34.8536 32.4839C34.7867 32.5514 34.7064 32.5918 34.6062 32.5986H34.5728C34.4524 32.5986 34.3587 32.5581 34.2853 32.4839C34.2184 32.4027 34.1783 32.3015 34.1783 32.1596V30.8157C34.1783 30.7886 34.1783 30.7684 34.185 30.7481C34.185 30.7414 34.1917 30.7346 34.1917 30.7346C34.1983 30.6334 34.2317 30.559 34.2853 30.4915C34.2986 30.4781 34.312 30.4645 34.3253 30.4577C34.3922 30.3969 34.4725 30.3766 34.5728 30.3766C34.6865 30.3766 34.78 30.4104 34.8537 30.4915C34.9205 30.5725 34.9606 30.6806 34.9606 30.8157L34.9605 32.1596Z" fill="#CECECF"/>
<path d="M37.0133 29.8699L36.3646 30.444V31.0788L37.0133 30.5048V33.0982H37.6017V29.8699H37.0133Z" fill="#CECECF"/>
<path d="M38.6783 29.8699V30.91H39.2333V30.4034H40.0825L39.0394 33.0982H39.6746L40.711 30.4034V29.8699H38.6783Z" fill="#CECECF"/>
<path d="M43.1182 30.3971C43.0647 30.2755 42.9979 30.1742 42.911 30.0932C42.8174 30.0121 42.7171 29.9514 42.5967 29.9041C42.4764 29.8635 42.356 29.8434 42.229 29.8434C42.0952 29.8434 41.9682 29.8636 41.8545 29.9041C41.7342 29.9514 41.6339 30.0121 41.5469 30.0932C41.4533 30.1742 41.3798 30.2755 41.3329 30.3971C41.2795 30.5119 41.2527 30.6537 41.2527 30.8023V32.1666C41.2527 32.322 41.2795 32.457 41.3329 32.5785C41.3798 32.7002 41.4533 32.7947 41.5469 32.8825C41.6339 32.9636 41.7341 33.0243 41.8545 33.0648C41.9682 33.1053 42.0953 33.1256 42.229 33.1256C42.356 33.1256 42.4764 33.1053 42.5967 33.0648C42.717 33.0243 42.8174 32.9636 42.911 32.8825C42.9979 32.7947 43.0648 32.7002 43.1182 32.5785C43.1717 32.457 43.1985 32.322 43.1985 32.1666V30.8023C43.1984 30.6537 43.1717 30.5118 43.1182 30.3971ZM42.6101 32.1599C42.6101 32.3017 42.5767 32.4029 42.5098 32.4841C42.4362 32.5583 42.3426 32.5989 42.229 32.5989C42.1086 32.5989 42.015 32.5583 41.9415 32.4841C41.8747 32.4029 41.8345 32.3017 41.8345 32.1599V30.8159C41.8345 30.6808 41.8747 30.5727 41.9415 30.4917C42.015 30.4106 42.1086 30.3768 42.229 30.3768C42.3426 30.3768 42.4362 30.4106 42.5098 30.4917C42.5767 30.5727 42.6101 30.6808 42.6101 30.8159V32.1599Z" fill="#CECECF"/>
<path d="M48.0125 31.7208C47.9725 31.5993 47.9056 31.498 47.8253 31.4169C47.7451 31.3359 47.6582 31.2751 47.5579 31.2278C47.4576 31.1873 47.3505 31.167 47.2436 31.167C47.2035 31.167 47.1633 31.167 47.1233 31.1738C47.0832 31.1805 47.043 31.1872 47.0096 31.2075L47.2302 30.7686L47.6715 29.8703H47.0363L46.9695 30.0054V30.0121L46.8892 30.1742L46.361 31.2683C46.3543 31.2818 46.3476 31.2954 46.3409 31.3089C46.2741 31.4439 46.2206 31.5722 46.1738 31.7005C46.1203 31.8356 46.0935 31.9843 46.0935 32.1328C46.0935 32.2882 46.1136 32.4299 46.1671 32.5582C46.2206 32.6798 46.2874 32.7879 46.3811 32.8689C46.448 32.9365 46.5148 32.9838 46.6017 33.0243H46.6084C46.6352 33.0378 46.6686 33.0514 46.6953 33.0648C46.8156 33.1053 46.9494 33.1256 47.0899 33.1256C47.2302 33.1256 47.3573 33.1053 47.4776 33.0581C47.6046 33.0175 47.705 32.9501 47.7986 32.8622L47.8053 32.8554C47.8922 32.7676 47.9591 32.6732 48.0059 32.5448C48.0594 32.4232 48.0861 32.2814 48.0861 32.1193C48.0861 31.9707 48.0594 31.8423 48.0125 31.7208ZM47.0899 31.6533C47.2169 31.6533 47.3171 31.6938 47.3908 31.7816C47.4644 31.8627 47.5044 31.9843 47.5044 32.1261C47.5044 32.2746 47.4644 32.3961 47.3841 32.4772C47.3039 32.5582 47.2103 32.5988 47.0899 32.5988C46.9695 32.5988 46.8692 32.5582 46.7889 32.4772C46.7154 32.3961 46.6753 32.2746 46.6753 32.1261C46.6753 31.9774 46.7154 31.8559 46.7889 31.7749C46.8692 31.6938 46.9695 31.6533 47.0899 31.6533Z" fill="#CECECF"/>
<path d="M50.5937 31.5586C50.5669 31.4168 50.4866 31.275 50.3596 31.1535C50.2927 31.0859 50.2126 31.0319 50.1122 30.9913C50.0119 30.9508 49.8983 30.9306 49.7578 30.9306C49.6509 30.9306 49.5572 30.9509 49.4703 30.9847C49.3834 31.0184 49.3232 31.0521 49.2831 31.0927V30.4038H50.5736V29.8703H48.7482V31.6938H49.2831C49.3032 31.6331 49.3433 31.5722 49.4034 31.5182C49.4435 31.4777 49.4904 31.4506 49.5572 31.4439C49.5906 31.4304 49.6308 31.4304 49.6709 31.4304C49.8179 31.4304 49.9183 31.4845 49.9717 31.5789C50.0319 31.6802 50.0653 31.8222 50.0653 32.0112C50.0653 32.1125 50.052 32.207 50.0385 32.2949C50.0385 32.3084 50.0319 32.3151 50.0252 32.322C50.0252 32.3287 50.0252 32.3287 50.0252 32.3287C50.0051 32.3962 49.9784 32.4503 49.9383 32.4908C49.8647 32.565 49.7778 32.5989 49.6574 32.5989C49.5371 32.5989 49.4434 32.565 49.3833 32.4908C49.3231 32.4232 49.283 32.3287 49.2697 32.2004H48.6812C48.6946 32.3152 48.7146 32.4299 48.7481 32.5448C48.7815 32.6664 48.8417 32.7676 48.942 32.869C49.0089 32.9433 49.1092 32.9974 49.2296 33.0514C49.3432 33.1053 49.4904 33.1257 49.6575 33.1257C49.7177 33.1257 49.7645 33.1257 49.8113 33.1122H49.818C49.9183 33.1054 50.0052 33.0851 50.0855 33.0514C50.1991 32.9975 50.2927 32.9366 50.3663 32.8691C50.48 32.7475 50.5535 32.6192 50.5937 32.4842C50.6271 32.3491 50.6472 32.1937 50.6472 32.0114C50.6472 31.8558 50.6271 31.7072 50.5937 31.5586Z" fill="#CECECF"/>
<path d="M51.2021 29.8699V30.91H51.7571V30.4034H52.6063L51.5699 33.0982H52.1984L53.2415 30.4034V29.8699H51.2021Z" fill="#CECECF"/>
<path d="M55.6752 30.4173C55.6284 30.289 55.5549 30.1877 55.468 30.0999C55.3744 30.0189 55.2741 29.9513 55.1471 29.9109C55.0267 29.8635 54.8997 29.8433 54.7592 29.8433C54.6188 29.8433 54.4851 29.8635 54.3648 29.9109C54.2444 29.9582 54.1374 30.0256 54.0438 30.1067C53.9569 30.1944 53.89 30.3026 53.8365 30.4241C53.7831 30.5523 53.7563 30.6942 53.7563 30.8496C53.7563 31.0049 53.7831 31.14 53.8299 31.2547C53.8767 31.3696 53.9436 31.4709 54.0171 31.5519C54.0973 31.633 54.1909 31.7005 54.2912 31.741C54.3915 31.7883 54.4984 31.8086 54.6055 31.8086C54.6456 31.8086 54.6857 31.8086 54.7258 31.8019C54.7659 31.7951 54.8061 31.7815 54.8395 31.768L54.1775 33.0985H54.8126L55.488 31.7073C55.5616 31.5587 55.6218 31.4101 55.6752 31.2751C55.7287 31.1333 55.7554 30.9914 55.7554 30.8428C55.7554 30.6807 55.7287 30.5388 55.6752 30.4173ZM55.0534 31.194C54.9731 31.2751 54.8795 31.3156 54.7592 31.3156C54.6322 31.3156 54.5319 31.2751 54.4583 31.194C54.378 31.1062 54.3446 30.9913 54.3446 30.8496C54.3446 30.6942 54.3847 30.5794 54.4583 30.4984C54.5385 30.4173 54.6388 30.3767 54.7592 30.3767C54.8795 30.3767 54.9731 30.4173 55.0534 30.4984C55.1336 30.5794 55.167 30.6942 55.167 30.8496C55.1671 30.9982 55.1336 31.113 55.0534 31.194Z" fill="#CECECF"/>
<path d="M59.5066 29.8699L58.8513 30.444V31.0788L59.5066 30.5048V33.0982H60.0884V29.8699H59.5066Z" fill="#CECECF"/>
<path d="M61.1649 29.8699V30.91H61.7265V30.4034H62.569L61.5326 33.0982H62.1678L63.2042 30.4034V29.8699H61.1649Z" fill="#CECECF"/>
<path d="M64.6084 29.8699L63.9598 30.444V31.0788L64.6084 30.5048V33.0982H65.1968V29.8699H64.6084Z" fill="#CECECF"/>
<path d="M68.1923 30.4173C68.1455 30.289 68.072 30.1877 67.9851 30.0999C67.8915 30.0189 67.7911 29.9513 67.6641 29.9109C67.5438 29.8635 67.4167 29.8433 67.2764 29.8433C67.1359 29.8433 67.0022 29.8635 66.8818 29.9109C66.7615 29.9582 66.6545 30.0256 66.5608 30.1067C66.4739 30.1944 66.4003 30.3026 66.3536 30.4241C66.3001 30.5523 66.2733 30.6942 66.2733 30.8496C66.2733 31.0049 66.3001 31.14 66.3469 31.2547C66.3938 31.3696 66.4606 31.4709 66.5341 31.5519C66.6144 31.633 66.7013 31.7005 66.8082 31.741C66.9085 31.7883 67.0155 31.8086 67.1225 31.8086C67.1625 31.8086 67.2027 31.8086 67.2428 31.8019C67.2829 31.7951 67.323 31.7815 67.3565 31.768L66.6945 33.0985H67.3297L68.0051 31.7073C68.0786 31.5587 68.1388 31.4101 68.1923 31.2751C68.2457 31.1333 68.2725 30.9914 68.2725 30.8428C68.2726 30.6807 68.2459 30.5388 68.1923 30.4173ZM67.5705 31.194C67.4903 31.2751 67.3967 31.3156 67.2764 31.3156C67.1494 31.3156 67.049 31.2751 66.9754 31.194C66.8952 31.1062 66.8618 30.9913 66.8618 30.8496C66.8618 30.6942 66.9019 30.5794 66.9754 30.4984C67.0557 30.4173 67.1559 30.3767 67.2764 30.3767C67.3967 30.3767 67.4903 30.4173 67.5705 30.4984C67.6508 30.5794 67.6842 30.6942 67.6842 30.8496C67.6842 30.9982 67.6508 31.113 67.5705 31.194Z" fill="#CECECF"/>
<path d="M56.4241 38.3734C56.384 38.2856 56.3304 38.2113 56.2702 38.1505C56.2034 38.0898 56.1298 38.0425 56.0429 38.0155C55.9559 37.9817 55.8623 37.9682 55.7687 37.9682C55.6685 37.9682 55.5815 37.9817 55.4946 38.0155C55.4077 38.0426 55.3341 38.0898 55.2672 38.1505C55.2004 38.2113 55.1469 38.2856 55.1067 38.3734C55.0733 38.4612 55.0532 38.5625 55.0532 38.6706V39.6701C55.0532 39.785 55.0733 39.8863 55.1067 39.9741C55.1469 40.0619 55.2004 40.1362 55.2672 40.1969C55.3341 40.2577 55.4077 40.3049 55.4946 40.3319C55.5815 40.3657 55.6685 40.3792 55.7687 40.3792C55.8623 40.3792 55.9559 40.3657 56.0429 40.3319C56.1298 40.3049 56.2034 40.2577 56.2702 40.1969C56.3304 40.1362 56.3839 40.0619 56.4241 39.9741C56.4642 39.8863 56.4776 39.785 56.4776 39.6701V38.6706C56.4776 38.5626 56.4642 38.4613 56.4241 38.3734ZM56.0496 39.6702C56.0496 39.7715 56.0229 39.8458 55.9761 39.9066C55.9225 39.9606 55.8558 39.9876 55.7688 39.9876C55.6819 39.9876 55.615 39.9606 55.5616 39.9066C55.5081 39.8458 55.4813 39.7715 55.4813 39.6702V38.6774C55.4813 38.583 55.5081 38.5018 55.5616 38.441C55.6151 38.387 55.6819 38.36 55.7688 38.36C55.8558 38.36 55.9226 38.387 55.9761 38.441C56.0229 38.5018 56.0496 38.5829 56.0496 38.6774V39.6702Z" fill="#CECECF"/>
<path d="M58.3365 39.2312C58.3164 39.1231 58.2562 39.0218 58.1626 38.9272C58.1158 38.88 58.0557 38.8394 57.9821 38.8123C57.9085 38.7786 57.8216 38.7651 57.7213 38.7651C57.6478 38.7651 57.5743 38.7786 57.5141 38.8056C57.4472 38.8258 57.4005 38.8529 57.3737 38.8867V38.3734H58.3232V37.9884H56.9792V39.3256H57.3737C57.3871 39.2784 57.4206 39.2379 57.4607 39.1974C57.5074 39.1568 57.5676 39.1299 57.6612 39.1299C57.7615 39.1299 57.8351 39.1704 57.8818 39.2448C57.922 39.319 57.942 39.4204 57.942 39.5621C57.942 39.6364 57.942 39.7039 57.9287 39.7648C57.9153 39.8255 57.8886 39.8728 57.8551 39.9133C57.8016 39.9673 57.7348 39.9875 57.6479 39.9875C57.5609 39.9875 57.4874 39.9673 57.4473 39.9133C57.4005 39.8593 57.3737 39.7917 57.3604 39.6972H56.9324C56.9391 39.785 56.9525 39.866 56.9793 39.9538C57.006 40.0349 57.0528 40.1159 57.1264 40.1901C57.1732 40.2374 57.2467 40.2847 57.3337 40.3252C57.4206 40.359 57.5275 40.3792 57.6479 40.3792C57.7682 40.3792 57.8752 40.359 57.9622 40.3252C58.0424 40.2847 58.116 40.2374 58.1694 40.1834C58.2497 40.1024 58.3098 40.0078 58.3366 39.9066C58.3633 39.812 58.3767 39.6904 58.3767 39.5621C58.3766 39.4473 58.3632 39.3392 58.3365 39.2312Z" fill="#CECECF"/>
<path d="M59.56 37.7388L58.6172 40.6092H59.0183L59.9611 37.7388H59.56Z" fill="#CECECF"/>
<path d="M60.8505 37.9884L60.3691 38.4072V38.8732L60.8505 38.4545V40.359H61.2784V37.9884H60.8505Z" fill="#CECECF"/>
<path d="M62.7227 37.9884L62.2413 38.4072V38.8732L62.7227 38.4545V40.359H63.1507V37.9884H62.7227Z" fill="#CECECF"/>
<path d="M63.9732 39.2041V39.6093H64.9895V39.2041H63.9732Z" fill="#CECECF"/>
<path d="M66.8217 38.3734C66.7816 38.2856 66.7281 38.2113 66.6612 38.1505C66.601 38.0898 66.5208 38.0425 66.4339 38.0155C66.347 37.9817 66.26 37.9682 66.1664 37.9682C66.0661 37.9682 65.9792 37.9817 65.8923 38.0155C65.8054 38.0426 65.7318 38.0898 65.6649 38.1505C65.598 38.2113 65.5446 38.2856 65.5044 38.3734C65.4644 38.4612 65.4509 38.5625 65.4509 38.6706V39.6701C65.4509 39.785 65.4643 39.8863 65.5044 39.9741C65.5445 40.0619 65.598 40.1362 65.6649 40.1969C65.7318 40.2577 65.8054 40.3049 65.8923 40.3319C65.9792 40.3657 66.0661 40.3792 66.1664 40.3792C66.26 40.3792 66.347 40.3657 66.4339 40.3319C66.5208 40.3049 66.601 40.2577 66.6612 40.1969C66.7281 40.1362 66.7816 40.0619 66.8217 39.9741C66.8551 39.8863 66.8751 39.785 66.8751 39.6701V38.6706C66.8751 38.5626 66.8551 38.4613 66.8217 38.3734ZM66.4472 39.6702C66.4472 39.7715 66.4203 39.8458 66.3669 39.9066C66.3202 39.9606 66.2466 39.9876 66.1663 39.9876C66.0794 39.9876 66.0059 39.9606 65.9591 39.9066C65.9056 39.8458 65.8789 39.7715 65.8789 39.6702V38.6774C65.8789 38.583 65.9056 38.5018 65.9591 38.441C66.0059 38.387 66.0794 38.36 66.1663 38.36C66.2466 38.36 66.3202 38.387 66.3669 38.441C66.4204 38.5018 66.4472 38.5829 66.4472 38.6774V39.6702Z" fill="#CECECF"/>
<path d="M68.6938 38.3734C68.6537 38.2856 68.6002 38.2113 68.54 38.1505C68.4731 38.0898 68.3996 38.0425 68.3127 38.0155C68.2258 37.9817 68.1321 37.9682 68.0385 37.9682C67.9382 37.9682 67.8513 37.9817 67.7643 38.0155C67.6774 38.0426 67.6038 38.0898 67.537 38.1505C67.4702 38.2113 67.4166 38.2856 67.3765 38.3734C67.3431 38.4612 67.323 38.5625 67.323 38.6706V39.6701C67.323 39.785 67.3431 39.8863 67.3765 39.9741C67.4165 40.0619 67.4701 40.1362 67.537 40.1969C67.6038 40.2577 67.6774 40.3049 67.7643 40.3319C67.8513 40.3657 67.9382 40.3792 68.0385 40.3792C68.1321 40.3792 68.2257 40.3657 68.3127 40.3319C68.3996 40.3049 68.4732 40.2577 68.54 40.1969C68.6002 40.1362 68.6537 40.0619 68.6938 39.9741C68.7338 39.8863 68.7472 39.785 68.7472 39.6701V38.6706C68.7473 38.5626 68.7339 38.4613 68.6938 38.3734ZM68.3194 39.6702C68.3194 39.7715 68.2925 39.8458 68.2458 39.9066C68.1924 39.9606 68.1255 39.9876 68.0385 39.9876C67.9517 39.9876 67.8847 39.9606 67.8313 39.9066C67.7779 39.8458 67.7511 39.7715 67.7511 39.6702V38.6774C67.7511 38.583 67.7779 38.5018 67.8313 38.441C67.8848 38.387 67.9517 38.36 68.0385 38.36C68.1255 38.36 68.1924 38.387 68.2458 38.441C68.2926 38.5018 68.3194 38.5829 68.3194 38.6774V39.6702Z" fill="#CECECF"/>
<path d="M33.9308 33.9295V34.1457H34.2518V35.1655H34.4926V34.1457H34.8135V33.9295H33.9308Z" fill="#CECECF"/>
<path d="M35.8966 34.2538C35.8833 34.2133 35.8765 34.1795 35.8566 34.1457C35.8432 34.1119 35.8164 34.0781 35.783 34.0444C35.7429 34.0039 35.6961 33.9701 35.6426 33.9499C35.5891 33.9296 35.5289 33.9161 35.4621 33.9161C35.3885 33.9161 35.3283 33.9296 35.2749 33.9499C35.2215 33.9701 35.1746 34.0039 35.1345 34.0444C35.1011 34.0782 35.0743 34.112 35.061 34.1457C35.0408 34.1795 35.0342 34.2133 35.0209 34.2538C35.0142 34.2943 35.0142 34.3417 35.0075 34.3889V34.7063C35.0142 34.7535 35.0142 34.7941 35.0209 34.8346C35.0343 34.8751 35.0409 34.9157 35.061 34.9494C35.0743 34.9765 35.1011 35.0102 35.1345 35.044C35.1746 35.0845 35.2215 35.1183 35.2749 35.1385C35.3284 35.1656 35.3886 35.1723 35.4621 35.1723C35.529 35.1723 35.5892 35.1656 35.6426 35.1385C35.6961 35.1183 35.7429 35.0845 35.783 35.044C35.8164 35.0102 35.8432 34.9764 35.8566 34.9494C35.8766 34.9157 35.8833 34.8751 35.8966 34.8346C35.9033 34.7941 35.91 34.7535 35.91 34.7063V34.3889C35.91 34.3416 35.9033 34.2943 35.8966 34.2538ZM35.6693 34.6928C35.6693 34.7333 35.6626 34.7603 35.6559 34.7873C35.6559 34.8144 35.6492 34.8346 35.6425 34.8481C35.6359 34.8616 35.6224 34.8751 35.6091 34.8886C35.5957 34.9089 35.5757 34.9291 35.5489 34.9358C35.5222 34.9493 35.4954 34.9561 35.462 34.9561C35.4286 34.9561 35.3952 34.9493 35.3684 34.9358C35.3484 34.9291 35.3216 34.9088 35.3016 34.8886C35.2949 34.8751 35.2815 34.8616 35.2748 34.8481C35.2681 34.8346 35.2615 34.8143 35.2615 34.7873C35.2548 34.7602 35.2481 34.7333 35.2481 34.6928V34.3956C35.2481 34.3619 35.2548 34.3281 35.2615 34.3011C35.2615 34.274 35.2681 34.2538 35.2748 34.2404C35.2815 34.2269 35.2949 34.2133 35.3016 34.1998C35.3217 34.1795 35.3485 34.1661 35.3684 34.1526C35.3952 34.1391 35.4286 34.1323 35.462 34.1323C35.4954 34.1323 35.5222 34.1391 35.5489 34.1526C35.5757 34.1661 35.5958 34.1796 35.6091 34.1998C35.6224 34.2133 35.6359 34.2269 35.6425 34.2404C35.6492 34.2538 35.6559 34.2741 35.6559 34.3011C35.6626 34.3282 35.6693 34.3619 35.6693 34.3956V34.6928Z" fill="#CECECF"/>
<path d="M37.0467 34.1659C37.0334 34.1186 37.0066 34.078 36.9665 34.0443C36.9331 34.0038 36.8929 33.9768 36.8395 33.9565C36.7926 33.9362 36.7325 33.9294 36.6723 33.9294H36.1975V35.1654H36.4383V34.6995H36.6722C36.7324 34.6995 36.7925 34.686 36.8394 34.6656C36.8929 34.6453 36.933 34.6183 36.9664 34.5845C37.0066 34.5508 37.0333 34.5103 37.0466 34.463C37.0668 34.4156 37.0734 34.3618 37.0734 34.3144C37.0734 34.2605 37.0669 34.2132 37.0467 34.1659ZM36.7926 34.4361C36.7592 34.4631 36.7124 34.4834 36.6589 34.4834H36.4383V34.1457H36.6589C36.7124 34.1457 36.7591 34.1592 36.7926 34.1862C36.8194 34.22 36.8395 34.2605 36.8395 34.3145C36.8395 34.3618 36.8194 34.4023 36.7926 34.4361Z" fill="#CECECF"/>
<path d="M38.1233 34.1457V33.9295H37.3209V35.1655H38.1233V34.9493H37.5617V34.6455H38.043V34.4293H37.5617V34.1457H38.1233Z" fill="#CECECF"/>
<path d="M38.9524 34.909C38.919 34.9428 38.8721 34.9563 38.812 34.9563C38.7786 34.9563 38.7518 34.9495 38.7251 34.9428C38.6984 34.9293 38.6782 34.9158 38.6582 34.8955C38.6515 34.882 38.6381 34.8685 38.6315 34.8483C38.6248 34.8348 38.6181 34.8145 38.6114 34.7875C38.6114 34.7604 38.6047 34.7335 38.6047 34.693C38.6047 34.6525 38.5981 34.6051 38.5981 34.5444C38.5981 34.4837 38.6047 34.4364 38.6047 34.3959C38.6047 34.3622 38.6114 34.3283 38.6114 34.3014C38.6181 34.2743 38.6248 34.254 38.6315 34.2406C38.6381 34.2271 38.6515 34.2068 38.6582 34.2001C38.6782 34.1798 38.6984 34.1596 38.7251 34.1528C38.7518 34.1393 38.7786 34.1326 38.812 34.1326C38.8721 34.1326 38.919 34.1461 38.9524 34.1799C38.9858 34.2136 39.0059 34.2541 39.0192 34.3082H39.26C39.2399 34.1799 39.1864 34.0785 39.1062 34.0178C39.0259 33.9502 38.9256 33.9164 38.812 33.9164C38.7451 33.9164 38.6782 33.9299 38.6248 33.9503C38.5779 33.9705 38.5245 34.0043 38.4844 34.0448C38.4576 34.0785 38.4309 34.1124 38.4109 34.1461C38.3975 34.1799 38.3841 34.2136 38.3775 34.2541C38.3708 34.2947 38.3641 34.342 38.3641 34.3892V34.7066C38.3641 34.7538 38.3708 34.7944 38.3775 34.835C38.3841 34.8755 38.3976 34.916 38.4109 34.9498C38.431 34.9769 38.4577 35.0106 38.4844 35.0443C38.5245 35.0849 38.578 35.1186 38.6248 35.1389C38.6783 35.1659 38.7451 35.1727 38.812 35.1727C38.9256 35.1727 39.026 35.1389 39.1062 35.0781C39.1864 35.0106 39.2399 34.916 39.26 34.7809H39.0192C39.0059 34.8347 38.9858 34.8752 38.9524 34.909Z" fill="#CECECF"/>
<path d="M40.3699 34.3889C40.3699 34.3417 40.3632 34.2943 40.3566 34.2538C40.3499 34.2133 40.3364 34.1795 40.3165 34.1457C40.3031 34.1119 40.2764 34.0781 40.2496 34.0444C40.2095 34.0039 40.1627 33.9701 40.1092 33.9499C40.0557 33.9296 39.9955 33.9161 39.922 33.9161C39.8485 33.9161 39.7883 33.9296 39.7348 33.9499C39.6813 33.9701 39.6345 34.0039 39.5944 34.0444C39.561 34.0782 39.5409 34.112 39.5208 34.1457C39.5075 34.1795 39.494 34.2133 39.4874 34.2538C39.4807 34.2943 39.4741 34.3417 39.4741 34.3889C39.4741 34.4361 39.4674 34.4834 39.4674 34.5442C39.4674 34.605 39.4741 34.6591 39.4741 34.7063C39.4741 34.7536 39.4807 34.7941 39.4874 34.8347C39.4941 34.8752 39.5075 34.9158 39.5208 34.9495C39.5409 34.9766 39.5609 35.0103 39.5944 35.044C39.6345 35.0846 39.6813 35.1183 39.7348 35.1386C39.7883 35.1657 39.8485 35.1724 39.922 35.1724C39.9956 35.1724 40.0558 35.1657 40.1092 35.1386C40.1627 35.1183 40.2095 35.0846 40.2496 35.044C40.2764 35.0103 40.3031 34.9765 40.3165 34.9495C40.3365 34.9158 40.3499 34.8752 40.3566 34.8347C40.3632 34.7941 40.3699 34.7536 40.3699 34.7063C40.3699 34.6591 40.3766 34.605 40.3766 34.5442C40.3766 34.4834 40.3699 34.4361 40.3699 34.3889ZM40.1292 34.6928C40.1292 34.7333 40.1225 34.7603 40.1225 34.7873C40.1158 34.8144 40.1092 34.8346 40.1025 34.8481C40.0958 34.8616 40.0891 34.8751 40.0758 34.8886C40.0556 34.9089 40.0357 34.9291 40.0089 34.9358C39.9822 34.9493 39.9553 34.9561 39.9219 34.9561C39.8885 34.9561 39.8618 34.9493 39.835 34.9358C39.8083 34.9291 39.7882 34.9088 39.7681 34.8886C39.7548 34.8751 39.7481 34.8616 39.7414 34.8481C39.7281 34.8346 39.7281 34.8143 39.7213 34.7873C39.7146 34.7602 39.7146 34.7333 39.7079 34.6928V34.3956C39.7146 34.3619 39.7146 34.3281 39.7213 34.3011C39.728 34.274 39.728 34.2538 39.7414 34.2404C39.7481 34.2269 39.7548 34.2133 39.7681 34.1998C39.7882 34.1795 39.8082 34.1661 39.835 34.1526C39.8618 34.1391 39.8885 34.1323 39.9219 34.1323C39.9553 34.1323 39.9822 34.1391 40.0089 34.1526C40.0357 34.1661 40.0557 34.1796 40.0758 34.1998C40.0891 34.2133 40.0958 34.2269 40.1025 34.2404C40.1092 34.2538 40.1158 34.2741 40.1225 34.3011C40.1225 34.3282 40.1292 34.3619 40.1292 34.3956C40.1359 34.4361 40.1359 34.4834 40.1359 34.5441C40.1359 34.605 40.1359 34.6523 40.1292 34.6928Z" fill="#CECECF"/>
<path d="M41.3595 33.9295V34.6859L40.8714 33.9295H40.6574V35.1655H40.8982V34.4023L41.3862 35.1655H41.6001V33.9295H41.3595Z" fill="#CECECF"/>
<path d="M43.2385 34.6928C43.2251 34.659 43.2051 34.6252 43.1783 34.5982C43.1649 34.5847 43.1515 34.5712 43.1382 34.5644C43.1248 34.551 43.1115 34.5442 43.0847 34.5307C43.185 34.4699 43.2385 34.3889 43.2385 34.2672C43.2385 34.2133 43.2252 34.1659 43.2118 34.1255C43.1918 34.0849 43.165 34.0511 43.1316 34.0175C43.1049 33.9972 43.0848 33.9837 43.0513 33.9702C43.0447 33.9634 43.0313 33.9567 43.0179 33.9499C42.9644 33.9364 42.9177 33.9297 42.8575 33.9297H42.3694V35.1657H42.8776C42.9377 35.1657 42.9912 35.1522 43.0314 35.1387C43.0782 35.1184 43.1183 35.0981 43.1517 35.0643C43.1851 35.0374 43.2119 34.9968 43.2253 34.9563C43.2453 34.9158 43.2521 34.8618 43.2521 34.8078C43.2518 34.767 43.2451 34.7265 43.2385 34.6928ZM42.6032 34.1457H42.8372C42.8506 34.1457 42.864 34.1457 42.8707 34.1524C42.9108 34.1524 42.9308 34.1592 42.9577 34.1795C42.9844 34.2065 42.9977 34.2403 42.9977 34.2876C42.9977 34.3281 42.9844 34.362 42.9577 34.3889C42.9242 34.4158 42.8908 34.4293 42.8372 34.4293H42.6032V34.1457ZM42.971 34.9089C42.9443 34.9359 42.9041 34.9494 42.8574 34.9494H42.6033V34.6455H42.8574C42.9042 34.6455 42.9443 34.659 42.971 34.6861C42.9978 34.7131 43.0179 34.7469 43.0179 34.7941C43.0178 34.8413 42.9977 34.8818 42.971 34.9089Z" fill="#CECECF"/>
<path d="M44.0408 33.9295H43.8536L43.4056 35.1655H43.653L43.7266 34.9426H44.1612L44.2347 35.1655H44.4822L44.0408 33.9295ZM43.7934 34.74L43.9538 34.2943L44.101 34.74H43.7934Z" fill="#CECECF"/>
<path d="M45.3781 33.9295V34.6859L44.89 33.9295H44.6827V35.1655H44.9168V34.4023L45.4049 35.1655H45.6189V33.9295H45.3781Z" fill="#CECECF"/>
<path d="M46.5015 34.4157L46.9026 33.9295H46.6151L46.1805 34.463V33.9295H45.9464V35.1655H46.1805V34.794L46.341 34.5981L46.6552 35.1654H46.936L46.5015 34.4157Z" fill="#CECECF"/>
<path d="M59.2726 26.1896C59.2392 26.2234 59.1923 26.2369 59.1322 26.2369C59.0987 26.2369 59.072 26.2301 59.0453 26.2165C59.0185 26.2098 58.9984 26.1895 58.9784 26.176C58.9717 26.1625 58.9584 26.1489 58.9517 26.1287C58.945 26.1153 58.9383 26.0949 58.9316 26.068C58.9316 26.0409 58.925 26.0072 58.925 25.9734C58.925 25.9329 58.9183 25.8857 58.9183 25.8249C58.9183 25.7641 58.925 25.7168 58.925 25.6763C58.925 25.6357 58.9316 25.6087 58.9316 25.5818C58.9383 25.5547 58.945 25.5345 58.9517 25.521C58.9584 25.5007 58.9717 25.4872 58.9784 25.4737C58.9984 25.4535 59.0185 25.4399 59.0453 25.4264C59.072 25.4197 59.0987 25.413 59.1322 25.413C59.1923 25.413 59.2392 25.4264 59.2726 25.4603C59.306 25.494 59.3261 25.5346 59.3394 25.5885H59.5802C59.56 25.4535 59.5066 25.359 59.4264 25.2914C59.3461 25.2307 59.2458 25.1969 59.1322 25.1969C59.0653 25.1969 58.9984 25.2104 58.9517 25.2307C58.8981 25.2509 58.8514 25.2847 58.8045 25.3251C58.7778 25.359 58.7511 25.3927 58.7377 25.4264C58.7176 25.4535 58.7043 25.4939 58.6976 25.5345C58.6909 25.5751 58.6842 25.6155 58.6842 25.6628V25.987C58.6842 26.0343 58.6909 26.0749 58.6976 26.1153C58.7043 26.1558 58.7176 26.1896 58.7377 26.2234C58.751 26.2572 58.7778 26.2909 58.8045 26.3246C58.8514 26.3652 58.8981 26.399 58.9517 26.4192C58.9985 26.4395 59.0653 26.453 59.1322 26.453C59.2458 26.453 59.3461 26.4192 59.4264 26.3517C59.5066 26.2909 59.56 26.1896 59.5802 26.0613H59.3394C59.3261 26.1153 59.306 26.1557 59.2726 26.1896Z" fill="#CECECF"/>
<path d="M60.4828 25.9059C60.5162 25.8992 60.543 25.8856 60.5697 25.8654C60.5965 25.845 60.6233 25.8248 60.6433 25.7978C60.6633 25.7707 60.6768 25.7371 60.6902 25.7033C60.6968 25.6829 60.7035 25.6559 60.7035 25.629C60.7102 25.6155 60.7102 25.5951 60.7102 25.5817C60.7102 25.5344 60.6968 25.4804 60.6834 25.4399C60.6633 25.3926 60.6366 25.3521 60.6031 25.3182C60.5697 25.2845 60.5296 25.2575 60.4761 25.2373C60.4494 25.2238 60.4294 25.217 60.3959 25.2102H60.3892C60.3625 25.2035 60.3358 25.2035 60.309 25.2035H59.8343V26.4394H60.0683V25.9464H60.2422L60.4829 26.4394H60.757L60.4828 25.9059ZM60.4227 25.7033C60.3892 25.7303 60.3491 25.7506 60.2957 25.7506H60.0683V25.4195H60.2957C60.3491 25.4195 60.3893 25.433 60.4227 25.4668C60.4561 25.4938 60.4695 25.5344 60.4695 25.5817C60.4695 25.6357 60.4561 25.6695 60.4227 25.7033Z" fill="#CECECF"/>
<path d="M61.8068 25.4196V25.2035H60.9977V26.4395H61.8068V26.2234H61.2384V25.9262H61.7199V25.7101H61.2384V25.4196H61.8068Z" fill="#CECECF"/>
<path d="M62.9636 25.602C62.9636 25.5885 62.9569 25.575 62.9569 25.5682C62.9569 25.5344 62.9435 25.5007 62.9368 25.4736C62.9235 25.4399 62.91 25.4129 62.89 25.3859C62.8499 25.3251 62.7964 25.2778 62.7362 25.2508C62.6761 25.2238 62.6092 25.2035 62.5222 25.2035H62.0809V26.4395H62.5222C62.6091 26.4395 62.676 26.4261 62.7362 26.399C62.7697 26.3855 62.7964 26.3652 62.8231 26.3449C62.8499 26.3246 62.87 26.2977 62.89 26.2639C62.91 26.2369 62.9234 26.2099 62.9368 26.1761C62.9435 26.149 62.9569 26.1154 62.9569 26.0816C62.9636 26.0478 62.9636 26.0072 62.9702 25.9667V25.683C62.9636 25.6559 62.9636 25.629 62.9636 25.602ZM62.7295 25.9532C62.7295 25.9869 62.7228 26.0139 62.7228 26.041C62.7161 26.068 62.7161 26.0883 62.7095 26.1017C62.7028 26.1219 62.6893 26.1355 62.6827 26.1489C62.6427 26.203 62.5825 26.2233 62.5022 26.2233H62.3217V25.4195H62.5022C62.5825 25.4195 62.6427 25.4466 62.6827 25.5006C62.6894 25.5141 62.7028 25.5277 62.7095 25.5479C62.7161 25.5614 62.7161 25.5817 62.7228 25.6086C62.7228 25.6356 62.7295 25.6626 62.7295 25.6964V25.9532Z" fill="#CECECF"/>
<path d="M63.2577 25.2035V26.4395H63.4918V25.2035H63.2577Z" fill="#CECECF"/>
<path d="M63.7325 25.2035V25.4196H64.0535V26.4395H64.2875V25.4196H64.6085V25.2035H63.7325Z" fill="#CECECF"/>
<path d="M65.8388 26.1896C65.8054 26.2234 65.7585 26.2369 65.6983 26.2369C65.6649 26.2369 65.6382 26.2302 65.6114 26.2166C65.5846 26.2098 65.5646 26.1895 65.5445 26.176C65.5378 26.1625 65.5245 26.1489 65.5178 26.1288C65.5111 26.1153 65.5044 26.095 65.4978 26.0681C65.4978 26.041 65.4911 26.0072 65.4911 25.9734C65.4844 25.9329 65.4844 25.8857 65.4844 25.8249C65.4844 25.7641 65.4844 25.7169 65.4911 25.6763C65.4911 25.6357 65.4978 25.6087 65.4978 25.5818C65.5044 25.5548 65.5111 25.5345 65.5178 25.521C65.5245 25.5008 65.5378 25.4872 65.5445 25.4737C65.5646 25.4535 65.5846 25.44 65.6114 25.4265C65.6381 25.4197 65.6648 25.4131 65.6983 25.4131C65.7585 25.4131 65.8053 25.4265 65.8388 25.4603C65.8722 25.494 65.8923 25.5346 65.9057 25.5886H66.1464C66.1264 25.4535 66.0728 25.359 65.9926 25.2914C65.9123 25.2307 65.8121 25.1969 65.6984 25.1969C65.6315 25.1969 65.5647 25.2104 65.5112 25.2307C65.4644 25.251 65.4109 25.2847 65.3708 25.3252C65.3374 25.359 65.3173 25.3927 65.2972 25.4265C65.2838 25.4535 65.2705 25.4939 65.2638 25.5345C65.2571 25.5751 65.2504 25.6156 65.2504 25.6628V25.987C65.2504 26.0343 65.2571 26.0749 65.2638 26.1154C65.2705 26.1559 65.2838 26.1897 65.2972 26.2234C65.3172 26.2572 65.3373 26.291 65.3708 26.3246C65.4108 26.3652 65.4644 26.399 65.5112 26.4193C65.5647 26.4395 65.6315 26.453 65.6984 26.453C65.8122 26.453 65.9124 26.4193 65.9926 26.3517C66.0728 26.291 66.1264 26.1896 66.1464 26.0613H65.9057C65.8923 26.1153 65.8722 26.1558 65.8388 26.1896Z" fill="#CECECF"/>
<path d="M66.8952 25.2035H66.708L66.26 26.4395H66.5141L66.5877 26.2234H67.0223L67.0959 26.4395H67.3433L66.8952 25.2035ZM66.6546 26.0207L66.8084 25.5682L66.9554 26.0207H66.6546Z" fill="#CECECF"/>
<path d="M68.1857 25.9059C68.2191 25.8992 68.2458 25.8856 68.2727 25.8654C68.2994 25.845 68.3262 25.8248 68.3462 25.7978C68.3663 25.7707 68.3796 25.7371 68.3931 25.7033C68.4064 25.6694 68.4131 25.629 68.4131 25.5817C68.4131 25.5344 68.4064 25.4804 68.3864 25.4399C68.3663 25.3926 68.3395 25.3521 68.3061 25.3182C68.2727 25.2845 68.2326 25.2575 68.1791 25.2373C68.1323 25.217 68.0789 25.2035 68.0187 25.2035H67.5372V26.4394H67.7779V25.9464H67.9451L68.1858 26.4394H68.4599L68.1857 25.9059ZM68.1255 25.7033C68.0921 25.7303 68.052 25.7506 67.9985 25.7506H67.7779V25.4195H67.9985C68.052 25.4195 68.0921 25.433 68.1255 25.4668C68.159 25.4938 68.1724 25.5344 68.1724 25.5817C68.1724 25.6357 68.159 25.6695 68.1255 25.7033Z" fill="#CECECF"/>
<path d="M69.5832 25.5682C69.5765 25.5344 69.5698 25.5007 69.5565 25.4736C69.5498 25.4399 69.5297 25.4129 69.5164 25.3859C69.4695 25.3251 69.4161 25.2778 69.3559 25.2508C69.3024 25.2238 69.2289 25.2035 69.142 25.2035H68.7007V26.4395H69.142C69.2289 26.4395 69.3025 26.4261 69.3559 26.399C69.416 26.3719 69.4695 26.3246 69.5164 26.2639C69.5297 26.2369 69.5498 26.2099 69.5565 26.1761C69.5698 26.149 69.5765 26.1154 69.5832 26.0816C69.5832 26.0478 69.5899 26.0072 69.5899 25.9667V25.683C69.5899 25.6424 69.5832 25.602 69.5832 25.5682ZM69.3492 25.9532C69.3492 25.9869 69.3492 26.0139 69.3425 26.041C69.3425 26.068 69.3359 26.0883 69.3292 26.1017C69.3225 26.1219 69.3158 26.1355 69.3024 26.1489C69.2623 26.203 69.2021 26.2233 69.1218 26.2233H68.9413V25.4195H69.1218C69.2021 25.4195 69.2622 25.4466 69.3024 25.5006C69.3157 25.5141 69.3224 25.5277 69.3292 25.5479C69.3359 25.5614 69.3425 25.5817 69.3425 25.6086C69.3492 25.6356 69.3492 25.6626 69.3492 25.6964V25.9532Z" fill="#CECECF"/>
<path d="M69.7148 14.0119V18.7719C69.7148 18.9635 69.5597 19.1202 69.37 19.1202H63.5654C63.3758 19.1202 63.2206 18.9635 63.2206 18.7719V14.0119C63.2206 13.8203 63.3758 13.6636 63.5654 13.6636H69.37C69.5596 13.6635 69.7148 13.8203 69.7148 14.0119Z" fill="#F7D072"/>
<path opacity="0.2" d="M68.4398 14.8161L69.4495 13.7963H69.1218L68.2526 14.681L68.1189 14.8161L68.0186 14.9107L67.3299 15.6063H65.8321L65.6984 15.4712L65.1434 14.9107L64.9227 14.681L64.0468 13.7963H63.7192L64.5884 14.681L64.7222 14.8161H63.3381V15.0457H64.9561L65.3841 15.4847L65.4977 15.6063V15.8764H63.338V16.1128H65.4977V16.9435H63.338V17.173H65.4977V17.4499H65.5111L65.0898 17.8688L64.956 18.0039H63.338V18.2403H64.7221L63.8528 19.1183H64.1805L65.0497 18.2403L65.8321 17.4502H67.3298L68.9881 19.1184H69.309L68.4398 18.2404H69.7168V18.004H68.2124L67.6641 17.4502V17.1733H69.7169V16.9437H67.6641V16.1131H69.7169V15.8766H67.6641V15.6066L68.2124 15.046H69.7168V14.8164H68.4398V14.8161ZM67.4369 17.2137H65.7251V15.836H67.4369V17.2137Z" fill="white"/>
<path d="M65.7184 15.4717L65.9458 15.7012H66.9889L67.0825 15.6068L67.2162 15.4717H65.7184ZM65.7184 15.4717L65.9458 15.7012H66.9889L67.0825 15.6068L67.2162 15.4717H65.7184ZM65.7184 15.4717L65.9458 15.7012H66.9889L67.0825 15.6068L67.2162 15.4717H65.7184ZM65.7184 15.4717L65.9458 15.7012H66.9889L67.0825 15.6068L67.2162 15.4717H65.7184ZM67.1225 17.2142L66.9889 17.0791H65.9458L65.8188 17.2142H65.8121L65.7185 17.3155H67.2162L67.1225 17.2142ZM65.7184 15.4717L65.9458 15.7012H66.9889L67.0825 15.6068L67.2162 15.4717H65.7184ZM65.3841 15.4717V17.3155H67.5505V15.4717H65.3841ZM67.3231 17.0791H65.6113V15.7013H67.3231V17.0791ZM65.7184 15.4717L65.9458 15.7012H66.9889L67.0825 15.6068L67.2162 15.4717H65.7184ZM65.7184 15.4717L65.9458 15.7012H66.9889L67.0825 15.6068L67.2162 15.4717H65.7184ZM65.7184 15.4717L65.9458 15.7012H66.9889L67.0825 15.6068L67.2162 15.4717H65.7184ZM65.7184 15.4717L65.9458 15.7012H66.9889L67.0825 15.6068L67.2162 15.4717H65.7184ZM65.7184 15.4717L65.9458 15.7012H66.9889L67.0825 15.6068L67.2162 15.4717H65.7184ZM65.7184 15.4717L65.9458 15.7012H66.9889L67.0825 15.6068L67.2162 15.4717H65.7184Z" fill="#717070"/>
<path d="M64.9346 14.6791L65.1645 14.9113H63.2206V14.6791H64.9346Z" fill="#717070"/>
<path d="M69.7148 14.6791V14.9113H67.7709L68.0007 14.6791H69.7148Z" fill="#717070"/>
<path d="M65.6128 15.7435H63.2206V15.9757H65.6128V15.7435Z" fill="#717070"/>
<path d="M69.7147 15.7435H67.3225V15.9757H69.7147V15.7435Z" fill="#717070"/>
<path d="M65.6128 16.8078H63.2206V17.04H65.6128V16.8078Z" fill="#717070"/>
<path d="M69.7147 16.8078H67.3225V17.04H69.7147V16.8078Z" fill="#717070"/>
<path d="M65.1648 17.8716L64.9349 18.1039H63.2206V17.8716H65.1648Z" fill="#717070"/>
<path d="M69.7148 17.8716V18.1039H68.0004L67.7706 17.8716H69.7148Z" fill="#717070"/>
<path d="M65.9478 17.081L63.9291 19.12H63.6042L65.6229 17.081H65.9478Z" fill="#717070"/>
<path d="M69.3315 13.663L67.3128 15.702H66.9879L69.0065 13.663H69.3315Z" fill="#717070"/>
<path d="M65.9476 15.702H65.6226L63.6039 13.663H63.9289L65.9476 15.702Z" fill="#717070"/>
<path d="M69.3312 19.12H69.0062L67.2174 17.3132L67.1217 17.2166L66.9875 17.081H67.3125L67.4375 17.2072L67.5424 17.3132L67.6674 17.4395L68.0955 17.8719L68.2297 18.0075L68.3255 18.1041L68.4597 18.2397L69.3312 19.12Z" fill="#717070"/>
<path d="M34.945 15.7429C34.945 15.0162 35.2417 14.3598 35.719 13.8895C35.2568 13.434 34.6254 13.153 33.9288 13.153C32.5126 13.153 31.3647 14.3126 31.3647 15.7429C31.3647 17.1734 32.5127 18.3329 33.9288 18.3329C34.6255 18.3329 35.2569 18.0518 35.719 17.5964C35.2417 17.1261 34.945 16.4696 34.945 15.7429Z" fill="#DC3B39"/>
<path d="M37.5092 13.153C36.8124 13.153 36.1811 13.434 35.719 13.8894C36.1962 14.3598 36.493 15.0162 36.493 15.7429C36.493 16.4696 36.1962 17.126 35.719 17.5964C36.1811 18.0518 36.8125 18.3328 37.5092 18.3328C38.9253 18.3328 40.0733 17.1733 40.0733 15.7429C40.0733 14.3125 38.9252 13.153 37.5092 13.153Z" fill="#E6AB2D"/>
<path d="M36.493 15.7428C36.493 15.016 36.1962 14.3596 35.719 13.8893C35.2418 14.3596 34.945 15.016 34.945 15.7428C34.945 16.4695 35.2418 17.1259 35.719 17.5962C36.1962 17.126 36.493 16.4695 36.493 15.7428Z" fill="#D67261"/>
<path d="M36.4929 15.7428C36.4929 15.6881 36.4907 15.634 36.4874 15.5801L35.3177 14.3987C35.232 14.5409 35.1593 14.6919 35.1017 14.8503L36.4499 16.2122C36.4776 16.0598 36.4929 15.9032 36.4929 15.7428Z" fill="#E6AB2D"/>
<path d="M34.9711 15.3765C34.9543 15.4962 34.945 15.6185 34.945 15.7429C34.945 15.8423 34.951 15.9403 34.9619 16.0368L36.0739 17.1601C36.1634 17.0224 36.2401 16.8756 36.3026 16.7213L34.9711 15.3765Z" fill="#E6AB2D"/>
<path opacity="0.2" d="M73 27.5203H28V28.0877H73V27.5203Z" fill="#040000"/>
<path opacity="0.2" d="M73 12.4454V40.4332C73 41.2301 72.3514 41.8852 71.5624 41.8852H35.2147L42.3693 34.6587L42.6032 34.4223L42.8707 34.1522L43.0512 33.9699L46.7756 30.2079L46.9695 30.0121V30.0053L47.0965 29.8837L47.1098 29.8702L47.6782 29.2895L47.8587 29.1139L48.8751 28.0873L49.4368 27.5199L55.4479 21.4483L57.3803 19.4965L65.6715 11.115L65.7853 11H71.5624C72.3514 11 73 11.6483 73 12.4454Z" fill="#040000"/>
<defs>
<filter id="filter0_d_151_20668" x="0.2" y="0" width="100.6" height="64.8" filterUnits="userSpaceOnUse" color-interpolation-filters="sRGB">
<feFlood flood-opacity="0" result="BackgroundImageFix"/>
<feColorMatrix in="SourceAlpha" type="matrix" values="0 0 0 0 0 0 0 0 0 0 0 0 0 0 0 0 0 0 127 0" result="hardAlpha"/>
<feOffset dy="7"/>
<feGaussianBlur stdDeviation="2.4"/>
<feComposite in2="hardAlpha" operator="out"/>
<feColorMatrix type="matrix" values="0 0 0 0 0 0 0 0 0 0 0 0 0 0 0 0 0 0 0.4 0"/>
<feBlend mode="normal" in2="BackgroundImageFix" result="effect1_dropShadow_151_20668"/>
<feBlend mode="normal" in="SourceGraphic" in2="effect1_dropShadow_151_20668" result="shape"/>
</filter>
<linearGradient id="paint0_linear_151_20668" x1="50.5" y1="11.1149" x2="50.5" y2="42.0001" gradientUnits="userSpaceOnUse">
<stop stop-color="#44484A"/>
<stop offset="1" stop-color="#193741"/>
</linearGradient>
</defs>
</svg>
