<svg width="184" height="184" viewBox="0 0 184 184" fill="none" xmlns="http://www.w3.org/2000/svg">
<path d="M91.9998 181.583C141.475 181.583 181.583 141.476 181.583 92C181.583 42.5245 141.475 2.41667 91.9998 2.41667C42.5243 2.41667 2.4165 42.5245 2.4165 92C2.4165 141.476 42.5243 181.583 91.9998 181.583Z" fill="#00C2FF" fill-opacity="0.08"/>
<path d="M91.9999 183.667C41.4541 183.667 0.333252 142.546 0.333252 92C0.333252 41.4542 41.4541 0.333344 91.9999 0.333344C117.912 0.333344 142.729 11.375 160.092 30.6292C160.867 31.4833 160.796 32.8 159.942 33.5708C159.083 34.3417 157.767 34.2708 157 33.4208C140.425 15.0417 116.737 4.50001 91.9999 4.50001C43.7541 4.50001 4.49992 43.75 4.49992 92C4.49992 140.25 43.7541 179.5 91.9999 179.5C140.246 179.5 179.5 140.25 179.5 92C179.5 82.4208 177.962 73 174.925 64C174.554 62.9083 175.142 61.7292 176.229 61.3625C177.346 60.9958 178.504 61.5792 178.871 62.6708C182.054 72.1 183.667 81.9667 183.667 92C183.667 142.546 142.546 183.667 91.9999 183.667Z" fill="#00C2FF"/>
<path d="M92 179.5C43.7542 179.5 4.5 140.25 4.5 92C4.5 43.75 43.7542 4.50002 92 4.50002C116.308 4.50002 139.725 14.7417 156.246 32.5958C157.029 33.4417 156.975 34.7583 156.133 35.5417C155.287 36.3208 153.967 36.275 153.188 35.425C137.454 18.4208 115.154 8.66668 92 8.66668C46.05 8.66668 8.66667 46.05 8.66667 92C8.66667 137.95 46.05 175.333 92 175.333C137.95 175.333 175.333 137.95 175.333 92C175.333 83.5417 174.071 75.2042 171.587 67.2167C171.246 66.1167 171.858 64.95 172.958 64.6083C174.054 64.275 175.229 64.8833 175.567 65.9792C178.179 74.3667 179.5 83.1208 179.5 92C179.5 140.25 140.246 179.5 92 179.5Z" fill="white"/>
<path d="M81.9332 132.975C85.6498 136.675 92.0915 136.675 95.8123 132.975L176.591 52.5208C180.471 48.6625 180.471 42.3833 176.591 38.525C172.875 34.825 166.433 34.825 162.716 38.525L92.029 108.921C90.3665 110.579 87.379 110.579 85.7123 108.921L58.7832 82.1042C56.9248 80.2542 54.4623 79.2375 51.8457 79.2375C49.229 79.2375 46.7623 80.2542 44.9082 82.1042C41.029 85.9625 41.029 92.2417 44.9082 96.1L81.9332 132.975Z" fill="#00C2FF"/>
<path d="M88.8707 137.854C85.8082 137.854 82.7415 136.721 80.4624 134.45L43.4374 97.575C41.1665 95.3167 39.9124 92.3042 39.9124 89.0958C39.9124 85.8917 41.1665 82.8833 43.4374 80.625C47.9249 76.15 55.7457 76.1417 60.2499 80.625L87.179 107.442C88.0332 108.292 89.704 108.296 90.554 107.442L161.246 37.0417C165.804 32.5042 173.5 32.5042 178.058 37.0417C180.329 39.3 181.583 42.3125 181.583 45.5167C181.583 48.7208 180.329 51.7292 178.058 53.9875L97.2832 134.45C95.004 136.721 91.9332 137.854 88.8707 137.854ZM51.8457 81.3208C49.7832 81.3208 47.8415 82.125 46.379 83.5792C44.8999 85.0542 44.079 87.0125 44.079 89.1C44.079 91.1875 44.8915 93.15 46.3749 94.6208L83.3999 131.5C86.3124 134.396 91.429 134.4 94.3415 131.5L175.121 51.0417C176.596 49.5708 177.417 47.6083 177.417 45.5208C177.417 43.4333 176.604 41.4708 175.121 40C172.208 37.1 167.096 37.0958 164.183 40L93.4957 110.4C91.0373 112.858 86.704 112.858 84.2374 110.4L57.3124 83.5833C55.8499 82.1208 53.9082 81.3208 51.8457 81.3208Z" fill="#00C2FF"/>
<path d="M46.1666 91.1833C45.0166 91.1833 44.0833 90.25 44.0833 89.1C44.0833 87.0167 44.8999 85.0542 46.3833 83.5792C47.8458 82.1208 49.7833 81.3208 51.8499 81.3208C52.9999 81.3208 53.9333 82.2542 53.9333 83.4042C53.9333 84.5542 52.9999 85.4875 51.8499 85.4875C50.8958 85.4875 50.0041 85.8583 49.3249 86.5292C48.6374 87.2208 48.2541 88.1333 48.2541 89.1C48.2499 90.2542 47.3166 91.1833 46.1666 91.1833Z" fill="white"/>
<path d="M101.004 107.95C100.471 107.95 99.9332 107.746 99.529 107.338C98.7207 106.521 98.7207 105.204 99.5374 104.388L158.162 46C158.975 45.1917 160.296 45.1875 161.108 46.0042C161.917 46.8208 161.917 48.1375 161.1 48.9542L102.475 107.342C102.067 107.746 101.537 107.95 101.004 107.95Z" fill="white"/>
</svg>
