<svg width="208" height="165" viewBox="0 0 208 165" fill="none" xmlns="http://www.w3.org/2000/svg">
<path d="M47.8295 156.382H45.6136L52.0227 138.927H54.2045L60.6136 156.382H58.3977L53.1818 141.688H53.0455L47.8295 156.382ZM48.6477 149.563H57.5795V151.438H48.6477V149.563ZM63.3324 156.382V138.927H69.2301C70.5994 138.927 71.7188 139.174 72.5881 139.669C73.4631 140.157 74.1108 140.819 74.5312 141.654C74.9517 142.49 75.1619 143.421 75.1619 144.45C75.1619 145.478 74.9517 146.413 74.5312 147.254C74.1165 148.095 73.4744 148.765 72.6051 149.265C71.7358 149.759 70.6222 150.007 69.2642 150.007H65.0369V148.132H69.196C70.1335 148.132 70.8864 147.97 71.4545 147.646C72.0227 147.322 72.4347 146.884 72.6903 146.333C72.9517 145.776 73.0824 145.149 73.0824 144.45C73.0824 143.751 72.9517 143.126 72.6903 142.575C72.4347 142.024 72.0199 141.592 71.446 141.279C70.8722 140.961 70.1108 140.802 69.1619 140.802H65.446V156.382H63.3324ZM78.5668 156.382V138.927H84.4645C85.8338 138.927 86.9531 139.174 87.8224 139.669C88.6974 140.157 89.3452 140.819 89.7656 141.654C90.1861 142.49 90.3963 143.421 90.3963 144.45C90.3963 145.478 90.1861 146.413 89.7656 147.254C89.3509 148.095 88.7088 148.765 87.8395 149.265C86.9702 149.759 85.8565 150.007 84.4986 150.007H80.2713V148.132H84.4304C85.3679 148.132 86.1207 147.97 86.6889 147.646C87.2571 147.322 87.669 146.884 87.9247 146.333C88.1861 145.776 88.3168 145.149 88.3168 144.45C88.3168 143.751 88.1861 143.126 87.9247 142.575C87.669 142.024 87.2543 141.592 86.6804 141.279C86.1065 140.961 85.3452 140.802 84.3963 140.802H80.6804V156.382H78.5668Z" fill="#00C2FF"/>
<path d="M113.256 133.109V156.382H108.483L99.2216 142.95H99.0739V156.382H93.4489V133.109H98.2898L107.449 146.518H107.642V133.109H113.256ZM125.395 156.382H116.793V133.109H125.384C127.755 133.109 129.796 133.575 131.509 134.507C133.228 135.431 134.554 136.764 135.486 138.507C136.418 140.241 136.884 142.317 136.884 144.734C136.884 147.158 136.418 149.241 135.486 150.984C134.562 152.726 133.24 154.063 131.52 154.995C129.8 155.919 127.759 156.382 125.395 156.382ZM122.418 151.586H125.179C126.482 151.586 127.584 151.366 128.486 150.927C129.395 150.48 130.08 149.757 130.543 148.757C131.012 147.749 131.247 146.408 131.247 144.734C131.247 143.06 131.012 141.726 130.543 140.734C130.073 139.734 129.38 139.014 128.463 138.575C127.554 138.128 126.433 137.904 125.099 137.904H122.418V151.586ZM143.827 156.382H137.781L145.634 133.109H153.122L160.974 156.382H154.929L149.463 138.972H149.281L143.827 156.382ZM143.02 147.223H155.656V151.495H143.02V147.223Z" fill="white"/>
<path fill-rule="evenodd" clip-rule="evenodd" d="M47.0343 78.0157C46.6521 78.3814 46.0948 78.5378 45.6074 78.3641L35.5529 84.139C33.2913 85.4964 32.527 87.5838 32.8063 89.5496C32.9091 90.3487 33.1885 91.1145 33.6059 91.8281L33.6406 91.8981C34.058 92.5761 34.5449 93.1681 35.1703 93.655C36.7713 94.8908 38.963 95.2908 41.3279 93.9508L49.5733 89.1665C50.2354 88.7843 51.0702 89.0102 51.4523 89.6707C51.8345 90.3149 51.5908 91.1502 50.9655 91.5323C48.7391 92.9245 48.0071 95.0124 48.2864 96.9594C48.3916 97.7594 48.6691 98.5594 49.1212 99.2557C49.5386 99.9694 50.0955 100.595 50.7556 101.1C52.3218 102.265 54.4783 102.613 56.7747 101.291C59.0705 100.056 61.4354 98.4388 63.6966 97.3073C64.3586 96.9251 65.2281 97.1514 65.6103 97.813C65.9577 98.4557 65.7502 99.2731 65.1234 99.6558C62.8618 101.03 62.1322 103.134 62.4096 105.083C62.5491 105.883 62.827 106.666 63.2439 107.379C63.6613 108.093 64.2182 108.719 64.8802 109.206C66.4451 110.389 68.6362 110.737 70.9326 109.415C73.8558 107.832 76.8822 105.762 79.8035 104.3C80.4655 103.918 81.2998 104.144 81.6824 104.805C82.0646 105.449 81.8224 106.266 81.1956 106.649C78.9692 108.023 78.2043 110.127 78.517 112.059C78.6217 112.876 78.8992 113.676 79.3513 114.372C79.734 115.086 80.326 115.712 80.9524 116.199L81.0223 116.25C82.5872 117.382 84.7441 117.729 87.0052 116.425L95.7381 111.379L52.0425 86.1391C51.8345 86.0175 51.6603 85.8443 51.5565 85.6527L47.0343 78.0157ZM159.748 75.4414L103.148 41.4697C98.0678 41.4697 93.2675 41.2082 88.9194 40.234L88.8495 40.2171C84.2567 39.1729 80.1861 37.3291 76.8475 34.1806C75.6986 33.119 74.8638 31.9885 74.3084 30.8415L48.6339 75.3193L53.714 83.9474L98.4171 109.76C100.017 110.666 101.826 110.857 103.461 110.405C105.132 109.97 106.591 108.909 107.531 107.326C108.401 105.778 108.611 104.003 108.193 102.386V102.351C107.775 100.715 106.766 99.2379 105.235 98.3163C104.609 97.9326 104.4 97.0984 104.747 96.4547C105.132 95.7941 105.966 95.5678 106.626 95.9504C109.932 97.8641 113.411 100.003 116.749 101.795C118.316 102.699 120.16 102.891 121.794 102.438C125.308 101.499 127.396 97.9679 126.526 94.4198V94.3846C126.109 92.7498 125.065 91.2703 123.533 90.3487C122.908 89.9496 122.699 89.1318 123.081 88.4881C123.463 87.8275 124.3 87.6012 124.96 87.9838C127.534 89.4801 130.248 91.1502 132.857 92.5413C134.423 93.4456 136.266 93.6371 137.902 93.1845C141.415 92.245 143.503 88.7139 142.632 85.1832V85.1311C142.215 83.5136 141.172 82.0347 139.641 81.0952C139.015 80.7125 138.806 79.8773 139.188 79.2346C139.571 78.573 140.406 78.3467 141.068 78.7303L150.46 84.1747C152.025 85.0616 153.834 85.2532 155.505 84.801C158.427 84.0353 160.445 81.4431 160.445 78.4519C160.445 77.4072 160.201 76.3635 159.748 75.4414ZM134.11 25.4661L156.687 64.6216L161.974 73.7723L164.028 77.3377L186.118 64.6052C175.715 46.6178 165.35 28.6498 154.947 10.6804L132.891 23.4139L132.961 23.536L133.343 24.1792L133.726 24.8238L134.11 25.4661ZM159.609 13.2378L185.109 57.3686L208 44.1309L182.535 0L159.609 13.2378ZM149.521 57.6635L130.769 25.2055L128.161 25.9882C127.673 26.1276 127.187 25.9882 126.84 25.6745C118.176 17.8305 112.68 20.0912 107.566 22.2133C104.261 23.5702 101.13 24.8576 97.3387 24.0223C89.0599 22.196 83.3882 22.3533 79.9448 23.6045C79.0401 23.936 78.2753 24.3534 77.7184 24.8055L77.6832 24.8398V24.8576H77.6485V24.8745H77.6137V24.8923L77.5438 24.9445V24.9623L77.4738 25.0144V25.0318H77.4405V25.0497L77.4058 25.0665V25.0844L77.371 25.1013V25.1191V25.137L77.3006 25.207L77.2658 25.2412L77.2311 25.2591V25.2769L77.1963 25.2938V25.3117L77.1616 25.3286V25.3464L77.1269 25.3643V25.3821L77.0916 25.399V25.4169V25.4342L77.0569 25.4511V25.469L77.0221 25.4868V25.5047V25.5216L76.9889 25.5394V25.5573L76.9541 25.5742V25.592V25.6099L76.9194 25.6268V25.6446V25.6625L76.8846 25.6794V25.6972L76.8499 25.7151V25.732V25.7498L76.8151 25.7677V25.7855V25.8024L76.7804 25.8203V25.8376V25.8545L76.7457 25.8724V25.8902V25.9071L76.7109 25.925V25.9428V25.9771V25.9949L76.6409 26.0813V26.0992V26.1344H76.6057V26.1513V26.186L76.5724 26.2039V26.2217V26.2396V26.2565L76.5377 26.2743V26.2922V26.3009V26.3187V26.3366L76.5029 26.3544V26.3713V26.3892L76.4682 26.4413V26.4591V26.476V26.4939V26.5117L76.4335 26.5286V26.5465V26.5643V26.5822L76.3987 26.6169V26.6338V26.6517V26.6695V26.6874L76.3635 26.8437V26.8616L76.3288 27.001V27.0179L76.294 27.1221V27.14V27.1578V27.1747V27.1926C76.2593 27.5231 76.2593 27.8541 76.3288 28.202C76.5034 29.4889 77.3377 30.8806 78.7298 32.1853C81.6863 34.9512 85.3395 36.6039 89.4449 37.5424L89.5149 37.5602C93.7235 38.5176 98.4543 38.7439 103.534 38.726C103.778 38.726 104.021 38.795 104.231 38.9171L156.968 70.5586L149.521 57.6635ZM170.358 65.5094C168.899 65.5094 167.436 64.9521 166.288 63.8746L166.185 63.7868C165.036 62.6389 164.48 61.1252 164.48 59.6124C164.48 58.1508 165.036 56.6902 166.114 55.5418L166.185 55.4544C167.367 54.3065 168.863 53.7332 170.358 53.7332C171.855 53.7332 173.386 54.3065 174.533 55.4544C175.68 56.6024 176.237 58.1161 176.237 59.6124C176.237 61.073 175.715 62.5515 174.602 63.6831L174.532 63.7873C173.387 64.9174 171.855 65.5094 170.358 65.5094ZM168.202 61.8914C168.794 62.4651 169.594 62.7436 170.359 62.7436C171.16 62.7436 171.96 62.4478 172.585 61.8393L172.655 61.7693C173.211 61.1609 173.489 60.3951 173.489 59.6124C173.489 58.8124 173.177 58.0114 172.585 57.4029C171.96 56.7944 171.16 56.4808 170.359 56.4808C169.559 56.4808 168.759 56.7944 168.133 57.386L168.064 57.455C167.507 58.0466 167.228 58.8293 167.228 59.6124C167.228 60.4125 167.542 61.2125 168.133 61.8388L168.202 61.8914ZM22.9256 57.3686L48.3911 13.2378L25.4646 0L0 44.1309L22.9256 57.3686ZM39.3456 64.7958C37.8845 64.7958 36.4229 64.2568 35.2755 63.161L35.1703 63.0731C34.0233 61.9252 33.466 60.412 33.466 58.9161C33.466 57.4545 33.9881 55.9761 35.1003 54.8455L35.1703 54.7413C36.3539 53.6107 37.8493 53.0191 39.3451 53.0191C40.8419 53.0191 42.3716 53.6112 43.5205 54.7413C44.6679 55.9061 45.2595 57.4198 45.2595 58.9156C45.2595 60.3772 44.7027 61.8383 43.5885 62.9863L43.52 63.0731C42.3373 64.222 40.8419 64.7958 39.3456 64.7958ZM37.1892 61.1951C37.7793 61.7688 38.5808 62.0473 39.3456 62.0473C40.1456 62.0473 40.9452 61.7351 41.572 61.143L41.6068 61.073C42.1988 60.4819 42.4768 59.6819 42.4768 58.9161C42.4768 58.1161 42.1641 57.316 41.572 56.6897C40.9452 56.0803 40.1456 55.7845 39.3456 55.7845C38.5461 55.7845 37.7446 56.0803 37.1192 56.6897L37.0492 56.7587C36.4924 57.3508 36.215 58.133 36.215 58.9161C36.215 59.7162 36.5276 60.5162 37.1192 61.1252L37.1892 61.1951ZM132.126 14.4899C132.683 15.012 132.719 15.8816 132.196 16.4558C131.709 17.0121 130.84 17.0464 130.248 16.5421C121.621 8.69715 116.124 10.9588 110.975 13.0809C107.706 14.42 104.54 15.7243 100.747 14.89C95.7719 13.7763 91.7384 13.4115 88.5025 13.55C85.0577 13.7063 82.6581 14.4899 81.2313 15.6026C80.6397 16.0548 79.7697 15.9506 79.3176 15.3421C78.8307 14.7505 78.9701 13.8815 79.5617 13.4293C81.4055 11.9851 84.3272 10.9935 88.3978 10.8019C91.8069 10.6456 96.1217 11.0456 101.339 12.2114C104.296 12.8551 107.08 11.7241 109.933 10.5235C115.847 8.10556 122.211 5.49699 132.126 14.4899ZM45.8154 74.6935L45.8501 74.6766V74.6592V74.6413L45.8849 74.6071V74.5897V74.5728L73.6116 26.5802C73.7511 25.7102 74.0638 24.875 74.6206 24.1102C74.76 23.9365 74.8985 23.7623 75.038 23.5881V23.5702L75.0727 23.5533C75.1432 23.4481 75.2459 23.3439 75.3507 23.2397L75.3854 23.2218V23.1876H75.4201V23.1697L75.4554 23.1355L75.4901 23.1176L75.5249 23.0833V23.0655L75.5596 23.0307L75.5943 23.0129L75.6643 22.9786V22.9434L75.6976 22.9265V22.9087L75.7323 22.8908L76.6723 21.2386L54.6168 8.50606L23.4814 62.4473L45.5379 75.1808L45.8154 74.6935Z" fill="#00C2FF"/>
</svg>
