<svg width="430" height="392" viewBox="0 0 430 392" fill="none" xmlns="http://www.w3.org/2000/svg">
<circle opacity="0.2" cx="209" cy="94" r="233" fill="#C1C1C1"/>
<ellipse opacity="0.2" cx="368" cy="84.5" rx="157" ry="156.5" fill="#C1C1C1"/>
<g clip-path="url(#clip0_6030_773)">
<path d="M368.598 296.862C368.651 330.898 357.373 363.981 336.543 390.891H93.0554C72.2255 363.981 60.947 330.897 61.0002 296.862C61.0002 211.884 129.861 143 214.803 143C299.745 143 368.598 211.884 368.598 296.862Z" fill="#00C2FF" fill-opacity="0.24"/>
<path d="M359.026 144.968H237.01C225.109 144.968 215.461 154.62 215.461 166.526V166.526C215.461 178.433 225.109 188.085 237.01 188.085H359.026C370.927 188.085 380.575 178.433 380.575 166.526V166.526C380.575 154.62 370.927 144.968 359.026 144.968Z" fill="#474646"/>
<path d="M359.025 188.51H237.009C231.199 188.483 225.636 186.155 221.538 182.035C217.439 177.915 215.138 172.339 215.138 166.526C215.138 160.713 217.439 155.137 221.538 151.017C225.636 146.898 231.199 144.569 237.009 144.542H359.025C361.92 144.529 364.788 145.087 367.466 146.186C370.144 147.285 372.579 148.902 374.63 150.945C376.682 152.987 378.31 155.415 379.421 158.089C380.531 160.763 381.103 163.63 381.103 166.526C381.103 169.422 380.531 172.289 379.421 174.963C378.31 177.637 376.682 180.065 374.63 182.108C372.579 184.15 370.144 185.768 367.466 186.866C364.788 187.965 361.92 188.524 359.025 188.51ZM237.009 145.393C231.407 145.393 226.034 147.62 222.073 151.583C218.112 155.546 215.886 160.921 215.886 166.525C215.886 172.13 218.112 177.505 222.073 181.468C226.034 185.431 231.407 187.658 237.009 187.658H359.025C364.628 187.658 370 185.431 373.962 181.468C377.923 177.505 380.148 172.13 380.148 166.525C380.148 160.921 377.923 155.546 373.962 151.583C370 147.62 364.628 145.393 359.025 145.393H237.009Z" fill="#E0E0E0"/>
<path d="M137.048 193.938C137.048 193.938 135.734 209.496 132.131 215.085C121.759 231.175 118.513 249.425 128.442 259.166C138.371 268.906 202.779 270.18 208.048 248.274C212.484 229.832 203.703 227.684 201.829 212.372C200.981 205.444 198.568 190.905 198.568 190.905" fill="#474646"/>
<path d="M192.005 244.522C191.894 244.508 190.66 264.992 166.873 263.206C150.406 261.972 144.535 244.492 144.155 244.492C145.931 244.114 148.921 243.566 149.709 243.145C152.302 241.751 155.509 240.3 156.346 235.263C156.83 232.361 156.011 217.505 156.263 214.566L181.54 220.21C181.186 226.414 178.714 240.798 187.379 243.344C188.822 243.768 190.375 244.154 192.005 244.522Z" fill="#FBF3E6"/>
<path opacity="0.5" d="M181.895 237.468C181.499 236.192 181.244 234.876 181.135 233.543C180.857 230.504 180.912 227.442 181.3 224.415C176.163 223.721 171.323 221.599 167.331 218.292C166.862 220.026 164.281 227.603 164.995 229.251C166.345 232.364 172.692 237.468 181.895 237.468Z" fill="#474646"/>
<path d="M178.295 231.084C168.314 231.872 155.492 227.655 153.057 214.333L150.859 202.312C148.424 188.99 153.444 176.91 165.982 174.616C178.52 172.322 189.866 181.407 192.302 194.729L193.275 200.052C194.21 205.163 196.104 229.678 178.295 231.084Z" fill="#FBF3E6"/>
<path d="M182.37 212.658L182.395 212.654C182.903 212.557 183.405 212.433 183.899 212.281C184.637 212.048 185.604 211.662 185.482 210.996C185.344 210.237 181.768 202.427 181.361 201.539C181.323 201.464 181.258 201.407 181.18 201.379C181.101 201.351 181.015 201.355 180.939 201.39C180.863 201.425 180.803 201.488 180.773 201.566C180.743 201.643 180.744 201.73 180.776 201.807C182.301 205.133 184.756 210.601 184.849 211.112C184.765 211.348 183.54 211.789 182.279 212.021C182.198 212.037 182.126 212.083 182.078 212.15C182.03 212.218 182.01 212.301 182.022 212.383C182.033 212.465 182.076 212.539 182.141 212.59C182.206 212.641 182.288 212.665 182.37 212.658Z" fill="#474646"/>
<path d="M180.481 218.392C182.525 218.139 184.481 217.409 186.192 216.26C186.264 216.214 186.314 216.142 186.332 216.058C186.351 215.975 186.335 215.888 186.289 215.816C186.243 215.744 186.17 215.694 186.087 215.676C186.003 215.658 185.916 215.673 185.845 215.719C182.143 218.1 178.477 218.466 175.243 216.778C175.178 216.742 175.111 216.71 175.042 216.682C174.962 216.652 174.873 216.656 174.796 216.692C174.719 216.727 174.659 216.793 174.629 216.873C174.6 216.953 174.603 217.041 174.639 217.119C174.675 217.196 174.74 217.256 174.82 217.286C174.845 217.296 174.888 217.319 174.946 217.35C176.646 218.24 178.573 218.603 180.481 218.392Z" fill="#474646"/>
<path d="M140.815 206.435L152.054 204.445C160.578 201.055 163.24 186.346 163.24 186.346C163.24 186.346 173.506 196.479 198.568 190.906C198.568 190.906 193.765 155.957 156.728 165.883C144.785 169.083 136.155 181.05 137.122 197.122C137.799 208.383 140.815 206.435 140.815 206.435Z" fill="#474646"/>
<path d="M154.578 218.249C150.767 218.947 146.933 215.434 146.236 211.622C145.539 207.81 148.244 205.142 152.054 204.445L154.484 206.64L157.853 217.65L154.578 218.249Z" fill="#FBF3E6"/>
<path d="M184.162 195.412C185.124 194.757 186.241 194.368 187.401 194.285C187.984 194.24 188.571 194.283 189.141 194.412C189.716 194.54 190.273 194.74 190.799 195.007L190.815 195.015C190.874 195.041 190.94 195.044 191 195.022C191.06 195 191.109 194.956 191.137 194.899C191.165 194.842 191.17 194.776 191.151 194.715C191.131 194.654 191.089 194.603 191.032 194.573C190.476 194.266 189.883 194.031 189.268 193.872C188.649 193.71 188.008 193.642 187.368 193.67C186.072 193.719 184.813 194.115 183.722 194.817C183.681 194.843 183.646 194.878 183.619 194.918C183.591 194.958 183.572 195.003 183.562 195.051C183.553 195.098 183.552 195.147 183.561 195.195C183.57 195.243 183.589 195.288 183.615 195.329C183.642 195.369 183.676 195.404 183.716 195.431C183.756 195.459 183.801 195.478 183.849 195.488C183.896 195.498 183.945 195.498 183.993 195.489C184.041 195.48 184.086 195.462 184.127 195.435L184.135 195.429L184.162 195.412Z" fill="#474646"/>
<path d="M173.905 196.645C172.637 196.369 171.319 196.439 170.087 196.847C169.478 197.045 168.902 197.333 168.378 197.701C167.857 198.065 167.384 198.493 166.97 198.975C166.947 198.999 166.93 199.026 166.919 199.056C166.907 199.087 166.902 199.119 166.902 199.151C166.904 199.217 166.932 199.278 166.979 199.323C167.027 199.368 167.09 199.392 167.155 199.391C167.221 199.389 167.283 199.361 167.327 199.314L167.34 199.3C167.739 198.866 168.191 198.484 168.686 198.163C169.174 197.842 169.709 197.596 170.272 197.435C171.388 197.106 172.573 197.079 173.703 197.356L173.731 197.363C173.826 197.388 173.927 197.374 174.012 197.325C174.096 197.275 174.157 197.194 174.182 197.099C174.207 197.004 174.193 196.903 174.143 196.819C174.094 196.734 174.013 196.673 173.918 196.648L173.905 196.645Z" fill="#474646"/>
<path d="M180.896 221.415C181.266 221.376 181.633 221.304 181.991 221.202C182.073 221.179 182.143 221.124 182.185 221.05C182.226 220.975 182.237 220.888 182.214 220.805C182.191 220.723 182.136 220.654 182.062 220.612C181.987 220.57 181.899 220.56 181.817 220.583C179.661 221.189 178.442 220.361 178.391 220.325C178.321 220.275 178.235 220.256 178.151 220.27C178.067 220.284 177.992 220.331 177.942 220.401C177.893 220.47 177.873 220.556 177.887 220.641C177.901 220.725 177.948 220.8 178.018 220.849C178.883 221.365 179.9 221.565 180.896 221.415Z" fill="#474646"/>
<path d="M152.065 204.261C159.644 201.592 162.235 196.433 163.073 192.576C163.616 190.003 163.616 187.345 163.073 184.773L162.839 184.833C163.373 187.372 163.372 189.995 162.834 192.533C162.007 196.328 159.45 201.402 151.983 204.034L152.065 204.261Z" fill="#474646"/>
<path opacity="0.1" d="M172.27 213.574C173.914 213.408 175.147 212.295 175.024 211.089C174.902 209.884 173.471 209.041 171.828 209.208C170.185 209.375 168.952 210.487 169.074 211.693C169.196 212.899 170.627 213.741 172.27 213.574Z" fill="#474646"/>
<path opacity="0.1" d="M189.682 209.072C189.808 210.276 191.238 211.118 192.882 210.953C193.166 210.924 193.446 210.866 193.718 210.779C193.82 209.348 193.849 207.97 193.829 206.693C193.376 206.571 192.904 206.535 192.437 206.587C190.794 206.751 189.562 207.863 189.682 209.072Z" fill="#474646"/>
<path d="M117.285 366.231L114.431 391.516H217.918L216.322 366.072L117.285 366.231Z" fill="#474646"/>
<path d="M166.328 258.115C149.849 257.339 149.155 243.345 149.155 243.345C149.155 243.345 140.99 243.874 135.562 244.608C126.676 245.811 117.256 248.864 112.98 256.255C109.907 261.57 109.167 262.532 111.963 292.523C113.987 314.238 117.285 366.232 117.285 366.232L216.322 366.073C216.322 366.073 220.729 299.396 221.561 289.62C223.148 270.959 225.652 244.657 220.335 243.345C214.141 241.815 193.921 244.33 187.381 243.345C187.27 243.33 188.769 259.174 166.328 258.115Z" fill="#00C2FF"/>
<path d="M341.851 184.971C341.996 184.646 342.204 184.353 342.465 184.111C342.726 183.869 343.034 183.683 343.369 183.564C343.704 183.444 344.061 183.395 344.416 183.418C344.771 183.441 345.117 183.536 345.435 183.698C346.038 184.031 346.491 184.582 346.704 185.238C346.917 185.893 346.873 186.606 346.581 187.23L345.148 190.466L354.356 182.331C355.363 181.409 357.19 180.922 358.149 182.122C358.548 182.559 358.787 183.119 358.827 183.709C358.867 184.3 358.706 184.887 358.369 185.374C358.382 185.382 358.393 185.391 358.403 185.401C358.408 185.41 358.413 185.418 358.418 185.427L359.972 184.005C360.258 183.744 360.599 183.549 360.97 183.435C361.34 183.321 361.732 183.29 362.115 183.346C362.499 183.402 362.866 183.541 363.189 183.756C363.512 183.97 363.784 184.253 363.984 184.585C364.293 185.122 364.407 185.749 364.306 186.359C364.206 186.97 363.898 187.528 363.434 187.937L362.773 188.542C362.782 188.57 362.786 188.6 362.784 188.629C363.32 188.326 363.946 188.222 364.551 188.335C365.156 188.449 365.702 188.771 366.093 189.247C366.511 189.795 366.706 190.481 366.638 191.167C366.57 191.854 366.244 192.488 365.726 192.943L364.1 194.431C364.138 194.426 364.177 194.43 364.213 194.443C364.249 194.456 364.282 194.478 364.308 194.506C364.338 194.541 364.356 194.584 364.362 194.629C364.904 194.495 365.476 194.538 365.992 194.752C366.509 194.966 366.943 195.34 367.232 195.819C367.541 196.355 367.655 196.982 367.555 197.593C367.454 198.204 367.146 198.761 366.682 199.171L352.823 211.854C350.884 213.628 348.459 214.783 345.86 215.17C343.261 215.556 340.605 215.157 338.234 214.024L330.6 210.376L341.851 184.971Z" fill="#FBF3E6"/>
<g opacity="0.2">
<path opacity="0.2" d="M349.298 193.473C349.341 193.519 349.4 193.547 349.464 193.55C349.527 193.553 349.589 193.531 349.636 193.489L358.382 185.743C358.406 185.722 358.425 185.696 358.439 185.667C358.453 185.639 358.461 185.608 358.463 185.576C358.465 185.545 358.461 185.513 358.45 185.483C358.44 185.453 358.424 185.425 358.403 185.401C358.382 185.377 358.356 185.358 358.328 185.344C358.299 185.33 358.268 185.322 358.237 185.32C358.205 185.318 358.173 185.323 358.143 185.333C358.113 185.343 358.085 185.359 358.062 185.38L349.313 193.127C349.289 193.148 349.27 193.174 349.256 193.202C349.242 193.231 349.234 193.262 349.232 193.294C349.23 193.325 349.234 193.357 349.245 193.387C349.255 193.417 349.271 193.445 349.292 193.469L349.298 193.473Z" fill="#474646"/>
</g>
<g opacity="0.2">
<path opacity="0.2" d="M352.607 197.426C352.65 197.472 352.709 197.5 352.773 197.503C352.836 197.507 352.898 197.485 352.945 197.443L362.706 188.797C362.73 188.776 362.749 188.75 362.763 188.722C362.777 188.693 362.785 188.662 362.787 188.63C362.789 188.599 362.784 188.567 362.774 188.537C362.764 188.507 362.748 188.479 362.727 188.455C362.683 188.409 362.623 188.382 362.56 188.378C362.497 188.374 362.434 188.395 362.385 188.435L352.624 197.08C352.601 197.102 352.581 197.127 352.567 197.156C352.553 197.184 352.545 197.215 352.543 197.247C352.542 197.279 352.546 197.31 352.556 197.34C352.567 197.37 352.583 197.398 352.604 197.422L352.607 197.426Z" fill="#474646"/>
</g>
<g opacity="0.2">
<path opacity="0.2" d="M356.166 201.728C356.209 201.775 356.269 201.803 356.332 201.806C356.395 201.809 356.457 201.787 356.505 201.745L364.291 194.849C364.339 194.806 364.368 194.746 364.372 194.682C364.376 194.618 364.354 194.555 364.312 194.507C364.269 194.459 364.209 194.43 364.145 194.426C364.081 194.422 364.018 194.444 363.97 194.487L356.184 201.383C356.16 201.404 356.141 201.429 356.127 201.458C356.113 201.487 356.105 201.518 356.103 201.549C356.101 201.581 356.105 201.613 356.116 201.643C356.126 201.673 356.142 201.7 356.163 201.724L356.166 201.728Z" fill="#474646"/>
</g>
<path d="M333.024 193.938L280.538 236.952L207.884 243.509C203.225 243.9 198.896 246.076 195.804 249.584C192.711 253.093 191.093 257.661 191.287 262.334C191.482 267.008 193.474 271.425 196.848 274.664C200.221 277.903 204.715 279.712 209.391 279.714C209.903 279.714 210.419 279.692 210.938 279.648L289.295 272.608C293.007 272.294 296.532 270.843 299.39 268.454L354.358 219.668L333.024 193.938Z" fill="#00C2FF"/>
<path d="M344.665 191.674L346.581 187.23C346.873 186.606 346.917 185.893 346.704 185.238C346.492 184.582 346.038 184.031 345.435 183.698C345.118 183.536 344.771 183.441 344.416 183.418C344.061 183.395 343.705 183.444 343.369 183.564C343.034 183.683 342.727 183.869 342.466 184.111C342.205 184.353 341.996 184.646 341.852 184.971" fill="#FBF3E6"/>
<path d="M207.633 325.023C207.581 325.71 207.269 326.351 206.761 326.817C206.253 327.283 205.588 327.538 204.899 327.53L202.696 327.557C202.727 327.579 202.753 327.607 202.771 327.641C202.789 327.675 202.798 327.712 202.798 327.75C202.799 327.797 202.785 327.842 202.758 327.88C203.252 328.142 203.649 328.555 203.891 329.059C204.133 329.564 204.208 330.132 204.104 330.682C203.975 331.287 203.641 331.83 203.159 332.218C202.677 332.606 202.076 332.817 201.458 332.813L182.679 333.017C180.051 333.047 177.475 332.291 175.28 330.845C173.085 329.4 171.371 327.331 170.36 324.905L167.097 317.092L177.09 314.965L177.329 312.472L192.418 305.663C192.742 305.517 193.093 305.438 193.449 305.431C193.805 305.425 194.158 305.491 194.487 305.626C194.816 305.76 195.115 305.961 195.364 306.215C195.614 306.469 195.809 306.771 195.938 307.102C196.165 307.753 196.136 308.466 195.858 309.097C195.58 309.728 195.073 310.23 194.439 310.501L191.212 311.956L203.496 312.039C204.864 312.023 206.549 312.878 206.464 314.408C206.471 315 206.277 315.578 205.914 316.045C205.55 316.513 205.039 316.843 204.464 316.983C204.464 316.998 204.467 317.008 204.467 317.024L204.46 317.051L206.566 317.029C206.955 317.025 207.339 317.106 207.692 317.269C208.044 317.431 208.357 317.67 208.606 317.968C208.855 318.266 209.035 318.615 209.133 318.991C209.23 319.367 209.243 319.76 209.17 320.142C209.043 320.747 208.711 321.289 208.23 321.677C207.749 322.065 207.148 322.274 206.53 322.27L205.629 322.283C205.617 322.307 205.602 322.329 205.586 322.351C206.186 322.485 206.72 322.826 207.095 323.314C207.469 323.803 207.659 324.408 207.633 325.023Z" fill="#FBF3E6"/>
<g opacity="0.2">
<path opacity="0.2" d="M192.301 316.967C192.302 317.03 192.328 317.09 192.373 317.135C192.418 317.179 192.479 317.204 192.542 317.204L204.224 317.265C204.288 317.265 204.349 317.24 204.395 317.194C204.44 317.149 204.466 317.087 204.466 317.023C204.466 316.959 204.44 316.898 204.395 316.852C204.349 316.807 204.288 316.782 204.224 316.782L192.542 316.721C192.478 316.721 192.417 316.746 192.372 316.791C192.326 316.837 192.301 316.898 192.301 316.962V316.967Z" fill="#474646"/>
</g>
<g opacity="0.2">
<path opacity="0.2" d="M192.132 322.12C192.133 322.184 192.159 322.244 192.204 322.288C192.249 322.333 192.31 322.358 192.374 322.358L205.41 322.426C205.474 322.426 205.535 322.4 205.581 322.355C205.626 322.31 205.652 322.248 205.652 322.184C205.649 322.121 205.623 322.06 205.578 322.015C205.534 321.97 205.473 321.944 205.41 321.942L192.374 321.875C192.309 321.875 192.248 321.9 192.203 321.945C192.157 321.991 192.132 322.052 192.132 322.116V322.12Z" fill="#474646"/>
</g>
<g opacity="0.2">
<path opacity="0.2" d="M191.917 327.701C191.918 327.764 191.944 327.824 191.989 327.869C192.035 327.913 192.095 327.938 192.159 327.938L202.557 327.992C202.621 327.992 202.683 327.967 202.728 327.921C202.773 327.876 202.799 327.815 202.799 327.75C202.799 327.686 202.773 327.625 202.728 327.579C202.683 327.534 202.621 327.509 202.557 327.509L192.159 327.454C192.095 327.454 192.033 327.48 191.988 327.525C191.942 327.571 191.917 327.632 191.917 327.696V327.701Z" fill="#474646"/>
</g>
<path d="M181.708 338.608L103.082 352.62C99.7787 353.497 96.2948 353.422 93.0323 352.404C89.7697 351.385 86.8615 349.465 84.6431 346.864C82.4247 344.263 80.9865 341.087 80.4945 337.704C80.0025 334.32 80.4767 330.866 81.8623 327.741L110.496 261.104C114.557 251.949 124.592 247.82 133.741 251.882C138.136 253.832 141.575 257.448 143.304 261.936C145.033 266.424 144.909 271.414 142.96 275.811L126.145 315.688L178.729 308.698L181.708 338.608Z" fill="#00C2FF"/>
<path d="M116.633 350.539C116.655 350.539 116.678 350.536 116.699 350.53L181.775 338.841C181.836 338.823 181.887 338.783 181.918 338.728C181.95 338.673 181.958 338.609 181.942 338.548L178.963 307.67C178.947 307.608 178.908 307.556 178.854 307.523C178.8 307.49 178.735 307.48 178.673 307.495L126.58 315.339L143.175 275.915C143.199 275.858 143.2 275.794 143.178 275.736C143.156 275.678 143.112 275.63 143.057 275.604C143.001 275.577 142.937 275.572 142.878 275.591C142.819 275.61 142.769 275.651 142.74 275.706L125.928 315.583C125.908 315.624 125.901 315.67 125.906 315.715C125.912 315.76 125.93 315.802 125.958 315.838C125.987 315.873 126.024 315.9 126.067 315.914C126.11 315.929 126.156 315.932 126.2 315.922L178.555 308.017L181.415 338.439L116.565 350.066C116.509 350.082 116.461 350.118 116.429 350.167C116.397 350.216 116.384 350.275 116.392 350.333C116.4 350.391 116.429 350.444 116.473 350.482C116.518 350.52 116.574 350.541 116.633 350.541V350.539Z" fill="#474646"/>
<path d="M119.637 316.8C119.655 316.8 119.672 316.798 119.689 316.794L126.197 315.924C126.228 315.917 126.258 315.905 126.284 315.886C126.311 315.868 126.333 315.845 126.351 315.819C126.368 315.792 126.38 315.762 126.386 315.73C126.391 315.699 126.391 315.667 126.384 315.635C126.377 315.604 126.364 315.575 126.346 315.548C126.328 315.522 126.304 315.5 126.277 315.483C126.25 315.466 126.22 315.454 126.189 315.449C126.157 315.443 126.125 315.444 126.094 315.451L119.586 316.322C119.528 316.335 119.476 316.368 119.442 316.417C119.407 316.465 119.391 316.525 119.398 316.584C119.404 316.643 119.432 316.697 119.476 316.737C119.521 316.777 119.578 316.799 119.637 316.799V316.8Z" fill="#474646"/>
<path d="M222.482 278.913C222.543 278.913 222.601 278.89 222.646 278.849C222.691 278.807 222.719 278.751 222.723 278.69L223.8 264.744C223.805 264.68 223.784 264.617 223.743 264.568C223.701 264.519 223.641 264.489 223.577 264.484C223.513 264.479 223.45 264.5 223.401 264.541C223.352 264.583 223.322 264.643 223.317 264.707L222.24 278.653C222.235 278.717 222.256 278.78 222.298 278.828C222.339 278.877 222.398 278.907 222.462 278.912C222.469 278.913 222.475 278.913 222.482 278.913Z" fill="#474646"/>
<path d="M189.533 199.986C190.4 199.986 191.103 199.283 191.103 198.416C191.103 197.548 190.4 196.845 189.533 196.845C188.666 196.845 187.963 197.548 187.963 198.416C187.963 199.283 188.666 199.986 189.533 199.986Z" fill="#474646"/>
<path d="M173.62 202.676C174.487 202.676 175.19 201.973 175.19 201.105C175.19 200.238 174.487 199.535 173.62 199.535C172.753 199.535 172.05 200.238 172.05 201.105C172.05 201.973 172.753 202.676 173.62 202.676Z" fill="#474646"/>
<path d="M90.4834 392H339.962C340.09 392 340.213 391.949 340.303 391.858C340.394 391.768 340.445 391.645 340.445 391.516C340.445 391.388 340.394 391.265 340.303 391.174C340.213 391.084 340.09 391.033 339.962 391.033H90.4834C90.3552 391.033 90.2322 391.084 90.1416 391.174C90.0509 391.265 90 391.388 90 391.516C90 391.645 90.0509 391.768 90.1416 391.858C90.2322 391.949 90.3552 392 90.4834 392Z" fill="white"/>
<circle cx="243" cy="166" r="13" fill="#00C2FF"/>
<circle cx="281" cy="166" r="13" fill="#00C2FF"/>
<circle cx="319" cy="166" r="13" fill="#00C2FF"/>
<circle cx="356" cy="166" r="13" fill="#00C2FF"/>
</g>
<defs>
<clipPath id="clip0_6030_773">
<rect width="332" height="249" fill="white" transform="translate(49 143)"/>
</clipPath>
</defs>
</svg>
