<svg width="430" height="410" viewBox="0 0 430 410" fill="none" xmlns="http://www.w3.org/2000/svg">
<path d="M396 299.24C396.063 339.331 382.789 378.302 358.275 410H71.7248C47.2108 378.302 33.9376 339.331 34.0002 299.24C34.0002 199.141 115.039 118 215.004 118C314.969 118 396 199.141 396 299.24Z" fill="#00C2FF" fill-opacity="0.24"/>
<circle opacity="0.2" cx="182" cy="71" r="233" fill="#C1C1C1"/>
<ellipse opacity="0.2" cx="341" cy="61.5" rx="157" ry="156.5" fill="#C1C1C1"/>
<path d="M215.797 136.389L189.419 355.344C189.02 358.629 191.287 361.574 194.461 361.885L304.343 373.927C311.078 374.345 314.758 370.914 315.176 367.425L342.878 134.639C343.287 131.17 339.987 128.021 333.232 128.021L222.347 130.353C219.125 130.412 216.186 133.123 215.797 136.389Z" fill="#034F66"/>
<path d="M210.842 136.01L184.318 356.063C183.919 359.358 186.196 362.323 189.379 362.634L303.301 373.957C306.873 374.316 310.144 371.731 310.562 368.222L338.419 134.231C338.838 130.742 336.21 127.933 332.599 128.001L217.422 129.945C214.19 130.003 211.241 132.734 210.842 136.01Z" fill="url(#paint0_linear_6030_775)"/>
<path d="M213.012 148.149L188.426 352.185C188.056 355.266 190.187 358.027 193.166 358.318L300.303 368.718C303.622 369.039 306.669 366.628 307.058 363.363L332.803 147.206C333.193 143.96 330.759 141.326 327.401 141.365L219.164 142.512C216.137 142.551 213.382 145.088 213.012 148.149Z" fill="#474646"/>
<path d="M270.46 135.864C270.324 137.04 271.161 137.973 272.338 137.954C273.516 137.934 274.597 136.972 274.733 135.806C274.869 134.63 274.032 133.697 272.845 133.716C271.667 133.726 270.596 134.688 270.46 135.864Z" fill="#034F66"/>
<path d="M231.536 285.113C253.465 244.622 286.238 232.503 296.098 190.768C301.432 168.21 297.802 146.623 291.679 128.701L332.599 128.011C336.21 127.953 338.829 130.752 338.42 134.241L310.562 368.232C310.144 371.741 306.873 374.316 303.301 373.966L213.752 365.063C213.091 328.781 221.753 303.162 231.536 285.113Z" fill="#C2F1FF"/>
<path d="M312.324 161.28L312.86 164.167L301.841 164.196L206.199 164.419C203.737 164.429 201.479 166.46 201.138 168.958L178.303 321.327C177.962 323.844 181.895 327.703 184.338 327.887L226.766 331.143V331.095L290.239 335.954L290.395 336.022C293.101 336.226 295.592 334.263 295.943 331.6V331.61L317.327 168.929C317.678 166.285 315.05 161.27 312.324 161.28Z" fill="#00C2FF"/>
<path d="M293.782 328.422C293.432 331.085 290.949 333.077 288.234 332.873L182.07 324.728C179.627 324.544 177.923 322.347 178.264 319.82L199.016 165.838C199.357 163.34 201.615 161.309 204.077 161.299L310.845 161.008C313.57 160.998 315.497 163.136 315.157 165.77L293.782 328.422Z" fill="white"/>
<path opacity="0.4" d="M315.156 165.77L293.781 328.422C293.431 331.085 290.783 333.068 288.077 332.854L224.313 327.965C221.286 324.865 218.784 321.152 217.013 316.691C216.137 314.504 215.494 312.142 215.076 309.664C213.888 302.792 214.346 294.988 216.078 287.329C217.402 281.429 219.485 275.607 222.152 270.349C224.283 266.151 226.785 262.312 229.588 259.075C231.603 256.752 233.783 254.497 236.081 252.281C238.855 249.608 241.794 247.004 244.841 244.418C251.927 238.392 259.509 232.503 266.527 226.282C282.724 211.927 295.874 195.9 292.71 173.021C292.613 172.302 291.62 166.781 290.365 161.056L310.698 160.998C313.414 160.998 315.506 163.136 315.156 165.77Z" fill="white"/>
<path d="M276.504 377.31C276.534 377.31 276.563 377.319 276.592 377.319C281.293 378.068 287.172 377.543 290.978 374.423C292.983 372.781 294.336 370.613 294.755 368.038C294.998 366.512 295.134 364.908 294.901 363.372C294.648 361.769 294.025 360.214 293.227 358.814C292.779 358.027 292.273 357.269 291.728 356.54C290.18 354.46 286.52 351.544 288.214 348.609C289.236 346.83 291.601 345.732 293.168 344.488C296.507 341.825 298.901 337.976 298.94 333.593C298.969 330.142 296.799 326.731 294.356 324.408C284.418 314.97 291.737 298.749 277.663 300.022C263.578 301.295 260.532 315.33 265.798 328.432C267.559 332.815 269.71 337.305 270.908 341.883C271.852 345.489 270.518 347.987 267.579 350.115C265.992 351.262 263.685 352.04 262.303 353.4C259.227 356.423 256.765 360.651 257.505 365.083C258.235 369.476 261.982 372.703 265.934 374.374C269.36 375.813 272.854 376.727 276.504 377.31Z" fill="url(#paint1_linear_6030_775)"/>
<g opacity="0.8">
<path d="M278.169 373.548C278.198 373.548 278.237 373.539 278.266 373.529C278.412 373.471 278.49 373.305 278.441 373.16C278.383 372.994 272.552 356.734 277.653 343.701C282.841 330.453 277.04 316.273 276.981 316.127C276.923 315.981 276.748 315.913 276.602 315.972C276.456 316.03 276.387 316.205 276.446 316.351C276.504 316.487 282.218 330.463 277.117 343.487C271.929 356.724 277.838 373.198 277.896 373.354C277.935 373.471 278.042 373.548 278.169 373.548Z" fill="white"/>
</g>
<path d="M273.535 352.885C274.713 351.019 276.066 349.27 277.468 347.685C282.227 342.33 285.566 336.644 287.698 329.783C289.381 324.379 289.342 318.197 290.394 312.618C291.153 308.575 292.525 304.658 293.946 300.809C296.983 292.616 301.529 283.101 309.179 278.183C312.722 275.909 317.969 275.676 321.862 277.308C326.914 279.427 331.391 283.548 331.713 289.273C332.16 297.155 325.269 305.98 330.963 313.231C339.694 324.32 335.616 336.654 323.614 342.68C319.701 344.643 315.117 346.471 311.856 349.483C308.576 352.516 310.532 357.677 310.893 361.516C311.233 365.112 311.613 369.301 309.316 372.372C305.442 377.562 296.078 379.827 289.995 380.342C284.106 380.838 277.419 380.187 273.292 375.482C267.092 368.407 269.116 359.864 273.535 352.885Z" fill="url(#paint2_linear_6030_775)"/>
<g opacity="0.8">
<path d="M283.112 375.473C283.229 375.473 283.336 375.405 283.385 375.288C283.58 374.783 302.609 324.622 313.471 304.406C313.549 304.27 313.491 304.095 313.355 304.017C313.218 303.939 313.043 303.997 312.965 304.133C302.083 324.379 283.035 374.579 282.85 375.084C282.791 375.23 282.869 375.405 283.015 375.453C283.044 375.463 283.083 375.473 283.112 375.473Z" fill="white"/>
</g>
<path d="M291.348 382.568C290.082 382.393 288.817 382.179 287.561 381.975C284.048 381.411 279.697 380.323 278.587 376.406C278.276 375.288 278.811 373.296 278.947 372.139C279.084 370.963 279.249 369.777 279.522 368.621C279.901 367.027 280.514 365.52 281.303 364.082C282.675 361.594 284.233 359.718 287.153 359.144C289.275 358.736 291.63 358.639 293.791 358.707C305.559 359.096 307.009 354.858 313.472 345.8C319.935 336.742 362.481 351.389 336.813 367.474C336.813 367.474 332.959 369.981 318.874 368.339C316.295 368.038 313.044 367.843 310.854 369.505C306.999 372.44 310.873 378.661 306.99 381.1C304.722 382.519 301.081 382.937 298.473 383.044C296.078 383.132 293.703 382.898 291.348 382.568Z" fill="url(#paint3_linear_6030_775)"/>
<g opacity="0.8">
<path d="M283.493 377.718C283.581 377.718 283.668 377.679 283.727 377.601C283.805 377.504 291.251 367.386 301.821 364.995C305.958 364.062 309.53 361.973 312.986 359.951C318.816 356.54 324.316 353.323 332.443 354.975C332.599 355.004 332.755 354.907 332.784 354.751C332.813 354.596 332.716 354.44 332.56 354.411C324.218 352.71 318.359 356.141 312.694 359.455C309.277 361.458 305.744 363.518 301.695 364.432C290.91 366.871 283.337 377.154 283.259 377.261C283.162 377.387 283.191 377.572 283.328 377.669C283.376 377.698 283.435 377.718 283.493 377.718Z" fill="white"/>
</g>
<path d="M164.851 162.786C164.851 180.174 150.825 195.2 133.46 196.366C116.037 197.533 101.875 184.295 101.875 166.8C101.875 149.306 116.037 134.27 133.46 133.211C150.825 132.151 164.851 145.399 164.851 162.786Z" fill="url(#paint4_linear_6030_775)"/>
<path d="M168.579 163.894C168.579 181.282 154.553 196.308 137.188 197.474C119.765 198.641 105.603 185.403 105.603 167.908C105.603 150.414 119.775 135.368 137.188 134.319C154.553 133.269 168.579 146.507 168.579 163.894Z" fill="url(#paint5_linear_6030_775)"/>
<path d="M136.079 182.983C134.716 183.07 133.441 182.439 132.74 181.302L120.865 162.271C119.756 160.483 120.349 158.043 122.199 156.819C124.048 155.594 126.452 156.041 127.562 157.82L135.797 171.028L146.659 148.936C147.633 146.954 149.978 146.04 151.886 146.905C153.794 147.76 154.563 150.064 153.59 152.047L139.554 180.621C138.911 181.933 137.636 182.827 136.215 182.973C136.176 182.973 136.128 182.983 136.079 182.983Z" fill="white"/>
<path d="M290.627 192.158C291.493 192.168 292.35 191.517 292.447 190.681L294.997 170.251C295.104 169.415 294.481 168.744 293.605 168.744H276.435C275.588 168.744 274.81 169.405 274.712 170.231C274.615 171.048 275.16 171.718 276.007 171.718L291.522 171.748L289.176 190.632C289.079 191.458 289.76 192.139 290.627 192.158Z" fill="url(#paint6_linear_6030_775)"/>
<path d="M266.303 251.475L283.18 252.466C284.037 252.515 284.816 251.892 284.923 251.076L287.434 230.938C287.541 230.121 286.86 229.422 285.994 229.392C285.137 229.354 284.29 229.985 284.183 230.811L281.866 249.434L266.595 248.569C265.757 248.52 265.027 249.132 264.93 249.939C264.842 250.736 265.465 251.426 266.303 251.475Z" fill="url(#paint7_linear_6030_775)"/>
<path d="M212.709 190.885C213.488 190.894 214.121 190.272 214.208 189.495L216.272 171.602L230.639 171.631C231.437 171.631 232.196 170.989 232.284 170.192C232.381 169.395 231.836 168.754 231.038 168.754H215.318C214.539 168.754 213.839 169.386 213.741 170.173L211.522 189.456C211.454 190.234 211.941 190.875 212.709 190.885Z" fill="url(#paint8_linear_6030_775)"/>
<path d="M206.208 247.956L221.675 248.86C222.463 248.909 223.174 248.306 223.261 247.529C223.349 246.751 222.726 246.08 221.938 246.032L207.785 245.235L209.819 227.575C209.907 226.797 209.42 226.146 208.651 226.107C207.882 226.078 207.25 226.671 207.162 227.449L204.972 246.469C204.884 247.247 205.439 247.908 206.208 247.956Z" fill="url(#paint9_linear_6030_775)"/>
<path d="M269.944 265.723C269.836 266.52 269.097 267.113 268.289 267.074L212.116 265.023C211.377 264.994 210.851 264.382 210.958 263.633L212.058 255.459C212.155 254.701 212.837 254.186 213.577 254.215L269.798 255.77C270.605 255.79 271.18 256.363 271.082 257.16L269.944 265.723Z" fill="#F4F7FA"/>
<path d="M267.774 282.333C267.667 283.13 266.927 283.811 266.119 283.762L209.986 280.992C209.246 280.953 208.73 280.244 208.827 279.485L209.937 271.156C210.034 270.398 210.725 269.747 211.465 269.776L267.637 272.041C268.445 272.07 269.02 272.808 268.912 273.596L267.774 282.333Z" fill="#F4F7FA"/>
<path d="M271.092 257.121C270.956 257.083 270.82 257.053 270.664 257.053L214.433 255.498C213.693 255.479 213.012 255.994 212.915 256.742L211.805 264.916C211.805 264.936 211.805 264.955 211.795 264.975C211.221 264.809 210.861 264.275 210.949 263.624L212.058 255.45C212.156 254.692 212.837 254.177 213.577 254.206L269.807 255.761C270.596 255.79 271.17 256.344 271.092 257.121Z" fill="#AABBCC"/>
<path d="M268.921 273.421C268.785 273.362 268.639 273.333 268.483 273.333L212.321 271.069C211.581 271.039 210.9 271.691 210.793 272.449L209.673 280.778C209.664 280.836 209.664 280.885 209.664 280.934C209.089 280.749 208.729 280.137 208.817 279.495L209.936 271.166C210.033 270.408 210.725 269.756 211.464 269.786L267.627 272.05C268.376 272.07 268.921 272.701 268.921 273.421Z" fill="#AABBCC"/>
<path d="M252.842 295.794C253.007 294.541 252.122 293.384 250.856 293.316L221.802 291.654C220.595 291.586 219.485 292.597 219.32 293.821L218.122 302.851C217.957 304.075 218.794 305.241 220.001 305.329L249.046 307.312C250.311 307.399 251.47 306.33 251.635 305.076L252.842 295.794Z" fill="url(#paint10_linear_6030_775)"/>
<path d="M131.153 228.352L166.077 241.104L157.23 253.389L132.915 235.788L131.153 228.352Z" fill="white"/>
<path d="M156.772 252.952L159.429 243.048C159.536 242.65 159.838 242.339 160.227 242.212L164.88 240.735C164.89 240.735 164.89 240.735 164.899 240.725L164.938 240.715C164.948 240.715 164.968 240.715 164.977 240.706C164.987 240.706 164.997 240.706 165.007 240.696C165.016 240.696 165.026 240.696 165.036 240.696C165.269 240.657 165.727 240.657 166.077 241.094C165.814 241.289 165.571 241.279 165.376 241.192L162.048 251.873L157.22 253.37C157.093 253.409 156.957 253.38 156.86 253.282C156.772 253.214 156.733 253.078 156.772 252.952Z" fill="url(#paint11_linear_6030_775)"/>
<path d="M157.56 252.942L160.179 243.349C160.286 242.961 160.578 242.65 160.967 242.523L165.727 240.978C165.834 240.939 165.951 240.968 166.029 241.046C166.106 241.124 166.136 241.24 166.106 241.347L162.962 251.475C162.885 251.727 162.68 251.931 162.427 252.009L158.018 253.389C157.891 253.428 157.755 253.399 157.658 253.302C157.57 253.205 157.531 253.069 157.56 252.942Z" fill="#474646"/>
<path d="M170.583 249.297C172.559 251.028 168.948 264.022 158.708 267.89C150.639 270.942 141.003 267.56 136.38 260.854C133.713 256.985 131.299 250.094 134.258 246.732C134.394 246.576 136.068 244.739 138.443 244.875C143.962 245.177 144.322 255.537 150.24 256.81C151.632 257.112 152.128 256.645 163.75 251.591C169.367 249.152 170.116 248.889 170.583 249.297Z" fill="url(#paint12_linear_6030_775)"/>
<path d="M155.516 254.468C155.516 254.468 155.02 252.544 156.207 251.659C157.395 250.775 157.891 248.452 158.086 249.288C158.28 250.124 158.086 251.115 158.086 251.115C158.086 251.115 162.33 247.412 162.281 248.695C162.232 249.978 159.166 254.264 157.19 255.11C155.214 255.945 155.545 256.072 155.516 254.468Z" fill="url(#paint13_linear_6030_775)"/>
<path d="M170.049 249.434C170.049 249.434 170.117 246.702 171.529 246.08C172.94 245.458 174.556 242.3 174.458 243.913C174.361 245.526 172.911 246.285 172.911 246.285C172.911 246.285 175.247 247.12 174.225 248.432C173.203 249.735 172.054 249.997 170.867 250.59C170.867 250.59 170.545 251.581 169.728 251.436C168.91 251.29 169.621 249.881 170.049 249.434Z" fill="url(#paint14_linear_6030_775)"/>
<path d="M120.388 283.325C112.504 287.096 105.019 285.968 99.7822 285.181C93.8642 284.296 88.1701 283.431 85.9314 279.019C83.7218 274.645 85.6977 268.367 89.1921 264.955C93.2997 260.941 97.3975 262.943 100.249 259.026C103.179 255.022 99.7238 251.766 102.342 247.286C105.642 241.648 112.738 244.039 116.193 238.334C119.025 233.649 115.551 229.83 118.402 226.827C122.354 222.667 133.889 224.892 135.738 229.791C136.458 231.706 135.368 233.134 134.56 235.827C131.991 244.399 137.247 249.259 137.733 257.034C138.376 267.57 130.102 278.679 120.388 283.325Z" fill="#474646"/>
<path d="M115.044 372.742C115.044 372.742 122.928 373.743 123.23 375.531C123.58 377.611 114.46 375.784 114.46 375.784C114.46 375.784 113.058 375.327 115.044 372.742Z" fill="#034F66"/>
<path d="M115.54 368.485L115.346 372.878C115.346 372.878 116.309 374.102 117.419 373.218L118.295 368.485H115.54Z" fill="#FBF3E6"/>
<path d="M127.892 374.87C127.892 374.87 135.776 375.871 136.078 377.66C136.428 379.74 127.308 377.912 127.308 377.912C127.308 377.912 125.916 377.455 127.892 374.87Z" fill="#034F66"/>
<path d="M128.399 370.613L128.204 375.006C128.204 375.006 129.168 376.231 130.277 375.346L131.153 370.613H128.399Z" fill="#FBF3E6"/>
<path d="M139.037 298.127C138.619 304.483 137.606 313.649 134.852 324.437C133.859 328.315 132.866 331.551 130.618 338.277C127.941 346.305 124.164 357.269 119.239 370.516C117.808 370.73 116.387 370.953 114.956 371.167C111.997 360.418 112.854 351.962 115.881 345.236C117.682 341.251 118.733 341.222 120.582 336.771C122.549 332.047 123.347 327.285 122.85 311.219C122.714 306.67 122.451 300.625 121.916 293.462C127.63 295.017 133.333 296.572 139.037 298.127Z" fill="url(#paint15_linear_6030_775)"/>
<path opacity="0.3" d="M139.037 298.127C138.619 304.483 137.606 313.649 134.852 324.437C133.859 328.315 132.866 331.551 130.618 338.277C127.941 346.305 124.164 357.269 119.239 370.516C117.808 370.73 116.387 370.953 114.956 371.167C112.435 361.127 114.285 355.859 116.572 352.885C117.993 351.048 119.775 349.833 121.069 346.665C122.597 342.942 121.517 341.251 122.315 336.897C123.386 331.017 125.926 330.929 126.831 326.342C127.892 320.919 124.885 318.314 122.86 311.229C121.731 307.283 120.738 301.373 121.926 293.471C127.63 295.017 133.333 296.572 139.037 298.127Z" fill="url(#paint16_linear_6030_775)"/>
<path d="M129.148 297.116C132.739 301.626 142.823 315.524 143.115 335.741C143.388 354.596 134.988 368.038 131.61 372.868C130.209 372.742 128.807 372.615 127.396 372.489C127.045 368.494 126.86 362.498 128.096 355.393C129.936 344.809 132.837 343.671 132.399 337.636C131.854 330.064 127.055 328.85 119.599 315.107C115.579 307.7 110.771 298.846 113.895 295.571C114.489 294.939 117.39 292.402 129.148 297.116Z" fill="url(#paint17_linear_6030_775)"/>
<path d="M132.799 241.726C137.85 242.649 140.887 246.11 141.715 247.091C142.756 248.316 145.822 252.291 145.881 262.486C145.939 272.254 143.145 273.391 142.299 282.654C141.053 296.329 146.319 302.744 142.639 305.825C139.515 308.449 135.709 303.784 125.187 304.289C116.495 304.707 114.821 308.079 107.355 307.244C106.216 307.117 96.2394 305.883 94.7015 300.673C93.6308 297.048 97.5729 294.677 102.965 285.91C108.134 277.522 110.674 269.708 111.94 265.83C115.745 254.128 114.169 250.93 118.471 246.644C118.996 246.11 125.022 240.317 132.799 241.726Z" fill="url(#paint18_linear_6030_775)"/>
<path d="M127.688 232.444C127.688 232.444 128.719 239.588 124.797 243.417C124.515 243.689 124.651 244.156 125.03 244.243C126.851 244.623 131.094 245.245 135.202 243.864C135.562 243.748 135.64 243.272 135.348 243.038C134.491 242.348 133.041 241.036 132.272 239.452C131.133 237.11 130.929 233.105 130.929 233.105L127.688 232.444Z" fill="#FBF3E6"/>
<g opacity="0.3">
<path d="M102.955 285.91C108.123 277.522 110.664 269.708 111.929 265.83C115.735 254.128 114.158 250.93 118.46 246.644C118.733 246.372 120.466 244.71 123.123 243.349C122.412 245.643 121.994 248.345 122.393 251.28C123.756 261.252 133.392 264.722 132.165 270.923C131.046 276.589 122.461 276.356 121.225 282.43C119.959 288.69 128.272 292.791 126.578 297.194C124.953 301.441 116.592 299.206 108.308 304.279C107.043 305.057 105.904 305.922 104.872 306.855C101.485 306.175 95.8202 304.503 94.6911 300.673C93.6302 297.048 97.5625 294.677 102.955 285.91Z" fill="#A0E8FF"/>
</g>
<path d="M127.572 234.991C127.572 234.991 129.343 237.421 132.127 236.41C134.619 235.506 133.129 229.081 131.153 228.352C130.492 228.11 129.285 228.216 128.477 228.722C127.912 229.072 126.394 230.957 127.26 233.066C126.627 232.882 126.082 233.047 125.936 233.358C125.761 233.756 126.296 234.291 126.413 234.408C126.832 234.835 127.338 234.952 127.572 234.991Z" fill="#FBF3E6"/>
<path d="M158.437 254.594C157.502 254.245 156.568 253.885 155.624 253.535C155.069 254.536 151.39 260.98 144.508 261.962C138.016 262.885 131.923 258.482 129.09 254.177C126.404 250.085 126.949 246.527 124.437 245.75C121.907 244.972 118.773 247.781 117.283 249.706C113.76 254.254 113.877 261.048 116.057 265.917C119.6 273.839 129.119 277.892 137.237 277.065C149.813 275.792 155.634 263.147 156.617 260.863C157.687 258.395 158.184 256.179 158.437 254.594Z" fill="url(#paint19_linear_6030_775)"/>
<path d="M113.438 224.222C113.078 224.232 112.757 223.94 112.757 223.571V214.619C112.757 214.26 113.049 213.958 113.419 213.958H120.563C120.914 213.958 121.206 214.25 121.206 214.609C121.206 214.969 120.943 215.261 120.592 215.261L114.129 215.27V223.541C114.12 223.921 113.798 224.222 113.438 224.222Z" fill="url(#paint20_linear_6030_775)"/>
<path d="M120.553 250.473L113.409 250.911C113.049 250.93 112.747 250.658 112.747 250.289V241.337C112.747 240.978 113.068 240.667 113.428 240.647C113.789 240.628 114.11 240.91 114.11 241.279V249.55L120.573 249.161C120.923 249.142 121.206 249.414 121.206 249.774C121.206 250.133 120.914 250.454 120.553 250.473Z" fill="url(#paint21_linear_6030_775)"/>
<path d="M120.553 250.473L113.409 250.911C113.049 250.93 112.747 250.658 112.747 250.289V241.337C112.747 240.978 113.068 240.667 113.428 240.647C113.789 240.628 114.11 240.91 114.11 241.279V249.55L120.573 249.161C120.923 249.142 121.206 249.414 121.206 249.774C121.206 250.133 120.914 250.454 120.553 250.473Z" fill="url(#paint22_linear_6030_775)"/>
<path d="M146.025 223.668C145.704 223.678 145.461 223.396 145.461 223.056V215.212L139.475 215.222C139.144 215.222 138.861 214.94 138.861 214.59C138.861 214.24 139.114 213.958 139.445 213.958H145.986C146.307 213.958 146.57 214.24 146.57 214.58V223.026C146.58 223.376 146.346 223.658 146.025 223.668Z" fill="url(#paint23_linear_6030_775)"/>
<path d="M145.996 248.909L139.455 249.317C139.124 249.336 138.852 249.074 138.852 248.724C138.852 248.374 139.153 248.083 139.484 248.063L145.47 247.713V239.87C145.47 239.53 145.704 239.238 146.035 239.219C146.356 239.209 146.59 239.471 146.59 239.811V248.258C146.58 248.598 146.317 248.889 145.996 248.909Z" fill="url(#paint24_linear_6030_775)"/>
<path d="M245.24 243.651C226.659 243.651 213.003 228.119 214.755 209.381C216.478 191.021 232.421 176.354 250.321 176.354C268.221 176.354 281.955 191.021 280.894 209.381C279.824 228.119 263.822 243.651 245.24 243.651Z" fill="#AABBCC"/>
<path d="M279.599 209.39C278.548 227.41 263.208 242.29 245.337 242.29C227.466 242.29 214.374 227.419 216.049 209.39C217.694 191.721 232.975 177.637 250.223 177.637C267.471 177.637 280.631 191.711 279.599 209.39Z" fill="#EAEDF3"/>
<mask id="mask0_6030_775" style="mask-type:luminance" maskUnits="userSpaceOnUse" x="215" y="177" width="65" height="66">
<path d="M279.599 209.39C278.548 227.41 263.208 242.29 245.337 242.29C227.466 242.29 214.374 227.419 216.049 209.39C217.694 191.721 232.975 177.637 250.223 177.637C267.471 177.637 280.631 191.711 279.599 209.39Z" fill="white"/>
</mask>
<g mask="url(#mask0_6030_775)">
<path d="M246.116 186.394C240.062 186.22 234.046 189.369 231.107 193.762C227.544 199.088 231.467 201.751 228.683 210.498C226.104 218.624 221.578 220.023 221.821 225.408C222.093 231.336 227.827 235.127 230.094 236.624C240.344 243.388 257.261 243.106 266.391 234.388C267.15 233.659 273.389 227.701 272.143 222.239C271.034 217.389 264.999 217.35 264.084 212.335C263.296 208.039 267.491 206.649 267.501 200.468C267.501 199.263 267.51 193.577 263.159 190.963C260.268 189.223 256.92 189.718 255.694 189.961C254.321 188.873 250.953 186.54 246.116 186.394Z" fill="#474646"/>
<path d="M211.065 231.453C211.065 231.453 243.848 214.075 281.254 231.395C281.254 231.395 275.433 246.498 245.629 247.538C214.793 248.617 211.065 231.453 211.065 231.453Z" fill="url(#paint25_linear_6030_775)"/>
<path d="M243.05 208.904L241.24 217.107C240.617 219.926 238.388 222.288 235.458 223.201L225.656 226.273C225.656 226.273 243.284 234.699 266.975 226.273L256.716 222.783C253.815 221.714 251.986 219.041 252.073 215.999L252.287 209.001L243.05 208.904Z" fill="#FBF3E6"/>
<path d="M257.63 201.887C257.144 208.758 252.218 216.155 246.748 216.116C241.249 216.077 237.375 208.525 237.939 201.576C238.504 194.685 243.225 191.04 248.637 191.157C254.029 191.274 258.107 195.074 257.63 201.887Z" fill="#FBF3E6"/>
<path d="M252.628 195.628C249.688 195.715 245.191 196.298 241.862 199.292C236.256 204.346 238.066 212.559 235.701 213.025C233.589 213.443 230.883 207.563 231.477 201.197C231.973 195.9 234.416 189.728 239.536 188.28C242.534 187.434 243.284 188.931 252.667 190.01C258.137 190.642 255.811 192.916 256.988 193.801C262.235 197.766 260.658 210.547 257.65 210.673C256.219 210.741 254.506 207.349 252.628 195.628Z" fill="#323232"/>
</g>
<defs>
<linearGradient id="paint0_linear_6030_775" x1="229.344" y1="136.336" x2="336.134" y2="500.429" gradientUnits="userSpaceOnUse">
<stop stop-color="#00C2FF"/>
<stop offset="0.9964" stop-color="#00536D"/>
</linearGradient>
<linearGradient id="paint1_linear_6030_775" x1="298.946" y1="338.794" x2="257.383" y2="338.794" gradientUnits="userSpaceOnUse">
<stop stop-color="#0071B7"/>
<stop offset="1" stop-color="#00C2FF"/>
</linearGradient>
<linearGradient id="paint2_linear_6030_775" x1="335.646" y1="328.375" x2="269.389" y2="328.375" gradientUnits="userSpaceOnUse">
<stop stop-color="#474646"/>
<stop offset="0.9964" stop-color="#2D2D2D"/>
</linearGradient>
<linearGradient id="paint3_linear_6030_775" x1="344.954" y1="363.045" x2="278.487" y2="363.045" gradientUnits="userSpaceOnUse">
<stop offset="0.00359712" stop-color="#0687D7"/>
<stop offset="1" stop-color="#00C2FF"/>
</linearGradient>
<linearGradient id="paint4_linear_6030_775" x1="101.878" y1="164.788" x2="164.855" y2="164.788" gradientUnits="userSpaceOnUse">
<stop stop-color="#00C2FF"/>
<stop offset="0.9964" stop-color="#26264F"/>
</linearGradient>
<linearGradient id="paint5_linear_6030_775" x1="131.321" y1="156.905" x2="159.917" y2="196.506" gradientUnits="userSpaceOnUse">
<stop stop-color="#034F66"/>
<stop offset="0.9964" stop-color="#00C2FF"/>
</linearGradient>
<linearGradient id="paint6_linear_6030_775" x1="282.995" y1="177.122" x2="293.946" y2="190.34" gradientUnits="userSpaceOnUse">
<stop stop-color="#034F66"/>
<stop offset="0.9964" stop-color="#00C2FF"/>
</linearGradient>
<linearGradient id="paint7_linear_6030_775" x1="274.12" y1="237.648" x2="284.61" y2="251.896" gradientUnits="userSpaceOnUse">
<stop stop-color="#034F66"/>
<stop offset="0.9964" stop-color="#00C2FF"/>
</linearGradient>
<linearGradient id="paint8_linear_6030_775" x1="220.001" y1="176.673" x2="230.17" y2="189.96" gradientUnits="userSpaceOnUse">
<stop stop-color="#034F66"/>
<stop offset="0.9964" stop-color="#00C2FF"/>
</linearGradient>
<linearGradient id="paint9_linear_6030_775" x1="218.465" y1="233.074" x2="206.922" y2="248.751" gradientUnits="userSpaceOnUse">
<stop stop-color="#034F66"/>
<stop offset="0.9964" stop-color="#00C2FF"/>
</linearGradient>
<linearGradient id="paint10_linear_6030_775" x1="207.557" y1="260.627" x2="290.562" y2="375.995" gradientUnits="userSpaceOnUse">
<stop stop-color="#034F66"/>
<stop offset="0.9964" stop-color="#00C2FF"/>
</linearGradient>
<linearGradient id="paint11_linear_6030_775" x1="157.95" y1="237.756" x2="159.264" y2="241.308" gradientUnits="userSpaceOnUse">
<stop stop-color="#444B8C"/>
<stop offset="0.9964" stop-color="#26264F"/>
</linearGradient>
<linearGradient id="paint12_linear_6030_775" x1="171.1" y1="256.951" x2="132.911" y2="256.951" gradientUnits="userSpaceOnUse">
<stop stop-color="#0A9DD2"/>
<stop offset="0.9964" stop-color="#309AD9"/>
</linearGradient>
<linearGradient id="paint13_linear_6030_775" x1="162.282" y1="252.072" x2="155.412" y2="252.072" gradientUnits="userSpaceOnUse">
<stop stop-color="#311944"/>
<stop offset="1" stop-color="#A03976"/>
</linearGradient>
<linearGradient id="paint14_linear_6030_775" x1="174.493" y1="247.456" x2="169.364" y2="247.456" gradientUnits="userSpaceOnUse">
<stop stop-color="#311944"/>
<stop offset="1" stop-color="#A03976"/>
</linearGradient>
<linearGradient id="paint15_linear_6030_775" x1="139.034" y1="332.312" x2="113.127" y2="332.312" gradientUnits="userSpaceOnUse">
<stop stop-color="#329ADA"/>
<stop offset="0.9964" stop-color="#00C2FF"/>
</linearGradient>
<linearGradient id="paint16_linear_6030_775" x1="139.034" y1="332.312" x2="113.745" y2="332.312" gradientUnits="userSpaceOnUse">
<stop stop-color="#444B8C"/>
<stop offset="0.9964" stop-color="#3E4177"/>
</linearGradient>
<linearGradient id="paint17_linear_6030_775" x1="143.121" y1="333.597" x2="112.898" y2="333.597" gradientUnits="userSpaceOnUse">
<stop stop-color="#329ADA"/>
<stop offset="0.9964" stop-color="#00C2FF"/>
</linearGradient>
<linearGradient id="paint18_linear_6030_775" x1="145.886" y1="274.442" x2="94.5203" y2="274.442" gradientUnits="userSpaceOnUse">
<stop stop-color="#00C1FE"/>
<stop offset="0.9964" stop-color="#329ADA"/>
</linearGradient>
<linearGradient id="paint19_linear_6030_775" x1="158.438" y1="261.395" x2="114.506" y2="261.395" gradientUnits="userSpaceOnUse">
<stop stop-color="#329ADA"/>
<stop offset="0.9964" stop-color="#009FD1"/>
</linearGradient>
<linearGradient id="paint20_linear_6030_775" x1="115.653" y1="220.845" x2="120.618" y2="213.855" gradientUnits="userSpaceOnUse">
<stop stop-color="#034F66"/>
<stop offset="0.9964" stop-color="#00C2FF"/>
</linearGradient>
<linearGradient id="paint21_linear_6030_775" x1="118.168" y1="243.963" x2="113.086" y2="250.866" gradientUnits="userSpaceOnUse">
<stop stop-color="#AA80F9"/>
<stop offset="0.9964" stop-color="#6165D7"/>
</linearGradient>
<linearGradient id="paint22_linear_6030_775" x1="115.647" y1="247.535" x2="120.61" y2="240.538" gradientUnits="userSpaceOnUse">
<stop stop-color="#034F66"/>
<stop offset="0.9964" stop-color="#00C2FF"/>
</linearGradient>
<linearGradient id="paint23_linear_6030_775" x1="141.504" y1="220.474" x2="146.254" y2="214.022" gradientUnits="userSpaceOnUse">
<stop stop-color="#034F66"/>
<stop offset="0.9964" stop-color="#00C2FF"/>
</linearGradient>
<linearGradient id="paint24_linear_6030_775" x1="141.414" y1="242.49" x2="146.145" y2="248.915" gradientUnits="userSpaceOnUse">
<stop stop-color="#034F66"/>
<stop offset="0.9964" stop-color="#00C2FF"/>
</linearGradient>
<linearGradient id="paint25_linear_6030_775" x1="219.129" y1="76.222" x2="268.837" y2="362.465" gradientUnits="userSpaceOnUse">
<stop stop-color="#329ADA"/>
<stop offset="0.9964" stop-color="#00C2FF"/>
</linearGradient>
</defs>
</svg>
