<svg width="430" height="410" viewBox="0 0 430 410" fill="none" xmlns="http://www.w3.org/2000/svg">
<path d="M396 299.24C396.063 339.331 382.789 378.302 358.275 410H71.7248C47.2108 378.302 33.9376 339.331 34.0002 299.24C34.0002 199.141 115.039 118 215.004 118C314.969 118 396 199.141 396 299.24Z" fill="#00C2FF" fill-opacity="0.24"/>
<circle opacity="0.2" cx="182" cy="71" r="233" fill="#C1C1C1"/>
<ellipse opacity="0.2" cx="341" cy="61.5" rx="157" ry="156.5" fill="#C1C1C1"/>
<path d="M410.841 380.578H19V380.734H410.841V380.578Z" fill="#EBEBEB"/>
<path d="M371.579 393.195H345.639V393.352H371.579V393.195Z" fill="#EBEBEB"/>
<path d="M278.555 395.389H271.737V395.546H278.555V395.389Z" fill="#EBEBEB"/>
<path d="M344.855 385.985H329.809V386.142H344.855V385.985Z" fill="#EBEBEB"/>
<path d="M93.9986 387.239H60.1436V387.396H93.9986V387.239Z" fill="#EBEBEB"/>
<path d="M105.911 387.239H100.974V387.396H105.911V387.239Z" fill="#EBEBEB"/>
<path d="M195.486 390.609H122.055V390.765H195.486V390.609Z" fill="#EBEBEB"/>
<path d="M204.733 345.625H53.4035C50.9741 345.625 48.9365 343.588 48.9365 341.158V128.467C48.9365 126.038 50.9741 124 53.4035 124H204.733C207.162 124 209.2 126.038 209.2 128.467V341.158C209.2 343.666 207.24 345.625 204.733 345.625ZM53.4035 124.157C51.0525 124.157 49.0933 126.038 49.0933 128.467V341.158C49.0933 343.509 50.9741 345.469 53.4035 345.469H204.733C207.084 345.469 209.043 343.588 209.043 341.158V128.467C209.043 126.116 207.162 124.157 204.733 124.157H53.4035Z" fill="#EBEBEB"/>
<path d="M374.243 345.625H222.914C220.485 345.625 218.447 343.588 218.447 341.158V128.467C218.447 126.038 220.485 124 222.914 124H374.243C376.673 124 378.71 126.038 378.71 128.467V341.158C378.71 343.666 376.751 345.625 374.243 345.625ZM222.914 124.157C220.563 124.157 218.604 126.038 218.604 128.467V341.158C218.604 343.509 220.485 345.469 222.914 345.469H374.243C376.594 345.469 378.554 343.588 378.554 341.158V128.467C378.554 126.116 376.673 124.157 374.243 124.157H222.914Z" fill="#EBEBEB"/>
<path d="M236.822 262.042H365.973V146.371H236.822V262.042Z" fill="#E6E6E6"/>
<path d="M231.35 262.042H363.4V146.371H231.35V262.042Z" fill="#F0F0F0"/>
<path d="M236.822 265.954H365.973V262.035H236.822V265.954Z" fill="#E6E6E6"/>
<path d="M222.319 265.954H354.369V262.035H222.319V265.954Z" fill="#F0F0F0"/>
<path d="M355.791 254.476V154.008L238.944 154.008V254.476L355.791 254.476Z" fill="#474646"/>
<path d="M332.316 254.405L287.646 153.937H241.879L286.627 254.405H332.316Z" fill="#626161"/>
<path d="M352.3 237.634C352.613 237.634 352.848 237.399 352.848 237.085V158.952C352.848 158.639 352.613 158.404 352.3 158.404C351.986 158.404 351.751 158.639 351.751 158.952V237.085C351.751 237.399 351.986 237.634 352.3 237.634Z" fill="#F0F0F0"/>
<path d="M239.94 254.419L239.94 153.951H239L239 254.419H239.94Z" fill="#E6E6E6"/>
<g opacity="0.5">
<path d="M229.575 164.438H358.726L359.431 156.915H230.281L229.575 164.438Z" fill="#00C2FF" fill-opacity="0.5"/>
<path d="M229.575 176.82H358.726L359.431 169.297H230.281L229.575 176.82Z" fill="#00C2FF" fill-opacity="0.5"/>
<path d="M229.575 189.202H358.726L359.431 181.679H230.281L229.575 189.202Z" fill="#00C2FF" fill-opacity="0.5"/>
<path d="M229.575 201.585H358.726L359.431 194.061H230.281L229.575 201.585Z" fill="#00C2FF" fill-opacity="0.5"/>
<path d="M229.575 213.967H358.726L359.431 206.443H230.281L229.575 213.967Z" fill="#00C2FF" fill-opacity="0.5"/>
<path d="M229.575 226.349H358.726L359.431 218.826H230.281L229.575 226.349Z" fill="#00C2FF" fill-opacity="0.5"/>
</g>
<path d="M80.0234 380.633H182.921L182.921 146.39H80.0234L80.0234 380.633Z" fill="#F0F0F0"/>
<path d="M79.9572 380.633H180.896L180.896 146.39H79.9572L79.9572 380.633Z" fill="#00C2FF"/>
<path d="M175.595 380.605L175.595 151.692L85.3145 151.692L85.3145 380.605H175.595Z" fill="#474646"/>
<path d="M109.829 256.521C104.735 255.11 99.5629 259.655 94.469 258.245C93.3718 257.931 92.5098 256.521 92.5098 255.424C92.5098 254.326 93.3718 254.013 94.469 254.326C99.5629 255.737 104.735 251.192 109.829 252.602C110.926 252.916 111.788 254.326 111.788 255.424C111.788 256.442 110.926 256.756 109.829 256.521Z" fill="#00C2FF"/>
<path d="M86.7129 380.616L86.7129 151.703H85.3023L85.3023 380.616H86.7129Z" fill="#E0E0E0"/>
<path d="M344.578 375.438H363.073V295.346H344.578V375.438Z" fill="#474646"/>
<path d="M268.438 380.479H359.502V375.385H268.438V380.479Z" fill="#474646"/>
<path d="M344.619 295.391H264.919V375.484H344.619V295.391Z" fill="#F5F5F5"/>
<path d="M337.331 305.266H272.207V331.519H337.331V305.266Z" fill="#474646"/>
<path d="M337.331 339.356H272.207V365.609H337.331V339.356Z" fill="#474646"/>
<path d="M297.442 307.46H312.097C313.116 307.46 313.899 306.676 313.899 305.658C313.899 304.639 313.116 303.855 312.097 303.855H297.442C296.423 303.855 295.64 304.639 295.64 305.658C295.64 306.676 296.502 307.46 297.442 307.46Z" fill="#F5F5F5"/>
<path d="M297.442 341.55H312.097C313.116 341.55 313.899 340.766 313.899 339.748C313.899 338.729 313.116 337.945 312.097 337.945H297.442C296.423 337.945 295.64 338.729 295.64 339.748C295.64 340.766 296.502 341.55 297.442 341.55Z" fill="#F5F5F5"/>
<path d="M327.456 293.824C326.673 293.824 326.124 293.197 326.124 292.492V250.878C326.124 250.094 326.751 249.546 327.456 249.546C328.24 249.546 328.789 250.173 328.789 250.878V292.492C328.789 293.197 328.162 293.824 327.456 293.824Z" fill="#474646"/>
<path d="M340.231 292.178H314.604V295.391H340.231V292.178Z" fill="#474646"/>
<path d="M334.51 274.389C334.118 274.389 333.805 274.075 333.805 273.683V252.916C333.805 252.524 334.118 252.21 334.51 252.21C334.902 252.21 335.215 252.524 335.215 252.916V273.683C335.215 274.075 334.902 274.389 334.51 274.389Z" fill="#474646"/>
<path d="M307.551 260.126C307.551 260.126 308.021 244.844 327.456 244.844C346.892 244.844 347.362 260.126 347.362 260.126H307.551Z" fill="#00C2FF"/>
<path d="M213.5 410C292.201 410 356 407.314 356 404C356 400.686 292.201 398 213.5 398C134.799 398 71 400.686 71 404C71 407.314 134.799 410 213.5 410Z" fill="#00C2FF" fill-opacity="0.25"/>
<path d="M202.147 193.826C202.225 192.18 203.714 189.986 209.905 189.594C216.096 189.202 218.369 189.516 220.877 194.296C223.62 199.469 226.754 205.268 224.717 210.597C222.679 215.926 216.253 219.061 211.629 221.804C207.006 224.625 200.109 234.029 200.109 234.029C200.109 234.029 187.257 198.45 202.147 193.826Z" fill="#474646"/>
<path d="M204.968 264.828C204.968 264.828 214.294 312.711 217.585 332.224C221.033 352.522 223.933 396.094 223.933 396.094H229.105C229.105 396.094 235.688 358.556 229.105 330.579C229.575 308.244 225.187 261.85 225.187 261.85L204.968 264.828Z" fill="#FBF3E6"/>
<path d="M211.707 263.809C211.707 263.809 232.161 313.886 239.293 332.303C249.324 345.704 274.402 374.151 275.812 374.7L277.615 370.625C277.615 370.625 262.255 340.61 249.872 325.72C246.581 303.62 230.907 260.909 230.907 260.909L211.707 263.809Z" fill="#FBF3E6"/>
<path d="M202.068 233.637C200.579 235.361 199.09 237.007 197.601 238.653C196.112 240.298 194.545 241.944 192.977 243.59C191.41 245.236 189.843 246.803 188.197 248.449C186.551 250.016 184.906 251.583 183.181 253.151L183.417 252.837C183.025 253.308 182.555 253.621 182.163 253.934C181.771 254.17 181.301 254.405 180.909 254.561C180.125 254.875 179.42 254.953 178.793 255.032C177.461 255.188 176.363 255.11 175.188 255.032C172.915 254.875 170.878 254.405 168.84 253.934C166.803 253.464 164.843 252.837 162.806 252.21C160.847 251.583 158.887 250.878 157.006 250.016C156.144 249.703 155.753 248.684 156.144 247.822C156.458 247.116 157.242 246.725 158.025 246.881C159.984 247.273 161.944 247.665 163.903 248.057C165.862 248.449 167.821 248.762 169.781 248.997C171.74 249.232 173.621 249.468 175.501 249.468C176.442 249.468 177.304 249.389 178.009 249.311C178.323 249.232 178.636 249.154 178.871 249.076C178.95 249.076 179.028 248.997 179.028 248.997C179.028 248.997 178.95 248.997 178.871 249.076L179.106 248.762C180.674 247.273 182.163 245.627 183.652 243.982L188.119 239.123L197.053 229.249C198.307 227.916 200.344 227.76 201.755 229.013C203.165 230.267 203.244 232.305 202.068 233.637Z" fill="#FBF3E6"/>
<path d="M159.357 247.352L156.066 241.709L153.793 247.9C153.793 247.9 156.536 251.035 159.122 250.408L159.357 247.352Z" fill="#FBF3E6"/>
<path d="M152.069 241.866L151.285 244.53C151.129 245.157 151.285 245.784 151.756 246.176L153.871 247.9L156.144 241.709L154.185 240.925C153.245 240.534 152.304 241.004 152.069 241.866Z" fill="#FBF3E6"/>
<path d="M202.147 225.722C197.523 224.938 195.485 228.151 193.291 230.581C193.84 234.891 201.363 243.668 201.363 243.668C201.363 243.668 210.532 227.133 202.147 225.722Z" fill="#329ADA"/>
<path d="M196.034 230.973C196.582 235.596 198.855 248.684 205.046 268.276L232.24 264.279C230.359 254.405 227.773 245.079 228.948 225.487C229.105 223.214 227.303 221.255 224.952 221.255C223.149 221.255 220.877 221.333 218.447 221.568C214.059 222.039 210.454 222.43 206.614 223.293C204.106 223.919 201.441 224.703 199.404 225.408C197.209 226.192 195.72 228.543 196.034 230.973Z" fill="#329ADA"/>
<path d="M206.771 223.371L218.604 221.647C218.604 221.647 218.056 226.192 210.611 232.148C204.89 226.819 206.771 223.371 206.771 223.371Z" fill="white"/>
<path d="M215.391 208.481C215.234 212.399 215.469 219.452 218.526 221.647C218.526 221.647 216.175 225.957 210.924 229.249C206.77 227.446 206.771 223.449 206.771 223.449C210.846 221.804 210.297 218.669 209.122 215.848L215.391 208.481Z" fill="#FBF3E6"/>
<path opacity="0.2" d="M212.805 211.459L209.043 215.769C209.356 216.475 209.592 217.101 209.748 217.807C211.316 217.337 213.275 215.221 213.196 213.497C213.196 212.634 213.04 211.772 212.805 211.459Z" fill="black"/>
<path d="M218.369 200.879C217.82 207.305 217.664 209.97 214.372 213.183C209.357 217.963 201.598 215.926 200.266 209.421C199.09 203.622 200.188 194.14 206.535 191.788C212.805 189.437 218.996 194.531 218.369 200.879Z" fill="#FBF3E6"/>
<path d="M213.51 195.942C212.961 199.782 215.234 204.484 217.193 204.484C219.152 204.563 220.641 197.118 220.641 197.118L213.51 195.942Z" fill="#333333"/>
<path d="M202.616 193.983C206.77 196.961 219.23 201.349 219.465 197.588C219.7 193.748 214.528 190.691 210.688 190.691C206.848 190.691 203.792 192.102 202.616 193.983Z" fill="#383636"/>
<path opacity="0.2" d="M216.567 326.425L229.106 321.488C229.027 318.51 228.949 315.297 228.792 312.084L214.921 317.178C215.469 320.469 216.096 323.604 216.567 326.425Z" fill="black"/>
<path opacity="0.2" d="M245.484 305.971L230.986 311.222C232.162 314.043 233.259 316.786 234.278 319.45L247.6 314.2C246.973 311.535 246.268 308.792 245.484 305.971Z" fill="black"/>
<path d="M219.78 204.327C219.466 205.66 218.604 206.678 217.664 207.227C216.253 208.089 215.078 206.914 215.156 205.346C215.234 203.936 216.018 201.82 217.585 201.585C219.153 201.349 220.172 202.838 219.78 204.327Z" fill="#FBF3E6"/>
<path d="M205.046 268.354L214.137 322.193L248.227 312.084C245.406 283.636 238.352 269.53 232.24 264.357L205.046 268.354Z" fill="#474646"/>
<path opacity="0.2" d="M218.839 298.526L225.657 287.398L224.56 279.483L218.839 298.526Z" fill="black"/>
<path d="M228.635 223.998C229.183 224.546 229.889 225.095 230.594 225.644C231.299 226.192 231.926 226.741 232.632 227.289C234.042 228.386 235.453 229.405 236.942 230.346C239.842 232.227 242.898 233.872 245.954 234.656C246.111 234.734 246.346 234.734 246.503 234.813L246.816 234.891H246.738C246.424 234.891 246.268 235.048 246.424 234.969C246.581 234.891 247.13 234.421 247.522 233.794C248.384 232.618 249.246 231.051 249.951 229.405C250.735 227.838 251.44 226.114 252.067 224.468C252.772 222.822 253.399 221.02 254.026 219.374V219.296C254.34 218.434 255.28 217.964 256.142 218.277C256.847 218.512 257.318 219.296 257.239 220.079C256.691 223.841 255.907 227.524 254.653 231.286C254.026 233.167 253.321 234.969 252.145 236.85C251.518 237.791 250.891 238.809 249.559 239.75C248.854 240.22 247.835 240.69 246.581 240.69C246.424 240.69 246.268 240.69 246.111 240.69C245.954 240.69 245.797 240.612 245.719 240.612L245.327 240.534C245.092 240.455 244.779 240.455 244.544 240.377C242.428 239.985 240.547 239.28 238.666 238.496C236.785 237.712 235.061 236.772 233.415 235.753C231.77 234.734 230.124 233.637 228.556 232.462C227.773 231.835 226.989 231.286 226.284 230.659C225.5 230.032 224.795 229.405 224.011 228.7C222.679 227.446 222.6 225.33 223.854 223.998C225.265 222.822 227.303 222.744 228.635 223.998Z" fill="#FBF3E6"/>
<path d="M224.717 221.255C229.341 220.941 231.222 223.449 233.181 226.035C232.24 230.267 227.146 237.399 227.146 237.399C227.146 237.399 216.253 221.804 224.717 221.255Z" fill="#329ADA"/>
<path d="M253.791 219.844L254.967 212.948L259.198 217.964C259.198 217.964 257.709 221.882 255.045 222.195L253.791 219.844Z" fill="#FBF3E6"/>
<path d="M258.885 211.067L261.471 213.34C261.941 213.732 262.02 214.437 261.628 214.985L258.807 218.982L255.045 213.026L257.396 211.145C257.788 210.675 258.415 210.675 258.885 211.067Z" fill="#FBF3E6"/>
<path d="M214.058 405.891C214.685 405.342 215.783 404.872 216.645 404.558C216.645 404.558 221.268 401.972 223.698 394.057L229.027 392.725C229.575 392.568 230.124 392.96 230.202 393.508C230.281 393.9 230.281 394.449 230.359 394.841C230.437 395.546 230.359 396.643 230.359 397.427C230.281 400.091 230.046 406.047 230.046 406.047H229.419C229.419 406.047 229.419 402.364 229.105 400.64C228.792 398.916 227.538 400.953 226.833 402.913C226.127 404.872 223.384 406.988 219.309 407.144C214.607 407.223 212.726 406.988 214.058 405.891Z" fill="#474646"/>
<path d="M273.931 387.396C274.01 386.534 274.402 385.515 274.872 384.574C274.872 384.574 276.282 379.402 272.442 372.192L275.264 367.412C275.577 366.941 276.204 366.785 276.674 367.177C276.988 367.412 277.38 367.725 277.693 368.039C278.32 368.509 279.025 369.293 279.496 369.841C281.376 371.722 285.373 376.189 285.373 376.189L284.903 376.659C284.903 376.659 282.317 374.073 280.828 373.054C279.339 372.035 279.966 374.386 280.906 376.267C281.847 378.148 281.376 381.596 278.555 384.574C275.264 387.944 273.775 389.12 273.931 387.396Z" fill="#474646"/>
<path opacity="0.9" d="M253.242 162.009L170.642 154.093C166.41 153.702 162.648 156.836 162.257 161.068L150.345 284.655C149.953 288.887 153.087 292.648 157.319 293.04L239.919 300.955C244.151 301.347 247.913 298.213 248.305 293.981L260.138 170.316C260.609 166.162 257.474 162.4 253.242 162.009ZM235.609 209.343C234.12 224.938 220.249 236.38 204.575 234.891C193.996 233.872 185.375 227.211 181.3 218.12C179.341 213.81 178.479 208.951 179.027 203.857C180.516 188.262 194.388 176.82 210.061 178.309C212.569 178.544 214.998 179.093 217.349 179.955C219.622 180.817 221.738 181.914 223.619 183.246C229.81 187.557 234.12 194.218 235.374 201.82C235.688 204.327 235.844 206.835 235.609 209.343Z" fill="white"/>
<path d="M211.473 131.758L220.407 133.404C222.601 133.796 224.247 135.99 224.011 138.341L222.287 154.093C222.287 154.328 222.209 154.485 222.131 154.72C221.582 156.68 219.78 157.855 217.742 157.463L208.808 155.739C206.77 155.347 205.281 153.466 205.203 151.429C205.203 151.194 205.203 151.037 205.203 150.802L206.927 135.05C207.241 132.777 209.278 131.288 211.473 131.758ZM215.234 139.282C213.432 138.968 211.864 140.144 211.629 141.946C211.394 143.749 212.726 145.473 214.529 145.865C216.331 146.178 217.899 145.003 218.134 143.2C218.291 141.319 217.037 139.595 215.234 139.282Z" fill="#263238"/>
<path d="M239.058 165.143C238.666 165.143 238.353 164.908 238.196 164.595L234.748 157.463C234.277 156.444 233.337 155.818 232.24 155.739L192.507 151.899C191.41 151.821 190.313 152.291 189.686 153.153L184.905 159.501C184.592 159.893 183.965 160.049 183.573 159.658C183.181 159.344 183.025 158.717 183.416 158.325L188.197 151.977C189.216 150.567 191.018 149.783 192.742 149.94L232.475 153.78C234.199 153.937 235.766 155.034 236.55 156.601L239.998 163.733C240.233 164.203 239.998 164.751 239.528 164.987C239.371 165.065 239.215 165.143 239.058 165.143Z" fill="#407BFF"/>
<path d="M157.712 187.165L157.085 187.086L157.555 182.463L158.182 182.541L157.712 187.165ZM158.496 178.231L157.869 178.152L158.887 167.729L159.514 167.808L158.496 178.231Z" fill="#407BFF"/>
<path d="M240.704 301.347C240.469 301.347 240.155 301.347 239.92 301.347L157.32 293.432C155.204 293.197 153.245 292.178 151.913 290.532C150.58 288.887 149.875 286.771 150.11 284.655L161.944 160.99C162.179 158.874 163.198 156.915 164.843 155.582C166.489 154.25 168.605 153.545 170.721 153.78L253.321 161.695C255.437 161.93 257.396 162.949 258.728 164.595C260.061 166.24 260.766 168.356 260.531 170.472L248.697 294.059C248.462 296.175 247.443 298.134 245.798 299.466C244.309 300.72 242.506 301.347 240.704 301.347ZM169.859 154.328C168.135 154.328 166.489 154.955 165.157 156.053C163.668 157.306 162.649 159.109 162.492 161.068L150.659 284.655C150.502 286.614 151.051 288.495 152.304 290.062C153.558 291.551 155.361 292.57 157.32 292.727L239.998 300.642C241.958 300.799 243.839 300.25 245.406 298.996C246.895 297.742 247.914 295.94 248.07 293.981L259.904 170.316C260.061 168.356 259.512 166.476 258.258 164.908C257.004 163.419 255.202 162.4 253.243 162.244L170.564 154.407C170.329 154.407 170.094 154.328 169.859 154.328ZM207.319 235.361C206.379 235.361 205.438 235.283 204.498 235.204C194.231 234.186 185.219 227.76 180.987 218.277C178.95 213.81 178.166 208.794 178.636 203.857C180.125 188.105 194.231 176.507 209.983 177.996C212.491 178.231 214.999 178.779 217.35 179.72C219.623 180.582 221.739 181.679 223.698 183.09C229.967 187.478 234.356 194.375 235.61 201.898C236.002 204.327 236.08 206.914 235.845 209.421C235.14 217.023 231.456 223.919 225.5 228.857C220.406 233.089 213.98 235.361 207.319 235.361ZM207.241 178.544C192.978 178.544 180.674 189.437 179.263 203.936C178.793 208.716 179.577 213.575 181.536 218.042C185.689 227.289 194.467 233.637 204.576 234.578C212.021 235.283 219.309 233.089 225.109 228.308C230.908 223.528 234.513 216.788 235.218 209.343C235.453 206.835 235.375 204.406 234.983 201.976C233.729 194.61 229.497 187.87 223.306 183.638C221.347 182.306 219.309 181.209 217.115 180.347C214.842 179.485 212.413 178.936 209.905 178.701C209.043 178.623 208.181 178.544 207.241 178.544Z" fill="#00C2FF"/>
<path opacity="0.8" d="M217.272 180.033C214.999 179.171 212.57 178.623 209.983 178.388C194.388 176.899 180.517 188.34 178.95 203.936C178.479 208.951 179.342 213.81 181.222 218.199L154.577 240.22L162.179 161.068C162.571 156.836 166.332 153.702 170.564 154.093L197.915 156.68L206.692 167.338L217.272 180.033Z" fill="#00C2FF"/>
<path opacity="0.5" d="M260.217 170.394L254.888 225.644L235.296 201.898C234.042 194.296 229.732 187.635 223.541 183.325L249.794 161.695L253.243 162.009C257.474 162.4 260.609 166.162 260.217 170.394Z" fill="#00C2FF"/>
<path d="M249.795 161.695L223.541 183.325C221.582 181.992 219.544 180.895 217.272 180.033L206.77 167.338L197.993 156.68L249.795 161.695Z" fill="#00C2FF"/>
<path opacity="0.5" d="M227.616 252.602L178.558 247.9C177.774 247.822 177.147 247.116 177.225 246.254L177.46 243.668C177.539 242.885 178.244 242.258 179.106 242.336L228.165 247.038C228.948 247.116 229.575 247.822 229.497 248.684L229.262 251.27C229.184 252.054 228.478 252.681 227.616 252.602Z" fill="#00C2FF"/>
<path opacity="0.5" d="M222.835 262.242L181.457 258.245C180.673 258.166 180.046 257.461 180.125 256.599L180.36 254.013C180.438 253.229 181.144 252.602 182.006 252.681L223.384 256.677C224.168 256.756 224.795 257.461 224.716 258.323L224.481 260.909C224.403 261.693 223.619 262.32 222.835 262.242Z" fill="#00C2FF"/>
<path opacity="0.5" d="M175.329 277.564L163.004 276.383L162.81 278.411L175.135 279.592L175.329 277.564Z" fill="#474646"/>
<path opacity="0.5" d="M187.952 278.776L178.045 277.827L177.851 279.855L187.758 280.804L187.952 278.776Z" fill="#474646"/>
<path opacity="0.5" d="M191.041 283.663L162.568 280.935L162.374 282.963L190.847 285.692L191.041 283.663Z" fill="#474646"/>
<path opacity="0.5" d="M196.911 275.051L163.445 271.844L163.251 273.873L196.716 277.079L196.911 275.051Z" fill="#474646"/>
<path d="M219.623 133.091L210.532 131.445C208.259 131.053 206.065 132.542 205.673 134.815L202.852 150.567C202.852 150.802 202.773 150.959 202.773 151.194C202.695 153.231 204.184 155.112 206.222 155.426L215.312 157.071C217.35 157.463 219.388 156.209 220.014 154.25C220.093 154.093 220.171 153.858 220.171 153.623L222.992 137.871C223.384 135.677 221.817 133.483 219.623 133.091ZM213.823 138.968C215.626 139.282 216.801 141.006 216.488 142.887C216.174 144.689 214.45 145.943 212.648 145.551C210.845 145.238 209.67 143.514 209.983 141.633C210.297 139.83 212.099 138.576 213.823 138.968Z" fill="#263238"/>
<path opacity="0.2" d="M219.623 133.091L210.532 131.445C208.259 131.053 206.065 132.542 205.673 134.815L202.852 150.567C202.852 150.802 202.773 150.959 202.773 151.194C202.695 153.231 204.184 155.112 206.222 155.426L215.312 157.071C217.35 157.463 219.388 156.209 220.014 154.25C220.093 154.093 220.171 153.858 220.171 153.623L222.992 137.871C223.384 135.677 221.817 133.483 219.623 133.091ZM213.823 138.968C215.626 139.282 216.801 141.006 216.488 142.887C216.174 144.689 214.45 145.943 212.648 145.551C210.845 145.238 209.67 143.514 209.983 141.633C210.297 139.83 212.099 138.576 213.823 138.968Z" fill="white"/>
<path opacity="0.2" d="M238.493 284.698C238.786 281.639 236.544 278.922 233.485 278.629C230.426 278.336 227.709 280.578 227.416 283.637C227.122 286.695 229.364 289.413 232.423 289.706C235.482 289.999 238.199 287.757 238.493 284.698Z" fill="#00C2FF"/>
<path opacity="0.8" d="M223.789 283.234C224.082 280.175 221.84 277.458 218.781 277.165C215.722 276.872 213.005 279.114 212.711 282.173C212.418 285.232 214.66 287.949 217.719 288.242C220.778 288.535 223.495 286.293 223.789 283.234Z" fill="#00C2FF"/>
</svg>
