<svg width="430" height="699" viewBox="0 0 430 699" fill="none" xmlns="http://www.w3.org/2000/svg">
<circle opacity="0.11" cx="182" cy="-86" r="233" fill="#00C2FF"/>
<ellipse opacity="0.11" cx="341" cy="-9.5" rx="157" ry="156.5" fill="#00C2FF"/>
<g clip-path="url(#clip0_6030_781)">
<rect width="420" height="420" transform="translate(5 279)" fill="white"/>
<path d="M306.25 536.918C305.694 536.529 305.139 536.14 304.583 535.751C304.417 535.584 304.25 535.418 304.083 535.251C300.362 521.365 291.586 513.699 285.587 514.31C283.254 514.533 273.922 511.533 271.589 511.922C264.646 513.477 259.869 512.422 252.926 513.922C240.65 516.477 165.663 497.813 163.719 489.481C161.72 487.815 159.553 486.093 157.609 484.316C156.054 482.927 154.777 481.316 153.388 479.761C153.388 479.983 151.61 477.095 149.777 474.262C149.777 472.651 149.888 471.096 149.888 469.485C151.555 464.93 154.332 456.821 154.499 456.321C155.054 454.765 162.053 436.713 160.72 433.436C160.664 433.269 161.164 410.44 149.166 410.495C145.223 410.051 138.446 409.884 136.28 412.995C133.669 416.772 131.669 420.994 130.003 425.326C128.059 430.436 127.281 436.046 125.004 440.99C122.616 446.267 119.005 451.044 116.006 456.043C114.061 459.209 111.729 462.486 112.34 466.374C113.395 472.818 114.728 479.094 116.228 485.427C118.838 496.314 122.116 507.034 124.282 517.921C126.393 528.53 127.559 539.25 129.003 549.915C130.281 559.358 131.225 568.801 132.614 578.244C133.28 582.687 134.336 587.075 135.724 591.297C136.669 594.296 138.557 597.018 140.001 599.851C144.834 609.183 162.109 625.124 163.164 626.068C162.942 626.457 141.334 603.184 140.835 602.684C137.891 609.96 134.336 620.458 130.947 627.29C122.838 644.01 114.339 660.562 105.896 677.115C102.341 684.058 98.3976 690.724 94.5649 697.556C134.002 698.056 173.44 698.5 212.877 699C215.71 692.834 218.376 686.613 221.431 680.559C223.82 675.837 226.042 670.894 229.43 666.895C235.096 660.285 241.817 654.563 247.76 648.12C253.426 642.01 258.925 635.678 264.091 629.123C272.978 617.848 280.143 605.461 285.864 592.352C288.086 587.353 290.197 582.298 292.308 577.244C292.308 577.244 292.308 577.244 292.252 577.244C294.085 572.911 298.251 564.579 299.64 561.358C302.695 554.137 306.139 547.027 307.361 539.139C307.472 538.417 307.527 537.695 307.583 536.973C307.361 536.973 306.805 536.973 306.25 536.918Z" fill="#DFE5F4" stroke="white" stroke-width="3" stroke-miterlimit="10"/>
<path d="M289.308 392.999C287.142 382.556 285.031 372.113 282.865 361.671C282.476 359.949 281.976 358.282 281.865 356.561C281.754 355.616 282.309 354.616 282.643 353.617C284.531 352.506 286.253 350.95 288.308 350.395C294.252 348.84 299.362 350.784 303.528 355.116C307.749 359.504 307.583 364.837 305.528 370.003C301.917 379.001 295.918 386.278 289.308 392.999Z" fill="#DFE5F4" stroke="white" stroke-width="3" stroke-miterlimit="10"/>
<path d="M214.988 564.913C213.877 559.469 212.766 554.081 211.655 548.638C212.544 548.582 213.488 548.471 214.377 548.415C215.377 552.859 216.432 557.247 217.376 561.691C217.599 562.746 217.599 563.857 217.71 564.913C216.765 564.913 215.877 564.913 214.988 564.913Z" fill="#FDFDFE"/>
<path d="M147.889 339.064L263.979 316.901C270.534 315.679 276.755 319.956 277.977 326.399L314.97 520.254C316.192 526.808 311.971 532.974 305.472 534.251L189.381 556.47C182.827 557.692 176.661 553.47 175.384 546.971L138.39 353.117C137.113 346.562 141.39 340.286 147.889 339.064Z" fill="#7386F6"/>
<path d="M280.421 539.084L238.928 321.733L263.979 316.956C270.534 315.734 276.755 320.011 277.977 326.455L314.97 520.309C316.192 526.864 311.971 533.029 305.472 534.307L280.421 539.084Z" fill="#F6F7F8"/>
<path d="M154.554 337.786L238.984 321.678L280.476 539.084L195.991 555.192L154.554 337.786Z" fill="url(#paint0_linear_6030_781)"/>
<path d="M151.017 352.678L145.015 353.824L181.987 547.521L187.989 546.376L151.017 352.678Z" fill="#8E9EF8"/>
<path d="M257.171 332.457L251.169 333.603L288.142 527.3L294.144 526.154L257.171 332.457Z" fill="#EBEFF5"/>
<path d="M274.177 352.207L268.175 353.352L300.898 524.788L306.9 523.642L274.177 352.207Z" fill="#EBEFF5"/>
<g opacity="0.5">
<path d="M250.703 525.808L251.092 528.086C251.314 529.086 251.925 529.863 252.759 530.252C252.092 530.974 251.925 531.918 251.981 532.529L252.648 536.14C252.703 536.473 253.092 536.695 253.481 536.64C253.814 536.584 254.036 536.195 253.981 535.862L253.314 532.363C253.314 532.252 253.314 530.974 254.925 530.53C255.036 530.53 255.092 530.474 255.203 530.474L255.814 533.862C255.869 534.085 256.091 534.362 256.314 534.362C256.591 534.418 256.869 534.307 256.98 534.029L259.313 530.474L260.146 529.141C260.313 528.919 260.257 528.641 260.146 528.419C259.98 528.197 259.702 528.086 259.48 528.141L256.147 528.752L255.536 525.531C255.48 525.197 255.092 524.864 254.758 524.975C254.425 525.031 254.092 525.42 254.203 525.808L254.814 529.03C254.703 529.03 254.647 529.086 254.592 529.086C254.314 529.141 254.036 529.141 253.814 529.141C253.092 529.141 252.425 528.641 252.259 527.864L251.87 525.642C251.814 525.308 251.426 525.086 251.092 525.142C250.87 525.086 250.648 525.475 250.703 525.808ZM258.369 529.808L256.98 531.974L256.591 530.141L258.369 529.808Z" fill="url(#paint1_linear_6030_781)"/>
<path d="M245.482 498.313L245.871 500.591C246.093 501.59 246.704 502.368 247.538 502.757C246.871 503.479 246.704 504.368 246.76 504.979L247.427 508.589C247.482 508.811 247.704 509.034 247.871 509.089C247.982 509.145 248.037 509.089 248.149 509.089C248.482 509.034 248.704 508.645 248.649 508.256L247.982 504.757C247.982 504.645 247.982 503.368 249.593 502.924C249.704 502.924 249.759 502.868 249.871 502.868L250.482 506.256C250.537 506.478 250.759 506.756 250.981 506.756C251.259 506.812 251.537 506.701 251.648 506.478L252.315 505.368L254.814 501.59C254.925 501.313 254.925 501.091 254.814 500.868C254.647 500.646 254.37 500.535 254.148 500.591L250.815 501.202L250.204 497.924C250.148 497.591 249.759 497.369 249.426 497.425C249.093 497.48 248.76 497.869 248.871 498.202L249.482 501.479H249.426C249.371 501.479 249.315 501.479 249.26 501.535C248.982 501.59 248.704 501.59 248.482 501.59C247.76 501.59 247.093 501.091 246.927 500.257L246.538 497.98C246.482 497.647 246.093 497.313 245.76 497.425C245.649 497.536 245.427 497.924 245.482 498.313ZM253.092 502.257L251.87 504.146L251.704 504.423L251.315 502.59L253.092 502.257Z" fill="url(#paint2_linear_6030_781)"/>
<path d="M240.205 470.763L240.594 473.04C240.761 473.873 241.261 474.54 241.816 474.928C241.983 475.04 242.094 475.095 242.205 475.151C241.539 475.873 241.372 476.817 241.427 477.428L242.094 481.038C242.15 481.372 242.538 481.594 242.927 481.538C243.26 481.483 243.483 481.094 243.427 480.761L242.761 477.261C242.705 477.095 242.761 475.817 244.371 475.428L244.649 475.373L245.26 478.761C245.316 479.039 245.538 479.261 245.76 479.261C246.038 479.317 246.316 479.205 246.427 478.983L249.593 474.095C249.759 473.873 249.704 473.595 249.648 473.429V473.373C249.482 473.151 249.204 473.04 248.982 473.095L245.649 473.706L245.038 470.429C244.982 470.096 244.594 469.874 244.26 469.929C243.927 469.985 243.594 470.374 243.705 470.707L244.316 473.984C244.205 473.984 244.149 474.04 244.094 474.04C243.816 474.095 243.538 474.095 243.316 474.095C242.594 474.095 241.927 473.595 241.761 472.818L241.372 470.54C241.316 470.207 240.928 469.985 240.594 470.04C240.372 470.04 240.094 470.374 240.205 470.763ZM247.871 474.706L246.482 476.873L246.093 475.04L247.871 474.706Z" fill="url(#paint3_linear_6030_781)"/>
<path d="M234.984 443.212L235.373 445.489C235.595 446.489 236.206 447.267 237.039 447.656C236.373 448.378 236.206 449.322 236.262 449.933L236.928 453.543C236.984 453.877 237.373 454.099 237.762 454.043C238.095 453.988 238.317 453.599 238.261 453.266L237.595 449.766C237.595 449.655 237.595 448.322 239.206 447.933L239.483 447.878L240.094 451.266C240.15 451.544 240.372 451.766 240.65 451.821C240.928 451.877 241.15 451.71 241.316 451.488L244.483 446.6C244.649 446.378 244.594 446.1 244.427 445.822C244.26 445.6 243.983 445.489 243.76 445.545L240.428 446.156L239.817 442.879C239.761 442.545 239.372 442.323 239.039 442.379C238.706 442.434 238.373 442.823 238.484 443.156L239.095 446.433C238.984 446.433 238.928 446.489 238.872 446.489C238.595 446.545 238.317 446.545 238.095 446.545C237.373 446.545 236.706 446.045 236.539 445.267L236.151 442.99C236.095 442.656 235.706 442.434 235.373 442.49C235.151 442.545 234.929 442.879 234.984 443.212ZM242.594 447.156L241.205 449.322L240.817 447.489L242.594 447.156Z" fill="url(#paint4_linear_6030_781)"/>
<path d="M229.707 415.717L230.096 417.994C230.318 418.994 230.929 419.772 231.763 420.16C231.096 420.882 230.929 421.827 230.985 422.438L231.651 426.048C231.707 426.381 232.096 426.604 232.485 426.548C232.818 426.493 233.04 426.104 232.985 425.77L232.318 422.271C232.318 422.16 232.318 420.882 233.929 420.438C234.04 420.438 234.095 420.383 234.207 420.383L234.818 423.771C234.873 423.993 235.095 424.271 235.317 424.271C235.595 424.326 235.873 424.215 235.984 423.937L239.15 419.049C239.317 418.827 239.261 418.55 239.15 418.327C238.984 418.105 238.706 417.994 238.484 418.05L235.151 418.661L234.54 415.439C234.484 415.106 234.095 414.772 233.762 414.884C233.429 414.939 233.096 415.328 233.207 415.717L233.818 418.938C233.707 418.938 233.651 418.994 233.596 418.994C233.318 419.049 233.04 419.049 232.818 419.049C232.096 419.049 231.429 418.55 231.263 417.772L230.874 415.495C230.818 415.161 230.429 414.939 230.096 414.995C229.874 414.995 229.652 415.383 229.707 415.717ZM237.373 419.605L235.984 421.771L235.595 419.938L237.373 419.605Z" fill="url(#paint5_linear_6030_781)"/>
<path d="M224.431 388.166L224.819 390.443C225.042 391.443 225.653 392.221 226.486 392.61C225.819 393.332 225.653 394.22 225.708 394.831L226.375 398.442C226.43 398.775 226.819 399.109 227.208 398.997C227.541 398.942 227.763 398.553 227.708 398.164L227.041 394.665C227.041 394.554 227.041 393.276 228.652 392.832C228.763 392.832 228.819 392.776 228.93 392.776L229.541 396.165C229.596 396.442 229.819 396.665 230.041 396.665C230.318 396.72 230.596 396.609 230.707 396.387L233.873 391.499C233.984 391.221 233.984 390.999 233.818 390.721C233.651 390.499 233.373 390.388 233.151 390.443L229.819 391.054L229.208 387.777C229.152 387.444 228.763 387.222 228.43 387.277C228.097 387.333 227.763 387.722 227.874 388.055L228.485 391.332C228.374 391.332 228.319 391.388 228.263 391.388C227.986 391.443 227.708 391.443 227.486 391.443C226.764 391.443 226.097 390.943 225.93 390.11L225.542 387.833C225.486 387.499 225.097 387.166 224.764 387.277C224.653 387.499 224.375 387.833 224.431 388.166ZM232.096 392.11L230.707 394.276L230.318 392.443L232.096 392.11Z" fill="url(#paint6_linear_6030_781)"/>
<path d="M219.209 360.671L219.598 362.948C219.82 363.948 220.431 364.726 221.264 365.115C220.598 365.837 220.431 366.781 220.487 367.392L221.153 371.002C221.209 371.336 221.598 371.558 221.986 371.502C222.32 371.447 222.542 371.058 222.486 370.725L221.82 367.225C221.764 367.059 221.82 365.781 223.431 365.392L223.708 365.337L224.319 368.725C224.375 369.003 224.597 369.225 224.819 369.225C225.097 369.28 225.375 369.169 225.486 368.947L228.652 364.059C228.819 363.837 228.763 363.559 228.596 363.282C228.43 363.059 228.152 362.948 227.93 363.004L224.597 363.615L223.986 360.338C223.93 360.004 223.542 359.782 223.208 359.838C222.875 359.893 222.542 360.282 222.653 360.615L223.264 363.893C223.153 363.893 223.097 363.948 223.042 363.948C222.764 364.004 222.486 364.004 222.264 364.004C221.542 364.004 220.875 363.504 220.709 362.726L220.32 360.449C220.264 360.115 219.876 359.893 219.542 359.949C219.376 359.949 219.098 360.282 219.209 360.671ZM226.819 364.559L225.43 366.725L225.041 364.892L226.819 364.559Z" fill="url(#paint7_linear_6030_781)"/>
<path d="M213.932 333.12L214.321 335.398C214.543 336.397 215.154 337.175 215.988 337.564C215.321 338.286 215.154 339.23 215.21 339.841L215.877 343.452C215.932 343.785 216.321 344.007 216.71 343.952C217.043 343.896 217.265 343.507 217.21 343.174L216.543 339.675C216.543 339.563 216.543 338.23 218.154 337.842L218.432 337.786L219.043 341.174C219.098 341.452 219.32 341.674 219.598 341.73C219.876 341.785 220.098 341.619 220.265 341.397L223.431 336.508C223.597 336.286 223.542 336.009 223.375 335.731C223.209 335.509 222.931 335.398 222.709 335.453L219.376 336.064L218.765 332.787C218.709 332.454 218.321 332.231 217.987 332.287C217.654 332.343 217.321 332.731 217.432 333.065L218.043 336.342C217.932 336.342 217.876 336.397 217.821 336.397C217.543 336.453 217.265 336.453 217.043 336.453C216.321 336.453 215.654 335.953 215.488 335.175L215.099 332.898C215.043 332.565 214.655 332.343 214.321 332.398C214.099 332.398 213.877 332.787 213.932 333.12ZM221.598 337.008L220.209 339.175L219.82 337.342L221.598 337.008Z" fill="url(#paint8_linear_6030_781)"/>
<path d="M225.653 516.421L226.041 518.699C226.264 519.698 226.875 520.476 227.708 520.865C227.041 521.587 226.875 522.531 226.93 523.142L227.597 526.753C227.652 527.086 228.041 527.308 228.374 527.253C228.708 527.197 229.041 526.808 228.93 526.475L228.819 525.864L228.263 522.92C228.208 522.753 228.263 521.476 229.874 521.087L230.152 521.031L230.763 524.42C230.818 524.697 231.041 524.92 231.263 524.92C231.54 524.975 231.818 524.864 231.929 524.642L235.095 519.754C235.262 519.532 235.206 519.254 235.095 519.032C234.929 518.81 234.651 518.699 234.429 518.754L231.152 519.365L230.707 516.143C230.652 515.81 230.263 515.588 229.874 515.644C229.541 515.699 229.319 516.088 229.374 516.421L229.985 519.698C229.874 519.698 229.819 519.754 229.763 519.754C229.485 519.809 229.208 519.809 228.985 519.809C228.263 519.809 227.597 519.31 227.43 518.532L227.041 516.255C226.986 515.921 226.597 515.699 226.208 515.755C225.93 515.644 225.597 516.032 225.653 516.421ZM233.373 520.309L231.985 522.476L231.596 520.643L233.373 520.309Z" fill="url(#paint9_linear_6030_781)"/>
<path d="M220.431 488.87L220.82 491.148C221.042 492.148 221.653 492.925 222.486 493.314C221.82 494.036 221.653 494.98 221.709 495.591L222.375 499.202C222.431 499.535 222.819 499.757 223.153 499.702C223.486 499.646 223.819 499.257 223.708 498.924L223.042 495.425C223.042 495.314 223.042 493.981 224.652 493.592L224.93 493.536L225.541 496.925C225.597 497.202 225.819 497.424 226.097 497.48C226.374 497.536 226.597 497.369 226.763 497.147L229.929 492.259C230.096 492.037 230.04 491.759 229.929 491.537C229.763 491.314 229.485 491.203 229.263 491.259L225.986 491.87L225.375 488.593C225.319 488.259 224.93 488.037 224.541 488.093C224.208 488.148 223.986 488.537 224.041 488.87L224.652 492.148C224.541 492.148 224.486 492.203 224.43 492.203C224.153 492.259 223.875 492.259 223.653 492.259C222.931 492.259 222.264 491.759 222.097 490.981L221.709 488.704C221.653 488.371 221.264 488.148 220.875 488.204C220.653 488.148 220.375 488.537 220.431 488.87ZM228.096 492.759L226.708 494.925L226.319 493.092L228.096 492.759Z" fill="url(#paint10_linear_6030_781)"/>
<path d="M215.154 461.32L215.543 463.597C215.765 464.597 216.376 465.375 217.209 465.763C216.543 466.486 216.376 467.43 216.432 468.041L217.098 471.651C217.154 471.985 217.543 472.207 217.876 472.151C218.209 472.096 218.542 471.707 218.431 471.374L217.765 467.874C217.765 467.763 217.765 466.486 219.376 466.041C219.487 466.041 219.598 465.986 219.653 465.986L220.264 469.374C220.32 469.596 220.542 469.874 220.764 469.874C221.042 469.929 221.32 469.818 221.431 469.541L224.597 464.653C224.764 464.43 224.708 464.153 224.597 463.93C224.43 463.708 224.153 463.597 223.93 463.653L220.653 464.264L220.042 461.042C219.987 460.709 219.598 460.375 219.209 460.487C218.876 460.542 218.654 460.931 218.709 461.32L219.32 464.541C219.209 464.541 219.153 464.597 219.098 464.597C218.82 464.652 218.542 464.653 218.32 464.653C217.598 464.653 216.932 464.153 216.765 463.375L216.376 461.098C216.321 460.764 215.932 460.542 215.543 460.598C215.376 460.653 215.099 460.986 215.154 461.32ZM222.875 465.208L221.486 467.374L221.098 465.541L222.875 465.208Z" fill="url(#paint11_linear_6030_781)"/>
<path d="M209.933 433.769L210.322 436.046C210.544 437.046 211.155 437.824 211.988 438.213C211.322 438.935 211.155 439.824 211.211 440.435L211.877 444.045C211.933 444.378 212.321 444.712 212.655 444.601C212.988 444.545 213.321 444.156 213.21 443.767L212.544 440.268C212.544 440.157 212.544 438.879 214.154 438.435C214.266 438.435 214.377 438.379 214.432 438.379L215.043 441.768C215.099 441.99 215.321 442.268 215.543 442.268C215.821 442.323 216.099 442.212 216.21 441.99L219.376 437.102C219.487 436.824 219.487 436.602 219.376 436.38C219.209 436.158 218.931 436.046 218.709 436.102L215.432 436.713L214.821 433.436C214.765 433.103 214.377 432.88 213.988 432.936C213.655 432.991 213.432 433.38 213.488 433.714L214.099 436.991C213.988 436.991 213.932 437.046 213.877 437.046C213.599 437.102 213.321 437.102 213.099 437.102C212.377 437.102 211.71 436.602 211.544 435.769L211.155 433.491C211.099 433.158 210.711 432.825 210.322 432.936C210.155 433.103 209.877 433.436 209.933 433.769ZM217.598 437.713L216.21 439.879L215.821 438.046L217.598 437.713Z" fill="url(#paint12_linear_6030_781)"/>
<path d="M204.656 406.274L205.045 408.551C205.267 409.551 205.878 410.329 206.711 410.718C206.045 411.44 205.878 412.384 205.934 412.995L206.6 416.605C206.656 416.939 207.045 417.161 207.378 417.105C207.711 417.05 208.044 416.661 207.933 416.328L207.267 412.828C207.211 412.662 207.267 411.384 208.878 410.995L209.155 410.94L209.766 414.328C209.822 414.606 210.044 414.828 210.266 414.828C210.544 414.884 210.822 414.772 210.933 414.55L214.099 409.662C214.266 409.44 214.21 409.162 214.099 408.94C213.932 408.718 213.655 408.607 213.432 408.662L210.155 409.273L209.544 405.996C209.489 405.663 209.1 405.441 208.711 405.496C208.378 405.552 208.156 405.941 208.211 406.274L208.822 409.551C208.711 409.551 208.655 409.607 208.6 409.607C208.322 409.662 208.044 409.662 207.822 409.662C207.1 409.662 206.434 409.162 206.267 408.385L205.878 406.107C205.823 405.774 205.434 405.552 205.045 405.607C204.878 405.552 204.601 405.885 204.656 406.274ZM212.377 410.162L210.988 412.328L210.6 410.495L212.377 410.162Z" fill="url(#paint13_linear_6030_781)"/>
<path d="M199.379 378.723L199.768 381.001C199.99 382 200.601 382.778 201.435 383.167C200.768 383.889 200.601 384.833 200.657 385.444L201.323 389.055C201.379 389.388 201.768 389.61 202.101 389.555C202.434 389.499 202.768 389.11 202.657 388.777L201.99 385.278C201.99 385.167 201.99 383.833 203.601 383.445L203.879 383.389L204.49 386.777C204.545 387.055 204.767 387.277 205.045 387.333C205.323 387.388 205.545 387.222 205.712 387L208.878 382.112C209.044 381.889 208.989 381.612 208.878 381.389C208.711 381.167 208.433 381.056 208.211 381.112L204.934 381.723L204.323 378.446C204.267 378.112 203.879 377.89 203.49 377.946C203.157 378.001 202.934 378.39 202.99 378.723L203.601 382C203.49 382 203.434 382.056 203.379 382.056C203.101 382.112 202.823 382.112 202.601 382.112C201.879 382.112 201.212 381.612 201.046 380.834L200.657 378.557C200.601 378.223 200.213 378.001 199.824 378.057C199.657 378.001 199.379 378.39 199.379 378.723ZM207.1 382.611L205.712 384.778L205.323 382.945L207.1 382.611Z" fill="url(#paint14_linear_6030_781)"/>
<path d="M194.158 351.228L194.547 353.505C194.769 354.505 195.38 355.283 196.213 355.672C195.547 356.394 195.38 357.338 195.436 357.949L196.102 361.56C196.158 361.893 196.547 362.115 196.88 362.06C197.213 362.004 197.546 361.615 197.435 361.282L196.769 357.782C196.769 357.671 196.769 356.394 198.38 355.949C198.491 355.949 198.602 355.894 198.657 355.894L199.268 359.282C199.324 359.504 199.546 359.782 199.768 359.782C200.046 359.838 200.324 359.727 200.435 359.449L203.601 354.561C203.768 354.339 203.712 354.061 203.601 353.839C203.434 353.617 203.157 353.505 202.934 353.561L199.657 354.172L199.046 350.95C198.991 350.617 198.602 350.284 198.213 350.395C197.88 350.45 197.657 350.839 197.713 351.228L198.324 354.45C198.213 354.45 198.157 354.505 198.102 354.505C197.824 354.561 197.546 354.561 197.324 354.561C196.602 354.561 195.936 354.061 195.769 353.283L195.38 351.006C195.325 350.673 194.936 350.339 194.547 350.45C194.38 350.45 194.103 350.839 194.158 351.228ZM201.823 355.061L200.435 357.227L200.046 355.394L201.823 355.061Z" fill="url(#paint15_linear_6030_781)"/>
<path d="M190.992 333.898C191.048 334.231 191.436 334.564 191.77 334.453C192.103 334.398 192.436 334.009 192.325 333.62L191.77 330.621L190.437 330.898L190.992 333.898Z" fill="url(#paint16_linear_6030_781)"/>
<path d="M194.713 332.176C194.991 332.231 195.269 332.12 195.38 331.898L196.769 329.732L193.825 330.287L194.102 331.62C194.214 331.898 194.436 332.12 194.713 332.176Z" fill="url(#paint17_linear_6030_781)"/>
</g>
<path d="M154.554 337.786L238.984 321.678L280.476 539.084L195.991 555.192L154.554 337.786Z" fill="url(#paint18_linear_6030_781)"/>
<path d="M267.199 470.132L195.177 483.879L208.331 552.792L280.353 539.044L267.199 470.132Z" fill="#EBEFF5"/>
<path d="M253.537 508.145C252.925 504.812 250.87 502.09 248.037 500.257L247.982 500.035C244.371 481.205 263.535 477.817 268.589 477.261L278.921 531.53C259.258 534.918 253.925 528.808 251.092 517.754C253.314 514.977 254.203 511.589 253.537 508.145Z" fill="#6528F5"/>
<path d="M236.085 526.169C244.161 524.627 249.496 517.026 248 509.192C246.505 501.357 238.746 496.255 230.67 497.796C222.594 499.338 217.259 506.939 218.755 514.774C220.25 522.609 228.009 527.71 236.085 526.169Z" fill="#6528F5"/>
<path d="M183.839 393.176L177.837 394.321L192.491 471.091L198.492 469.945L183.839 393.176Z" fill="#D9F0EF"/>
<path d="M206.013 416.16L200.011 417.305L209.655 467.83L215.657 466.685L206.013 416.16Z" fill="#D9F0EF"/>
<path d="M223.231 412.875L217.229 414.021L226.874 464.546L232.876 463.4L223.231 412.875Z" fill="#D9F0EF"/>
<g opacity="0.5">
<path d="M250.648 525.808L251.037 528.086C251.259 529.086 251.87 529.863 252.703 530.252C252.037 530.974 251.87 531.918 251.926 532.529L252.592 536.14C252.648 536.473 253.037 536.695 253.426 536.64C253.759 536.584 253.981 536.195 253.925 535.862L253.259 532.363C253.259 532.252 253.259 530.974 254.87 530.53C254.981 530.53 255.036 530.474 255.147 530.474L255.758 533.862C255.814 534.085 256.036 534.362 256.258 534.362C256.536 534.418 256.814 534.307 256.925 534.029L259.258 530.474L260.091 529.141C260.258 528.919 260.202 528.641 260.091 528.419C259.924 528.197 259.647 528.086 259.425 528.141L256.092 528.752L255.481 525.531C255.425 525.197 255.036 524.864 254.703 524.975C254.37 525.031 254.037 525.42 254.148 525.808L254.759 529.03C254.648 529.03 254.592 529.086 254.536 529.086C254.259 529.141 253.981 529.141 253.759 529.141C253.037 529.141 252.37 528.641 252.204 527.864L251.815 525.642C251.759 525.308 251.37 525.086 251.037 525.142C250.815 525.142 250.593 525.475 250.648 525.808ZM258.369 529.808L256.981 531.974L256.592 530.141L258.369 529.808Z" fill="url(#paint19_linear_6030_781)"/>
<path d="M245.427 498.313L245.815 500.591C246.038 501.59 246.649 502.368 247.482 502.757C246.815 503.479 246.649 504.368 246.704 504.979L247.371 508.589C247.426 508.811 247.648 509.034 247.815 509.089C247.926 509.145 247.982 509.089 248.093 509.089C248.426 509.034 248.648 508.645 248.593 508.256L247.926 504.757C247.926 504.645 247.926 503.368 249.537 502.924C249.648 502.924 249.704 502.868 249.815 502.868L250.426 506.256C250.481 506.478 250.703 506.756 250.926 506.756C251.203 506.812 251.481 506.701 251.592 506.478L252.259 505.368L254.758 501.59C254.869 501.313 254.869 501.091 254.758 500.868C254.647 500.646 254.314 500.535 254.092 500.591L250.759 501.202L250.148 497.924C250.092 497.591 249.704 497.369 249.37 497.425C249.037 497.48 248.704 497.869 248.815 498.202L249.426 501.479H249.37C249.315 501.479 249.259 501.479 249.204 501.535C248.926 501.59 248.648 501.59 248.426 501.59C247.704 501.59 247.037 501.091 246.871 500.257L246.482 497.98C246.426 497.647 246.038 497.313 245.704 497.425C245.593 497.591 245.316 497.924 245.427 498.313ZM253.092 502.257L251.87 504.146L251.703 504.423L251.314 502.59L253.092 502.257Z" fill="url(#paint20_linear_6030_781)"/>
<path d="M240.15 470.763L240.539 473.04C240.705 473.873 241.205 474.54 241.761 474.928C241.927 475.04 242.038 475.095 242.149 475.151C241.483 475.873 241.316 476.817 241.372 477.428L242.038 481.038C242.094 481.372 242.483 481.594 242.872 481.538C243.205 481.483 243.427 481.094 243.371 480.761L242.705 477.261C242.649 477.095 242.705 475.817 244.316 475.428L244.593 475.373L245.204 478.761C245.26 479.039 245.482 479.261 245.704 479.261C245.982 479.317 246.26 479.205 246.371 478.983L249.537 474.095C249.704 473.873 249.648 473.595 249.593 473.429V473.373C249.426 473.151 249.148 473.04 248.926 473.095L245.593 473.706L244.982 470.429C244.927 470.096 244.538 469.874 244.205 469.929C243.871 469.985 243.538 470.374 243.649 470.707L244.26 473.984C244.149 473.984 244.094 474.04 244.038 474.04C243.76 474.095 243.483 474.095 243.26 474.095C242.538 474.095 241.872 473.595 241.705 472.818L241.316 470.54C241.261 470.207 240.872 469.985 240.539 470.04C240.316 470.096 240.039 470.374 240.15 470.763ZM247.871 474.706L246.482 476.873L246.093 475.04L247.871 474.706Z" fill="url(#paint21_linear_6030_781)"/>
<path d="M234.929 443.212L235.317 445.489C235.54 446.489 236.151 447.267 236.984 447.656C236.317 448.378 236.151 449.322 236.206 449.933L236.873 453.543C236.928 453.877 237.317 454.099 237.706 454.043C238.039 453.988 238.261 453.599 238.206 453.266L237.539 449.766C237.539 449.655 237.539 448.322 239.15 447.933L239.428 447.878L240.039 451.266C240.094 451.544 240.316 451.766 240.594 451.821C240.872 451.877 241.094 451.71 241.261 451.488L244.427 446.6C244.594 446.378 244.538 446.1 244.371 445.822C244.205 445.6 243.927 445.489 243.705 445.545L240.372 446.156L239.761 442.879C239.705 442.545 239.317 442.323 238.983 442.379C238.65 442.434 238.317 442.823 238.428 443.156L239.039 446.433C238.928 446.433 238.872 446.489 238.817 446.489C238.539 446.545 238.261 446.545 238.039 446.545C237.317 446.545 236.65 446.045 236.484 445.267L236.095 442.99C236.039 442.656 235.651 442.434 235.317 442.49C235.095 442.601 234.873 442.879 234.929 443.212ZM242.594 447.156L241.205 449.322L240.816 447.489L242.594 447.156Z" fill="url(#paint22_linear_6030_781)"/>
<path d="M229.652 415.717L230.041 417.994C230.263 418.994 230.874 419.772 231.707 420.16C231.04 420.882 230.874 421.827 230.929 422.438L231.596 426.048C231.651 426.381 232.04 426.604 232.429 426.548C232.762 426.493 232.984 426.104 232.929 425.77L232.262 422.271C232.262 422.16 232.262 420.882 233.873 420.438C233.984 420.438 234.04 420.383 234.151 420.383L234.762 423.771C234.818 423.993 235.04 424.271 235.262 424.271C235.54 424.326 235.817 424.215 235.928 423.937L239.095 419.049C239.261 418.827 239.206 418.55 239.095 418.327C238.928 418.105 238.65 417.994 238.428 418.05L235.095 418.661L234.484 415.439C234.429 415.106 234.04 414.772 233.707 414.884C233.373 414.995 233.04 415.328 233.151 415.717L233.762 418.938C233.651 418.938 233.596 418.994 233.54 418.994C233.262 419.049 232.985 419.049 232.762 419.049C232.04 419.049 231.374 418.55 231.207 417.772L230.818 415.495C230.763 415.161 230.374 414.939 230.041 414.995C229.818 415.05 229.541 415.383 229.652 415.717ZM237.373 419.605L235.984 421.771L235.595 419.938L237.373 419.605Z" fill="url(#paint23_linear_6030_781)"/>
<path d="M224.375 388.166L224.764 390.443C224.986 391.443 225.597 392.221 226.43 392.61C225.764 393.332 225.597 394.22 225.652 394.831L226.319 398.442C226.375 398.775 226.763 399.109 227.152 398.997C227.485 398.942 227.708 398.553 227.652 398.164L226.986 394.665C226.986 394.554 226.986 393.276 228.596 392.832C228.708 392.832 228.763 392.776 228.874 392.776L229.485 396.165C229.541 396.442 229.763 396.665 229.985 396.665C230.263 396.72 230.541 396.609 230.652 396.387L233.818 391.499C233.929 391.221 233.929 390.999 233.762 390.721C233.596 390.499 233.318 390.388 233.096 390.443L229.763 391.054L229.152 387.777C229.096 387.444 228.708 387.222 228.374 387.277C228.041 387.333 227.708 387.722 227.819 388.055L228.43 391.332C228.319 391.332 228.263 391.388 228.208 391.388C227.93 391.443 227.652 391.443 227.43 391.443C226.708 391.443 226.041 390.943 225.875 390.11L225.486 387.833C225.43 387.499 225.041 387.166 224.708 387.277C224.597 387.499 224.319 387.833 224.375 388.166ZM232.096 392.11L230.707 394.276L230.318 392.443L232.096 392.11Z" fill="url(#paint24_linear_6030_781)"/>
<path d="M219.153 360.671L219.542 362.948C219.764 363.948 220.375 364.726 221.209 365.115C220.542 365.837 220.375 366.781 220.431 367.392L221.098 371.002C221.153 371.336 221.542 371.558 221.931 371.502C222.264 371.447 222.486 371.058 222.431 370.725L221.764 367.225C221.709 367.059 221.764 365.781 223.375 365.392L223.653 365.337L224.264 368.725C224.319 369.003 224.541 369.225 224.764 369.225C225.041 369.28 225.319 369.169 225.43 368.947L228.596 364.059C228.763 363.837 228.707 363.559 228.541 363.282C228.374 363.059 228.096 362.948 227.874 363.004L224.541 363.615L223.93 360.338C223.875 360.004 223.486 359.782 223.153 359.838C222.819 359.893 222.486 360.282 222.597 360.615L223.208 363.893C223.097 363.893 223.042 363.948 222.986 363.948C222.708 364.004 222.431 364.004 222.208 364.004C221.486 364.004 220.82 363.504 220.653 362.726L220.264 360.449C220.209 360.115 219.82 359.893 219.487 359.949C219.32 359.949 219.042 360.282 219.153 360.671ZM226.819 364.559L225.43 366.725L225.041 364.892L226.819 364.559Z" fill="url(#paint25_linear_6030_781)"/>
<path d="M213.877 333.12L214.266 335.398C214.488 336.397 215.099 337.175 215.932 337.564C215.265 338.286 215.099 339.23 215.154 339.841L215.821 343.452C215.877 343.785 216.265 344.007 216.654 343.952C216.987 343.896 217.21 343.507 217.154 343.174L216.487 339.675C216.487 339.563 216.488 338.23 218.098 337.842L218.376 337.786L218.987 341.174C219.043 341.452 219.265 341.674 219.543 341.73C219.82 341.785 220.042 341.619 220.209 341.397L223.375 336.508C223.542 336.286 223.486 336.009 223.32 335.731C223.153 335.509 222.875 335.398 222.653 335.453L219.32 336.064L218.709 332.787C218.654 332.454 218.265 332.231 217.932 332.287C217.598 332.343 217.265 332.731 217.376 333.065L217.987 336.342C217.876 336.342 217.821 336.397 217.765 336.397C217.487 336.453 217.21 336.453 216.987 336.453C216.265 336.453 215.599 335.953 215.432 335.175L215.043 332.898C214.988 332.565 214.599 332.343 214.266 332.398C213.988 332.398 213.821 332.787 213.877 333.12ZM221.598 337.008L220.209 339.175L219.82 337.342L221.598 337.008Z" fill="url(#paint26_linear_6030_781)"/>
<path d="M225.653 516.421L226.041 518.699C226.264 519.698 226.875 520.476 227.708 520.865C227.041 521.587 226.875 522.531 226.93 523.142L227.597 526.753C227.652 527.086 228.041 527.308 228.374 527.253C228.708 527.197 229.041 526.808 228.93 526.475L228.819 525.864L228.263 522.92C228.208 522.753 228.263 521.476 229.874 521.087L230.152 521.031L230.763 524.42C230.818 524.697 231.041 524.92 231.263 524.92C231.54 524.975 231.818 524.864 231.929 524.642L235.095 519.754C235.262 519.532 235.206 519.254 235.095 519.032C234.929 518.81 234.651 518.699 234.429 518.754L231.152 519.365L230.707 516.143C230.652 515.81 230.263 515.588 229.874 515.644C229.541 515.699 229.319 516.088 229.374 516.421L229.985 519.698C229.874 519.698 229.819 519.754 229.763 519.754C229.485 519.809 229.208 519.809 228.985 519.809C228.263 519.809 227.597 519.31 227.43 518.532L227.041 516.255C226.986 515.921 226.597 515.699 226.208 515.755C225.875 515.699 225.597 516.032 225.653 516.421ZM233.373 520.309L231.985 522.476L231.596 520.643L233.373 520.309Z" fill="url(#paint27_linear_6030_781)"/>
<path d="M220.431 488.87L220.82 491.148C221.042 492.148 221.653 492.925 222.487 493.314C221.82 494.036 221.653 494.98 221.709 495.591L222.376 499.202C222.431 499.535 222.82 499.757 223.153 499.702C223.486 499.646 223.82 499.257 223.709 498.924L223.042 495.425C223.042 495.314 223.042 493.981 224.653 493.592L224.931 493.536L225.542 496.925C225.597 497.202 225.819 497.424 226.097 497.48C226.375 497.536 226.597 497.369 226.764 497.147L229.93 492.259C230.096 492.037 230.041 491.759 229.93 491.537C229.763 491.314 229.485 491.203 229.263 491.259L225.986 491.87L225.375 488.593C225.319 488.259 224.931 488.037 224.542 488.093C224.209 488.148 223.986 488.537 224.042 488.87L224.653 492.148C224.542 492.148 224.486 492.203 224.431 492.203C224.153 492.259 223.875 492.259 223.653 492.259C222.931 492.259 222.264 491.759 222.098 490.981L221.709 488.704C221.653 488.371 221.265 488.148 220.876 488.204C220.598 488.204 220.376 488.537 220.431 488.87ZM228.097 492.759L226.708 494.925L226.319 493.092L228.097 492.759Z" fill="url(#paint28_linear_6030_781)"/>
<path d="M215.154 461.32L215.543 463.597C215.765 464.597 216.376 465.375 217.209 465.763C216.543 466.486 216.376 467.43 216.432 468.041L217.098 471.651C217.154 471.985 217.543 472.207 217.876 472.151C218.209 472.096 218.542 471.707 218.431 471.374L217.765 467.874C217.765 467.763 217.765 466.486 219.376 466.041C219.487 466.041 219.598 465.986 219.653 465.986L220.264 469.374C220.32 469.596 220.542 469.874 220.764 469.874C221.042 469.929 221.32 469.818 221.431 469.541L224.597 464.653C224.764 464.43 224.708 464.153 224.597 463.93C224.43 463.708 224.153 463.597 223.93 463.653L220.653 464.264L220.042 461.042C219.987 460.709 219.598 460.375 219.209 460.487C218.876 460.542 218.654 460.931 218.709 461.32L219.32 464.541C219.209 464.541 219.153 464.597 219.098 464.597C218.82 464.652 218.542 464.653 218.32 464.653C217.598 464.653 216.932 464.153 216.765 463.375L216.376 461.098C216.321 460.764 215.932 460.542 215.543 460.598C215.321 460.653 215.099 460.986 215.154 461.32ZM222.875 465.208L221.486 467.374L221.098 465.541L222.875 465.208Z" fill="url(#paint29_linear_6030_781)"/>
<path d="M209.933 433.769L210.322 436.046C210.544 437.046 211.155 437.824 211.988 438.213C211.322 438.935 211.155 439.824 211.21 440.435L211.877 444.045C211.933 444.378 212.321 444.712 212.655 444.601C212.988 444.545 213.321 444.156 213.21 443.767L212.544 440.268C212.544 440.157 212.544 438.879 214.154 438.435C214.266 438.435 214.377 438.379 214.432 438.379L215.043 441.768C215.099 441.99 215.321 442.268 215.543 442.268C215.821 442.323 216.099 442.212 216.21 441.99L219.376 437.102C219.487 436.824 219.487 436.602 219.376 436.38C219.209 436.158 218.931 436.046 218.709 436.102L215.432 436.713L214.821 433.436C214.765 433.103 214.377 432.88 213.988 432.936C213.655 432.991 213.432 433.38 213.488 433.714L214.099 436.991C213.988 436.991 213.932 437.046 213.877 437.046C213.599 437.102 213.321 437.102 213.099 437.102C212.377 437.102 211.71 436.602 211.544 435.769L211.155 433.491C211.099 433.158 210.711 432.825 210.322 432.936C210.1 433.103 209.877 433.436 209.933 433.769ZM217.598 437.713L216.21 439.879L215.821 438.046L217.598 437.713Z" fill="url(#paint30_linear_6030_781)"/>
<path d="M204.656 406.274L205.045 408.551C205.267 409.551 205.878 410.329 206.711 410.718C206.045 411.44 205.878 412.384 205.934 412.995L206.6 416.605C206.656 416.939 207.045 417.161 207.378 417.105C207.711 417.05 208.044 416.661 207.933 416.328L207.267 412.828C207.211 412.662 207.267 411.384 208.878 410.995L209.155 410.94L209.766 414.328C209.822 414.606 210.044 414.828 210.266 414.828C210.544 414.884 210.822 414.772 210.933 414.55L214.099 409.662C214.266 409.44 214.21 409.162 214.099 408.94C213.932 408.718 213.654 408.607 213.432 408.662L210.155 409.273L209.544 405.996C209.489 405.663 209.1 405.441 208.711 405.496C208.378 405.552 208.155 405.941 208.211 406.274L208.822 409.551C208.711 409.551 208.655 409.607 208.6 409.607C208.322 409.662 208.044 409.662 207.822 409.662C207.1 409.662 206.434 409.162 206.267 408.385L205.878 406.107C205.823 405.774 205.434 405.552 205.045 405.607C204.823 405.552 204.601 405.885 204.656 406.274ZM212.377 410.162L210.988 412.328L210.599 410.495L212.377 410.162Z" fill="url(#paint31_linear_6030_781)"/>
<path d="M199.379 378.723L199.768 381.001C199.99 382 200.601 382.778 201.435 383.167C200.768 383.889 200.601 384.833 200.657 385.444L201.323 389.055C201.379 389.388 201.768 389.61 202.101 389.555C202.434 389.499 202.768 389.11 202.657 388.777L201.99 385.278C201.99 385.167 201.99 383.833 203.601 383.445L203.879 383.389L204.49 386.777C204.545 387.055 204.767 387.277 205.045 387.333C205.323 387.388 205.545 387.222 205.712 387L208.878 382.112C209.044 381.889 208.989 381.612 208.878 381.389C208.711 381.167 208.433 381.056 208.211 381.112L204.934 381.723L204.323 378.446C204.267 378.112 203.879 377.89 203.49 377.946C203.156 378.001 202.934 378.39 202.99 378.723L203.601 382C203.49 382 203.434 382.056 203.379 382.056C203.101 382.112 202.823 382.112 202.601 382.112C201.879 382.112 201.212 381.612 201.046 380.834L200.657 378.557C200.601 378.223 200.213 378.001 199.824 378.057C199.602 378.001 199.379 378.39 199.379 378.723ZM207.1 382.611L205.712 384.778L205.323 382.945L207.1 382.611Z" fill="url(#paint32_linear_6030_781)"/>
<path d="M194.158 351.228L194.547 353.505C194.769 354.505 195.38 355.283 196.213 355.672C195.547 356.394 195.38 357.338 195.436 357.949L196.102 361.56C196.158 361.893 196.547 362.115 196.88 362.06C197.213 362.004 197.546 361.615 197.435 361.282L196.769 357.782C196.769 357.671 196.769 356.394 198.38 355.949C198.491 355.949 198.602 355.894 198.657 355.894L199.268 359.282C199.324 359.504 199.546 359.782 199.768 359.782C200.046 359.838 200.324 359.727 200.435 359.449L203.601 354.561C203.767 354.339 203.712 354.061 203.601 353.839C203.434 353.617 203.156 353.505 202.934 353.561L199.657 354.172L199.046 350.95C198.991 350.617 198.602 350.284 198.213 350.395C197.88 350.45 197.657 350.839 197.713 351.228L198.324 354.45C198.213 354.45 198.157 354.505 198.102 354.505C197.824 354.561 197.546 354.561 197.324 354.561C196.602 354.561 195.936 354.061 195.769 353.283L195.38 351.006C195.324 350.673 194.936 350.339 194.547 350.45C194.325 350.45 194.103 350.839 194.158 351.228ZM201.823 355.061L200.435 357.227L200.046 355.394L201.823 355.061Z" fill="url(#paint33_linear_6030_781)"/>
<path d="M190.936 333.898C190.992 334.231 191.381 334.564 191.714 334.453C192.047 334.398 192.381 334.009 192.269 333.62L191.714 330.621L190.381 330.898L190.936 333.898Z" fill="url(#paint34_linear_6030_781)"/>
<path d="M194.658 332.176C194.936 332.231 195.213 332.12 195.324 331.898L196.713 329.732L193.769 330.287L194.047 331.62C194.213 331.898 194.436 332.12 194.658 332.176Z" fill="url(#paint35_linear_6030_781)"/>
</g>
<path d="M250.648 525.808L251.037 528.086C251.259 529.086 251.87 529.863 252.703 530.252C252.037 530.974 251.87 531.918 251.926 532.529L252.592 536.14C252.648 536.473 253.037 536.695 253.426 536.64C253.759 536.584 253.981 536.195 253.925 535.862L253.259 532.363C253.259 532.252 253.259 530.974 254.87 530.53C254.981 530.53 255.036 530.474 255.147 530.474L255.758 533.862C255.814 534.085 256.036 534.362 256.258 534.362C256.536 534.418 256.814 534.307 256.925 534.029L259.258 530.474L260.091 529.141C260.258 528.919 260.202 528.641 260.091 528.419C259.924 528.197 259.647 528.086 259.425 528.141L256.092 528.752L255.481 525.531C255.425 525.197 255.036 524.864 254.703 524.975C254.37 525.031 254.037 525.42 254.148 525.808L254.759 529.03C254.648 529.03 254.592 529.086 254.536 529.086C254.259 529.141 253.981 529.141 253.759 529.141C253.037 529.141 252.37 528.641 252.204 527.864L251.815 525.642C251.759 525.308 251.37 525.086 251.037 525.142C250.815 525.142 250.593 525.475 250.648 525.808ZM258.369 529.808L256.981 531.974L256.592 530.141L258.369 529.808Z" fill="url(#paint36_linear_6030_781)"/>
<path d="M245.427 498.313L245.815 500.591C246.038 501.59 246.649 502.368 247.482 502.757C246.815 503.479 246.649 504.368 246.704 504.979L247.371 508.589C247.426 508.811 247.648 509.034 247.815 509.089C247.926 509.145 247.982 509.089 248.093 509.089C248.426 509.034 248.648 508.645 248.593 508.256L247.926 504.757C247.926 504.645 247.926 503.368 249.537 502.924C249.648 502.924 249.704 502.868 249.815 502.868L250.426 506.256C250.481 506.478 250.703 506.756 250.926 506.756C251.203 506.812 251.481 506.701 251.592 506.478L252.259 505.368L254.758 501.59C254.869 501.313 254.869 501.091 254.758 500.868C254.647 500.646 254.314 500.535 254.092 500.591L250.759 501.202L250.148 497.924C250.092 497.591 249.704 497.369 249.37 497.425C249.037 497.48 248.704 497.869 248.815 498.202L249.426 501.479H249.37C249.315 501.479 249.259 501.479 249.204 501.535C248.926 501.59 248.648 501.59 248.426 501.59C247.704 501.59 247.037 501.091 246.871 500.257L246.482 497.98C246.426 497.647 246.038 497.313 245.704 497.425C245.593 497.591 245.316 497.924 245.427 498.313ZM253.092 502.257L251.87 504.146L251.703 504.423L251.314 502.59L253.092 502.257Z" fill="url(#paint37_linear_6030_781)"/>
<path d="M240.15 470.763L240.539 473.04C240.705 473.873 241.205 474.54 241.761 474.928C241.927 475.04 242.038 475.095 242.149 475.151C241.483 475.873 241.316 476.817 241.372 477.428L242.038 481.038C242.094 481.372 242.483 481.594 242.872 481.538C243.205 481.483 243.427 481.094 243.371 480.761L242.705 477.261C242.649 477.095 242.705 475.817 244.316 475.428L244.593 475.373L245.204 478.761C245.26 479.039 245.482 479.261 245.704 479.261C245.982 479.317 246.26 479.205 246.371 478.983L249.537 474.095C249.704 473.873 249.648 473.595 249.593 473.429V473.373C249.426 473.151 249.148 473.04 248.926 473.095L245.593 473.706L244.982 470.429C244.927 470.096 244.538 469.874 244.205 469.929C243.871 469.985 243.538 470.374 243.649 470.707L244.26 473.984C244.149 473.984 244.094 474.04 244.038 474.04C243.76 474.095 243.483 474.095 243.26 474.095C242.538 474.095 241.872 473.595 241.705 472.818L241.316 470.54C241.261 470.207 240.872 469.985 240.539 470.04C240.316 470.096 240.039 470.374 240.15 470.763ZM247.871 474.706L246.482 476.873L246.093 475.04L247.871 474.706Z" fill="url(#paint38_linear_6030_781)"/>
<path d="M234.929 443.212L235.317 445.489C235.54 446.489 236.151 447.267 236.984 447.656C236.317 448.378 236.151 449.322 236.206 449.933L236.873 453.543C236.928 453.877 237.317 454.099 237.706 454.043C238.039 453.988 238.261 453.599 238.206 453.266L237.539 449.766C237.539 449.655 237.539 448.322 239.15 447.933L239.428 447.878L240.039 451.266C240.094 451.544 240.316 451.766 240.594 451.821C240.872 451.877 241.094 451.71 241.261 451.488L244.427 446.6C244.594 446.378 244.538 446.1 244.371 445.822C244.205 445.6 243.927 445.489 243.705 445.545L240.372 446.156L239.761 442.879C239.705 442.545 239.317 442.323 238.983 442.379C238.65 442.434 238.317 442.823 238.428 443.156L239.039 446.433C238.928 446.433 238.872 446.489 238.817 446.489C238.539 446.545 238.261 446.545 238.039 446.545C237.317 446.545 236.65 446.045 236.484 445.267L236.095 442.99C236.039 442.656 235.651 442.434 235.317 442.49C235.095 442.601 234.873 442.879 234.929 443.212ZM242.594 447.156L241.205 449.322L240.816 447.489L242.594 447.156Z" fill="url(#paint39_linear_6030_781)"/>
<path d="M229.652 415.717L230.041 417.994C230.263 418.994 230.874 419.772 231.707 420.16C231.04 420.882 230.874 421.827 230.929 422.438L231.596 426.048C231.651 426.381 232.04 426.604 232.429 426.548C232.762 426.493 232.984 426.104 232.929 425.77L232.262 422.271C232.262 422.16 232.262 420.882 233.873 420.438C233.984 420.438 234.04 420.383 234.151 420.383L234.762 423.771C234.818 423.993 235.04 424.271 235.262 424.271C235.54 424.326 235.817 424.215 235.928 423.937L239.095 419.049C239.261 418.827 239.206 418.55 239.095 418.327C238.928 418.105 238.65 417.994 238.428 418.05L235.095 418.661L234.484 415.439C234.429 415.106 234.04 414.772 233.707 414.884C233.373 414.995 233.04 415.328 233.151 415.717L233.762 418.938C233.651 418.938 233.596 418.994 233.54 418.994C233.262 419.049 232.985 419.049 232.762 419.049C232.04 419.049 231.374 418.55 231.207 417.772L230.818 415.495C230.763 415.161 230.374 414.939 230.041 414.995C229.818 415.05 229.541 415.383 229.652 415.717ZM237.373 419.605L235.984 421.771L235.595 419.938L237.373 419.605Z" fill="url(#paint40_linear_6030_781)"/>
<path d="M224.375 388.166L224.764 390.443C224.986 391.443 225.597 392.221 226.43 392.61C225.764 393.332 225.597 394.22 225.652 394.831L226.319 398.442C226.375 398.775 226.763 399.109 227.152 398.997C227.485 398.942 227.708 398.553 227.652 398.164L226.986 394.665C226.986 394.554 226.986 393.276 228.596 392.832C228.708 392.832 228.763 392.776 228.874 392.776L229.485 396.165C229.541 396.442 229.763 396.665 229.985 396.665C230.263 396.72 230.541 396.609 230.652 396.387L233.818 391.499C233.929 391.221 233.929 390.999 233.762 390.721C233.596 390.499 233.318 390.388 233.096 390.443L229.763 391.054L229.152 387.777C229.096 387.444 228.708 387.222 228.374 387.277C228.041 387.333 227.708 387.722 227.819 388.055L228.43 391.332C228.319 391.332 228.263 391.388 228.208 391.388C227.93 391.443 227.652 391.443 227.43 391.443C226.708 391.443 226.041 390.943 225.875 390.11L225.486 387.833C225.43 387.499 225.041 387.166 224.708 387.277C224.597 387.499 224.319 387.833 224.375 388.166ZM232.096 392.11L230.707 394.276L230.318 392.443L232.096 392.11Z" fill="url(#paint41_linear_6030_781)"/>
<path d="M219.153 360.671L219.542 362.948C219.764 363.948 220.375 364.726 221.209 365.115C220.542 365.837 220.375 366.781 220.431 367.392L221.098 371.002C221.153 371.336 221.542 371.558 221.931 371.502C222.264 371.447 222.486 371.058 222.431 370.725L221.764 367.225C221.709 367.059 221.764 365.781 223.375 365.392L223.653 365.337L224.264 368.725C224.319 369.003 224.541 369.225 224.764 369.225C225.041 369.28 225.319 369.169 225.43 368.947L228.596 364.059C228.763 363.837 228.707 363.559 228.541 363.282C228.374 363.059 228.096 362.948 227.874 363.004L224.541 363.615L223.93 360.338C223.875 360.004 223.486 359.782 223.153 359.838C222.819 359.893 222.486 360.282 222.597 360.615L223.208 363.893C223.097 363.893 223.042 363.948 222.986 363.948C222.708 364.004 222.431 364.004 222.208 364.004C221.486 364.004 220.82 363.504 220.653 362.726L220.264 360.449C220.209 360.115 219.82 359.893 219.487 359.949C219.32 359.949 219.042 360.282 219.153 360.671ZM226.819 364.559L225.43 366.725L225.041 364.892L226.819 364.559Z" fill="url(#paint42_linear_6030_781)"/>
<path d="M213.877 333.12L214.266 335.398C214.488 336.397 215.099 337.175 215.932 337.564C215.265 338.286 215.099 339.23 215.154 339.841L215.821 343.452C215.877 343.785 216.265 344.007 216.654 343.952C216.987 343.896 217.21 343.507 217.154 343.174L216.487 339.675C216.487 339.563 216.488 338.23 218.098 337.842L218.376 337.786L218.987 341.174C219.043 341.452 219.265 341.674 219.543 341.73C219.82 341.785 220.042 341.619 220.209 341.397L223.375 336.508C223.542 336.286 223.486 336.009 223.32 335.731C223.153 335.509 222.875 335.398 222.653 335.453L219.32 336.064L218.709 332.787C218.654 332.454 218.265 332.231 217.932 332.287C217.598 332.343 217.265 332.731 217.376 333.065L217.987 336.342C217.876 336.342 217.821 336.397 217.765 336.397C217.487 336.453 217.21 336.453 216.987 336.453C216.265 336.453 215.599 335.953 215.432 335.175L215.043 332.898C214.988 332.565 214.599 332.343 214.266 332.398C213.988 332.398 213.821 332.787 213.877 333.12ZM221.598 337.008L220.209 339.175L219.82 337.342L221.598 337.008Z" fill="url(#paint43_linear_6030_781)"/>
<path d="M225.653 516.421L226.041 518.699C226.264 519.698 226.875 520.476 227.708 520.865C227.041 521.587 226.875 522.531 226.93 523.142L227.597 526.753C227.652 527.086 228.041 527.308 228.374 527.253C228.708 527.197 229.041 526.808 228.93 526.475L228.819 525.864L228.263 522.92C228.208 522.753 228.263 521.476 229.874 521.087L230.152 521.031L230.763 524.42C230.818 524.697 231.041 524.92 231.263 524.92C231.54 524.975 231.818 524.864 231.929 524.642L235.095 519.754C235.262 519.532 235.206 519.254 235.095 519.032C234.929 518.81 234.651 518.699 234.429 518.754L231.152 519.365L230.707 516.143C230.652 515.81 230.263 515.588 229.874 515.644C229.541 515.699 229.319 516.088 229.374 516.421L229.985 519.698C229.874 519.698 229.819 519.754 229.763 519.754C229.485 519.809 229.208 519.809 228.985 519.809C228.263 519.809 227.597 519.31 227.43 518.532L227.041 516.255C226.986 515.921 226.597 515.699 226.208 515.755C225.875 515.699 225.597 516.032 225.653 516.421ZM233.373 520.309L231.985 522.476L231.596 520.643L233.373 520.309Z" fill="url(#paint44_linear_6030_781)"/>
<path d="M220.431 488.87L220.82 491.148C221.042 492.148 221.653 492.925 222.487 493.314C221.82 494.036 221.653 494.98 221.709 495.591L222.376 499.202C222.431 499.535 222.82 499.757 223.153 499.702C223.486 499.646 223.82 499.257 223.709 498.924L223.042 495.425C223.042 495.314 223.042 493.981 224.653 493.592L224.931 493.536L225.542 496.925C225.597 497.202 225.819 497.424 226.097 497.48C226.375 497.536 226.597 497.369 226.764 497.147L229.93 492.259C230.096 492.037 230.041 491.759 229.93 491.537C229.763 491.314 229.485 491.203 229.263 491.259L225.986 491.87L225.375 488.593C225.319 488.259 224.931 488.037 224.542 488.093C224.209 488.148 223.986 488.537 224.042 488.87L224.653 492.148C224.542 492.148 224.486 492.203 224.431 492.203C224.153 492.259 223.875 492.259 223.653 492.259C222.931 492.259 222.264 491.759 222.098 490.981L221.709 488.704C221.653 488.371 221.265 488.148 220.876 488.204C220.598 488.204 220.376 488.537 220.431 488.87ZM228.097 492.759L226.708 494.925L226.319 493.092L228.097 492.759Z" fill="url(#paint45_linear_6030_781)"/>
<path d="M215.154 461.32L215.543 463.597C215.765 464.597 216.376 465.375 217.209 465.763C216.543 466.486 216.376 467.43 216.432 468.041L217.098 471.651C217.154 471.985 217.543 472.207 217.876 472.151C218.209 472.096 218.542 471.707 218.431 471.374L217.765 467.874C217.765 467.763 217.765 466.486 219.376 466.041C219.487 466.041 219.598 465.986 219.653 465.986L220.264 469.374C220.32 469.596 220.542 469.874 220.764 469.874C221.042 469.929 221.32 469.818 221.431 469.541L224.597 464.653C224.764 464.43 224.708 464.153 224.597 463.93C224.43 463.708 224.153 463.597 223.93 463.653L220.653 464.264L220.042 461.042C219.987 460.709 219.598 460.375 219.209 460.487C218.876 460.542 218.654 460.931 218.709 461.32L219.32 464.541C219.209 464.541 219.153 464.597 219.098 464.597C218.82 464.652 218.542 464.653 218.32 464.653C217.598 464.653 216.932 464.153 216.765 463.375L216.376 461.098C216.321 460.764 215.932 460.542 215.543 460.598C215.321 460.653 215.099 460.986 215.154 461.32ZM222.875 465.208L221.486 467.374L221.098 465.541L222.875 465.208Z" fill="url(#paint46_linear_6030_781)"/>
<path d="M209.933 433.769L210.322 436.046C210.544 437.046 211.155 437.824 211.988 438.213C211.322 438.935 211.155 439.824 211.21 440.435L211.877 444.045C211.933 444.378 212.321 444.712 212.655 444.601C212.988 444.545 213.321 444.156 213.21 443.767L212.544 440.268C212.544 440.157 212.544 438.879 214.154 438.435C214.266 438.435 214.377 438.379 214.432 438.379L215.043 441.768C215.099 441.99 215.321 442.268 215.543 442.268C215.821 442.323 216.099 442.212 216.21 441.99L219.376 437.102C219.487 436.824 219.487 436.602 219.376 436.38C219.209 436.158 218.931 436.046 218.709 436.102L215.432 436.713L214.821 433.436C214.765 433.103 214.377 432.88 213.988 432.936C213.655 432.991 213.432 433.38 213.488 433.714L214.099 436.991C213.988 436.991 213.932 437.046 213.877 437.046C213.599 437.102 213.321 437.102 213.099 437.102C212.377 437.102 211.71 436.602 211.544 435.769L211.155 433.491C211.099 433.158 210.711 432.825 210.322 432.936C210.1 433.103 209.877 433.436 209.933 433.769ZM217.598 437.713L216.21 439.879L215.821 438.046L217.598 437.713Z" fill="url(#paint47_linear_6030_781)"/>
<path d="M204.656 406.274L205.045 408.551C205.267 409.551 205.878 410.329 206.711 410.718C206.045 411.44 205.878 412.384 205.934 412.995L206.6 416.605C206.656 416.939 207.045 417.161 207.378 417.105C207.711 417.05 208.044 416.661 207.933 416.328L207.267 412.828C207.211 412.662 207.267 411.384 208.878 410.995L209.155 410.94L209.766 414.328C209.822 414.606 210.044 414.828 210.266 414.828C210.544 414.884 210.822 414.772 210.933 414.55L214.099 409.662C214.266 409.44 214.21 409.162 214.099 408.94C213.932 408.718 213.654 408.607 213.432 408.662L210.155 409.273L209.544 405.996C209.489 405.663 209.1 405.441 208.711 405.496C208.378 405.552 208.155 405.941 208.211 406.274L208.822 409.551C208.711 409.551 208.655 409.607 208.6 409.607C208.322 409.662 208.044 409.662 207.822 409.662C207.1 409.662 206.434 409.162 206.267 408.385L205.878 406.107C205.823 405.774 205.434 405.552 205.045 405.607C204.823 405.552 204.601 405.885 204.656 406.274ZM212.377 410.162L210.988 412.328L210.599 410.495L212.377 410.162Z" fill="url(#paint48_linear_6030_781)"/>
<path d="M199.379 378.723L199.768 381.001C199.99 382 200.601 382.778 201.435 383.167C200.768 383.889 200.601 384.833 200.657 385.444L201.323 389.055C201.379 389.388 201.768 389.61 202.101 389.555C202.434 389.499 202.768 389.11 202.657 388.777L201.99 385.278C201.99 385.167 201.99 383.833 203.601 383.445L203.879 383.389L204.49 386.777C204.545 387.055 204.767 387.277 205.045 387.333C205.323 387.388 205.545 387.222 205.712 387L208.878 382.112C209.044 381.889 208.989 381.612 208.878 381.389C208.711 381.167 208.433 381.056 208.211 381.112L204.934 381.723L204.323 378.446C204.267 378.112 203.879 377.89 203.49 377.946C203.156 378.001 202.934 378.39 202.99 378.723L203.601 382C203.49 382 203.434 382.056 203.379 382.056C203.101 382.112 202.823 382.112 202.601 382.112C201.879 382.112 201.212 381.612 201.046 380.834L200.657 378.557C200.601 378.223 200.213 378.001 199.824 378.057C199.602 378.001 199.379 378.39 199.379 378.723ZM207.1 382.611L205.712 384.778L205.323 382.945L207.1 382.611Z" fill="url(#paint49_linear_6030_781)"/>
<path d="M194.158 351.228L194.547 353.505C194.769 354.505 195.38 355.283 196.213 355.672C195.547 356.394 195.38 357.338 195.436 357.949L196.102 361.56C196.158 361.893 196.547 362.115 196.88 362.06C197.213 362.004 197.546 361.615 197.435 361.282L196.769 357.782C196.769 357.671 196.769 356.394 198.38 355.949C198.491 355.949 198.602 355.894 198.657 355.894L199.268 359.282C199.324 359.504 199.546 359.782 199.768 359.782C200.046 359.838 200.324 359.727 200.435 359.449L203.601 354.561C203.767 354.339 203.712 354.061 203.601 353.839C203.434 353.617 203.156 353.505 202.934 353.561L199.657 354.172L199.046 350.95C198.991 350.617 198.602 350.284 198.213 350.395C197.88 350.45 197.657 350.839 197.713 351.228L198.324 354.45C198.213 354.45 198.157 354.505 198.102 354.505C197.824 354.561 197.546 354.561 197.324 354.561C196.602 354.561 195.936 354.061 195.769 353.283L195.38 351.006C195.324 350.673 194.936 350.339 194.547 350.45C194.325 350.45 194.103 350.839 194.158 351.228ZM201.823 355.061L200.435 357.227L200.046 355.394L201.823 355.061Z" fill="url(#paint50_linear_6030_781)"/>
<path d="M190.936 333.898C190.992 334.231 191.381 334.564 191.714 334.453C192.047 334.398 192.381 334.009 192.269 333.62L191.714 330.621L190.381 330.898L190.936 333.898Z" fill="url(#paint51_linear_6030_781)"/>
<path d="M194.658 332.176C194.936 332.231 195.213 332.12 195.324 331.898L196.713 329.732L193.769 330.287L194.047 331.62C194.213 331.898 194.436 332.12 194.658 332.176Z" fill="url(#paint52_linear_6030_781)"/>
<path d="M317.248 435.935C312.971 431.769 308.527 427.937 303.028 426.104C298.084 424.437 297.696 424.771 297.64 430.325C297.529 437.768 297.696 445.156 294.974 452.321C293.918 455.043 294.141 458.654 294.474 461.875C295.085 467.485 299.084 470.707 303.195 473.207C311.304 478.15 317.081 475.984 318.97 467.263C320.247 461.542 320.747 455.599 321.469 449.766C321.691 448.322 321.414 439.935 317.248 435.935Z" fill="#DFE5F4" stroke="white" stroke-width="2" stroke-miterlimit="10"/>
<path d="M336.244 510.811C334.745 506.978 332.301 503.868 328.801 501.368C324.524 507.089 319.081 509.034 312.693 507.367C310.915 506.923 309.971 507.423 309.082 508.7C305.805 513.144 302.306 517.532 299.362 522.198C298.029 524.198 296.696 526.864 296.918 529.252C297.307 534.529 305.916 541.028 310.915 540.584C315.748 540.139 319.969 537.973 323.969 535.251C330.856 530.53 335.744 524.198 336.8 515.088C336.8 513.699 336.744 512.089 336.244 510.811Z" fill="#DFE5F4" stroke="white" stroke-width="2" stroke-miterlimit="10"/>
<path d="M333.523 479.65C331.245 472.929 326.191 469.096 320.692 465.319C320.303 466.597 320.081 467.596 319.747 468.541C317.803 474.484 314.248 477.428 309.638 476.873C308.194 476.706 306.416 475.984 305.472 476.539C304.417 477.206 304.083 479.261 303.361 480.705C303.25 480.927 303.084 481.261 302.972 481.538C300.862 486.815 299.584 491.814 302.695 497.591C306.083 503.757 310.582 507.089 317.025 506.923C322.469 506.756 326.635 504.034 328.968 498.647C330.745 494.536 332.301 490.37 333.467 486.038C334.078 484.094 334.134 481.538 333.523 479.65Z" fill="#DFE5F4" stroke="white" stroke-width="2" stroke-miterlimit="10"/>
<path d="M306.916 521.698C311.138 521.198 316.915 524.753 318.137 527.975C318.359 528.419 318.414 528.919 318.414 529.419C318.47 532.974 312.582 538.973 308.638 536.418C307.083 535.418 305.305 534.696 303.972 533.474C302.528 532.196 301.14 530.585 301.973 528.197C303.084 525.086 304.417 522.087 306.916 521.698Z" fill="#EBEEF7"/>
<path d="M323.302 495.147C322.746 496.925 322.247 499.146 321.136 500.979C320.636 501.868 318.692 502.535 317.858 502.146C314.637 500.757 311.36 499.313 308.638 497.091C305.527 494.647 306.638 486.704 310.249 485.371C311.637 484.927 313.804 485.427 315.081 486.315C317.692 488.037 319.914 490.37 322.302 492.537C322.691 493.092 322.802 493.925 323.302 495.147Z" fill="#EBEEF7"/>
<path d="M302.417 453.099C309.193 452.099 316.414 460.598 314.415 466.43C313.248 469.874 311.526 470.818 308.36 469.596C306.527 468.93 304.639 468.041 302.972 466.985C297.751 463.764 298.306 458.876 300.473 454.599C300.917 453.71 302.083 453.321 302.417 453.099Z" fill="#EBEEF7"/>
<path d="M308.694 314.346C308.027 310.846 308.249 310.569 311.193 310.513C323.191 310.291 330.968 317.734 331.523 328.566C331.69 331.787 331.468 331.898 327.746 331.232C327.968 326.122 326.746 321.511 322.636 317.956C318.636 314.346 313.748 314.235 308.694 314.346Z" fill="#D1C0FB"/>
<path d="M165.83 315.012C166.497 311.513 166.275 311.235 163.331 311.18C151.333 310.958 143.556 318.401 143.001 329.232C142.834 332.454 143.057 332.565 146.778 331.898C146.556 326.788 147.778 322.178 151.888 318.623C155.943 315.068 160.776 314.957 165.83 315.012Z" fill="#D1C0FB"/>
<path d="M308.694 563.691C308.027 567.19 308.249 567.468 311.193 567.523C323.191 567.746 330.968 560.302 331.523 549.471C331.69 546.249 331.468 546.138 327.746 546.805C327.968 551.915 326.746 556.525 322.636 560.08C318.636 563.635 313.748 563.746 308.694 563.691Z" fill="#D1C0FB"/>
<path d="M165.83 562.969C166.497 566.468 166.275 566.746 163.331 566.801C151.333 567.023 143.556 559.58 143.001 548.749C142.834 545.527 143.057 545.416 146.778 546.083C146.556 551.193 147.778 555.803 151.888 559.358C155.943 562.969 160.776 563.08 165.83 562.969Z" fill="#D1C0FB"/>
</g>
<defs>
<linearGradient id="paint0_linear_6030_781" x1="250.628" y1="432.113" x2="175.376" y2="446.478" gradientUnits="userSpaceOnUse">
<stop offset="0.1229" stop-color="#A5D1FA"/>
<stop offset="0.8347" stop-color="#C2E7E5"/>
</linearGradient>
<linearGradient id="paint1_linear_6030_781" x1="275.714" y1="532.109" x2="363.414" y2="537.438" gradientUnits="userSpaceOnUse">
<stop stop-color="#B2C0CA"/>
<stop offset="0.8347" stop-color="#C3C3E6"/>
</linearGradient>
<linearGradient id="paint2_linear_6030_781" x1="247.005" y1="503.159" x2="332.724" y2="508.368" gradientUnits="userSpaceOnUse">
<stop stop-color="#B2C0CA"/>
<stop offset="0.8347" stop-color="#C3C3E6"/>
</linearGradient>
<linearGradient id="paint3_linear_6030_781" x1="218.474" y1="474.213" x2="305.923" y2="479.526" gradientUnits="userSpaceOnUse">
<stop stop-color="#B2C0CA"/>
<stop offset="0.8347" stop-color="#C3C3E6"/>
</linearGradient>
<linearGradient id="paint4_linear_6030_781" x1="189.889" y1="445.275" x2="277.347" y2="450.589" gradientUnits="userSpaceOnUse">
<stop stop-color="#B2C0CA"/>
<stop offset="0.8347" stop-color="#C3C3E6"/>
</linearGradient>
<linearGradient id="paint5_linear_6030_781" x1="161.437" y1="416.312" x2="248.699" y2="421.614" gradientUnits="userSpaceOnUse">
<stop stop-color="#B2C0CA"/>
<stop offset="0.8347" stop-color="#C3C3E6"/>
</linearGradient>
<linearGradient id="paint6_linear_6030_781" x1="133.966" y1="387.404" x2="220.166" y2="392.642" gradientUnits="userSpaceOnUse">
<stop stop-color="#B2C0CA"/>
<stop offset="0.8347" stop-color="#C3C3E6"/>
</linearGradient>
<linearGradient id="paint7_linear_6030_781" x1="103.854" y1="358.423" x2="191.51" y2="363.749" gradientUnits="userSpaceOnUse">
<stop stop-color="#B2C0CA"/>
<stop offset="0.8347" stop-color="#C3C3E6"/>
</linearGradient>
<linearGradient id="paint8_linear_6030_781" x1="75.5311" y1="329.473" x2="162.988" y2="334.788" gradientUnits="userSpaceOnUse">
<stop stop-color="#B2C0CA"/>
<stop offset="0.8347" stop-color="#C3C3E6"/>
</linearGradient>
<linearGradient id="paint9_linear_6030_781" x1="239.963" y1="522.064" x2="327.578" y2="527.388" gradientUnits="userSpaceOnUse">
<stop stop-color="#B2C0CA"/>
<stop offset="0.8347" stop-color="#C3C3E6"/>
</linearGradient>
<linearGradient id="paint10_linear_6030_781" x1="211.3" y1="493.098" x2="299.067" y2="498.431" gradientUnits="userSpaceOnUse">
<stop stop-color="#B2C0CA"/>
<stop offset="0.8347" stop-color="#C3C3E6"/>
</linearGradient>
<linearGradient id="paint11_linear_6030_781" x1="182.817" y1="464.106" x2="270.036" y2="469.406" gradientUnits="userSpaceOnUse">
<stop stop-color="#B2C0CA"/>
<stop offset="0.8347" stop-color="#C3C3E6"/>
</linearGradient>
<linearGradient id="paint12_linear_6030_781" x1="154.841" y1="435.194" x2="241.15" y2="440.438" gradientUnits="userSpaceOnUse">
<stop stop-color="#B2C0CA"/>
<stop offset="0.8347" stop-color="#C3C3E6"/>
</linearGradient>
<linearGradient id="paint13_linear_6030_781" x1="125.293" y1="406.247" x2="213.065" y2="411.581" gradientUnits="userSpaceOnUse">
<stop stop-color="#B2C0CA"/>
<stop offset="0.8347" stop-color="#C3C3E6"/>
</linearGradient>
<linearGradient id="paint14_linear_6030_781" x1="96.6315" y1="377.277" x2="184.381" y2="382.609" gradientUnits="userSpaceOnUse">
<stop stop-color="#B2C0CA"/>
<stop offset="0.8347" stop-color="#C3C3E6"/>
</linearGradient>
<linearGradient id="paint15_linear_6030_781" x1="69.3342" y1="348.413" x2="156.129" y2="353.687" gradientUnits="userSpaceOnUse">
<stop stop-color="#B2C0CA"/>
<stop offset="0.8347" stop-color="#C3C3E6"/>
</linearGradient>
<linearGradient id="paint16_linear_6030_781" x1="216.582" y1="511.334" x2="201.943" y2="407.441" gradientUnits="userSpaceOnUse">
<stop stop-color="#B2C0CA"/>
<stop offset="0.8347" stop-color="#C3C3E6"/>
</linearGradient>
<linearGradient id="paint17_linear_6030_781" x1="220.762" y1="510.745" x2="206.123" y2="406.853" gradientUnits="userSpaceOnUse">
<stop stop-color="#B2C0CA"/>
<stop offset="0.8347" stop-color="#C3C3E6"/>
</linearGradient>
<linearGradient id="paint18_linear_6030_781" x1="177.73" y1="446.036" x2="254.567" y2="431.368" gradientUnits="userSpaceOnUse">
<stop offset="0.1229" stop-color="#A5D1FA"/>
<stop offset="0.8347" stop-color="#C2E7E5"/>
</linearGradient>
<linearGradient id="paint19_linear_6030_781" x1="275.654" y1="532.108" x2="363.353" y2="537.437" gradientUnits="userSpaceOnUse">
<stop stop-color="#EED082"/>
<stop offset="0.8347" stop-color="#C39EE6"/>
</linearGradient>
<linearGradient id="paint20_linear_6030_781" x1="246.929" y1="503.157" x2="332.819" y2="508.376" gradientUnits="userSpaceOnUse">
<stop stop-color="#EED082"/>
<stop offset="0.8347" stop-color="#C39EE6"/>
</linearGradient>
<linearGradient id="paint21_linear_6030_781" x1="218.414" y1="474.212" x2="305.861" y2="479.525" gradientUnits="userSpaceOnUse">
<stop stop-color="#EED082"/>
<stop offset="0.8347" stop-color="#C39EE6"/>
</linearGradient>
<linearGradient id="paint22_linear_6030_781" x1="189.83" y1="445.274" x2="277.286" y2="450.588" gradientUnits="userSpaceOnUse">
<stop stop-color="#EED082"/>
<stop offset="0.8347" stop-color="#C39EE6"/>
</linearGradient>
<linearGradient id="paint23_linear_6030_781" x1="161.229" y1="416.302" x2="248.657" y2="421.614" gradientUnits="userSpaceOnUse">
<stop stop-color="#EED082"/>
<stop offset="0.8347" stop-color="#C39EE6"/>
</linearGradient>
<linearGradient id="paint24_linear_6030_781" x1="133.906" y1="387.403" x2="220.106" y2="392.641" gradientUnits="userSpaceOnUse">
<stop stop-color="#EED082"/>
<stop offset="0.8347" stop-color="#C39EE6"/>
</linearGradient>
<linearGradient id="paint25_linear_6030_781" x1="103.794" y1="358.422" x2="191.45" y2="363.748" gradientUnits="userSpaceOnUse">
<stop stop-color="#EED082"/>
<stop offset="0.8347" stop-color="#C39EE6"/>
</linearGradient>
<linearGradient id="paint26_linear_6030_781" x1="75.4223" y1="329.469" x2="162.908" y2="334.786" gradientUnits="userSpaceOnUse">
<stop stop-color="#EED082"/>
<stop offset="0.8347" stop-color="#C39EE6"/>
</linearGradient>
<linearGradient id="paint27_linear_6030_781" x1="239.963" y1="522.064" x2="327.601" y2="527.389" gradientUnits="userSpaceOnUse">
<stop stop-color="#EED082"/>
<stop offset="0.8347" stop-color="#C39EE6"/>
</linearGradient>
<linearGradient id="paint28_linear_6030_781" x1="211.296" y1="493.097" x2="299.081" y2="498.432" gradientUnits="userSpaceOnUse">
<stop stop-color="#EED082"/>
<stop offset="0.8347" stop-color="#C39EE6"/>
</linearGradient>
<linearGradient id="paint29_linear_6030_781" x1="182.806" y1="464.106" x2="270.045" y2="469.407" gradientUnits="userSpaceOnUse">
<stop stop-color="#EED082"/>
<stop offset="0.8347" stop-color="#C39EE6"/>
</linearGradient>
<linearGradient id="paint30_linear_6030_781" x1="154.825" y1="435.193" x2="241.154" y2="440.439" gradientUnits="userSpaceOnUse">
<stop stop-color="#EED082"/>
<stop offset="0.8347" stop-color="#C39EE6"/>
</linearGradient>
<linearGradient id="paint31_linear_6030_781" x1="125.267" y1="406.246" x2="213.064" y2="411.581" gradientUnits="userSpaceOnUse">
<stop stop-color="#EED082"/>
<stop offset="0.8347" stop-color="#C39EE6"/>
</linearGradient>
<linearGradient id="paint32_linear_6030_781" x1="96.6012" y1="377.275" x2="184.374" y2="382.609" gradientUnits="userSpaceOnUse">
<stop stop-color="#EED082"/>
<stop offset="0.8347" stop-color="#C39EE6"/>
</linearGradient>
<linearGradient id="paint33_linear_6030_781" x1="69.2994" y1="348.411" x2="156.116" y2="353.686" gradientUnits="userSpaceOnUse">
<stop stop-color="#EED082"/>
<stop offset="0.8347" stop-color="#C39EE6"/>
</linearGradient>
<linearGradient id="paint34_linear_6030_781" x1="216.528" y1="511.343" x2="201.889" y2="407.45" gradientUnits="userSpaceOnUse">
<stop stop-color="#EED082"/>
<stop offset="0.8347" stop-color="#C39EE6"/>
</linearGradient>
<linearGradient id="paint35_linear_6030_781" x1="220.708" y1="510.754" x2="206.07" y2="406.862" gradientUnits="userSpaceOnUse">
<stop stop-color="#EED082"/>
<stop offset="0.8347" stop-color="#C39EE6"/>
</linearGradient>
<linearGradient id="paint36_linear_6030_781" x1="371.293" y1="667.68" x2="228.192" y2="499.11" gradientUnits="userSpaceOnUse">
<stop stop-color="#EED082"/>
<stop offset="1" stop-color="#C39EE6"/>
</linearGradient>
<linearGradient id="paint37_linear_6030_781" x1="354.993" y1="627.173" x2="210.741" y2="457.248" gradientUnits="userSpaceOnUse">
<stop stop-color="#EED082"/>
<stop offset="1" stop-color="#C39EE6"/>
</linearGradient>
<linearGradient id="paint38_linear_6030_781" x1="337.216" y1="584.883" x2="194.16" y2="416.367" gradientUnits="userSpaceOnUse">
<stop stop-color="#EED082"/>
<stop offset="1" stop-color="#C39EE6"/>
</linearGradient>
<linearGradient id="paint39_linear_6030_781" x1="320.501" y1="543.832" x2="176.967" y2="374.752" gradientUnits="userSpaceOnUse">
<stop stop-color="#EED082"/>
<stop offset="1" stop-color="#C39EE6"/>
</linearGradient>
<linearGradient id="paint40_linear_6030_781" x1="303.288" y1="502.196" x2="159.996" y2="333.402" gradientUnits="userSpaceOnUse">
<stop stop-color="#EED082"/>
<stop offset="1" stop-color="#C39EE6"/>
</linearGradient>
<linearGradient id="paint41_linear_6030_781" x1="286.794" y1="461.398" x2="142.053" y2="290.896" gradientUnits="userSpaceOnUse">
<stop stop-color="#EED082"/>
<stop offset="1" stop-color="#C39EE6"/>
</linearGradient>
<linearGradient id="paint42_linear_6030_781" x1="269.361" y1="419.604" x2="125.624" y2="250.286" gradientUnits="userSpaceOnUse">
<stop stop-color="#EED082"/>
<stop offset="1" stop-color="#C39EE6"/>
</linearGradient>
<linearGradient id="paint43_linear_6030_781" x1="252.28" y1="378.093" x2="108.641" y2="208.89" gradientUnits="userSpaceOnUse">
<stop stop-color="#EED082"/>
<stop offset="1" stop-color="#C39EE6"/>
</linearGradient>
<linearGradient id="paint44_linear_6030_781" x1="349.945" y1="662.549" x2="208.583" y2="496.028" gradientUnits="userSpaceOnUse">
<stop stop-color="#EED082"/>
<stop offset="1" stop-color="#C39EE6"/>
</linearGradient>
<linearGradient id="paint45_linear_6030_781" x1="334.544" y1="623.045" x2="191.331" y2="454.343" gradientUnits="userSpaceOnUse">
<stop stop-color="#EED082"/>
<stop offset="1" stop-color="#C39EE6"/>
</linearGradient>
<linearGradient id="paint46_linear_6030_781" x1="317.646" y1="581.785" x2="174.18" y2="412.786" gradientUnits="userSpaceOnUse">
<stop stop-color="#EED082"/>
<stop offset="1" stop-color="#C39EE6"/>
</linearGradient>
<linearGradient id="paint47_linear_6030_781" x1="300.788" y1="540.554" x2="156.961" y2="371.129" gradientUnits="userSpaceOnUse">
<stop stop-color="#EED082"/>
<stop offset="1" stop-color="#C39EE6"/>
</linearGradient>
<linearGradient id="paint48_linear_6030_781" x1="283.482" y1="498.909" x2="140.148" y2="330.065" gradientUnits="userSpaceOnUse">
<stop stop-color="#EED082"/>
<stop offset="1" stop-color="#C39EE6"/>
</linearGradient>
<linearGradient id="paint49_linear_6030_781" x1="266.405" y1="457.403" x2="123.194" y2="288.704" gradientUnits="userSpaceOnUse">
<stop stop-color="#EED082"/>
<stop offset="1" stop-color="#C39EE6"/>
</linearGradient>
<linearGradient id="paint50_linear_6030_781" x1="249.577" y1="416.282" x2="105.725" y2="246.828" gradientUnits="userSpaceOnUse">
<stop stop-color="#EED082"/>
<stop offset="1" stop-color="#C39EE6"/>
</linearGradient>
<linearGradient id="paint51_linear_6030_781" x1="232.331" y1="280.255" x2="94.0789" y2="456.106" gradientUnits="userSpaceOnUse">
<stop stop-color="#EED082"/>
<stop offset="1" stop-color="#C39EE6"/>
</linearGradient>
<linearGradient id="paint52_linear_6030_781" x1="233.689" y1="281.323" x2="95.4364" y2="457.173" gradientUnits="userSpaceOnUse">
<stop stop-color="#EED082"/>
<stop offset="1" stop-color="#C39EE6"/>
</linearGradient>
<clipPath id="clip0_6030_781">
<rect width="420" height="420" fill="white" transform="translate(5 279)"/>
</clipPath>
</defs>
</svg>
