<svg width="430" height="699" viewBox="0 0 430 699" fill="none" xmlns="http://www.w3.org/2000/svg">
<circle opacity="0.11" cx="182" cy="-86" r="233" fill="#00C2FF"/>
<ellipse opacity="0.11" cx="341" cy="-9.5" rx="157" ry="156.5" fill="#00C2FF"/>
<g clip-path="url(#clip0_6030_780)">
<rect width="420" height="420" transform="translate(5 279)" fill="white"/>
<path d="M338.01 544.616C337.512 544.119 336.96 543.621 336.462 543.179C336.297 542.958 336.186 542.792 336.02 542.571C334.141 527.651 326.128 518.422 319.829 518.201C317.397 518.146 308.113 513.614 305.626 513.725C298.221 514.388 293.413 512.564 286.008 513.117C272.967 514.001 197.81 483.939 197.037 474.986C195.158 472.941 193.224 470.897 191.4 468.742C190.019 467.084 188.913 465.205 187.698 463.436C187.642 463.657 186.205 460.397 184.769 457.192C185.045 455.534 185.321 453.931 185.542 452.274C187.919 447.797 192.008 439.784 192.229 439.287C193.058 437.795 202.839 420.056 201.955 416.464C201.9 416.298 205.713 392.701 193.224 391.043C189.245 390.049 182.171 388.888 179.519 391.817C176.314 395.354 173.55 399.443 171.23 403.698C168.466 408.727 166.864 414.419 163.824 419.227C160.619 424.366 156.198 428.787 152.385 433.54C149.954 436.579 147.025 439.563 147.08 443.763C147.246 450.56 147.743 457.302 148.351 464.1C149.512 475.76 151.335 487.31 152.054 498.97C152.717 510.243 152.385 521.572 152.33 532.845C152.275 542.792 151.943 552.74 151.998 562.687C152.054 567.384 152.496 572.081 153.38 576.668C153.933 579.928 155.48 583.023 156.585 586.173C160.232 596.562 175.871 615.517 176.866 616.678C176.59 617.064 157.469 589.82 157.027 589.268C152.938 596.396 147.743 606.786 143.267 613.362C132.491 629.554 121.328 645.469 110.165 661.44C105.689 668.016 85.5184 692.773 80.6001 699.294H218.257C222.07 693.326 225.718 687.247 229.752 681.444C232.902 676.858 235.886 672.05 240.03 668.403C246.828 662.324 254.62 657.35 261.693 651.603C268.435 646.077 275.011 640.33 281.311 634.251C292.142 623.806 301.316 612.036 309.163 599.215C312.202 594.352 315.076 589.378 318.005 584.46C318.005 584.46 318.005 584.46 317.95 584.46C320.436 580.205 326.018 572.192 327.897 569.042C332.097 562.024 336.683 555.061 339.06 547.158C339.281 546.44 339.447 545.721 339.612 544.948C339.17 544.782 338.562 544.727 338.01 544.616Z" fill="#DFE5F4" stroke="white" stroke-width="3" stroke-miterlimit="10"/>
<path d="M319.442 405.688C318.723 394.58 318.005 383.417 317.231 372.31C317.121 370.486 316.789 368.662 316.955 366.894C317.01 365.899 317.728 364.96 318.171 363.965C320.27 363.136 322.315 361.699 324.526 361.478C330.881 360.76 335.91 363.468 339.612 368.552C343.37 373.691 342.375 379.217 339.557 384.301C334.528 392.978 327.289 399.664 319.442 405.688Z" fill="#DFE5F4" stroke="white" stroke-width="3" stroke-miterlimit="10"/>
<path d="M222.623 565.118C222.347 559.316 222.015 553.624 221.684 547.821C222.623 547.877 223.618 547.932 224.502 547.987C224.834 552.74 225.276 557.382 225.552 562.134C225.607 563.239 225.441 564.4 225.386 565.505C224.447 565.395 223.562 565.284 222.623 565.118Z" fill="#FDFDFE"/>
<path d="M321.928 510.022C321.928 497.312 321.983 484.602 321.928 471.892C321.928 469.571 321.873 467.194 321.873 464.873C321.873 464.818 321.928 464.763 321.928 464.707C321.928 464.321 321.928 463.989 321.983 463.602C321.928 463.381 321.873 463.215 321.818 462.994C321.762 458.573 321.652 454.208 321.597 449.787C321.652 445.366 321.762 441 321.818 436.579C321.873 436.358 321.928 436.192 321.983 435.971C321.983 435.585 321.983 435.253 321.928 434.866C321.928 434.811 321.873 434.756 321.873 434.7C321.928 432.379 321.928 430.003 321.928 427.682C322.039 414.972 321.928 402.262 321.928 389.551C321.928 380.157 321.818 370.762 321.983 361.368C322.039 357.223 321.154 353.41 319.22 349.708C318.778 348.879 318.833 347.884 318.612 346.945C317.839 346.447 317.12 346.005 316.347 345.508C313.97 343.96 311.815 341.75 309.218 341.087C308.831 340.976 308.444 340.921 308.057 340.81C302.642 337.937 296.729 337.384 290.705 337.55C290.65 337.55 290.539 337.55 290.484 337.495V337.55H290.429C290.263 340.313 290.153 343.076 289.987 345.839C289.987 346.171 289.987 346.502 289.987 346.889C289.987 347.11 289.987 347.331 289.987 347.552C289.987 348.05 289.987 348.602 289.987 349.1C290.153 349.984 290.429 350.868 290.429 351.752C290.429 371.149 290.429 390.546 290.429 409.943C290.429 416.022 290.429 422.101 290.429 428.124C290.429 435.308 290.429 442.492 290.429 449.676C290.429 456.86 290.429 464.044 290.429 471.228C290.429 477.307 290.429 483.386 290.429 489.41C290.429 508.806 290.429 528.203 290.429 547.6C290.429 548.484 290.153 549.369 289.987 550.253C289.987 550.75 289.987 551.303 289.987 551.8C289.987 552.021 289.987 552.242 289.987 552.463C289.987 552.795 289.987 553.126 289.987 553.513C290.153 556.276 290.263 559.039 290.429 561.803H290.484V561.858C290.539 561.858 290.65 561.858 290.705 561.803C296.729 562.024 302.642 561.416 308.057 558.542C308.444 558.432 308.831 558.376 309.218 558.266C311.815 557.603 313.97 555.337 316.347 553.845C317.065 553.347 317.839 552.905 318.612 552.408C318.778 551.469 318.778 550.419 319.22 549.645C321.154 545.998 322.039 542.185 321.983 537.985C321.818 528.811 321.928 519.417 321.928 510.022ZM316.291 526.269C315.849 527.043 315.076 528.093 314.302 528.203C311.318 528.701 310.876 528.369 310.876 525.606C310.876 500.351 310.876 475.097 310.876 449.842C310.876 424.587 310.876 399.333 310.876 374.078C310.931 371.26 311.318 370.983 314.302 371.481C315.076 371.591 315.849 372.641 316.291 373.415C316.623 373.968 316.347 374.852 316.347 375.57C316.347 388.059 316.347 400.548 316.347 413.038C315.794 410.661 315.573 408.23 316.291 405.633C316.126 405.633 315.96 405.633 315.739 405.633C315.573 406.517 315.186 407.401 315.241 408.23C315.518 412.153 316.236 416.077 316.291 419.945C316.291 429.893 316.347 439.84 316.347 449.787C316.347 459.734 316.347 469.681 316.291 479.628C316.291 483.552 315.573 487.42 315.241 491.344C315.186 492.173 315.573 493.057 315.739 493.941C315.905 493.941 316.07 493.941 316.291 493.941C315.573 491.344 315.739 488.912 316.347 486.536C316.347 499.025 316.347 511.514 316.347 524.003C316.402 524.832 316.623 525.717 316.291 526.269Z" fill="#F5F6F7"/>
<path d="M214.057 326.111C215.549 337.771 215.162 349.487 215.162 361.202C215.162 418.895 215.162 476.644 215.162 534.337C215.162 545.556 215.66 556.829 214.113 568.047C206.265 570.7 199.302 563.847 198.694 556.774C198.418 553.569 198.584 550.363 198.584 547.103C198.584 519.859 198.584 492.67 198.584 465.426C198.584 464.431 198.473 463.436 198.418 462.387C198.418 449.345 198.418 436.303 198.418 423.261C198.473 413.922 198.584 404.583 198.584 395.243C198.584 390.601 198.418 385.904 198.308 381.262C198.363 369.768 198.473 358.273 198.529 346.724C198.584 342.468 198.363 338.158 198.75 333.903C198.971 331.748 200.131 329.592 201.181 327.603C202.839 324.564 205.878 325.227 208.586 325.337C210.465 325.558 212.234 325.89 214.057 326.111ZM204.221 450.118C204.221 483.054 204.221 516.046 204.165 548.982C204.165 551.413 204.718 552.187 207.205 552.132C209.968 552.076 209.747 550.363 209.747 548.595C209.747 482.833 209.747 417.127 209.747 351.366C209.747 350.702 209.857 350.039 209.692 349.431C209.526 348.934 209.028 348.326 208.586 348.216C205.381 347.331 204.221 348.216 204.221 351.476C204.221 384.357 204.221 417.238 204.221 450.118Z" fill="#7386F5"/>
<path d="M260.588 333.184C260.698 334.897 260.809 336.611 260.919 338.379C260.809 336.666 260.643 334.897 260.588 333.184C260.201 333.019 259.814 332.742 259.372 332.632C254.619 331.913 249.867 331.195 245.114 330.477C234.78 329.04 224.446 327.548 214.057 326.111C215.549 337.771 215.162 349.487 215.162 361.202C215.162 418.895 215.162 476.644 215.162 534.337C215.162 545.556 215.66 556.829 214.112 568.047C216.157 568.047 218.202 568.047 220.191 568.047C220.91 567.881 221.628 567.716 222.402 567.55C223.175 567.55 223.894 567.495 224.667 567.495C224.999 565.395 223.783 562.963 226.159 561.195C226.602 560.918 226.325 559.592 226.325 558.818C226.325 536.824 226.381 514.83 226.27 492.836C226.27 490.128 227.044 489.41 229.696 489.52C235.388 489.741 241.08 489.575 246.827 489.575C247.214 489.575 247.546 489.575 247.933 489.575C252.519 489.575 257.161 489.575 261.748 489.575C261.748 485.154 261.748 480.733 261.748 476.312C256.775 476.312 256.775 476.312 256.775 471.394C256.775 456.695 256.775 442.05 256.775 427.351C256.775 422.764 256.277 423.316 260.919 423.261C261.361 423.261 261.859 423.261 262.301 423.261C262.301 439.895 262.301 456.529 262.301 473.163C262.301 474.213 261.969 475.263 261.748 476.312C261.748 480.733 261.748 485.154 261.748 489.575C263.793 489.575 265.782 489.575 267.827 489.575C267.606 488.028 267.385 486.536 267.219 484.989C267.44 484.933 267.661 484.933 267.937 484.878C268.38 486.315 268.877 487.696 269.319 489.133C269.651 489.078 269.982 489.023 270.258 488.967C270.479 487.807 270.701 486.646 270.922 485.486C271.087 485.486 271.253 485.486 271.474 485.431C271.64 486.536 271.806 487.586 271.972 488.636C273.077 488.967 274.071 489.299 275.121 489.575C280.261 489.575 285.455 489.575 290.595 489.575C290.595 483.497 290.595 477.418 290.595 471.394C290.595 426.798 290.595 382.202 290.65 337.605C280.482 336.113 270.535 334.676 260.588 333.184ZM231.299 423.869C231.299 427.903 231.299 431.993 231.299 436.027C231.299 448.295 231.299 460.508 231.299 472.776C231.299 476.257 230.58 476.92 227.265 476.312C226.712 476.202 226.159 475.428 225.828 474.82C225.607 474.378 225.773 473.715 225.773 473.163C225.773 448.405 225.773 423.648 225.773 398.891C225.773 395.851 227.32 394.691 230.249 395.796C230.857 396.017 231.299 397.343 231.299 398.172C231.299 406.738 231.299 415.303 231.299 423.869ZM246.772 395.078C246.772 391.209 246.772 387.341 246.772 383.528C247.325 384.081 248.043 384.523 248.375 385.13C248.762 385.904 248.817 386.899 248.983 387.783C249.204 387.783 249.48 387.783 249.701 387.728C249.977 386.512 250.198 385.352 250.475 384.136C250.751 384.136 250.972 384.081 251.248 384.081C251.469 385.186 251.746 386.291 252.022 387.617C252.851 387.783 253.846 388.004 255.504 388.336C253.901 390.325 252.575 392.038 251.248 393.751C250.972 393.641 250.696 393.53 250.419 393.364C250.198 392.204 250.033 390.988 249.812 389.828C249.535 389.772 249.204 389.772 248.927 389.717C248.762 390.878 248.596 392.093 248.43 393.254C248.264 394.193 248.872 395.851 246.772 395.078ZM248.706 358.55C248.983 358.55 249.259 358.605 249.535 358.605C249.867 357.334 250.143 356.118 250.475 354.847C250.696 354.847 250.972 354.792 251.193 354.792C251.414 355.897 251.69 357.002 251.967 358.328C252.519 358.439 253.404 358.384 253.901 358.771C254.398 359.157 254.896 360.318 254.675 360.649C253.569 362.142 252.243 363.468 250.475 365.402C250.143 363.468 249.977 362.307 249.812 361.092C249.535 361.036 249.259 360.981 248.927 360.926C248.762 361.976 248.485 363.081 248.43 364.186C248.375 365.347 248.485 366.507 246.772 366.341C246.662 362.307 247.601 358.273 246.772 354.239C247.325 354.792 248.098 355.234 248.319 355.842C248.706 356.671 248.596 357.61 248.706 358.55ZM245.888 483.939C245.888 483.883 245.943 483.773 245.998 483.718C245.943 483.773 245.943 483.828 245.888 483.939ZM251.138 480.512C250.862 480.347 250.585 480.181 250.309 480.07C250.198 479.02 250.033 477.97 249.922 476.92C249.701 476.865 249.48 476.755 249.314 476.699C249.038 477.694 248.596 478.689 248.485 479.739C248.375 480.899 248.485 482.004 246.827 481.839C246.993 479.628 247.159 477.418 247.38 475.207C246.496 475.594 245.612 476.091 244.672 476.257C242.296 476.699 241.246 475.815 241.246 473.107C241.356 457.745 241.301 442.382 241.301 427.019C241.301 423.206 241.301 423.206 245.17 423.206C245.722 423.206 246.275 423.206 246.827 423.206C247.325 419.503 247.38 415.856 246.827 412.154C246.109 411.104 245.722 408.175 245.612 404.969C245.722 408.119 246.109 411.048 246.827 412.154C247.38 412.706 248.098 413.148 248.43 413.756C248.817 414.53 248.817 415.524 249.701 416.409C250.033 415.248 250.364 414.032 250.751 412.872C251.027 412.872 251.304 412.872 251.525 412.872C251.69 413.922 251.856 415.027 252.022 416.077C255.946 417.403 255.78 418.398 250.917 422.764C250.475 421.382 250.143 420.222 249.756 419.061C249.48 419.006 249.259 419.006 248.983 418.951C248.817 420.111 248.596 421.327 248.541 422.487C248.485 423.703 248.375 424.587 246.883 423.758C246.883 428.622 246.827 433.485 246.883 438.348C246.883 439.232 247.214 440.061 247.435 440.945C248.043 442.492 248.651 444.04 249.535 446.305C250.033 444.426 250.364 443.266 250.696 442.05C250.972 442.05 251.193 442.05 251.469 442.05C251.69 442.99 251.911 443.984 252.077 444.758C253.183 445.366 254.122 445.918 255.061 446.471C253.956 448.184 252.906 449.842 251.801 451.555C251.525 451.5 251.193 451.445 250.917 451.389C250.53 450.229 250.143 449.013 249.812 447.853C249.59 447.797 249.314 447.742 249.093 447.687C248.927 448.792 248.651 449.842 248.596 450.947C248.541 452.108 248.651 453.268 246.938 453.047C246.938 458.794 246.938 464.486 246.938 470.234C247.491 470.731 248.209 471.173 248.541 471.836C248.927 472.61 248.927 473.605 249.148 474.489C249.369 474.489 249.646 474.489 249.867 474.489C250.143 473.273 250.419 472.113 250.64 470.897C250.862 470.897 251.138 470.842 251.359 470.842C251.635 471.947 251.856 472.997 252.188 474.378C253.017 474.544 254.011 474.82 255.78 475.207C253.901 477.197 252.519 478.855 251.138 480.512ZM267.551 340.203C267.661 340.147 267.716 340.092 267.827 340.037C268.214 341.363 268.601 342.689 268.987 344.016C269.153 344.016 269.374 344.016 269.54 344.016C269.872 342.855 270.203 341.695 270.535 340.534C270.756 340.534 271.032 340.534 271.253 340.534C271.419 341.639 271.64 342.689 271.861 343.96C272.745 344.126 273.685 344.292 275.564 344.679C274.016 346.834 272.69 348.602 270.922 351.144C270.314 349.1 269.927 347.939 269.595 346.779C269.374 346.724 269.153 346.724 268.932 346.668C268.601 348.326 268.269 349.984 267.993 351.642C267.882 351.642 267.716 351.642 267.606 351.642C267.551 347.829 267.551 344.016 267.551 340.203ZM267.495 368.939C267.661 368.884 267.772 368.883 267.937 368.828C268.269 370.155 268.601 371.481 268.932 372.862C269.208 372.807 269.429 372.752 269.706 372.697C269.927 371.702 270.148 370.707 270.535 369.105C272.193 371.094 271.032 374.907 275.453 373.304C275.343 373.636 275.287 373.968 275.177 374.299C273.906 375.902 272.635 377.504 270.756 379.825C270.203 377.781 269.927 376.62 269.595 375.46C269.374 375.404 269.153 375.349 268.932 375.294C268.601 376.952 268.269 378.665 267.937 380.323C267.772 380.323 267.606 380.267 267.495 380.267C267.495 376.565 267.495 372.752 267.495 368.939ZM267.44 397.73C267.551 397.675 267.661 397.62 267.772 397.62C268.214 399.112 268.601 400.549 269.043 402.041C269.264 401.985 269.485 401.985 269.651 401.93C269.927 400.825 270.258 399.72 270.535 398.614C270.811 398.614 271.032 398.614 271.308 398.67C271.474 399.775 271.695 400.825 271.916 402.096C272.8 402.262 273.795 402.427 274.956 402.648C274.9 405.467 272.69 406.406 270.811 408.175C270.369 406.848 270.037 405.854 269.706 404.859C269.485 404.804 269.264 404.748 268.987 404.693C268.656 406.351 268.324 408.064 267.993 409.722C267.827 409.722 267.661 409.667 267.551 409.667C267.44 405.633 267.44 401.709 267.44 397.73ZM267.495 426.964C267.661 426.964 267.772 426.908 267.937 426.908C268.269 428.235 268.601 429.561 268.932 430.943C269.153 430.887 269.374 430.887 269.595 430.832C269.927 429.672 270.258 428.511 270.59 427.295C270.866 427.351 271.143 427.406 271.419 427.461C271.529 428.511 271.695 429.561 271.806 430.611C275.674 431.606 275.729 431.606 273.243 434.7C272.579 435.529 271.916 436.303 270.756 437.684C270.258 435.861 269.927 434.7 269.651 433.595C269.429 433.54 269.208 433.485 268.987 433.429C268.656 435.087 268.324 436.8 267.993 438.458C267.827 438.458 267.661 438.403 267.551 438.403C267.495 434.59 267.495 430.777 267.495 426.964ZM270.811 466.531C270.258 464.652 269.982 463.492 269.651 462.387C269.429 462.331 269.264 462.276 269.043 462.276C268.656 463.879 268.269 465.536 267.937 467.139C267.827 467.139 267.716 467.139 267.551 467.139C267.551 463.326 267.551 459.513 267.551 455.7C267.661 455.645 267.772 455.589 267.882 455.589C268.214 456.916 268.49 458.242 268.822 459.623C269.043 459.623 269.264 459.623 269.485 459.623C269.816 458.573 270.203 457.523 270.535 456.473C270.756 456.473 271.032 456.473 271.253 456.473C271.474 457.634 271.695 458.794 271.916 460.01C272.966 460.231 273.961 460.452 275.619 460.839C273.795 462.939 272.579 464.431 270.811 466.531Z" fill="url(#paint0_linear_6030_780)"/>
<path d="M246.772 489.575C247.159 489.575 247.491 489.575 247.877 489.575C248.154 490.017 248.43 490.46 248.762 490.846C250.088 492.449 249.867 497.644 248.43 498.97C246.054 499.412 246.883 501.18 246.993 502.617C247.048 503.888 246.938 505.104 246.993 506.375C247.048 508.088 245.556 510.243 248.43 511.127C248.817 511.68 249.148 512.233 249.535 512.73C241.633 517.04 238.372 529.419 246.827 537.045C246.827 537.211 246.827 537.377 246.827 537.598C247.159 538.482 247.38 539.422 247.767 540.25C248.32 541.356 249.425 542.406 249.48 543.511C249.646 548.484 249.591 553.458 249.535 558.432C249.535 559.371 249.038 560.366 248.762 561.305C248.319 562.797 247.822 564.289 247.38 565.837C239.809 566.389 232.294 566.942 224.723 567.495C225.054 565.395 223.839 562.963 226.215 561.195C226.657 560.918 226.381 559.592 226.381 558.818C226.381 536.824 226.436 514.83 226.325 492.836C226.325 490.128 227.099 489.41 229.752 489.52C235.333 489.741 241.025 489.575 246.772 489.575Z" fill="#C4E2EF"/>
<path d="M247.325 565.837C247.767 564.345 248.265 562.853 248.707 561.305C248.983 560.366 249.48 559.426 249.48 558.432C249.536 553.458 249.646 548.485 249.425 543.511C249.37 542.406 248.265 541.356 247.712 540.25C247.325 539.422 247.104 538.482 246.772 537.598C247.325 537.985 247.878 538.316 248.43 538.703C252.962 540.914 257.383 541.245 261.638 537.985C265.783 534.835 267.385 530.58 267.275 525.496C267.606 524.501 268.214 523.506 268.269 522.511C268.38 520.964 268.601 519.804 270.535 519.969C271.088 521.075 271.64 522.18 272.193 523.285C271.585 526.49 271.696 530.027 270.259 532.735C268.711 535.664 268.767 538.206 269.43 541.024C269.651 541.908 269.817 542.793 270.038 543.677C270.148 544.561 270.203 545.39 270.314 546.274C270.038 546.385 269.706 546.495 269.43 546.606C268.877 545.335 268.38 544.119 267.606 542.406C267.606 546.606 267.606 550.253 267.606 554.563C269.043 552.353 267.33 549.645 270.314 548.816C270.48 550.032 270.646 551.137 270.867 552.684C272.248 551.524 273.353 550.64 274.459 549.756C279.266 552.684 284.516 553.79 290.042 553.624C290.208 556.387 290.319 559.15 290.485 561.913H290.208H289.932C288.827 561.913 287.721 561.913 286.616 561.913C283.301 562.466 279.985 563.184 276.669 563.516C268.711 564.234 260.809 564.676 252.851 565.229C250.917 565.45 249.149 565.671 247.325 565.837Z" fill="#C0DEF2"/>
<path d="M309.771 558.1C309.992 558.653 310.213 559.205 310.379 559.758C309.992 559.205 309.55 558.653 309.163 558.1C309.384 558.1 309.605 558.1 309.771 558.1Z" fill="#FEFEFE"/>
<path d="M231.299 436.027C231.299 448.295 231.299 460.508 231.299 472.776C231.299 476.257 230.58 476.92 227.265 476.312C226.712 476.202 226.159 475.428 225.828 474.82C225.607 474.378 225.773 473.715 225.773 473.163C225.773 448.405 225.773 423.648 225.773 398.891C225.773 395.796 227.32 394.691 230.249 395.796C230.857 396.017 231.299 397.343 231.299 398.172C231.354 406.738 231.354 415.303 231.354 423.869C231.299 427.903 231.299 431.937 231.299 436.027Z" fill="#C0E3ED"/>
<path d="M246.772 453.103C246.772 458.85 246.772 464.542 246.772 470.289C246.938 471.947 247.159 473.605 247.325 475.263C246.441 475.649 245.557 476.147 244.617 476.313C242.241 476.755 241.191 475.87 241.191 473.163C241.301 457.8 241.246 442.437 241.246 427.074C241.246 423.261 241.246 423.261 245.115 423.261C245.667 423.261 246.22 423.261 246.772 423.261C246.772 423.427 246.772 423.593 246.772 423.814C246.772 428.677 246.717 433.54 246.772 438.403C246.772 439.287 247.104 440.116 247.325 441C247.104 444.979 246.938 449.068 246.772 453.103Z" fill="#BEE2EE"/>
<path d="M246.772 354.239C247.325 354.792 248.099 355.234 248.32 355.842C248.651 356.671 248.596 357.61 248.707 358.55C248.983 358.55 249.259 358.605 249.535 358.605C249.867 357.334 250.143 356.118 250.475 354.847C250.696 354.847 250.972 354.792 251.193 354.792C251.414 355.897 251.691 357.002 251.967 358.329C252.52 358.439 253.404 358.384 253.901 358.771C254.398 359.157 254.896 360.318 254.675 360.65C253.57 362.142 252.243 363.468 250.475 365.402C250.143 363.468 249.978 362.307 249.812 361.092C249.535 361.036 249.259 360.981 248.928 360.926C248.762 361.976 248.485 363.081 248.43 364.186C248.375 365.347 248.485 366.507 246.772 366.341C246.662 362.307 247.601 358.273 246.772 354.239Z" fill="#C9CBCC"/>
<path d="M246.772 423.814C246.772 423.648 246.772 423.482 246.772 423.261C247.27 419.559 247.325 415.911 246.772 412.209C247.325 412.761 248.043 413.204 248.375 413.811C248.762 414.585 248.762 415.58 249.646 416.464C249.978 415.303 250.309 414.088 250.696 412.927C250.972 412.927 251.249 412.927 251.47 412.927C251.636 413.977 251.801 415.082 251.967 416.132C255.891 417.459 255.725 418.453 250.862 422.819C250.42 421.438 250.088 420.277 249.701 419.117C249.425 419.061 249.204 419.061 248.928 419.006C248.762 420.167 248.541 421.382 248.486 422.543C248.375 423.759 248.32 424.698 246.772 423.814Z" fill="#C6C8D4"/>
<path d="M246.772 383.528C247.325 384.081 248.043 384.523 248.375 385.13C248.762 385.904 248.817 386.899 248.983 387.783C249.204 387.783 249.48 387.783 249.701 387.728C249.978 386.512 250.199 385.352 250.475 384.136C250.751 384.136 250.972 384.081 251.249 384.081C251.47 385.186 251.746 386.291 252.022 387.617C252.851 387.783 253.846 388.004 255.504 388.336C253.901 390.325 252.575 392.038 251.249 393.751C250.972 393.641 250.696 393.53 250.42 393.365C250.199 392.204 250.033 390.988 249.812 389.828C249.536 389.772 249.204 389.772 248.928 389.717C248.762 390.878 248.596 392.093 248.43 393.254C248.265 394.193 248.872 395.851 246.828 395.078C246.772 391.209 246.772 387.341 246.772 383.528Z" fill="#C9CBCC"/>
<path d="M247.325 475.207C247.159 473.549 246.938 471.892 246.772 470.234C247.325 470.731 248.043 471.173 248.375 471.836C248.762 472.61 248.762 473.605 248.983 474.489C249.204 474.489 249.48 474.489 249.701 474.489C249.978 473.273 250.254 472.113 250.475 470.897C250.696 470.897 250.972 470.842 251.193 470.842C251.47 471.947 251.691 472.997 252.022 474.378C252.851 474.544 253.846 474.82 255.614 475.207C253.901 477.252 252.464 478.91 251.083 480.512C250.807 480.347 250.53 480.181 250.254 480.07C250.143 479.02 249.978 477.97 249.867 476.92C249.646 476.865 249.425 476.755 249.259 476.699C248.983 477.694 248.541 478.689 248.43 479.739C248.32 480.899 248.43 482.005 246.772 481.839C246.938 479.628 247.104 477.418 247.325 475.207Z" fill="#C7C5DE"/>
<path d="M299.271 449.787C299.271 417.017 299.271 384.191 299.271 351.421C299.271 348.216 300.542 347.221 303.637 348.16C304.079 348.326 304.576 348.934 304.687 349.431C304.853 350.039 304.742 350.702 304.742 351.366C304.742 417.017 304.742 482.668 304.742 548.374C304.742 549.866 305.46 551.855 302.697 552.021C299.713 552.187 299.216 551.8 299.216 548.65C299.271 515.714 299.271 482.778 299.271 449.787Z" fill="#EAEEF4"/>
<path d="M289.987 553.679C284.405 553.845 279.156 552.74 274.403 549.811C274.182 549.203 274.072 548.263 273.629 548.098C271.695 547.324 270.977 545.887 270.701 544.008C270.701 543.898 270.203 543.842 269.982 543.732C269.761 542.848 269.595 541.964 269.374 541.079C268.711 538.206 268.656 535.664 270.203 532.79C271.64 530.082 271.53 526.546 272.137 523.34C272.911 522.29 273.629 521.296 274.403 520.246C275.287 519.03 274.956 518.201 273.519 517.814C272.911 517.648 272.358 517.538 271.806 517.427C271.64 516.212 271.53 515.162 271.364 514.167C271.143 514.112 270.866 514.112 270.645 514.056C270.258 515.327 269.816 516.543 269.43 517.814C269.264 517.648 269.043 517.427 268.877 517.262C268.877 516.985 268.877 516.709 268.877 516.433C268.987 504.109 277.111 497.975 287.776 498.417C289.269 498.472 289.987 498.915 289.876 500.462C289.821 501.291 289.876 502.12 289.876 502.949C289.932 518.754 289.932 534.614 289.987 550.419C289.987 550.916 289.987 551.469 289.987 551.966C289.987 552.187 289.987 552.408 289.987 552.629C289.987 553.016 289.987 553.348 289.987 553.679Z" fill="#6528F5"/>
<path d="M316.955 496.759C316.955 496.925 316.955 497.091 316.955 497.257C316.955 497.478 316.955 497.644 316.955 497.865C316.789 498.528 316.457 499.246 316.457 499.909C316.402 507.812 316.402 515.769 316.457 523.672C316.457 529.972 316.457 536.327 316.457 542.627C315.905 543.4 315.352 544.119 314.799 544.892C314.634 545.058 314.468 545.224 314.302 545.39C313.915 545.942 313.528 546.495 313.142 547.048C312.534 547.158 311.926 547.269 311.042 547.379C310.986 546.385 310.931 545.5 310.931 544.616C310.931 487.862 310.931 431.164 310.931 374.41C310.931 371.205 311.263 370.818 314.357 371.37C315.131 371.481 315.905 372.531 316.347 373.304C316.678 373.857 316.402 374.741 316.402 375.46C316.402 410.164 316.457 444.869 316.347 479.628C316.347 483.552 315.628 487.42 315.297 491.344C315.242 492.173 315.628 493.057 315.794 493.941C316.181 494.936 316.568 495.875 316.955 496.759Z" fill="#EBEEF4"/>
<path d="M289.987 550.419C289.932 534.614 289.932 518.754 289.876 502.949C289.876 502.12 289.821 501.291 289.876 500.462C290.042 498.859 289.269 498.472 287.776 498.417C277.056 497.975 268.987 504.109 268.877 516.433C268.877 516.709 268.877 516.985 268.877 517.262C268.545 516.046 268.214 514.885 267.937 513.669C267.716 513.669 267.495 513.725 267.274 513.725C267.33 515.217 267.495 516.709 267.44 518.146C267.385 519.14 266.998 520.08 266.722 521.075C263.793 512.896 257.382 509.801 249.535 512.785C249.148 512.233 248.817 511.68 248.43 511.183C248.762 509.414 247.712 507.314 249.591 505.601C250.088 507.149 250.419 508.364 250.917 509.912C252.409 508.254 253.459 507.149 254.454 505.988C255.393 504.883 255.227 503.999 253.79 503.557C253.183 503.391 252.575 503.336 252.022 503.225C251.801 501.954 251.635 500.904 251.469 499.799C251.193 499.799 250.972 499.799 250.696 499.799C250.364 500.959 250.033 502.175 249.701 503.336C249.425 503.336 249.093 503.336 248.817 503.336C248.706 501.899 248.541 500.517 248.43 499.08C249.867 497.754 250.088 492.559 248.762 490.957C248.43 490.57 248.154 490.128 247.877 489.686C252.464 489.686 257.106 489.686 261.693 489.686C263.738 489.686 265.727 489.686 267.772 489.686C267.551 491.952 267.385 494.217 267.164 496.483C267.44 496.483 267.716 496.483 267.993 496.483C269.043 494.825 267.053 491.952 270.258 490.957C270.424 492.228 270.59 493.333 270.756 494.438C271.032 494.549 271.308 494.715 271.585 494.825C272.69 493.112 273.851 491.399 274.956 489.686C280.095 489.686 285.29 489.686 290.429 489.686C290.429 509.083 290.429 528.48 290.429 547.877C290.429 548.65 290.097 549.534 289.987 550.419Z" fill="#C0DEF2"/>
<path d="M316.955 496.759C316.568 495.82 316.181 494.936 315.85 493.996C316.015 493.996 316.181 493.996 316.402 493.996C316.568 494.936 316.734 495.875 316.955 496.759Z" fill="#FEFEFE"/>
<path d="M321.873 464.708C321.707 465.094 321.541 465.426 321.375 465.813C321.541 465.481 321.707 465.094 321.873 464.708Z" fill="#FEFEFE"/>
<path d="M321.32 466.918C321.32 467.305 321.32 467.636 321.32 468.023C321.376 467.692 321.32 467.305 321.32 466.918Z" fill="#FEFEFE"/>
<path d="M261.693 476.313C256.72 476.313 256.72 476.313 256.72 471.394C256.72 456.695 256.72 442.05 256.72 427.351C256.72 422.764 256.222 423.316 260.864 423.261C261.306 423.261 261.804 423.261 262.246 423.261C262.246 439.895 262.246 456.529 262.246 473.163C262.191 474.213 261.859 475.263 261.693 476.313Z" fill="#BCE0F1"/>
<path d="M268.932 346.668C268.601 348.326 268.269 349.984 267.993 351.642C267.882 351.642 267.716 351.642 267.606 351.642C267.606 347.829 267.606 344.016 267.606 340.203C267.716 340.147 267.772 340.092 267.882 340.037C268.269 341.363 268.656 342.689 269.043 344.016C269.209 344.016 269.43 344.016 269.595 344.016C269.927 342.855 270.259 341.695 270.59 340.534C270.811 340.534 271.087 340.534 271.308 340.534C271.474 341.639 271.695 342.689 271.916 343.96C272.801 344.126 273.74 344.292 275.619 344.679C274.072 346.834 272.745 348.602 270.977 351.144C270.369 349.1 269.982 347.939 269.651 346.779C269.374 346.724 269.153 346.668 268.932 346.668Z" fill="#C9CBCC"/>
<path d="M271.419 427.461C271.53 428.511 271.695 429.561 271.806 430.611C275.674 431.606 275.73 431.606 273.243 434.7C272.58 435.529 271.916 436.303 270.756 437.684C270.259 435.861 269.927 434.7 269.651 433.595C269.43 433.54 269.209 433.485 268.988 433.429C268.656 435.087 268.324 436.8 267.993 438.458C267.827 438.458 267.661 438.403 267.551 438.403C267.551 434.59 267.551 430.777 267.551 426.964C267.717 426.964 267.827 426.908 267.993 426.908C268.324 428.235 268.656 429.561 268.988 430.943C269.209 430.887 269.43 430.887 269.651 430.832C269.982 429.672 270.314 428.511 270.645 427.295C270.866 427.351 271.143 427.406 271.419 427.461Z" fill="#C6C8D4"/>
<path d="M274.901 402.538C274.845 405.356 272.635 406.296 270.756 408.064C270.314 406.738 269.982 405.743 269.651 404.748C269.43 404.693 269.209 404.638 268.932 404.583C268.601 406.241 268.269 407.954 267.938 409.611C267.772 409.611 267.606 409.556 267.496 409.556C267.496 405.577 267.496 401.599 267.496 397.62C267.606 397.564 267.717 397.509 267.827 397.509C268.269 399.001 268.656 400.438 269.098 401.93C269.319 401.875 269.54 401.875 269.706 401.82C269.982 400.714 270.314 399.609 270.59 398.504C270.867 398.504 271.088 398.504 271.364 398.559C271.53 399.664 271.751 400.714 271.972 401.985C272.801 402.151 273.74 402.317 274.901 402.538Z" fill="#C9CBCC"/>
<path d="M269.65 372.697C269.871 371.702 270.093 370.707 270.479 369.105C272.137 371.094 270.977 374.907 275.398 373.304C275.287 373.636 275.232 373.968 275.121 374.299C273.85 375.902 272.579 377.504 270.7 379.825C270.148 377.781 269.871 376.62 269.54 375.46C269.319 375.404 269.098 375.349 268.877 375.294C268.545 376.952 268.214 378.665 267.882 380.323C267.716 380.323 267.55 380.267 267.44 380.267C267.44 376.454 267.44 372.641 267.44 368.828C267.606 368.773 267.716 368.773 267.882 368.718C268.214 370.044 268.545 371.37 268.877 372.752C269.153 372.807 269.429 372.752 269.65 372.697Z" fill="#C9CBCC"/>
<path d="M275.619 460.839C273.851 462.939 272.58 464.431 270.811 466.531C270.259 464.652 269.982 463.492 269.651 462.387C269.43 462.331 269.264 462.276 269.043 462.276C268.656 463.879 268.269 465.536 267.938 467.139C267.827 467.139 267.717 467.139 267.551 467.139C267.551 463.326 267.551 459.513 267.551 455.7C267.661 455.645 267.772 455.589 267.882 455.589C268.214 456.916 268.49 458.242 268.822 459.623C269.043 459.623 269.264 459.623 269.485 459.623C269.817 458.574 270.203 457.524 270.535 456.474C270.756 456.474 271.032 456.474 271.253 456.474C271.474 457.634 271.695 458.795 271.916 460.01C272.911 460.231 273.906 460.452 275.619 460.839Z" fill="#C6C8D4"/>
<path d="M274.956 489.575C273.851 491.288 272.69 493.002 271.585 494.715C271.309 494.604 271.032 494.438 270.756 494.328C270.59 493.223 270.425 492.117 270.259 490.846C267.054 491.841 269.043 494.715 267.993 496.373C267.717 496.373 267.44 496.373 267.164 496.373C267.385 494.107 267.551 491.841 267.772 489.575C267.551 488.028 267.33 486.536 267.164 484.989C267.385 484.933 267.606 484.933 267.882 484.878C268.325 486.315 268.822 487.696 269.264 489.133C269.596 489.078 269.927 489.023 270.203 488.967C270.425 487.807 270.646 486.646 270.867 485.486C271.032 485.486 271.198 485.486 271.419 485.431C271.585 486.536 271.751 487.586 271.917 488.636C272.911 488.968 273.961 489.299 274.956 489.575Z" fill="#C6C8D4"/>
<path d="M204.221 450.118C204.221 417.238 204.221 384.357 204.221 351.531C204.221 348.271 205.381 347.331 208.586 348.271C209.029 348.381 209.526 348.989 209.692 349.487C209.913 350.039 209.747 350.758 209.747 351.421C209.747 417.182 209.747 482.889 209.747 548.65C209.747 550.419 210.023 552.132 207.205 552.187C204.718 552.242 204.166 551.469 204.166 549.037C204.221 515.991 204.221 483.054 204.221 450.118Z" fill="#8C9DF7"/>
<path d="M246.772 453.103C246.938 449.068 247.159 445.034 247.325 441C247.933 442.548 248.541 444.095 249.425 446.361C249.922 444.482 250.254 443.321 250.586 442.105C250.862 442.105 251.083 442.105 251.359 442.105C251.58 443.045 251.801 444.04 251.967 444.813C253.072 445.421 254.012 445.974 254.951 446.526C253.846 448.24 252.796 449.897 251.691 451.61C251.414 451.555 251.083 451.5 250.807 451.445C250.42 450.284 250.033 449.068 249.701 447.908C249.48 447.853 249.204 447.797 248.983 447.742C248.817 448.847 248.541 449.897 248.486 451.003C248.375 452.163 248.486 453.268 246.772 453.103Z" fill="#C6C8D4"/>
<path d="M316.402 542.627C316.402 536.327 316.402 529.972 316.402 523.672C316.402 515.769 316.402 507.812 316.402 499.909C316.402 499.246 316.734 498.528 316.9 497.865C317.287 498.251 317.618 498.583 318.005 498.97C318.944 500.241 319.884 501.512 320.768 502.838C320.602 504.883 320.436 506.983 320.215 509.028C319.442 511.349 318.889 513.725 317.894 515.991C316.126 520.025 317.508 523.838 318.281 527.761C318.392 528.314 318.447 528.811 318.558 529.364C318.723 529.585 318.889 529.751 319.055 529.972C319.055 530.138 319.055 530.303 319.055 530.524C319.221 530.69 319.386 530.911 319.608 531.077C319.608 531.243 319.608 531.409 319.608 531.63C319.773 531.795 319.939 532.016 320.16 532.182C320.16 532.348 320.16 532.514 320.215 532.735C320.381 534.393 320.602 536.106 320.768 537.764C319.331 539.366 317.894 541.024 316.402 542.627Z" fill="#F5F6F7"/>
<path d="M314.744 544.892C315.297 544.119 315.849 543.4 316.402 542.627C315.849 543.4 315.297 544.174 314.744 544.892Z" fill="#F5F6F7"/>
<path d="M318.005 498.97C317.618 498.583 317.286 498.251 316.899 497.865C316.899 497.644 316.899 497.478 316.899 497.257C317.286 497.809 317.673 498.417 318.005 498.97Z" fill="#FEFEFE"/>
<path d="M249.535 512.785C257.382 509.856 263.793 512.951 266.722 521.075C266.943 522.567 267.108 524.059 267.329 525.551C267.44 530.635 265.837 534.89 261.693 538.04C257.438 541.3 253.017 540.914 248.485 538.758C248.485 535.553 248.485 535.553 249.811 534.78C250.143 535.94 250.419 537.045 250.972 538.979C252.74 536.714 254.011 535.111 255.503 533.122C253.901 532.845 252.961 532.68 252.077 532.514C251.801 531.188 251.58 530.082 251.304 528.922C251.027 528.922 250.751 528.922 250.475 528.922C250.254 530.138 249.977 531.353 249.756 532.514C249.535 532.514 249.314 532.569 249.093 532.569C248.706 531.188 248.319 529.751 247.933 528.369C247.601 528.369 247.325 528.369 246.993 528.424C246.993 529.419 246.662 530.635 247.048 531.464C248.154 533.509 247.546 535.277 246.772 537.156C238.372 529.474 241.577 517.096 249.535 512.785Z" fill="#6528F5"/>
<path d="M248.375 498.97C248.486 500.407 248.651 501.788 248.762 503.225C249.038 503.225 249.37 503.225 249.646 503.225C249.978 502.065 250.309 500.849 250.641 499.688C250.917 499.688 251.138 499.688 251.414 499.688C251.58 500.794 251.801 501.844 251.967 503.115C252.52 503.225 253.128 503.28 253.735 503.446C255.172 503.888 255.393 504.772 254.399 505.878C253.404 507.038 252.354 508.143 250.862 509.801C250.364 508.254 250.033 507.038 249.536 505.491C247.657 507.204 248.707 509.304 248.375 511.072C245.501 510.243 246.993 508.033 246.938 506.32C246.883 505.049 246.993 503.778 246.938 502.562C246.883 501.18 246.054 499.467 248.375 498.97Z" fill="#C7C5DE"/>
<path d="M246.772 537.101C247.546 535.222 248.099 533.453 247.049 531.409C246.607 530.635 246.994 529.419 246.994 528.369C247.325 528.369 247.601 528.369 247.933 528.314C248.32 529.695 248.707 531.132 249.093 532.514C249.314 532.514 249.536 532.459 249.757 532.459C249.978 531.243 250.254 530.027 250.475 528.867C250.751 528.867 251.028 528.867 251.304 528.867C251.525 530.027 251.801 531.132 252.078 532.459C252.962 532.624 253.901 532.79 255.504 533.066C253.956 535.001 252.741 536.658 250.972 538.924C250.42 536.99 250.143 535.83 249.812 534.724C248.486 535.553 248.486 535.553 248.486 538.703C247.933 538.316 247.38 537.985 246.828 537.598C246.772 537.432 246.772 537.266 246.772 537.101Z" fill="#B4A0E3"/>
<path d="M269.982 543.732C270.259 543.842 270.701 543.898 270.701 544.008C270.977 545.887 271.64 547.379 273.63 548.098C274.016 548.263 274.127 549.203 274.403 549.811C273.298 550.695 272.193 551.634 270.811 552.74C270.59 551.192 270.424 550.087 270.259 548.871C267.274 549.645 268.988 552.408 267.551 554.619C267.551 550.308 267.551 546.661 267.551 542.461C268.269 544.174 268.822 545.445 269.374 546.661C269.651 546.55 269.982 546.44 270.259 546.329C270.148 545.445 270.093 544.616 269.982 543.732Z" fill="#C7C5DE"/>
<path d="M269.43 517.759C269.817 516.488 270.259 515.272 270.645 514.001C270.866 514.056 271.143 514.056 271.364 514.112C271.474 515.162 271.64 516.156 271.806 517.372C272.359 517.483 272.911 517.593 273.519 517.759C274.956 518.146 275.287 518.919 274.403 520.19C273.63 521.24 272.911 522.235 272.138 523.285C271.585 522.18 271.032 521.075 270.48 519.969C270.148 519.251 269.761 518.533 269.43 517.759Z" fill="#B4A0E3"/>
<path d="M269.43 517.759C269.761 518.477 270.148 519.251 270.48 519.969C268.545 519.804 268.324 520.964 268.214 522.511C268.159 523.506 267.606 524.501 267.219 525.496C266.998 524.003 266.832 522.511 266.611 521.019C266.832 520.025 267.274 519.085 267.33 518.09C267.385 516.598 267.219 515.162 267.164 513.67C267.385 513.67 267.606 513.614 267.827 513.614C268.159 514.83 268.49 515.991 268.767 517.206C269.043 517.427 269.209 517.593 269.43 517.759Z" fill="#C7C5DE"/>
<path d="M327.123 550.529C327.51 550.529 327.786 550.584 328.173 550.584C328.339 551.026 328.56 551.358 328.726 551.8C328.228 551.358 327.676 550.971 327.123 550.529Z" fill="#F5F6F7"/>
<path d="M184.934 457.744C184.879 457.579 184.824 457.302 184.824 457.137C184.824 457.302 184.879 457.523 184.934 457.744Z" fill="#FDFDFE"/>
<path d="M334.528 473.107C334.915 471.284 335.191 469.405 335.578 467.581C336.462 468.742 335.965 471.063 334.528 473.107Z" fill="#F5F6F7"/>
<path d="M336.075 465.094C336.462 463.879 336.738 462.607 337.125 461.392C336.738 462.663 336.462 463.879 336.075 465.094Z" fill="#F5F6F7"/>
<path d="M344.475 504.441C343.923 505.214 343.425 506.099 342.873 506.927C343.425 506.099 343.978 505.27 344.475 504.441Z" fill="#F5F6F7"/>
<path d="M346.575 502.009C346.188 502.175 345.912 502.451 345.525 502.617C345.746 502.12 345.967 501.678 346.133 501.18C346.299 501.457 346.409 501.733 346.575 502.009Z" fill="#F5F6F7"/>
<path d="M345.525 502.617C345.138 503.225 344.862 503.833 344.475 504.441C344.862 503.833 345.193 503.225 345.525 502.617Z" fill="#F5F6F7"/>
<path d="M335.578 511.293C335.578 511.072 335.578 510.851 335.578 510.63C335.965 510.796 336.297 511.072 336.683 511.238C336.297 511.238 335.91 511.293 335.578 511.293Z" fill="#F5F6F7"/>
<path d="M339.281 510.63C338.894 510.796 338.562 511.072 338.175 511.238C338.562 511.017 338.894 510.796 339.281 510.63Z" fill="#F5F6F7"/>
<path d="M338.894 456.805C335.191 451.776 331.323 447.079 326.128 444.371C321.431 441.884 321.044 442.216 320.271 448.129C319.165 455.976 318.392 463.934 314.744 471.118C313.308 473.881 313.087 477.749 313.031 481.176C312.921 487.199 316.458 491.178 320.16 494.438C327.51 500.849 333.533 499.357 336.573 490.294C338.562 484.381 339.833 478.136 341.381 472.057C341.657 470.565 342.486 461.668 338.894 456.805Z" fill="#DFE5F4" stroke="white" stroke-width="2" stroke-miterlimit="10"/>
<path d="M347.901 539.09C346.907 534.78 344.917 531.132 341.767 528.038C336.794 533.509 331.157 534.78 325.078 532.182C323.42 531.464 322.426 531.851 321.32 533.122C317.507 537.377 313.473 541.521 309.937 546.108C308.334 548.098 306.676 550.695 306.566 553.237C306.234 558.874 313.915 566.997 318.889 567.273C323.697 567.439 328.173 565.781 332.483 563.46C339.888 559.426 345.58 553.403 347.846 543.842C348.067 542.24 348.233 540.472 347.901 539.09Z" fill="#DFE5F4" stroke="white" stroke-width="2" stroke-miterlimit="10"/>
<path d="M349.283 505.546C347.901 498.086 343.425 493.333 338.452 488.525C337.899 489.796 337.567 490.846 337.07 491.841C334.417 497.865 330.439 500.517 325.962 499.301C324.526 498.915 322.923 497.865 321.873 498.362C320.713 498.915 320.16 501.07 319.22 502.507C319.055 502.728 318.834 503.059 318.723 503.391C315.96 508.696 314.026 513.835 316.347 520.411C318.889 527.43 322.923 531.63 329.333 532.348C334.749 532.956 339.225 530.635 342.209 525.219C344.53 521.075 346.575 516.875 348.288 512.454C349.228 510.354 349.614 507.646 349.283 505.546Z" fill="#DFE5F4" stroke="white" stroke-width="2" stroke-miterlimit="10"/>
<path d="M317.452 546.606C321.707 546.661 326.957 551.303 327.731 554.84C327.897 555.337 327.897 555.89 327.841 556.442C327.399 560.255 320.823 565.781 317.231 562.521C315.794 561.25 314.192 560.255 312.976 558.708C311.705 557.161 310.545 555.282 311.705 552.795C313.252 549.59 314.91 546.661 317.452 546.606Z" fill="#EBEEF7"/>
<path d="M337.126 520.632C336.352 522.401 335.523 524.777 334.252 526.545C333.644 527.43 331.599 527.817 330.826 527.319C327.842 525.44 324.802 523.396 322.371 520.688C319.607 517.648 321.763 509.359 325.465 508.475C326.902 508.143 329.002 509.027 330.163 510.133C332.539 512.343 334.418 515.106 336.462 517.759C336.794 518.367 336.794 519.251 337.126 520.632Z" fill="#EBEEF7"/>
<path d="M321.928 472.997C328.781 472.886 334.805 482.944 332.097 488.857C330.494 492.338 328.67 493.112 325.686 491.399C323.973 490.404 322.205 489.244 320.713 487.917C315.96 483.718 317.121 478.633 319.884 474.378C320.381 473.384 321.597 473.163 321.928 472.997Z" fill="#EBEEF7"/>
</g>
<defs>
<linearGradient id="paint0_linear_6030_780" x1="214.059" y1="447.089" x2="290.472" y2="447.089" gradientUnits="userSpaceOnUse">
<stop offset="0.1229" stop-color="#A5D1FA"/>
<stop offset="0.8347" stop-color="#C2E7E5"/>
</linearGradient>
<clipPath id="clip0_6030_780">
<rect width="420" height="420" fill="white" transform="translate(5 279)"/>
</clipPath>
</defs>
</svg>
