<svg width="430" height="699" viewBox="0 0 430 699" fill="none" xmlns="http://www.w3.org/2000/svg">
<circle opacity="0.11" cx="182" cy="46" r="233" fill="#00C2FF"/>
<ellipse opacity="0.11" cx="341" cy="122.5" rx="157" ry="156.5" fill="#00C2FF"/>
<g clip-path="url(#clip0_6030_782)">
<rect width="420" height="420" transform="translate(5 279)" fill="white"/>
<path d="M331.445 565.481C330.927 564.898 330.344 564.315 329.826 563.797C329.696 563.538 329.502 563.343 329.373 563.084C328.207 546.374 319.916 535.622 312.921 534.975C310.201 534.715 300.227 529.21 297.441 529.081C289.151 529.275 283.905 527.008 275.614 527.202C260.977 527.397 179.368 489.183 179.044 479.208C177.101 476.877 175.028 474.416 173.215 471.954C171.725 470.011 170.624 467.874 169.393 465.801C169.328 466.06 167.968 462.369 166.479 458.677C166.867 456.863 167.321 455.05 167.709 453.236C170.624 448.378 175.611 439.764 175.935 439.181C176.906 437.497 188.953 418.455 188.176 414.375C188.176 414.18 193.876 388.143 180.08 385.553C175.676 384.128 167.968 382.444 164.795 385.553C160.973 389.309 157.735 393.649 154.82 398.247C151.452 403.688 149.315 409.906 145.558 415.022C141.672 420.528 136.426 425.191 131.892 430.243C128.977 433.417 125.545 436.655 125.35 441.254C125.091 448.832 125.221 456.345 125.545 463.923C126.063 476.942 127.423 489.96 127.488 502.914C127.553 515.544 126.451 528.044 125.739 540.609C125.091 551.685 124.055 562.696 123.537 573.836C123.278 579.082 123.537 584.328 124.185 589.445C124.573 593.072 126.128 596.635 127.164 600.197C130.597 611.985 146.789 634.071 147.76 635.366C147.437 635.755 127.941 604.277 127.488 603.63C122.501 611.272 116.088 622.542 110.648 629.537C97.6293 646.83 68.8071 680.575 55.3999 697.674L212.918 698.775C220.885 692.493 231.377 685.627 239.603 679.604C247.44 673.904 255.147 667.88 262.531 661.533C275.226 650.652 286.236 638.087 295.693 624.356C299.385 619.109 302.882 613.798 306.444 608.487C306.444 608.487 306.444 608.487 306.38 608.487C309.424 603.953 316.095 595.339 318.427 591.971C323.543 584.393 329.049 577.01 332.222 568.266C332.481 567.489 332.741 566.646 332.935 565.805C332.676 565.805 332.028 565.675 331.445 565.481Z" fill="#DFE5F4" stroke="white" stroke-width="3" stroke-miterlimit="10"/>
<path d="M344.334 397.017C344.205 384.581 344.14 372.145 344.01 359.71C343.946 357.637 343.751 355.629 344.01 353.621C344.075 352.52 344.982 351.484 345.565 350.448C347.961 349.606 350.293 348.181 352.754 348.051C359.879 347.598 365.319 350.966 369.141 356.86C372.962 362.819 371.602 368.907 368.104 374.347C361.887 383.804 353.402 390.799 344.334 397.017Z" fill="#DFE5F4" stroke="white" stroke-width="3" stroke-miterlimit="10"/>
<path d="M220.755 577.074C220.69 570.597 220.625 564.185 220.561 557.708C221.597 557.838 222.698 557.903 223.734 558.097C223.864 563.408 224.123 568.654 224.188 573.965C224.188 575.196 223.929 576.491 223.864 577.722C222.763 577.463 221.726 577.269 220.755 577.074Z" fill="#FDFDFE"/>
<path d="M194.589 303.555L332.417 304.268C340.189 304.332 346.342 310.615 346.277 318.258L345.112 548.382C345.047 556.154 338.829 562.242 331.121 562.242L193.293 561.595C185.521 561.53 179.433 555.312 179.433 547.604L180.598 317.48C180.598 309.708 186.881 303.49 194.589 303.555Z" fill="#7386F6"/>
<path d="M301.393 562.242L302.688 304.203L332.417 304.332C340.189 304.397 346.342 310.68 346.277 318.322L345.112 548.446C345.047 556.219 338.829 562.307 331.122 562.307L301.393 562.242Z" fill="#F6F7F8"/>
<path d="M202.491 303.555L302.753 304.073L301.457 562.177L201.13 561.659L202.491 303.555Z" fill="url(#paint0_linear_6030_782)"/>
<path d="M187.982 319.792L186.83 549.722L193.955 549.757L195.107 319.828L187.982 319.792Z" fill="#8E9EF8"/>
<path d="M314.024 320.44L312.872 550.37L319.997 550.405L321.149 320.476L314.024 320.44Z" fill="#EBEFF5"/>
<path d="M329.049 346.866L328.029 550.37L335.154 550.405L336.174 346.901L329.049 346.866Z" fill="#EBEFF5"/>
<g opacity="0.5">
<path d="M270.368 540.415L270.304 543.135C270.368 544.301 270.886 545.338 271.728 545.985C270.757 546.698 270.368 547.734 270.304 548.446L270.239 552.721C270.239 553.11 270.627 553.498 271.081 553.498C271.534 553.498 271.858 553.11 271.858 552.721V548.576C271.923 548.446 272.182 546.957 274.125 546.827C274.254 546.827 274.319 546.827 274.449 546.827L274.384 550.843C274.384 551.167 274.578 551.491 274.837 551.555C275.161 551.685 275.485 551.62 275.679 551.296L279.177 547.734L280.408 546.374C280.667 546.115 280.667 545.791 280.602 545.532C280.472 545.273 280.148 545.078 279.889 545.078L275.938 545.014V541.192C275.938 540.739 275.55 540.286 275.161 540.35C274.773 540.35 274.254 540.739 274.319 541.192V545.014C274.19 544.949 274.125 545.014 274.06 545.014C273.736 545.014 273.412 544.949 273.153 544.884C272.311 544.69 271.664 543.977 271.664 543.071L271.728 540.415C271.728 539.962 271.34 539.638 270.951 539.638C270.692 539.508 270.368 539.897 270.368 540.415ZM278.27 546.633L276.198 548.77L276.133 546.568L278.27 546.633Z" fill="url(#paint1_linear_6030_782)"/>
<path d="M270.562 507.707L270.498 510.427C270.562 511.593 271.08 512.629 271.922 513.277C271.016 513.989 270.627 514.961 270.562 515.673L270.498 519.948C270.498 520.207 270.692 520.466 270.886 520.596C271.016 520.661 271.08 520.661 271.21 520.661C271.599 520.661 271.987 520.272 271.987 519.819V515.673C272.052 515.544 272.311 514.054 274.254 513.925C274.384 513.925 274.448 513.925 274.578 513.925L274.513 517.94C274.513 518.264 274.708 518.588 274.967 518.653C275.29 518.782 275.614 518.717 275.809 518.458L276.845 517.357L280.537 513.601C280.731 513.277 280.796 513.018 280.731 512.759C280.602 512.5 280.278 512.305 280.019 512.305L276.068 512.241L276.132 508.354C276.132 507.901 275.744 507.577 275.355 507.577C274.902 507.577 274.448 507.966 274.513 508.354L274.448 512.241H274.384C274.319 512.176 274.254 512.176 274.189 512.241C273.866 512.241 273.542 512.176 273.283 512.111C272.441 511.917 271.793 511.204 271.793 510.233L271.858 507.512C271.858 507.059 271.469 506.606 271.08 506.67C270.886 506.8 270.562 507.189 270.562 507.707ZM278.335 513.86L276.521 515.803L276.262 516.062L276.197 513.86H278.335Z" fill="url(#paint2_linear_6030_782)"/>
<path d="M270.757 474.999L270.692 477.719C270.692 478.755 271.145 479.597 271.664 480.18C271.793 480.31 271.923 480.439 272.052 480.504C271.081 481.216 270.692 482.253 270.627 482.965L270.562 487.24C270.562 487.628 270.951 488.017 271.405 488.017C271.858 488.017 272.182 487.628 272.182 487.24V483.095C272.182 482.9 272.506 481.411 274.449 481.346H274.772L274.708 485.362C274.708 485.75 274.902 486.009 275.161 486.074C275.485 486.204 275.809 486.139 276.003 485.88L280.731 481.022C280.926 480.763 280.926 480.439 280.926 480.245V480.18C280.796 479.921 280.472 479.727 280.213 479.727L276.262 479.662L276.327 475.776C276.327 475.322 275.938 474.999 275.55 474.999C275.096 474.999 274.643 475.387 274.708 475.776L274.643 479.662C274.513 479.597 274.449 479.662 274.384 479.662C274.06 479.662 273.736 479.597 273.477 479.532C272.635 479.338 271.987 478.626 271.987 477.719L272.052 474.999C272.052 474.545 271.664 474.221 271.275 474.221C271.016 474.157 270.627 474.48 270.757 474.999ZM278.594 481.216L276.521 483.354L276.456 481.152L278.594 481.216Z" fill="url(#paint3_linear_6030_782)"/>
<path d="M270.886 442.29L270.822 445.01C270.886 446.176 271.405 447.213 272.247 447.86C271.275 448.573 270.886 449.609 270.822 450.322L270.757 454.596C270.757 454.985 271.145 455.373 271.599 455.373C272.052 455.373 272.376 454.985 272.376 454.596V450.451C272.441 450.322 272.7 448.767 274.643 448.702H274.967L274.902 452.718C274.902 453.042 275.096 453.366 275.42 453.495C275.744 453.625 276.003 453.43 276.262 453.236L280.99 448.378C281.249 448.184 281.249 447.796 281.12 447.472C280.99 447.213 280.666 447.018 280.407 447.018L276.456 446.954L276.521 443.067C276.521 442.614 276.197 442.29 275.744 442.29C275.291 442.29 274.837 442.679 274.902 443.067L274.837 446.954C274.708 446.889 274.643 446.954 274.578 446.954C274.254 446.954 273.931 446.889 273.671 446.824C272.829 446.63 272.182 445.917 272.182 445.01L272.247 442.29C272.247 441.837 271.858 441.513 271.469 441.513C271.21 441.513 270.886 441.837 270.886 442.29ZM278.723 448.508L276.651 450.645L276.586 448.443L278.723 448.508Z" fill="url(#paint4_linear_6030_782)"/>
<path d="M271.081 409.647L271.016 412.367C271.081 413.533 271.599 414.569 272.441 415.217C271.469 415.929 271.081 416.966 271.016 417.678L270.951 421.953C270.951 422.341 271.34 422.73 271.793 422.73C272.247 422.73 272.57 422.341 272.57 421.953V417.808C272.635 417.678 272.894 416.188 274.837 416.059C274.967 416.059 275.032 416.059 275.161 416.059L275.096 420.074C275.096 420.398 275.291 420.722 275.55 420.787C275.874 420.916 276.197 420.852 276.392 420.528L281.12 415.67C281.379 415.411 281.379 415.087 281.314 414.828C281.185 414.569 280.861 414.375 280.602 414.375L276.651 414.31V410.489C276.651 410.035 276.262 409.582 275.874 409.647C275.485 409.647 274.967 410.035 275.032 410.489V414.31C274.902 414.245 274.837 414.31 274.773 414.31C274.449 414.31 274.125 414.245 273.866 414.18C273.024 413.986 272.376 413.274 272.376 412.367L272.441 409.647C272.441 409.193 272.052 408.869 271.664 408.869C271.405 408.805 271.016 409.193 271.081 409.647ZM278.983 415.8L276.91 417.937L276.845 415.735L278.983 415.8Z" fill="url(#paint5_linear_6030_782)"/>
<path d="M271.145 376.938L271.081 379.659C271.145 380.824 271.663 381.861 272.505 382.508C271.599 383.221 271.21 384.192 271.145 384.905L271.081 389.18C271.081 389.568 271.469 390.086 271.923 390.022C272.311 390.022 272.7 389.633 272.7 389.18V385.034C272.765 384.905 273.024 383.415 274.967 383.286C275.096 383.286 275.161 383.286 275.291 383.286L275.226 387.301C275.226 387.69 275.42 387.949 275.679 388.014C276.003 388.143 276.327 388.079 276.521 387.819L281.249 382.962C281.444 382.638 281.508 382.379 281.379 382.055C281.249 381.796 280.925 381.602 280.666 381.602L276.715 381.537L276.78 377.651C276.78 377.197 276.392 376.874 276.003 376.874C275.55 376.874 275.096 377.262 275.161 377.651L275.096 381.537C274.967 381.472 274.902 381.537 274.837 381.537C274.513 381.537 274.189 381.472 273.93 381.407C273.088 381.213 272.441 380.501 272.441 379.529L272.505 376.809C272.505 376.355 272.117 375.902 271.728 375.967C271.599 376.161 271.21 376.485 271.145 376.938ZM279.112 383.156L277.039 385.293L276.975 383.091L279.112 383.156Z" fill="url(#paint6_linear_6030_782)"/>
<path d="M271.404 344.295L271.34 347.015C271.404 348.181 271.923 349.217 272.765 349.865C271.793 350.577 271.404 351.614 271.34 352.326L271.275 356.601C271.275 356.989 271.664 357.378 272.117 357.378C272.57 357.378 272.894 356.989 272.894 356.601V352.456C272.894 352.261 273.218 350.772 275.161 350.707H275.485L275.42 354.723C275.42 355.111 275.614 355.37 275.874 355.435C276.197 355.565 276.521 355.5 276.715 355.241L281.444 350.383C281.703 350.189 281.703 349.8 281.573 349.476C281.444 349.217 281.12 349.023 280.861 349.023L276.91 348.958L276.975 345.072C276.975 344.619 276.586 344.295 276.197 344.295C275.744 344.295 275.291 344.683 275.355 345.072L275.291 348.958C275.161 348.893 275.096 348.958 275.032 348.958C274.708 348.958 274.384 348.893 274.125 348.829C273.283 348.634 272.635 347.922 272.635 347.015L272.7 344.295C272.7 343.841 272.311 343.518 271.923 343.518C271.728 343.453 271.34 343.777 271.404 344.295ZM279.242 350.448L277.169 352.585L277.104 350.383L279.242 350.448Z" fill="url(#paint7_linear_6030_782)"/>
<path d="M271.534 311.586L271.469 314.307C271.534 315.473 272.052 316.509 272.894 317.157C271.922 317.869 271.534 318.905 271.469 319.618L271.404 323.893C271.404 324.281 271.793 324.67 272.246 324.67C272.7 324.67 273.024 324.281 273.024 323.893V319.747C273.088 319.618 273.347 318.063 275.29 317.999H275.614L275.55 322.014C275.55 322.338 275.744 322.662 276.068 322.791C276.391 322.921 276.651 322.727 276.91 322.532L281.638 317.675C281.897 317.48 281.897 317.092 281.767 316.768C281.638 316.509 281.314 316.315 281.055 316.315L277.104 316.25L277.169 312.364C277.169 311.91 276.78 311.586 276.391 311.586C275.938 311.586 275.485 311.975 275.55 312.364L275.485 316.25C275.355 316.185 275.29 316.25 275.226 316.25C274.902 316.25 274.578 316.185 274.319 316.12C273.477 315.926 272.829 315.214 272.829 314.307L272.894 311.586C272.894 311.133 272.505 310.809 272.117 310.809C271.858 310.744 271.534 311.133 271.534 311.586ZM279.436 317.739L277.363 319.877L277.298 317.675L279.436 317.739Z" fill="url(#paint8_linear_6030_782)"/>
<path d="M243.878 523.899L243.813 526.619C243.878 527.785 244.396 528.822 245.238 529.469C244.266 530.182 243.878 531.218 243.813 531.93L243.748 536.205C243.748 536.659 244.137 536.982 244.525 536.982C244.979 536.982 245.432 536.594 245.367 536.205V535.493V531.995C245.367 531.801 245.691 530.311 247.634 530.246H247.958L247.893 534.262C247.893 534.651 248.088 534.91 248.347 534.975C248.67 535.104 248.994 535.039 249.189 534.78L253.917 529.923C254.176 529.664 254.176 529.34 254.111 529.081C253.982 528.822 253.658 528.627 253.399 528.627L249.512 528.562L249.707 524.806C249.707 524.417 249.318 524.029 248.865 524.029C248.411 524.029 248.088 524.417 248.088 524.806L248.023 528.692C247.893 528.627 247.828 528.692 247.764 528.692C247.44 528.692 247.116 528.627 246.857 528.562C246.015 528.368 245.367 527.656 245.367 526.749L245.432 524.029C245.432 523.64 245.043 523.251 244.59 523.251C244.266 523.122 243.813 523.446 243.878 523.899ZM251.779 530.117L249.707 532.254L249.642 530.052L251.779 530.117Z" fill="url(#paint9_linear_6030_782)"/>
<path d="M244.007 491.255L243.942 493.976C244.007 495.142 244.525 496.178 245.367 496.826C244.396 497.538 244.007 498.574 243.942 499.287L243.877 503.562C243.877 504.015 244.266 504.339 244.655 504.339C245.108 504.339 245.561 503.95 245.497 503.562V499.416C245.561 499.287 245.821 497.732 247.764 497.668H248.087L248.023 501.683C248.023 502.007 248.217 502.331 248.541 502.46C248.865 502.59 249.124 502.396 249.383 502.201L254.111 497.344C254.37 497.085 254.37 496.761 254.305 496.502C254.176 496.243 253.852 496.048 253.593 496.048L249.707 495.984L249.771 492.097C249.771 491.709 249.383 491.32 248.929 491.32C248.476 491.32 248.152 491.709 248.152 492.097L248.087 495.984C247.958 495.919 247.893 495.984 247.828 495.984C247.505 495.984 247.181 495.919 246.922 495.854C246.08 495.66 245.432 494.947 245.432 494.041L245.497 491.32C245.497 490.932 245.108 490.543 244.655 490.543C244.396 490.478 244.007 490.802 244.007 491.255ZM251.909 497.409L249.836 499.546L249.771 497.344L251.909 497.409Z" fill="url(#paint10_linear_6030_782)"/>
<path d="M244.137 458.547L244.072 461.267C244.137 462.433 244.655 463.47 245.497 464.117C244.525 464.83 244.137 465.866 244.072 466.579L244.007 470.853C244.007 471.307 244.396 471.631 244.785 471.631C245.238 471.631 245.691 471.242 245.627 470.853V466.708C245.691 466.579 245.95 465.089 247.893 464.959C248.023 464.959 248.153 464.959 248.217 464.959L248.153 468.975C248.153 469.299 248.347 469.623 248.606 469.687C248.93 469.817 249.254 469.752 249.448 469.428L254.176 464.571C254.435 464.312 254.435 463.988 254.37 463.729C254.241 463.47 253.917 463.275 253.658 463.275L249.772 463.211V459.389C249.772 459.001 249.383 458.482 248.93 458.547C248.541 458.547 248.153 458.936 248.153 459.389V463.211C248.023 463.146 247.958 463.211 247.893 463.211C247.57 463.211 247.246 463.146 246.987 463.081C246.145 462.887 245.497 462.174 245.497 461.267L245.562 458.547C245.562 458.159 245.173 457.77 244.72 457.77C244.525 457.77 244.137 458.094 244.137 458.547ZM252.103 464.765L250.031 466.902L249.966 464.7L252.103 464.765Z" fill="url(#paint11_linear_6030_782)"/>
<path d="M244.331 425.839L244.266 428.559C244.331 429.725 244.849 430.761 245.691 431.409C244.784 432.121 244.396 433.093 244.331 433.805L244.266 438.08C244.266 438.533 244.655 438.987 245.043 438.922C245.432 438.922 245.95 438.533 245.885 438.08V433.935C245.95 433.805 246.209 432.316 248.152 432.186C248.282 432.186 248.411 432.186 248.476 432.186L248.411 436.202C248.411 436.526 248.606 436.85 248.865 436.914C249.189 437.044 249.512 436.979 249.707 436.72L254.435 431.862C254.629 431.538 254.694 431.279 254.629 431.02C254.5 430.761 254.176 430.567 253.917 430.567L250.031 430.502L250.095 426.616C250.095 426.227 249.707 425.839 249.253 425.839C248.8 425.839 248.476 426.227 248.476 426.616L248.411 430.502C248.282 430.437 248.217 430.502 248.152 430.502C247.828 430.502 247.505 430.437 247.245 430.373C246.403 430.178 245.756 429.466 245.756 428.494L245.821 425.774C245.821 425.385 245.432 424.867 244.979 424.932C244.719 425.126 244.331 425.45 244.331 425.839ZM252.233 432.121L250.16 434.259L250.095 432.057L252.233 432.121Z" fill="url(#paint12_linear_6030_782)"/>
<path d="M244.461 393.195L244.396 395.916C244.461 397.081 244.979 398.118 245.821 398.765C244.849 399.478 244.461 400.514 244.396 401.227L244.331 405.501C244.331 405.955 244.72 406.279 245.108 406.279C245.562 406.279 246.015 405.89 245.95 405.501V401.356C245.95 401.162 246.274 399.672 248.217 399.607H248.541L248.476 403.623C248.476 404.012 248.671 404.271 248.93 404.336C249.253 404.465 249.577 404.4 249.772 404.141L254.5 399.284C254.759 399.024 254.759 398.701 254.694 398.442C254.565 398.182 254.241 397.988 253.982 397.988L250.096 397.923L250.16 394.037C250.16 393.649 249.772 393.26 249.318 393.26C248.865 393.26 248.541 393.649 248.541 394.037L248.476 397.923C248.347 397.859 248.282 397.923 248.217 397.923C247.893 397.923 247.57 397.859 247.31 397.794C246.468 397.6 245.821 396.887 245.821 395.98L245.886 393.26C245.886 392.871 245.497 392.483 245.044 392.483C244.914 392.418 244.525 392.742 244.461 393.195ZM252.492 399.413L250.419 401.55L250.355 399.348L252.492 399.413Z" fill="url(#paint13_linear_6030_782)"/>
<path d="M244.655 360.487L244.59 363.207C244.655 364.373 245.173 365.409 246.015 366.057C245.044 366.77 244.655 367.806 244.59 368.518L244.525 372.793C244.525 373.246 244.849 373.57 245.303 373.57C245.756 373.57 246.209 373.182 246.145 372.793V368.648C246.209 368.518 246.468 366.964 248.412 366.899H248.735L248.671 370.915C248.671 371.239 248.865 371.562 249.189 371.692C249.513 371.822 249.772 371.627 250.031 371.433L254.759 366.575C255.018 366.316 255.018 365.992 254.953 365.733C254.824 365.474 254.5 365.28 254.241 365.28L250.355 365.215L250.419 361.329C250.419 360.94 250.031 360.552 249.577 360.552C249.124 360.552 248.8 360.94 248.8 361.329L248.735 365.215C248.606 365.15 248.541 365.215 248.476 365.215C248.152 365.215 247.829 365.15 247.57 365.086C246.728 364.891 246.08 364.179 246.08 363.272L246.145 360.552C246.145 360.163 245.756 359.775 245.303 359.775C245.108 359.71 244.72 360.098 244.655 360.487ZM252.622 366.705L250.549 368.842L250.484 366.64L252.622 366.705Z" fill="url(#paint14_linear_6030_782)"/>
<path d="M244.849 327.843L244.784 330.564C244.849 331.73 245.367 332.766 246.209 333.414C245.238 334.126 244.849 335.162 244.784 335.875L244.72 340.15C244.72 340.603 245.044 340.927 245.497 340.927C245.95 340.927 246.404 340.538 246.339 340.15V336.004C246.404 335.875 246.663 334.385 248.606 334.256C248.735 334.256 248.865 334.256 248.93 334.256L248.865 338.271C248.865 338.595 249.059 338.919 249.318 338.984C249.642 339.113 249.966 339.048 250.16 338.725L254.888 333.867C255.148 333.608 255.148 333.284 255.083 333.025C254.953 332.766 254.629 332.572 254.37 332.572L250.484 332.507V328.685C250.484 328.297 250.096 327.779 249.642 327.843C249.254 327.843 248.865 328.232 248.865 328.685V332.507C248.735 332.442 248.671 332.507 248.606 332.507C248.282 332.507 247.958 332.442 247.699 332.377C246.857 332.183 246.209 331.47 246.209 330.564L246.274 327.843C246.274 327.455 245.886 326.937 245.432 327.001C245.238 327.001 244.849 327.39 244.849 327.843ZM252.751 333.996L250.678 336.134L250.614 333.932L252.751 333.996Z" fill="url(#paint15_linear_6030_782)"/>
<path d="M245.108 307.312C245.043 307.7 245.432 308.154 245.885 308.154C246.274 308.154 246.792 307.765 246.727 307.312L246.792 303.749H245.173L245.108 307.312Z" fill="url(#paint16_linear_6030_782)"/>
<path d="M249.707 306.081C250.031 306.211 250.355 306.146 250.549 305.887L252.622 303.749H249.124V305.369C249.189 305.692 249.448 306.016 249.707 306.081Z" fill="url(#paint17_linear_6030_782)"/>
</g>
<path d="M202.491 303.555L302.753 304.073L301.457 562.177L201.13 561.659L202.491 303.555Z" fill="url(#paint18_linear_6030_782)"/>
<path d="M216.207 479.803L215.797 561.606L301.292 562.034L301.702 480.231L216.207 479.803Z" fill="#EBEFF5"/>
<path d="M277.493 520.661C277.558 516.71 275.809 513.147 272.959 510.427V510.168C273.024 487.823 295.758 488.211 301.652 488.729L301.328 553.175C278.076 552.656 273.348 544.431 272.57 531.153C275.744 528.498 277.558 524.806 277.493 520.661Z" fill="#6528F5"/>
<path d="M271.023 520.682C271.07 511.381 263.336 503.803 253.749 503.755C244.163 503.707 236.354 511.207 236.307 520.508C236.26 529.808 243.994 537.387 253.581 537.435C263.167 537.483 270.977 529.982 271.023 520.682Z" fill="#6528F5"/>
<path d="M216.425 373.453L215.968 464.583L223.093 464.618L223.549 373.488L216.425 373.453Z" fill="#D9F0EF"/>
<path d="M236.716 404.769L236.416 464.745L243.54 464.781L243.841 404.805L236.716 404.769Z" fill="#D9F0EF"/>
<path d="M257.119 404.834L256.818 464.81L263.943 464.846L264.243 404.869L257.119 404.834Z" fill="#D9F0EF"/>
<g opacity="0.5">
<path d="M270.303 540.35L270.239 543.071C270.303 544.236 270.822 545.273 271.664 545.92C270.692 546.633 270.303 547.669 270.239 548.382L270.174 552.656C270.174 553.045 270.562 553.434 271.016 553.434C271.469 553.434 271.793 553.045 271.793 552.656V548.511C271.858 548.382 272.117 546.892 274.06 546.762C274.19 546.762 274.254 546.762 274.384 546.762L274.319 550.778C274.319 551.102 274.513 551.426 274.772 551.491C275.096 551.62 275.42 551.555 275.614 551.232L279.112 547.669L280.343 546.309C280.602 546.05 280.602 545.726 280.537 545.467C280.407 545.208 280.083 545.014 279.824 545.014L275.873 544.949V541.128C275.873 540.674 275.485 540.221 275.096 540.286C274.708 540.286 274.189 540.674 274.254 541.128V544.949C274.125 544.884 274.06 544.949 273.995 544.949C273.671 544.949 273.348 544.884 273.088 544.819C272.246 544.625 271.599 543.913 271.599 543.006L271.664 540.35C271.664 539.897 271.275 539.573 270.886 539.573C270.627 539.573 270.303 539.897 270.303 540.35ZM278.27 546.633L276.197 548.77L276.133 546.568L278.27 546.633Z" fill="url(#paint19_linear_6030_782)"/>
<path d="M270.498 507.707L270.433 510.427C270.498 511.593 271.016 512.629 271.858 513.277C270.951 513.989 270.563 514.961 270.498 515.673L270.433 519.948C270.433 520.207 270.627 520.466 270.822 520.596C270.951 520.661 271.016 520.661 271.146 520.661C271.534 520.661 271.923 520.272 271.923 519.819V515.673C271.988 515.544 272.247 514.054 274.19 513.925C274.319 513.925 274.384 513.925 274.514 513.925L274.449 517.94C274.449 518.264 274.643 518.588 274.902 518.653C275.226 518.782 275.55 518.717 275.744 518.458L276.78 517.357L280.472 513.601C280.667 513.277 280.731 513.018 280.667 512.759C280.602 512.5 280.213 512.305 279.954 512.305L276.003 512.241L276.068 508.354C276.068 507.901 275.679 507.577 275.291 507.577C274.837 507.577 274.384 507.966 274.449 508.354L274.384 512.241H274.319C274.254 512.176 274.19 512.176 274.125 512.241C273.801 512.241 273.477 512.176 273.218 512.111C272.376 511.917 271.728 511.204 271.728 510.233L271.793 507.512C271.793 507.059 271.405 506.606 271.016 506.67C270.822 506.865 270.433 507.189 270.498 507.707ZM278.335 513.86L276.521 515.803L276.262 516.062L276.198 513.86H278.335Z" fill="url(#paint20_linear_6030_782)"/>
<path d="M270.692 474.934L270.627 477.654C270.627 478.69 271.08 479.532 271.599 480.115C271.728 480.245 271.858 480.374 271.987 480.439C271.016 481.152 270.627 482.188 270.562 482.9L270.498 487.175C270.498 487.564 270.886 487.952 271.34 487.952C271.793 487.952 272.117 487.564 272.117 487.175V483.03C272.117 482.836 272.441 481.346 274.384 481.281H274.708L274.643 485.297C274.643 485.685 274.837 485.944 275.096 486.009C275.42 486.139 275.744 486.074 275.938 485.815L280.666 480.957C280.861 480.698 280.861 480.374 280.861 480.18V480.115C280.731 479.856 280.407 479.662 280.148 479.662L276.197 479.597L276.262 475.711C276.262 475.258 275.873 474.934 275.485 474.934C275.031 474.934 274.578 475.322 274.643 475.711L274.578 479.597C274.448 479.532 274.384 479.597 274.319 479.597C273.995 479.597 273.671 479.532 273.412 479.468C272.57 479.273 271.922 478.561 271.922 477.654L271.987 474.934C271.987 474.48 271.599 474.156 271.21 474.156C270.951 474.221 270.562 474.48 270.692 474.934ZM278.594 481.216L276.521 483.354L276.456 481.152L278.594 481.216Z" fill="url(#paint21_linear_6030_782)"/>
<path d="M270.886 442.29L270.822 445.01C270.886 446.176 271.405 447.213 272.247 447.86C271.275 448.573 270.886 449.609 270.822 450.322L270.757 454.596C270.757 454.985 271.145 455.374 271.599 455.374C272.052 455.374 272.376 454.985 272.376 454.596V450.451C272.441 450.322 272.7 448.767 274.643 448.702H274.967L274.902 452.718C274.902 453.042 275.096 453.366 275.42 453.495C275.744 453.625 276.003 453.43 276.262 453.236L280.99 448.378C281.249 448.184 281.249 447.796 281.12 447.472C280.99 447.213 280.666 447.018 280.407 447.018L276.456 446.954L276.521 443.067C276.521 442.614 276.133 442.29 275.744 442.29C275.291 442.29 274.837 442.679 274.902 443.067L274.837 446.954C274.708 446.889 274.643 446.954 274.578 446.954C274.254 446.954 273.931 446.889 273.671 446.824C272.829 446.63 272.182 445.917 272.182 445.01L272.247 442.29C272.247 441.837 271.858 441.513 271.469 441.513C271.145 441.578 270.822 441.837 270.886 442.29ZM278.723 448.508L276.651 450.645L276.586 448.443L278.723 448.508Z" fill="url(#paint22_linear_6030_782)"/>
<path d="M271.016 409.647L270.951 412.367C271.016 413.533 271.534 414.569 272.376 415.217C271.404 415.929 271.016 416.966 270.951 417.678L270.886 421.953C270.886 422.341 271.275 422.73 271.728 422.73C272.182 422.73 272.505 422.341 272.505 421.953V417.808C272.57 417.678 272.829 416.188 274.772 416.059C274.902 416.059 274.967 416.059 275.096 416.059L275.031 420.074C275.031 420.398 275.226 420.722 275.485 420.787C275.809 420.916 276.133 420.852 276.327 420.528L281.055 415.67C281.314 415.411 281.314 415.087 281.249 414.828C281.12 414.569 280.796 414.375 280.537 414.375L276.586 414.31V410.489C276.586 410.035 276.197 409.582 275.809 409.647C275.355 409.711 274.902 410.035 274.967 410.489V414.31C274.837 414.245 274.772 414.31 274.708 414.31C274.384 414.31 274.06 414.245 273.801 414.18C272.959 413.986 272.311 413.274 272.311 412.367L272.376 409.647C272.376 409.193 271.987 408.869 271.599 408.869C271.275 408.869 270.886 409.193 271.016 409.647ZM278.982 415.8L276.91 417.937L276.845 415.735L278.982 415.8Z" fill="url(#paint23_linear_6030_782)"/>
<path d="M271.08 376.873L271.016 379.594C271.08 380.76 271.599 381.796 272.441 382.444C271.534 383.156 271.145 384.128 271.08 384.84L271.016 389.115C271.016 389.503 271.404 390.022 271.858 389.957C272.246 389.957 272.635 389.568 272.635 389.115V384.97C272.7 384.84 272.959 383.35 274.902 383.221C275.031 383.221 275.096 383.221 275.226 383.221L275.161 387.237C275.161 387.625 275.355 387.884 275.614 387.949C275.938 388.079 276.262 388.014 276.456 387.755L281.184 382.897C281.379 382.573 281.443 382.314 281.314 381.99C281.184 381.731 280.861 381.537 280.601 381.537L276.651 381.472L276.715 377.586C276.715 377.133 276.391 376.809 275.938 376.809C275.485 376.809 275.031 377.197 275.096 377.586L275.031 381.472C274.902 381.407 274.837 381.472 274.772 381.472C274.448 381.472 274.125 381.407 273.865 381.343C273.023 381.148 272.376 380.436 272.376 379.464L272.441 376.744C272.441 376.291 272.052 375.837 271.663 375.902C271.534 376.161 271.145 376.485 271.08 376.873ZM279.112 383.156L277.039 385.293L276.974 383.091L279.112 383.156Z" fill="url(#paint24_linear_6030_782)"/>
<path d="M271.34 344.295L271.275 347.015C271.34 348.181 271.858 349.217 272.7 349.865C271.728 350.577 271.34 351.614 271.275 352.326L271.21 356.601C271.21 356.989 271.599 357.378 272.052 357.378C272.505 357.378 272.829 356.989 272.829 356.601V352.456C272.829 352.261 273.153 350.772 275.096 350.707H275.42L275.355 354.722C275.355 355.111 275.549 355.37 275.809 355.435C276.132 355.564 276.456 355.5 276.651 355.241L281.379 350.383C281.638 350.189 281.638 349.8 281.508 349.476C281.379 349.217 281.055 349.023 280.796 349.023L276.845 348.958L276.91 345.072C276.91 344.619 276.586 344.295 276.132 344.295C275.679 344.295 275.226 344.683 275.29 345.072L275.226 348.958C275.096 348.893 275.031 348.958 274.967 348.958C274.643 348.958 274.319 348.893 274.06 348.829C273.218 348.634 272.57 347.922 272.57 347.015L272.635 344.295C272.635 343.841 272.246 343.517 271.858 343.517C271.663 343.453 271.275 343.777 271.34 344.295ZM279.241 350.448L277.169 352.585L277.104 350.383L279.241 350.448Z" fill="url(#paint25_linear_6030_782)"/>
<path d="M271.469 311.586L271.405 314.307C271.469 315.473 271.988 316.509 272.83 317.157C271.858 317.869 271.469 318.905 271.405 319.618L271.34 323.892C271.34 324.281 271.728 324.67 272.182 324.67C272.635 324.67 272.959 324.281 272.959 323.892V319.747C273.024 319.618 273.283 318.063 275.226 317.999H275.55L275.485 322.014C275.485 322.338 275.679 322.662 276.003 322.791C276.327 322.921 276.586 322.727 276.845 322.532L281.573 317.675C281.832 317.48 281.832 317.092 281.703 316.768C281.573 316.509 281.249 316.315 280.99 316.315L277.04 316.25L277.104 312.364C277.104 311.91 276.716 311.586 276.327 311.586C275.874 311.586 275.42 311.975 275.485 312.364L275.42 316.25C275.291 316.185 275.226 316.25 275.161 316.25C274.837 316.25 274.514 316.185 274.254 316.12C273.412 315.926 272.765 315.213 272.765 314.307L272.83 311.586C272.83 311.133 272.441 310.809 272.052 310.809C271.728 310.744 271.469 311.133 271.469 311.586ZM279.436 317.739L277.363 319.877L277.299 317.675L279.436 317.739Z" fill="url(#paint26_linear_6030_782)"/>
<path d="M243.878 523.899L243.813 526.619C243.878 527.785 244.396 528.822 245.238 529.469C244.266 530.182 243.878 531.218 243.813 531.93L243.748 536.205C243.748 536.659 244.137 536.982 244.525 536.982C244.979 536.982 245.432 536.594 245.367 536.205V535.493V531.995C245.367 531.801 245.691 530.311 247.634 530.246H247.958L247.893 534.262C247.893 534.651 248.088 534.91 248.347 534.975C248.67 535.104 248.994 535.039 249.189 534.78L253.917 529.923C254.176 529.664 254.176 529.34 254.111 529.081C253.982 528.822 253.658 528.627 253.399 528.627L249.512 528.562L249.707 524.806C249.707 524.417 249.318 524.029 248.865 524.029C248.411 524.029 248.088 524.417 248.088 524.806L248.023 528.692C247.893 528.627 247.828 528.692 247.764 528.692C247.44 528.692 247.116 528.627 246.857 528.562C246.015 528.368 245.367 527.656 245.367 526.749L245.432 524.029C245.432 523.64 245.043 523.251 244.59 523.251C244.201 523.122 243.813 523.446 243.878 523.899ZM251.779 530.117L249.707 532.254L249.642 530.052L251.779 530.117Z" fill="url(#paint27_linear_6030_782)"/>
<path d="M244.007 491.255L243.942 493.976C244.007 495.142 244.525 496.178 245.367 496.826C244.396 497.538 244.007 498.574 243.942 499.287L243.877 503.562C243.877 504.015 244.266 504.339 244.655 504.339C245.108 504.339 245.561 503.95 245.497 503.562V499.416C245.561 499.287 245.821 497.732 247.764 497.668H248.087L248.023 501.683C248.023 502.007 248.217 502.331 248.541 502.46C248.865 502.59 249.124 502.396 249.383 502.201L254.111 497.344C254.37 497.085 254.37 496.761 254.305 496.502C254.176 496.243 253.852 496.048 253.593 496.048L249.707 495.984L249.771 492.097C249.771 491.709 249.383 491.32 248.929 491.32C248.476 491.32 248.152 491.709 248.152 492.097L248.087 495.984C247.958 495.919 247.893 495.984 247.828 495.984C247.505 495.984 247.181 495.919 246.922 495.854C246.08 495.66 245.432 494.947 245.432 494.041L245.497 491.32C245.497 490.932 245.108 490.543 244.655 490.543C244.331 490.478 244.007 490.802 244.007 491.255ZM251.909 497.408L249.836 499.546L249.771 497.344L251.909 497.408Z" fill="url(#paint28_linear_6030_782)"/>
<path d="M244.137 458.547L244.072 461.267C244.137 462.433 244.655 463.47 245.497 464.117C244.525 464.83 244.137 465.866 244.072 466.578L244.007 470.853C244.007 471.307 244.396 471.63 244.785 471.63C245.238 471.63 245.691 471.242 245.627 470.853V466.708C245.691 466.578 245.95 465.089 247.893 464.959C248.023 464.959 248.153 464.959 248.217 464.959L248.153 468.975C248.153 469.299 248.347 469.623 248.606 469.687C248.93 469.817 249.254 469.752 249.448 469.428L254.176 464.571C254.435 464.312 254.435 463.988 254.37 463.729C254.241 463.47 253.917 463.275 253.658 463.275L249.772 463.211V459.389C249.772 459.001 249.383 458.482 248.93 458.547C248.541 458.547 248.153 458.936 248.153 459.389V463.211C248.023 463.146 247.958 463.211 247.893 463.211C247.57 463.211 247.246 463.146 246.987 463.081C246.145 462.887 245.497 462.174 245.497 461.267L245.562 458.547C245.562 458.159 245.173 457.77 244.72 457.77C244.461 457.77 244.137 458.094 244.137 458.547ZM252.103 464.765L250.031 466.902L249.966 464.7L252.103 464.765Z" fill="url(#paint29_linear_6030_782)"/>
<path d="M244.331 425.839L244.266 428.559C244.331 429.725 244.849 430.761 245.691 431.409C244.784 432.121 244.396 433.093 244.331 433.805L244.266 438.08C244.266 438.534 244.655 438.987 245.043 438.922C245.432 438.922 245.95 438.534 245.885 438.08V433.935C245.95 433.805 246.209 432.316 248.152 432.186C248.282 432.186 248.411 432.186 248.476 432.186L248.411 436.202C248.411 436.526 248.606 436.85 248.865 436.914C249.189 437.044 249.512 436.979 249.707 436.72L254.435 431.862C254.629 431.538 254.694 431.279 254.629 431.02C254.5 430.761 254.176 430.567 253.917 430.567L250.031 430.502L250.095 426.616C250.095 426.227 249.707 425.839 249.253 425.839C248.8 425.839 248.476 426.227 248.476 426.616L248.411 430.502C248.282 430.437 248.217 430.502 248.152 430.502C247.828 430.502 247.505 430.437 247.245 430.373C246.403 430.178 245.756 429.466 245.756 428.494L245.821 425.774C245.821 425.385 245.432 424.867 244.979 424.932C244.719 425.062 244.331 425.45 244.331 425.839ZM252.233 432.121L250.16 434.259L250.095 432.057L252.233 432.121Z" fill="url(#paint30_linear_6030_782)"/>
<path d="M244.461 393.195L244.396 395.916C244.461 397.081 244.979 398.118 245.821 398.765C244.849 399.478 244.461 400.514 244.396 401.227L244.331 405.501C244.331 405.955 244.72 406.279 245.108 406.279C245.562 406.279 246.015 405.89 245.95 405.501V401.356C245.95 401.162 246.274 399.672 248.217 399.607H248.541L248.476 403.623C248.476 404.012 248.671 404.271 248.93 404.336C249.253 404.465 249.577 404.4 249.772 404.141L254.5 399.284C254.759 399.025 254.759 398.701 254.694 398.442C254.565 398.183 254.241 397.988 253.982 397.988L250.096 397.923L250.16 394.037C250.16 393.649 249.772 393.26 249.318 393.26C248.865 393.26 248.541 393.649 248.541 394.037L248.476 397.923C248.347 397.859 248.282 397.923 248.217 397.923C247.893 397.923 247.57 397.859 247.31 397.794C246.468 397.6 245.821 396.887 245.821 395.98L245.886 393.26C245.886 392.871 245.497 392.483 245.044 392.483C244.849 392.353 244.525 392.742 244.461 393.195ZM252.492 399.413L250.419 401.551L250.355 399.348L252.492 399.413Z" fill="url(#paint31_linear_6030_782)"/>
<path d="M244.655 360.487L244.59 363.207C244.655 364.373 245.173 365.409 246.015 366.057C245.044 366.77 244.655 367.806 244.59 368.518L244.525 372.793C244.525 373.246 244.849 373.57 245.303 373.57C245.756 373.57 246.209 373.182 246.145 372.793V368.648C246.209 368.518 246.468 366.964 248.412 366.899H248.735L248.671 370.915C248.671 371.239 248.865 371.562 249.189 371.692C249.513 371.822 249.772 371.627 250.031 371.433L254.759 366.575C255.018 366.316 255.018 365.992 254.953 365.733C254.824 365.474 254.5 365.28 254.241 365.28L250.355 365.215L250.419 361.329C250.419 360.94 250.031 360.552 249.577 360.552C249.124 360.552 248.8 360.94 248.8 361.329L248.735 365.215C248.606 365.15 248.541 365.215 248.476 365.215C248.152 365.215 247.829 365.15 247.57 365.086C246.728 364.891 246.08 364.179 246.08 363.272L246.145 360.552C246.145 360.163 245.756 359.775 245.303 359.775C245.044 359.71 244.72 360.098 244.655 360.487ZM252.622 366.705L250.549 368.842L250.484 366.64L252.622 366.705Z" fill="url(#paint32_linear_6030_782)"/>
<path d="M244.849 327.843L244.784 330.564C244.849 331.73 245.367 332.766 246.209 333.414C245.238 334.126 244.849 335.162 244.784 335.875L244.72 340.149C244.72 340.603 245.044 340.927 245.497 340.927C245.95 340.927 246.404 340.538 246.339 340.149V336.004C246.404 335.875 246.663 334.385 248.606 334.256C248.735 334.256 248.865 334.256 248.93 334.256L248.865 338.271C248.865 338.595 249.059 338.919 249.318 338.984C249.642 339.113 249.966 339.048 250.16 338.725L254.888 333.867C255.148 333.608 255.148 333.284 255.083 333.025C254.953 332.766 254.629 332.572 254.37 332.572L250.484 332.507V328.685C250.484 328.297 250.096 327.779 249.642 327.843C249.254 327.843 248.865 328.232 248.865 328.685V332.507C248.735 332.442 248.671 332.507 248.606 332.507C248.282 332.507 247.958 332.442 247.699 332.377C246.857 332.183 246.209 331.47 246.209 330.564L246.274 327.843C246.274 327.455 245.886 326.937 245.432 327.001C245.173 327.001 244.849 327.39 244.849 327.843ZM252.751 333.996L250.678 336.134L250.614 333.932L252.751 333.996Z" fill="url(#paint33_linear_6030_782)"/>
<path d="M245.044 307.247C244.979 307.7 245.368 308.154 245.821 308.089C246.21 308.089 246.728 307.7 246.663 307.247L246.728 303.685H245.108L245.044 307.247Z" fill="url(#paint34_linear_6030_782)"/>
<path d="M249.642 306.081C249.966 306.211 250.29 306.146 250.484 305.887L252.557 303.749H249.059V305.369C249.189 305.692 249.448 306.016 249.642 306.081Z" fill="url(#paint35_linear_6030_782)"/>
</g>
<path d="M270.303 540.35L270.239 543.071C270.303 544.236 270.822 545.273 271.664 545.92C270.692 546.633 270.303 547.669 270.239 548.382L270.174 552.656C270.174 553.045 270.562 553.434 271.016 553.434C271.469 553.434 271.793 553.045 271.793 552.656V548.511C271.858 548.382 272.117 546.892 274.06 546.762C274.19 546.762 274.254 546.762 274.384 546.762L274.319 550.778C274.319 551.102 274.513 551.426 274.772 551.491C275.096 551.62 275.42 551.555 275.614 551.232L279.112 547.669L280.343 546.309C280.602 546.05 280.602 545.726 280.537 545.467C280.407 545.208 280.083 545.014 279.824 545.014L275.873 544.949V541.128C275.873 540.674 275.485 540.221 275.096 540.286C274.708 540.286 274.189 540.674 274.254 541.128V544.949C274.125 544.884 274.06 544.949 273.995 544.949C273.671 544.949 273.348 544.884 273.088 544.819C272.246 544.625 271.599 543.913 271.599 543.006L271.664 540.35C271.664 539.897 271.275 539.573 270.886 539.573C270.627 539.573 270.303 539.897 270.303 540.35ZM278.27 546.633L276.197 548.77L276.133 546.568L278.27 546.633Z" fill="url(#paint36_linear_6030_782)"/>
<path d="M270.498 507.707L270.433 510.427C270.498 511.593 271.016 512.629 271.858 513.277C270.951 513.989 270.563 514.961 270.498 515.673L270.433 519.948C270.433 520.207 270.627 520.466 270.822 520.596C270.951 520.661 271.016 520.661 271.146 520.661C271.534 520.661 271.923 520.272 271.923 519.819V515.673C271.988 515.544 272.247 514.054 274.19 513.925C274.319 513.925 274.384 513.925 274.514 513.925L274.449 517.94C274.449 518.264 274.643 518.588 274.902 518.653C275.226 518.782 275.55 518.717 275.744 518.458L276.78 517.357L280.472 513.601C280.667 513.277 280.731 513.018 280.667 512.759C280.602 512.5 280.213 512.305 279.954 512.305L276.003 512.241L276.068 508.354C276.068 507.901 275.679 507.577 275.291 507.577C274.837 507.577 274.384 507.966 274.449 508.354L274.384 512.241H274.319C274.254 512.176 274.19 512.176 274.125 512.241C273.801 512.241 273.477 512.176 273.218 512.111C272.376 511.917 271.728 511.204 271.728 510.233L271.793 507.512C271.793 507.059 271.405 506.606 271.016 506.67C270.822 506.865 270.433 507.189 270.498 507.707ZM278.335 513.86L276.521 515.803L276.262 516.062L276.198 513.86H278.335Z" fill="url(#paint37_linear_6030_782)"/>
<path d="M270.692 474.934L270.627 477.654C270.627 478.69 271.08 479.532 271.599 480.115C271.728 480.245 271.858 480.374 271.987 480.439C271.016 481.152 270.627 482.188 270.562 482.9L270.498 487.175C270.498 487.564 270.886 487.952 271.34 487.952C271.793 487.952 272.117 487.564 272.117 487.175V483.03C272.117 482.836 272.441 481.346 274.384 481.281H274.708L274.643 485.297C274.643 485.685 274.837 485.944 275.096 486.009C275.42 486.139 275.744 486.074 275.938 485.815L280.666 480.957C280.861 480.698 280.861 480.374 280.861 480.18V480.115C280.731 479.856 280.407 479.662 280.148 479.662L276.197 479.597L276.262 475.711C276.262 475.258 275.873 474.934 275.485 474.934C275.031 474.934 274.578 475.322 274.643 475.711L274.578 479.597C274.448 479.532 274.384 479.597 274.319 479.597C273.995 479.597 273.671 479.532 273.412 479.468C272.57 479.273 271.922 478.561 271.922 477.654L271.987 474.934C271.987 474.48 271.599 474.156 271.21 474.156C270.951 474.221 270.562 474.48 270.692 474.934ZM278.594 481.216L276.521 483.354L276.456 481.152L278.594 481.216Z" fill="url(#paint38_linear_6030_782)"/>
<path d="M270.886 442.29L270.822 445.01C270.886 446.176 271.405 447.213 272.247 447.86C271.275 448.573 270.886 449.609 270.822 450.322L270.757 454.596C270.757 454.985 271.145 455.374 271.599 455.374C272.052 455.374 272.376 454.985 272.376 454.596V450.451C272.441 450.322 272.7 448.767 274.643 448.702H274.967L274.902 452.718C274.902 453.042 275.096 453.366 275.42 453.495C275.744 453.625 276.003 453.43 276.262 453.236L280.99 448.378C281.249 448.184 281.249 447.796 281.12 447.472C280.99 447.213 280.666 447.018 280.407 447.018L276.456 446.954L276.521 443.067C276.521 442.614 276.133 442.29 275.744 442.29C275.291 442.29 274.837 442.679 274.902 443.067L274.837 446.954C274.708 446.889 274.643 446.954 274.578 446.954C274.254 446.954 273.931 446.889 273.671 446.824C272.829 446.63 272.182 445.917 272.182 445.01L272.247 442.29C272.247 441.837 271.858 441.513 271.469 441.513C271.145 441.578 270.822 441.837 270.886 442.29ZM278.723 448.508L276.651 450.645L276.586 448.443L278.723 448.508Z" fill="url(#paint39_linear_6030_782)"/>
<path d="M271.016 409.647L270.951 412.367C271.016 413.533 271.534 414.569 272.376 415.217C271.404 415.929 271.016 416.966 270.951 417.678L270.886 421.953C270.886 422.341 271.275 422.73 271.728 422.73C272.182 422.73 272.505 422.341 272.505 421.953V417.808C272.57 417.678 272.829 416.188 274.772 416.059C274.902 416.059 274.967 416.059 275.096 416.059L275.031 420.074C275.031 420.398 275.226 420.722 275.485 420.787C275.809 420.916 276.133 420.852 276.327 420.528L281.055 415.67C281.314 415.411 281.314 415.087 281.249 414.828C281.12 414.569 280.796 414.375 280.537 414.375L276.586 414.31V410.489C276.586 410.035 276.197 409.582 275.809 409.647C275.355 409.711 274.902 410.035 274.967 410.489V414.31C274.837 414.245 274.772 414.31 274.708 414.31C274.384 414.31 274.06 414.245 273.801 414.18C272.959 413.986 272.311 413.274 272.311 412.367L272.376 409.647C272.376 409.193 271.987 408.869 271.599 408.869C271.275 408.869 270.886 409.193 271.016 409.647ZM278.982 415.8L276.91 417.937L276.845 415.735L278.982 415.8Z" fill="url(#paint40_linear_6030_782)"/>
<path d="M271.08 376.873L271.016 379.594C271.08 380.76 271.599 381.796 272.441 382.444C271.534 383.156 271.145 384.128 271.08 384.84L271.016 389.115C271.016 389.503 271.404 390.022 271.858 389.957C272.246 389.957 272.635 389.568 272.635 389.115V384.97C272.7 384.84 272.959 383.35 274.902 383.221C275.031 383.221 275.096 383.221 275.226 383.221L275.161 387.237C275.161 387.625 275.355 387.884 275.614 387.949C275.938 388.079 276.262 388.014 276.456 387.755L281.184 382.897C281.379 382.573 281.443 382.314 281.314 381.99C281.184 381.731 280.861 381.537 280.601 381.537L276.651 381.472L276.715 377.586C276.715 377.133 276.391 376.809 275.938 376.809C275.485 376.809 275.031 377.197 275.096 377.586L275.031 381.472C274.902 381.407 274.837 381.472 274.772 381.472C274.448 381.472 274.125 381.407 273.865 381.343C273.023 381.148 272.376 380.436 272.376 379.464L272.441 376.744C272.441 376.291 272.052 375.837 271.663 375.902C271.534 376.161 271.145 376.485 271.08 376.873ZM279.112 383.156L277.039 385.293L276.974 383.091L279.112 383.156Z" fill="url(#paint41_linear_6030_782)"/>
<path d="M271.34 344.295L271.275 347.015C271.34 348.181 271.858 349.217 272.7 349.865C271.728 350.577 271.34 351.614 271.275 352.326L271.21 356.601C271.21 356.989 271.599 357.378 272.052 357.378C272.505 357.378 272.829 356.989 272.829 356.601V352.456C272.829 352.261 273.153 350.772 275.096 350.707H275.42L275.355 354.722C275.355 355.111 275.549 355.37 275.809 355.435C276.132 355.564 276.456 355.5 276.651 355.241L281.379 350.383C281.638 350.189 281.638 349.8 281.508 349.476C281.379 349.217 281.055 349.023 280.796 349.023L276.845 348.958L276.91 345.072C276.91 344.619 276.586 344.295 276.132 344.295C275.679 344.295 275.226 344.683 275.29 345.072L275.226 348.958C275.096 348.893 275.031 348.958 274.967 348.958C274.643 348.958 274.319 348.893 274.06 348.829C273.218 348.634 272.57 347.922 272.57 347.015L272.635 344.295C272.635 343.841 272.246 343.517 271.858 343.517C271.663 343.453 271.275 343.777 271.34 344.295ZM279.241 350.448L277.169 352.585L277.104 350.383L279.241 350.448Z" fill="url(#paint42_linear_6030_782)"/>
<path d="M271.469 311.586L271.405 314.307C271.469 315.473 271.988 316.509 272.83 317.157C271.858 317.869 271.469 318.905 271.405 319.618L271.34 323.892C271.34 324.281 271.728 324.67 272.182 324.67C272.635 324.67 272.959 324.281 272.959 323.892V319.747C273.024 319.618 273.283 318.063 275.226 317.999H275.55L275.485 322.014C275.485 322.338 275.679 322.662 276.003 322.791C276.327 322.921 276.586 322.727 276.845 322.532L281.573 317.675C281.832 317.48 281.832 317.092 281.703 316.768C281.573 316.509 281.249 316.315 280.99 316.315L277.04 316.25L277.104 312.364C277.104 311.91 276.716 311.586 276.327 311.586C275.874 311.586 275.42 311.975 275.485 312.364L275.42 316.25C275.291 316.185 275.226 316.25 275.161 316.25C274.837 316.25 274.514 316.185 274.254 316.12C273.412 315.926 272.765 315.213 272.765 314.307L272.83 311.586C272.83 311.133 272.441 310.809 272.052 310.809C271.728 310.744 271.469 311.133 271.469 311.586ZM279.436 317.739L277.363 319.877L277.299 317.675L279.436 317.739Z" fill="url(#paint43_linear_6030_782)"/>
<path d="M243.878 523.899L243.813 526.619C243.878 527.785 244.396 528.822 245.238 529.469C244.266 530.182 243.878 531.218 243.813 531.93L243.748 536.205C243.748 536.659 244.137 536.982 244.525 536.982C244.979 536.982 245.432 536.594 245.367 536.205V535.493V531.995C245.367 531.801 245.691 530.311 247.634 530.246H247.958L247.893 534.262C247.893 534.651 248.088 534.91 248.347 534.975C248.67 535.104 248.994 535.039 249.189 534.78L253.917 529.923C254.176 529.664 254.176 529.34 254.111 529.081C253.982 528.822 253.658 528.627 253.399 528.627L249.512 528.562L249.707 524.806C249.707 524.417 249.318 524.029 248.865 524.029C248.411 524.029 248.088 524.417 248.088 524.806L248.023 528.692C247.893 528.627 247.828 528.692 247.764 528.692C247.44 528.692 247.116 528.627 246.857 528.562C246.015 528.368 245.367 527.656 245.367 526.749L245.432 524.029C245.432 523.64 245.043 523.251 244.59 523.251C244.201 523.122 243.813 523.446 243.878 523.899ZM251.779 530.117L249.707 532.254L249.642 530.052L251.779 530.117Z" fill="url(#paint44_linear_6030_782)"/>
<path d="M244.007 491.255L243.942 493.976C244.007 495.142 244.525 496.178 245.367 496.826C244.396 497.538 244.007 498.574 243.942 499.287L243.877 503.562C243.877 504.015 244.266 504.339 244.655 504.339C245.108 504.339 245.561 503.95 245.497 503.562V499.416C245.561 499.287 245.821 497.732 247.764 497.668H248.087L248.023 501.683C248.023 502.007 248.217 502.331 248.541 502.46C248.865 502.59 249.124 502.396 249.383 502.201L254.111 497.344C254.37 497.085 254.37 496.761 254.305 496.502C254.176 496.243 253.852 496.048 253.593 496.048L249.707 495.984L249.771 492.097C249.771 491.709 249.383 491.32 248.929 491.32C248.476 491.32 248.152 491.709 248.152 492.097L248.087 495.984C247.958 495.919 247.893 495.984 247.828 495.984C247.505 495.984 247.181 495.919 246.922 495.854C246.08 495.66 245.432 494.947 245.432 494.041L245.497 491.32C245.497 490.932 245.108 490.543 244.655 490.543C244.331 490.478 244.007 490.802 244.007 491.255ZM251.909 497.408L249.836 499.546L249.771 497.344L251.909 497.408Z" fill="url(#paint45_linear_6030_782)"/>
<path d="M244.137 458.547L244.072 461.267C244.137 462.433 244.655 463.47 245.497 464.117C244.525 464.83 244.137 465.866 244.072 466.578L244.007 470.853C244.007 471.307 244.396 471.63 244.785 471.63C245.238 471.63 245.691 471.242 245.627 470.853V466.708C245.691 466.578 245.95 465.089 247.893 464.959C248.023 464.959 248.153 464.959 248.217 464.959L248.153 468.975C248.153 469.299 248.347 469.623 248.606 469.687C248.93 469.817 249.254 469.752 249.448 469.428L254.176 464.571C254.435 464.312 254.435 463.988 254.37 463.729C254.241 463.47 253.917 463.275 253.658 463.275L249.772 463.211V459.389C249.772 459.001 249.383 458.482 248.93 458.547C248.541 458.547 248.153 458.936 248.153 459.389V463.211C248.023 463.146 247.958 463.211 247.893 463.211C247.57 463.211 247.246 463.146 246.987 463.081C246.145 462.887 245.497 462.174 245.497 461.267L245.562 458.547C245.562 458.159 245.173 457.77 244.72 457.77C244.461 457.77 244.137 458.094 244.137 458.547ZM252.103 464.765L250.031 466.902L249.966 464.7L252.103 464.765Z" fill="url(#paint46_linear_6030_782)"/>
<path d="M244.331 425.839L244.266 428.559C244.331 429.725 244.849 430.761 245.691 431.409C244.784 432.121 244.396 433.093 244.331 433.805L244.266 438.08C244.266 438.534 244.655 438.987 245.043 438.922C245.432 438.922 245.95 438.534 245.885 438.08V433.935C245.95 433.805 246.209 432.316 248.152 432.186C248.282 432.186 248.411 432.186 248.476 432.186L248.411 436.202C248.411 436.526 248.606 436.85 248.865 436.914C249.189 437.044 249.512 436.979 249.707 436.72L254.435 431.862C254.629 431.538 254.694 431.279 254.629 431.02C254.5 430.761 254.176 430.567 253.917 430.567L250.031 430.502L250.095 426.616C250.095 426.227 249.707 425.839 249.253 425.839C248.8 425.839 248.476 426.227 248.476 426.616L248.411 430.502C248.282 430.437 248.217 430.502 248.152 430.502C247.828 430.502 247.505 430.437 247.245 430.373C246.403 430.178 245.756 429.466 245.756 428.494L245.821 425.774C245.821 425.385 245.432 424.867 244.979 424.932C244.719 425.062 244.331 425.45 244.331 425.839ZM252.233 432.121L250.16 434.259L250.095 432.057L252.233 432.121Z" fill="url(#paint47_linear_6030_782)"/>
<path d="M244.461 393.195L244.396 395.916C244.461 397.081 244.979 398.118 245.821 398.765C244.849 399.478 244.461 400.514 244.396 401.227L244.331 405.501C244.331 405.955 244.72 406.279 245.108 406.279C245.562 406.279 246.015 405.89 245.95 405.501V401.356C245.95 401.162 246.274 399.672 248.217 399.607H248.541L248.476 403.623C248.476 404.012 248.671 404.271 248.93 404.336C249.253 404.465 249.577 404.4 249.772 404.141L254.5 399.284C254.759 399.025 254.759 398.701 254.694 398.442C254.565 398.183 254.241 397.988 253.982 397.988L250.096 397.923L250.16 394.037C250.16 393.649 249.772 393.26 249.318 393.26C248.865 393.26 248.541 393.649 248.541 394.037L248.476 397.923C248.347 397.859 248.282 397.923 248.217 397.923C247.893 397.923 247.57 397.859 247.31 397.794C246.468 397.6 245.821 396.887 245.821 395.98L245.886 393.26C245.886 392.871 245.497 392.483 245.044 392.483C244.849 392.353 244.525 392.742 244.461 393.195ZM252.492 399.413L250.419 401.551L250.355 399.348L252.492 399.413Z" fill="url(#paint48_linear_6030_782)"/>
<path d="M244.655 360.487L244.59 363.207C244.655 364.373 245.173 365.409 246.015 366.057C245.044 366.77 244.655 367.806 244.59 368.518L244.525 372.793C244.525 373.246 244.849 373.57 245.303 373.57C245.756 373.57 246.209 373.182 246.145 372.793V368.648C246.209 368.518 246.468 366.964 248.412 366.899H248.735L248.671 370.915C248.671 371.239 248.865 371.562 249.189 371.692C249.513 371.822 249.772 371.627 250.031 371.433L254.759 366.575C255.018 366.316 255.018 365.992 254.953 365.733C254.824 365.474 254.5 365.28 254.241 365.28L250.355 365.215L250.419 361.329C250.419 360.94 250.031 360.552 249.577 360.552C249.124 360.552 248.8 360.94 248.8 361.329L248.735 365.215C248.606 365.15 248.541 365.215 248.476 365.215C248.152 365.215 247.829 365.15 247.57 365.086C246.728 364.891 246.08 364.179 246.08 363.272L246.145 360.552C246.145 360.163 245.756 359.775 245.303 359.775C245.044 359.71 244.72 360.098 244.655 360.487ZM252.622 366.705L250.549 368.842L250.484 366.64L252.622 366.705Z" fill="url(#paint49_linear_6030_782)"/>
<path d="M244.849 327.843L244.784 330.564C244.849 331.73 245.367 332.766 246.209 333.414C245.238 334.126 244.849 335.162 244.784 335.875L244.72 340.149C244.72 340.603 245.044 340.927 245.497 340.927C245.95 340.927 246.404 340.538 246.339 340.149V336.004C246.404 335.875 246.663 334.385 248.606 334.256C248.735 334.256 248.865 334.256 248.93 334.256L248.865 338.271C248.865 338.595 249.059 338.919 249.318 338.984C249.642 339.113 249.966 339.048 250.16 338.725L254.888 333.867C255.148 333.608 255.148 333.284 255.083 333.025C254.953 332.766 254.629 332.572 254.37 332.572L250.484 332.507V328.685C250.484 328.297 250.096 327.779 249.642 327.843C249.254 327.843 248.865 328.232 248.865 328.685V332.507C248.735 332.442 248.671 332.507 248.606 332.507C248.282 332.507 247.958 332.442 247.699 332.377C246.857 332.183 246.209 331.47 246.209 330.564L246.274 327.843C246.274 327.455 245.886 326.937 245.432 327.001C245.173 327.001 244.849 327.39 244.849 327.843ZM252.751 333.996L250.678 336.134L250.614 333.932L252.751 333.996Z" fill="url(#paint50_linear_6030_782)"/>
<path d="M245.044 307.247C244.979 307.7 245.368 308.154 245.821 308.089C246.21 308.089 246.728 307.7 246.663 307.247L246.728 303.685H245.108L245.044 307.247Z" fill="url(#paint51_linear_6030_782)"/>
<path d="M249.642 306.081C249.966 306.211 250.29 306.146 250.484 305.887L252.557 303.749H249.059V305.369C249.189 305.692 249.448 306.016 249.642 306.081Z" fill="url(#paint52_linear_6030_782)"/>
<path d="M366.679 452.394C362.729 446.694 358.519 441.254 352.625 437.951C347.314 434.907 346.795 435.23 345.5 441.578C343.686 450.062 342.262 458.547 337.533 466.125C335.72 468.975 335.137 473.185 334.813 476.942C334.23 483.483 338.116 488.082 342.262 491.838C350.422 499.287 357.547 498.121 361.628 488.6C364.348 482.317 366.291 475.646 368.428 469.169C369.011 467.615 370.566 457.899 366.679 452.394Z" fill="#DFE5F4" stroke="white" stroke-width="2" stroke-miterlimit="10"/>
<path d="M371.602 542.358C370.76 537.63 368.623 533.55 365.19 529.858C359.037 535.428 352.366 536.464 345.435 533.096C343.492 532.189 342.326 532.578 341.031 533.809C336.303 538.148 331.316 542.423 326.911 547.086C324.968 549.094 322.831 551.814 322.507 554.599C321.795 560.752 330.15 570.079 335.979 570.727C341.614 571.31 346.925 569.755 352.106 567.553C361.045 563.667 368.04 557.579 371.343 547.345C371.602 545.791 371.926 543.913 371.602 542.358Z" fill="#DFE5F4" stroke="white" stroke-width="2" stroke-miterlimit="10"/>
<path d="M375.488 506.088C374.387 497.862 369.464 492.357 364.024 486.786C363.311 488.147 362.793 489.248 362.21 490.284C358.648 496.631 353.92 499.222 348.803 497.538C347.184 497.02 345.306 495.789 344.14 496.243C342.78 496.761 341.938 499.028 340.772 500.517C340.577 500.777 340.318 501.1 340.124 501.359C336.497 506.93 333.971 512.37 336.173 519.689C338.699 527.526 343.039 532.319 350.487 533.614C356.77 534.651 362.146 532.449 366.032 526.814C369.011 522.539 371.731 518.07 373.998 513.406C375.099 511.269 375.747 508.354 375.488 506.088Z" fill="#DFE5F4" stroke="white" stroke-width="2" stroke-miterlimit="10"/>
<path d="M335.591 548.252C340.513 548.641 346.342 554.017 346.99 557.967C347.119 558.55 347.119 559.133 346.99 559.651C346.277 563.732 338.181 569.302 334.23 565.481C332.676 563.991 330.798 562.76 329.567 561.076C328.207 559.263 326.976 557.125 328.466 554.599C330.474 551.232 332.676 548.123 335.591 548.252Z" fill="#EBEEF7"/>
<path d="M360.332 521.503C359.296 523.381 358.26 525.842 356.576 527.72C355.798 528.627 353.402 528.951 352.56 528.303C349.192 525.972 345.759 523.575 343.168 520.466C340.189 516.969 343.233 508.16 347.637 507.448C349.321 507.253 351.718 508.29 352.949 509.585C355.539 512.111 357.547 515.285 359.814 518.329C360.073 519.041 360.008 520.013 360.332 521.503Z" fill="#EBEEF7"/>
<path d="M345.824 468.716C353.79 469.104 360.138 480.439 356.575 486.657C354.438 490.349 352.301 491.061 348.933 488.924C346.99 487.758 345.046 486.333 343.362 484.714C338.116 479.856 339.865 474.416 343.298 470.011C344.01 469.104 345.435 468.91 345.824 468.716Z" fill="#EBEEF7"/>
<path d="M290.252 640.678C280.925 649.81 263.762 650.587 252.686 642.297C239.668 632.646 236.364 615.223 244.979 601.428C245.497 600.65 250.29 592.554 259.94 589.316C260.005 590.093 259.876 590.87 260.005 591.583C261.56 596.635 262.855 601.816 264.798 606.739C266.417 610.819 268.749 614.64 270.822 618.591C268.749 620.793 266.741 622.996 264.474 625.392C261.883 622.672 259.422 620.275 257.091 617.879C255.925 616.648 254.629 616.001 253.269 617.296C251.844 618.591 252.492 619.887 253.723 621.117C256.572 623.838 259.293 626.687 262.142 629.473C263.956 631.286 265.057 631.286 266.871 629.537C269.073 627.465 271.21 625.327 273.348 623.19C277.169 627.4 280.861 631.61 284.812 635.69C286.431 637.569 288.374 639.058 290.252 640.678Z" fill="#70E2AE"/>
<path d="M290.252 640.677C288.439 639.058 286.431 637.569 284.812 635.82C280.925 631.739 277.169 627.465 273.347 623.319C273.542 623.06 273.736 622.801 273.93 622.607C278.464 618.073 282.998 613.475 287.597 608.941C288.762 607.775 289.021 606.544 287.791 605.314C286.56 604.213 285.394 604.601 284.293 605.637C282.933 607.062 281.573 608.358 280.213 609.718C277.104 612.762 273.995 615.741 270.886 618.721C268.878 614.77 266.482 610.949 264.863 606.868C262.92 601.946 261.624 596.764 260.07 591.712C259.811 591 260.005 590.158 260.005 589.445C265.705 586.854 271.663 587.114 277.622 588.215C283.451 589.316 288.115 592.619 292.454 596.375C292.778 596.699 293.037 596.958 293.361 597.282C295.498 601.298 298.348 605.055 299.579 609.265C302.882 620.146 300.291 630.055 292.713 638.54C291.936 639.382 291.029 639.965 290.252 640.677Z" fill="#8DE8BE"/>
<path d="M270.757 618.721C273.865 615.741 276.974 612.762 280.083 609.718C281.508 608.358 282.804 606.998 284.164 605.637C285.265 604.536 286.431 604.212 287.661 605.314C288.957 606.544 288.633 607.775 287.467 608.941C282.933 613.474 278.335 618.008 273.801 622.607C273.542 622.866 273.412 623.06 273.218 623.319C271.08 625.392 268.878 627.529 266.741 629.667C264.927 631.415 263.826 631.415 262.013 629.602C259.228 626.817 256.443 623.967 253.593 621.247C252.362 620.016 251.779 618.721 253.139 617.425C254.5 616.195 255.795 616.778 256.961 618.008C259.357 620.47 261.689 622.866 264.344 625.522C266.676 623.06 268.684 620.858 270.757 618.721Z" fill="#FCFEFD"/>
</g>
<defs>
<linearGradient id="paint0_linear_6030_782" x1="291.282" y1="433.063" x2="201.953" y2="432.617" gradientUnits="userSpaceOnUse">
<stop offset="0.1229" stop-color="#A5D1FA"/>
<stop offset="0.8347" stop-color="#C2E7E5"/>
</linearGradient>
<linearGradient id="paint1_linear_6030_782" x1="297.716" y1="550.464" x2="395.601" y2="564.754" gradientUnits="userSpaceOnUse">
<stop stop-color="#B2C0CA"/>
<stop offset="0.8347" stop-color="#C3C3E6"/>
</linearGradient>
<linearGradient id="paint2_linear_6030_782" x1="271.733" y1="513.749" x2="367.46" y2="527.723" gradientUnits="userSpaceOnUse">
<stop stop-color="#B2C0CA"/>
<stop offset="0.8347" stop-color="#C3C3E6"/>
</linearGradient>
<linearGradient id="paint3_linear_6030_782" x1="245.919" y1="477.409" x2="343.465" y2="491.649" gradientUnits="userSpaceOnUse">
<stop stop-color="#B2C0CA"/>
<stop offset="0.8347" stop-color="#C3C3E6"/>
</linearGradient>
<linearGradient id="paint4_linear_6030_782" x1="220.058" y1="440.93" x2="317.609" y2="455.17" gradientUnits="userSpaceOnUse">
<stop stop-color="#B2C0CA"/>
<stop offset="0.8347" stop-color="#C3C3E6"/>
</linearGradient>
<linearGradient id="paint5_linear_6030_782" x1="194.287" y1="404.495" x2="291.683" y2="418.714" gradientUnits="userSpaceOnUse">
<stop stop-color="#B2C0CA"/>
<stop offset="0.8347" stop-color="#C3C3E6"/>
</linearGradient>
<linearGradient id="paint6_linear_6030_782" x1="169.629" y1="368.076" x2="265.877" y2="382.127" gradientUnits="userSpaceOnUse">
<stop stop-color="#B2C0CA"/>
<stop offset="0.8347" stop-color="#C3C3E6"/>
</linearGradient>
<linearGradient id="paint7_linear_6030_782" x1="142.292" y1="331.511" x2="239.967" y2="345.77" gradientUnits="userSpaceOnUse">
<stop stop-color="#B2C0CA"/>
<stop offset="0.8347" stop-color="#C3C3E6"/>
</linearGradient>
<linearGradient id="paint8_linear_6030_782" x1="116.596" y1="295.028" x2="214.145" y2="309.268" gradientUnits="userSpaceOnUse">
<stop stop-color="#B2C0CA"/>
<stop offset="0.8347" stop-color="#C3C3E6"/>
</linearGradient>
<linearGradient id="paint9_linear_6030_782" x1="259.23" y1="532.258" x2="357.043" y2="546.537" gradientUnits="userSpaceOnUse">
<stop stop-color="#B2C0CA"/>
<stop offset="0.8347" stop-color="#C3C3E6"/>
</linearGradient>
<linearGradient id="paint10_linear_6030_782" x1="233.267" y1="495.779" x2="331.205" y2="510.076" gradientUnits="userSpaceOnUse">
<stop stop-color="#B2C0CA"/>
<stop offset="0.8347" stop-color="#C3C3E6"/>
</linearGradient>
<linearGradient id="paint11_linear_6030_782" x1="207.5" y1="459.262" x2="304.869" y2="473.476" gradientUnits="userSpaceOnUse">
<stop stop-color="#B2C0CA"/>
<stop offset="0.8347" stop-color="#C3C3E6"/>
</linearGradient>
<linearGradient id="paint12_linear_6030_782" x1="182.284" y1="422.77" x2="278.69" y2="436.844" gradientUnits="userSpaceOnUse">
<stop stop-color="#B2C0CA"/>
<stop offset="0.8347" stop-color="#C3C3E6"/>
</linearGradient>
<linearGradient id="paint13_linear_6030_782" x1="155.411" y1="386.291" x2="253.319" y2="400.584" gradientUnits="userSpaceOnUse">
<stop stop-color="#B2C0CA"/>
<stop offset="0.8347" stop-color="#C3C3E6"/>
</linearGradient>
<linearGradient id="paint14_linear_6030_782" x1="129.314" y1="349.741" x2="227.321" y2="364.049" gradientUnits="userSpaceOnUse">
<stop stop-color="#B2C0CA"/>
<stop offset="0.8347" stop-color="#C3C3E6"/>
</linearGradient>
<linearGradient id="paint15_linear_6030_782" x1="104.963" y1="313.447" x2="201.841" y2="327.59" gradientUnits="userSpaceOnUse">
<stop stop-color="#B2C0CA"/>
<stop offset="0.8347" stop-color="#C3C3E6"/>
</linearGradient>
<linearGradient id="paint16_linear_6030_782" x1="234.65" y1="516.077" x2="241.21" y2="393.916" gradientUnits="userSpaceOnUse">
<stop stop-color="#B2C0CA"/>
<stop offset="0.8347" stop-color="#C3C3E6"/>
</linearGradient>
<linearGradient id="paint17_linear_6030_782" x1="239.458" y1="516.335" x2="246.018" y2="394.174" gradientUnits="userSpaceOnUse">
<stop stop-color="#B2C0CA"/>
<stop offset="0.8347" stop-color="#C3C3E6"/>
</linearGradient>
<linearGradient id="paint18_linear_6030_782" x1="204.746" y1="432.631" x2="295.957" y2="433.086" gradientUnits="userSpaceOnUse">
<stop offset="0.1229" stop-color="#A5D1FA"/>
<stop offset="0.8347" stop-color="#C2E7E5"/>
</linearGradient>
<linearGradient id="paint19_linear_6030_782" x1="297.654" y1="550.403" x2="395.541" y2="564.692" gradientUnits="userSpaceOnUse">
<stop stop-color="#EED082"/>
<stop offset="0.8347" stop-color="#C39EE6"/>
</linearGradient>
<linearGradient id="paint20_linear_6030_782" x1="271.651" y1="513.746" x2="367.512" y2="527.74" gradientUnits="userSpaceOnUse">
<stop stop-color="#EED082"/>
<stop offset="0.8347" stop-color="#C39EE6"/>
</linearGradient>
<linearGradient id="paint21_linear_6030_782" x1="245.857" y1="477.345" x2="343.405" y2="491.585" gradientUnits="userSpaceOnUse">
<stop stop-color="#EED082"/>
<stop offset="0.8347" stop-color="#C39EE6"/>
</linearGradient>
<linearGradient id="paint22_linear_6030_782" x1="219.988" y1="440.919" x2="317.54" y2="455.16" gradientUnits="userSpaceOnUse">
<stop stop-color="#EED082"/>
<stop offset="0.8347" stop-color="#C39EE6"/>
</linearGradient>
<linearGradient id="paint23_linear_6030_782" x1="194.094" y1="404.477" x2="291.627" y2="418.715" gradientUnits="userSpaceOnUse">
<stop stop-color="#EED082"/>
<stop offset="0.8347" stop-color="#C39EE6"/>
</linearGradient>
<linearGradient id="paint24_linear_6030_782" x1="169.567" y1="368.011" x2="265.815" y2="382.062" gradientUnits="userSpaceOnUse">
<stop stop-color="#EED082"/>
<stop offset="0.8347" stop-color="#C39EE6"/>
</linearGradient>
<linearGradient id="paint25_linear_6030_782" x1="142.221" y1="331.51" x2="239.896" y2="345.769" gradientUnits="userSpaceOnUse">
<stop stop-color="#EED082"/>
<stop offset="0.8347" stop-color="#C39EE6"/>
</linearGradient>
<linearGradient id="paint26_linear_6030_782" x1="116.517" y1="295.025" x2="214.071" y2="309.267" gradientUnits="userSpaceOnUse">
<stop stop-color="#EED082"/>
<stop offset="0.8347" stop-color="#C39EE6"/>
</linearGradient>
<linearGradient id="paint27_linear_6030_782" x1="259.229" y1="532.258" x2="357.054" y2="546.539" gradientUnits="userSpaceOnUse">
<stop stop-color="#EED082"/>
<stop offset="0.8347" stop-color="#C39EE6"/>
</linearGradient>
<linearGradient id="paint28_linear_6030_782" x1="233.265" y1="495.778" x2="331.208" y2="510.076" gradientUnits="userSpaceOnUse">
<stop stop-color="#EED082"/>
<stop offset="0.8347" stop-color="#C39EE6"/>
</linearGradient>
<linearGradient id="paint29_linear_6030_782" x1="207.497" y1="459.262" x2="304.87" y2="473.476" gradientUnits="userSpaceOnUse">
<stop stop-color="#EED082"/>
<stop offset="0.8347" stop-color="#C39EE6"/>
</linearGradient>
<linearGradient id="paint30_linear_6030_782" x1="182.279" y1="422.77" x2="278.69" y2="436.844" gradientUnits="userSpaceOnUse">
<stop stop-color="#EED082"/>
<stop offset="0.8347" stop-color="#C39EE6"/>
</linearGradient>
<linearGradient id="paint31_linear_6030_782" x1="155.404" y1="386.287" x2="253.319" y2="400.581" gradientUnits="userSpaceOnUse">
<stop stop-color="#EED082"/>
<stop offset="0.8347" stop-color="#C39EE6"/>
</linearGradient>
<linearGradient id="paint32_linear_6030_782" x1="129.283" y1="349.737" x2="227.314" y2="364.048" gradientUnits="userSpaceOnUse">
<stop stop-color="#EED082"/>
<stop offset="0.8347" stop-color="#C39EE6"/>
</linearGradient>
<linearGradient id="paint33_linear_6030_782" x1="104.958" y1="313.446" x2="201.838" y2="327.589" gradientUnits="userSpaceOnUse">
<stop stop-color="#EED082"/>
<stop offset="0.8347" stop-color="#C39EE6"/>
</linearGradient>
<linearGradient id="paint34_linear_6030_782" x1="234.582" y1="516.075" x2="241.142" y2="393.914" gradientUnits="userSpaceOnUse">
<stop stop-color="#EED082"/>
<stop offset="0.8347" stop-color="#C39EE6"/>
</linearGradient>
<linearGradient id="paint35_linear_6030_782" x1="239.393" y1="516.333" x2="245.953" y2="394.172" gradientUnits="userSpaceOnUse">
<stop stop-color="#EED082"/>
<stop offset="0.8347" stop-color="#C39EE6"/>
</linearGradient>
<linearGradient id="paint36_linear_6030_782" x1="442.149" y1="413.951" x2="235.467" y2="574.783" gradientUnits="userSpaceOnUse">
<stop stop-color="#EED082"/>
<stop offset="1" stop-color="#C39EE6"/>
</linearGradient>
<linearGradient id="paint37_linear_6030_782" x1="425.126" y1="394.496" x2="218.542" y2="555.253" gradientUnits="userSpaceOnUse">
<stop stop-color="#EED082"/>
<stop offset="1" stop-color="#C39EE6"/>
</linearGradient>
<linearGradient id="paint38_linear_6030_782" x1="408.812" y1="374.72" x2="201.641" y2="535.934" gradientUnits="userSpaceOnUse">
<stop stop-color="#EED082"/>
<stop offset="1" stop-color="#C39EE6"/>
</linearGradient>
<linearGradient id="paint39_linear_6030_782" x1="391.605" y1="355.698" x2="185.12" y2="516.378" gradientUnits="userSpaceOnUse">
<stop stop-color="#EED082"/>
<stop offset="1" stop-color="#C39EE6"/>
</linearGradient>
<linearGradient id="paint40_linear_6030_782" x1="374.713" y1="336.254" x2="168.174" y2="496.975" gradientUnits="userSpaceOnUse">
<stop stop-color="#EED082"/>
<stop offset="1" stop-color="#C39EE6"/>
</linearGradient>
<linearGradient id="paint41_linear_6030_782" x1="357.873" y1="316.623" x2="151.21" y2="477.442" gradientUnits="userSpaceOnUse">
<stop stop-color="#EED082"/>
<stop offset="1" stop-color="#C39EE6"/>
</linearGradient>
<linearGradient id="paint42_linear_6030_782" x1="340.741" y1="297.594" x2="135.287" y2="457.471" gradientUnits="userSpaceOnUse">
<stop stop-color="#EED082"/>
<stop offset="1" stop-color="#C39EE6"/>
</linearGradient>
<linearGradient id="paint43_linear_6030_782" x1="324.061" y1="277.985" x2="118.395" y2="438.028" gradientUnits="userSpaceOnUse">
<stop stop-color="#EED082"/>
<stop offset="1" stop-color="#C39EE6"/>
</linearGradient>
<linearGradient id="paint44_linear_6030_782" x1="421.614" y1="392.914" x2="216.578" y2="552.466" gradientUnits="userSpaceOnUse">
<stop stop-color="#EED082"/>
<stop offset="1" stop-color="#C39EE6"/>
</linearGradient>
<linearGradient id="paint45_linear_6030_782" x1="405.861" y1="372.67" x2="199.698" y2="533.099" gradientUnits="userSpaceOnUse">
<stop stop-color="#EED082"/>
<stop offset="1" stop-color="#C39EE6"/>
</linearGradient>
<linearGradient id="paint46_linear_6030_782" x1="389.552" y1="352.715" x2="182.621" y2="513.741" gradientUnits="userSpaceOnUse">
<stop stop-color="#EED082"/>
<stop offset="1" stop-color="#C39EE6"/>
</linearGradient>
<linearGradient id="paint47_linear_6030_782" x1="372.621" y1="333.343" x2="165.84" y2="494.253" gradientUnits="userSpaceOnUse">
<stop stop-color="#EED082"/>
<stop offset="1" stop-color="#C39EE6"/>
</linearGradient>
<linearGradient id="paint48_linear_6030_782" x1="355.091" y1="314.458" x2="149.64" y2="474.334" gradientUnits="userSpaceOnUse">
<stop stop-color="#EED082"/>
<stop offset="1" stop-color="#C39EE6"/>
</linearGradient>
<linearGradient id="paint49_linear_6030_782" x1="338.735" y1="294.668" x2="132.485" y2="455.165" gradientUnits="userSpaceOnUse">
<stop stop-color="#EED082"/>
<stop offset="1" stop-color="#C39EE6"/>
</linearGradient>
<linearGradient id="paint50_linear_6030_782" x1="321.963" y1="275.137" x2="115.62" y2="435.705" gradientUnits="userSpaceOnUse">
<stop stop-color="#EED082"/>
<stop offset="1" stop-color="#C39EE6"/>
</linearGradient>
<linearGradient id="paint51_linear_6030_782" x1="304.443" y1="255.23" x2="106.798" y2="425.425" gradientUnits="userSpaceOnUse">
<stop stop-color="#EED082"/>
<stop offset="1" stop-color="#C39EE6"/>
</linearGradient>
<linearGradient id="paint52_linear_6030_782" x1="305.689" y1="256.678" x2="108.044" y2="426.872" gradientUnits="userSpaceOnUse">
<stop stop-color="#EED082"/>
<stop offset="1" stop-color="#C39EE6"/>
</linearGradient>
<clipPath id="clip0_6030_782">
<rect width="420" height="420" fill="white" transform="translate(5 279)"/>
</clipPath>
</defs>
</svg>
