<svg width="58" height="33" viewBox="0 0 58 33" fill="none" xmlns="http://www.w3.org/2000/svg">
<path fill-rule="evenodd" clip-rule="evenodd" d="M13.1165 21.7538C13.0099 21.8558 12.8545 21.8994 12.7186 21.851L9.91501 23.4612C9.28438 23.8397 9.07125 24.4218 9.14916 24.9699C9.17781 25.1927 9.25572 25.4063 9.3721 25.6053L9.38179 25.6248C9.49817 25.8138 9.63393 25.9789 9.80831 26.1147C10.2547 26.4593 10.8659 26.5708 11.5253 26.1972L13.8244 24.8631C14.0091 24.7565 14.2418 24.8195 14.3484 25.0037C14.4549 25.1833 14.387 25.4162 14.2126 25.5228C13.5918 25.911 13.3877 26.4932 13.4656 27.0361C13.4949 27.2591 13.5723 27.4822 13.6984 27.6764C13.8148 27.8754 13.97 28.0499 14.1541 28.1905C14.5908 28.5156 15.1921 28.6124 15.8325 28.2438C16.4726 27.8995 17.1321 27.4486 17.7626 27.1331C17.9472 27.0265 18.1896 27.0896 18.2962 27.2741C18.393 27.4533 18.3352 27.6812 18.1604 27.7879C17.5298 28.1711 17.3263 28.7579 17.4037 29.3012C17.4426 29.5243 17.5201 29.7426 17.6363 29.9415C17.7527 30.1405 17.908 30.315 18.0926 30.4508C18.5289 30.7807 19.1399 30.8777 19.7802 30.5092C20.5953 30.0678 21.4392 29.4906 22.2538 29.0829C22.4384 28.9764 22.671 29.0395 22.7777 29.2238C22.8843 29.4032 22.8167 29.6311 22.642 29.7378C22.0212 30.121 21.8079 30.7078 21.8951 31.2464C21.9243 31.4741 22.0016 31.6974 22.1277 31.8914C22.2344 32.0904 22.3995 32.2649 22.5741 32.4008L22.5937 32.415C23.03 32.7306 23.6314 32.8274 24.2619 32.4638L26.697 31.0569L14.5129 24.0189C14.4549 23.985 14.4064 23.9367 14.3774 23.8833L13.1165 21.7538ZM44.5455 21.036L28.7631 11.5634C27.3466 11.5634 26.0081 11.4905 24.7957 11.2188L24.7762 11.2141C23.4955 10.9229 22.3605 10.4088 21.4295 9.53088C21.1092 9.23488 20.8764 8.91963 20.7215 8.59981L13.5625 21.002L14.979 23.4078L27.444 30.6055C27.8902 30.8579 28.3944 30.9113 28.8503 30.7853C29.3162 30.664 29.7233 30.3682 29.9854 29.9266C30.2278 29.4949 30.2863 29.0001 30.1698 28.5493V28.5395C30.0534 28.0834 29.7721 27.6714 29.345 27.4144C29.1707 27.3074 29.1123 27.0748 29.2091 26.8953C29.3162 26.7111 29.5489 26.648 29.7331 26.7547C30.6549 27.2883 31.6248 27.8847 32.5558 28.3844C32.9925 28.6365 33.5066 28.6899 33.9623 28.5637C34.9421 28.3019 35.5243 27.3173 35.282 26.3279V26.3181C35.1656 25.8623 34.8744 25.4497 34.4474 25.1927C34.2731 25.0815 34.2148 24.8534 34.3213 24.6739C34.4279 24.4897 34.661 24.4266 34.8452 24.5333C35.5629 24.9506 36.3196 25.4162 37.0471 25.8041C37.4837 26.0563 37.9979 26.1097 38.4538 25.9835C39.4334 25.7215 40.0157 24.7369 39.773 23.7524V23.7379C39.6564 23.2869 39.3658 22.8745 38.9388 22.6125C38.7644 22.5058 38.7061 22.2729 38.8125 22.0937C38.9192 21.9092 39.152 21.8461 39.3366 21.9531L41.9556 23.4712C42.3921 23.7185 42.8965 23.7719 43.3624 23.6458C44.1771 23.4323 44.7398 22.7095 44.7398 21.8755C44.7398 21.5842 44.6717 21.2931 44.5455 21.036ZM37.3966 7.10094L43.692 18.019L45.1662 20.5706L45.739 21.5648L51.8983 18.0144C48.9977 12.9989 46.1075 7.98869 43.2068 2.9781L37.0567 6.5287L37.0762 6.56274L37.1828 6.74209L37.2896 6.92185L37.3966 7.10094ZM44.5066 3.69121L51.6171 15.9966L58 12.3054L50.8993 0L44.5066 3.69121ZM41.6938 16.0788L36.4651 7.02828L35.7377 7.24652C35.6018 7.2854 35.4661 7.24652 35.3693 7.15906C32.9535 4.97184 31.4211 5.6022 29.9952 6.19395C29.0734 6.5723 28.2004 6.93127 27.1433 6.69837C24.8348 6.1891 23.2533 6.23296 22.2932 6.58185C22.0409 6.67428 21.8277 6.79067 21.6724 6.91674L21.6626 6.92629V6.93127H21.6529V6.93598H21.6432V6.94096L21.6237 6.95549V6.96047L21.6042 6.975V6.97984H21.5949V6.98482L21.5852 6.98953V6.99451L21.5755 6.99922V7.0042V7.00917L21.5559 7.02868L21.5462 7.03824L21.5365 7.04322V7.04819L21.5268 7.0529V7.05788L21.5171 7.06259V7.06757L21.5074 7.07255V7.07752L21.4976 7.08223V7.08721V7.09206L21.4879 7.09677V7.10174L21.4782 7.10672V7.1117V7.11641L21.469 7.12139V7.12637L21.4593 7.13108V7.13605V7.14103L21.4496 7.14574V7.15072V7.1557L21.4399 7.16041V7.16538L21.4302 7.17036V7.17507V7.18005L21.4205 7.18503V7.19001V7.19472L21.4108 7.1997V7.20454V7.20925L21.4012 7.21423V7.21921V7.22392L21.3915 7.22889V7.23387V7.24342V7.2484L21.372 7.27249V7.27746V7.28729H21.3621V7.292V7.30168L21.3528 7.30666V7.31164V7.31662V7.32133L21.3432 7.32631V7.33128V7.33371V7.33868V7.34366L21.3335 7.34864V7.35335V7.35833L21.3238 7.37286V7.37784V7.38255V7.38752V7.3925L21.3141 7.39721V7.40219V7.40717V7.41215L21.3044 7.42183V7.42654V7.43152V7.4365V7.44148L21.2946 7.48507V7.49005L21.2849 7.52894V7.53364L21.2752 7.56271V7.56769V7.57266V7.57737V7.58235C21.2655 7.67452 21.2655 7.76682 21.2849 7.86383C21.3336 8.22267 21.5662 8.61071 21.9544 8.97453C22.7788 9.74576 23.7975 10.2066 24.9422 10.4683L24.9617 10.4733C26.1352 10.7402 27.4544 10.8033 28.8708 10.7983C28.9388 10.7983 29.0065 10.8176 29.065 10.8516L43.7704 19.6745L41.6938 16.0788ZM47.504 18.2666C47.097 18.2666 46.6893 18.1112 46.3689 17.8107L46.3403 17.7862C46.0199 17.4662 45.8649 17.0441 45.8649 16.6223C45.8649 16.2147 46.0199 15.8074 46.3206 15.4872L46.3403 15.4629C46.6698 15.1428 47.0872 14.9829 47.5038 14.9829C47.9212 14.9829 48.3481 15.1428 48.668 15.4629C48.9879 15.783 49.1433 16.205 49.1433 16.6223C49.1433 17.0295 48.9976 17.4418 48.6873 17.7573L48.6678 17.7864C48.3484 18.1015 47.9214 18.2666 47.504 18.2666ZM46.9028 17.2577C47.0679 17.4177 47.2909 17.4954 47.5041 17.4954C47.7276 17.4954 47.9506 17.4129 48.1249 17.2432L48.1444 17.2237C48.2996 17.054 48.3771 16.8405 48.3771 16.6223C48.3771 16.3992 48.2899 16.1758 48.1249 16.0062C47.9506 15.8365 47.7276 15.749 47.5041 15.749C47.2812 15.749 47.0581 15.8365 46.8834 16.0015L46.8642 16.0207C46.7089 16.1857 46.6312 16.4039 46.6312 16.6223C46.6312 16.8454 46.7186 17.0684 46.8834 17.2431L46.9028 17.2577ZM6.394 15.9966L13.4948 3.69121L7.102 0L0.00146484 12.3054L6.394 15.9966ZM10.9726 18.0676C10.5651 18.0676 10.1576 17.9173 9.83764 17.6117L9.80831 17.5873C9.48849 17.2672 9.33308 16.8452 9.33308 16.4281C9.33308 16.0206 9.47866 15.6083 9.7888 15.2931L9.80831 15.264C10.1384 14.9488 10.5553 14.7838 10.9724 14.7838C11.3898 14.7838 11.8163 14.9489 12.1367 15.264C12.4566 15.5888 12.6216 16.0109 12.6216 16.428C12.6216 16.8355 12.4663 17.2429 12.1556 17.563L12.1365 17.5873C11.8068 17.9076 11.3898 18.0676 10.9726 18.0676ZM10.3713 17.0636C10.5358 17.2236 10.7593 17.3012 10.9726 17.3012C11.1956 17.3012 11.4186 17.2141 11.5934 17.0491L11.6031 17.0295C11.7681 16.8647 11.8456 16.6416 11.8456 16.4281C11.8456 16.205 11.7585 15.982 11.5934 15.8073C11.4186 15.6374 11.1956 15.5549 10.9726 15.5549C10.7496 15.5549 10.5261 15.6374 10.3518 15.8073L10.3322 15.8265C10.177 15.9916 10.0996 16.2097 10.0996 16.4281C10.0996 16.6512 10.1868 16.8743 10.3518 17.0441L10.3713 17.0636ZM36.8434 4.04036C36.9987 4.18594 37.0087 4.4284 36.8629 4.58851C36.7272 4.74365 36.4847 4.7532 36.3196 4.6126C33.9142 2.4251 32.3814 3.05573 30.9455 3.64748C30.0341 4.02085 29.1513 4.38454 28.0937 4.1519C26.7064 3.84136 25.5817 3.73964 24.6794 3.77826C23.7189 3.82185 23.0498 4.04036 22.6519 4.35063C22.487 4.4767 22.2444 4.44764 22.1183 4.27797C21.9825 4.11302 22.0214 3.87069 22.1864 3.74462C22.7005 3.34192 23.5152 3.06542 24.6502 3.01201C25.6008 2.96841 26.8039 3.07995 28.2588 3.40502C29.0832 3.58451 29.8594 3.26913 30.655 2.93437C32.304 2.26015 34.0787 1.53278 36.8434 4.04036ZM12.7766 20.8275L12.7863 20.8227V20.8179V20.8129L12.796 20.8034V20.7985V20.7938L20.5273 7.41161C20.5661 7.16902 20.6533 6.93612 20.8086 6.72286C20.8475 6.67442 20.8861 6.62585 20.925 6.57727V6.5723L20.9347 6.56759C20.9543 6.53825 20.983 6.50919 21.0122 6.48013L21.0219 6.47515V6.4656H21.0315V6.46062L21.0414 6.45107L21.0511 6.44609L21.0607 6.43654V6.43156L21.0704 6.42187L21.0801 6.41689L21.0996 6.40734V6.39752L21.1089 6.39281V6.38783L21.1186 6.38285L21.3807 5.92216L15.2308 2.37182L6.549 17.4127L12.6992 20.9633L12.7766 20.8275Z" fill="#474646"/>
</svg>
