<svg width="430" height="699" viewBox="0 0 430 699" fill="none" xmlns="http://www.w3.org/2000/svg">
<circle opacity="0.11" cx="182" cy="46" r="233" fill="#00C2FF"/>
<ellipse opacity="0.11" cx="341" cy="122.5" rx="157" ry="156.5" fill="#00C2FF"/>
<g clip-path="url(#clip0_6031_773)">
<rect width="420" height="420" transform="translate(5 279)" fill="white"/>
<path d="M312.804 531.487C312.232 531.086 311.659 530.685 311.086 530.284C310.914 530.112 310.743 529.941 310.571 529.769C306.734 515.452 297.686 507.55 291.501 508.18C289.096 508.409 279.476 505.316 277.07 505.717C269.912 507.321 264.987 506.233 257.829 507.779C245.174 510.413 167.865 491.172 165.861 482.582C163.799 480.864 161.566 479.089 159.561 477.256C157.958 475.825 156.641 474.164 155.209 472.56C155.209 472.789 153.377 469.812 151.487 466.891C151.487 465.23 151.602 463.627 151.602 461.966C153.319 457.27 156.183 448.91 156.355 448.394C156.927 446.791 164.143 428.18 162.768 424.801C162.711 424.629 163.226 401.093 150.857 401.15C146.791 400.692 139.805 400.52 137.571 403.727C134.88 407.621 132.818 411.973 131.1 416.44C129.096 421.708 128.294 427.492 125.947 432.589C123.484 438.029 119.762 442.954 116.669 448.108C114.665 451.372 112.26 454.751 112.89 458.759C113.978 465.402 115.352 471.873 116.899 478.401C119.59 489.626 122.969 500.678 125.202 511.902C127.378 522.84 128.581 533.892 130.07 544.887C131.387 554.622 132.36 564.357 133.792 574.092C134.479 578.674 135.567 583.198 136.999 587.55C137.972 590.642 139.919 593.448 141.408 596.369C146.39 605.989 164.2 622.425 165.288 623.398C165.059 623.799 142.783 599.805 142.267 599.289C139.232 606.791 135.567 617.614 132.074 624.658C123.713 641.895 114.952 658.96 106.247 676.025C102.582 683.183 98.5163 690.055 94.5649 697.099C135.224 697.614 175.882 698.072 216.541 698.588C219.461 692.231 222.21 685.818 225.36 679.576C227.822 674.708 230.113 669.611 233.606 665.488C239.447 658.674 246.376 652.775 252.504 646.133C258.345 639.833 264.014 633.305 269.34 626.548C278.502 614.923 285.889 602.152 291.788 588.638C294.078 583.484 296.254 578.273 298.431 573.062C298.431 573.062 298.431 573.062 298.373 573.062C300.263 568.595 304.558 560.005 305.99 556.684C309.139 549.239 312.69 541.909 313.95 533.777C314.064 533.033 314.121 532.288 314.179 531.544C313.95 531.544 313.377 531.544 312.804 531.487Z" fill="#DFE5F4" stroke="white" stroke-width="3" stroke-miterlimit="10"/>
<path d="M295.338 383.111C293.105 372.346 290.929 361.58 288.696 350.814C288.295 349.038 287.779 347.32 287.665 345.545C287.55 344.572 288.123 343.541 288.467 342.51C290.414 341.365 292.189 339.761 294.308 339.189C300.435 337.585 305.703 339.59 309.998 344.056C314.351 348.58 314.179 354.078 312.06 359.403C308.338 368.68 302.153 376.182 295.338 383.111Z" fill="#DFE5F4" stroke="white" stroke-width="3" stroke-miterlimit="10"/>
<path d="M218.717 560.349C217.571 554.737 216.426 549.182 215.281 543.57C216.197 543.512 217.171 543.398 218.087 543.341C219.118 547.922 220.206 552.446 221.179 557.027C221.408 558.115 221.408 559.26 221.523 560.349C220.549 560.349 219.633 560.349 218.717 560.349Z" fill="#FDFDFE"/>
<path d="M293.771 551.434L168.689 551.459C165.192 551.44 162.055 550.066 159.771 547.762C157.488 545.459 156.055 542.284 156.073 538.786L156.069 329.974C156.087 326.477 157.465 323.283 159.769 320.999C162.072 318.716 165.19 317.28 168.687 317.298L293.769 317.273C300.767 317.252 306.422 322.95 306.443 329.948L306.446 538.76C306.467 545.758 300.766 551.47 293.771 551.434Z" fill="#7386F6"/>
<path d="M195.643 317.272L195.645 551.433L168.632 551.455C161.634 551.476 155.98 545.778 155.959 538.78L155.955 329.968C155.934 322.97 161.632 317.316 168.63 317.295L195.643 317.272Z" fill="#F6F7F8"/>
<path d="M286.659 551.449L195.702 551.436L195.697 317.332L286.657 317.288L286.659 551.449Z" fill="url(#paint0_linear_6031_773)"/>
<path d="M246.019 333.752L239.548 333.752L239.555 388.154L246.026 388.153L246.019 333.752Z" fill="#D9F0EF"/>
<path d="M232.542 333.764L226.071 333.765L226.078 388.166L232.549 388.165L232.542 333.764Z" fill="#D9F0EF"/>
<path d="M272.836 317.282L272.87 471.728C272.861 471.899 272.852 472.071 272.842 472.242C272.842 472.242 272.842 472.242 272.839 472.3L272.836 472.357C271.995 483.609 262.622 492.505 251.155 492.455C240.945 492.474 232.383 485.413 230.033 475.88L208.018 497.91L273.34 497.905L273.356 551.414L268.48 551.435L268.485 502.803L235.624 502.794L235.619 551.427L230.743 551.448L230.748 502.816L198.977 502.809L197.198 502.827L196.223 502.831L198.345 500.71L199.982 499.079L230.066 468.942L234.936 463.759L234.613 469.705C234.305 475.366 236.637 480.999 241.215 484.344C243.972 486.387 247.407 487.549 251.133 487.579C260.424 487.568 268.004 480.008 268.053 470.663L268.057 470.606L267.96 317.304L272.836 317.282Z" fill="#F1F1F1"/>
<path d="M185.109 367.569L175.475 367.561L175.498 381.9L174.123 381.883L174.1 367.544L164.005 367.569C164.005 367.569 163.947 367.566 164.008 367.511L173.954 357.557L175.414 356.031L175.317 357.803C175.227 359.461 175.938 361.163 177.263 362.096C178.532 363.025 180.178 363.344 181.93 362.751C183.918 362.056 185.17 360.117 185.168 358.052L185.149 347.843L186.525 347.86L186.525 358.413C186.522 358.47 186.519 358.527 186.519 358.527C186.281 361.84 183.502 364.442 180.115 364.487C177.133 364.497 174.608 362.41 173.9 359.619C173.9 359.619 173.9 359.619 173.842 359.616L167.414 366.033L167.411 366.091L186.623 366.103L186.629 381.817L185.253 381.8L185.109 367.569Z" fill="#F1F1F1"/>
<path d="M198.524 416.186L188.89 416.178L188.913 430.517L187.538 430.499L187.515 416.161L177.42 416.185C177.42 416.185 177.362 416.182 177.423 416.128L187.369 406.174L188.829 404.647L188.732 406.42C188.642 408.078 189.353 409.78 190.678 410.712C191.947 411.641 193.593 411.96 195.345 411.367C197.333 410.673 198.585 408.733 198.583 406.669L198.565 396.459L199.94 396.477L199.94 407.029C199.937 407.086 199.934 407.144 199.934 407.144C199.696 410.457 196.917 413.059 193.53 413.104C190.548 413.114 188.023 411.027 187.315 408.235C187.315 408.235 187.315 408.235 187.257 408.232L180.829 414.65L180.826 414.707L200.038 414.719L200.044 430.434L198.668 430.416L198.524 416.186C198.582 416.189 198.582 416.189 198.524 416.186Z" fill="#F1F1F1"/>
<path d="M185.115 460.304L175.48 460.297L175.504 474.636L174.128 474.618L174.105 460.279L164.01 460.304C164.01 460.304 163.953 460.301 164.013 460.247L173.96 450.293L175.419 448.766L175.323 450.539C175.232 452.197 175.943 453.899 177.269 454.831C178.537 455.76 180.183 456.079 181.936 455.486C183.923 454.791 185.176 452.852 185.173 450.788L185.155 440.578L186.53 440.596L186.53 451.148C186.527 451.205 186.524 451.262 186.524 451.262C186.286 454.576 183.507 457.178 180.121 457.223C177.138 457.233 174.613 455.146 173.905 452.354C173.905 452.354 173.905 452.354 173.848 452.351L167.42 458.769L167.417 458.826L186.628 458.838L186.634 474.553L185.259 474.535L185.115 460.304Z" fill="#F1F1F1"/>
<path d="M198.533 508.864L188.898 508.856L188.922 523.195L187.546 523.178L187.523 508.839L177.428 508.864C177.428 508.864 177.371 508.861 177.431 508.806L187.378 498.852L188.837 497.326L188.741 499.098C188.65 500.757 189.361 502.458 190.687 503.391C191.955 504.32 193.601 504.639 195.354 504.046C197.341 503.351 198.594 501.412 198.591 499.347L198.573 489.138L199.948 489.155L199.948 499.708C199.945 499.765 199.942 499.822 199.942 499.822C199.704 503.135 196.925 505.737 193.539 505.782C190.556 505.792 188.031 503.705 187.323 500.914C187.323 500.914 187.323 500.914 187.266 500.911L180.838 507.329L180.835 507.386L200.046 507.398L200.046 523.226L198.67 523.209L198.533 508.864C198.587 508.924 198.59 508.867 198.533 508.864Z" fill="#F1F1F1"/>
<path d="M324.887 427.893C320.821 423.255 316.584 419.017 311.086 416.669C306.161 414.55 305.703 414.894 305.188 420.62C304.443 428.237 304.043 435.91 300.721 443.011C299.404 445.76 299.347 449.482 299.461 452.804C299.69 458.587 303.527 462.252 307.536 465.173C315.438 470.9 321.623 469.124 324.257 460.305C326.033 454.522 327.006 448.451 328.209 442.496C328.495 440.95 328.896 432.36 324.887 427.893Z" fill="#DFE5F4" stroke="white" stroke-width="2" stroke-miterlimit="10"/>
<path d="M338.516 506.347C337.257 502.281 335.023 498.903 331.587 496.096C326.72 501.651 320.993 503.197 314.579 500.964C312.804 500.334 311.773 500.792 310.8 502.052C307.078 506.347 303.183 510.585 299.69 515.166C298.144 517.17 296.598 519.747 296.598 522.21C296.541 527.65 304.901 535.037 310.055 534.98C315.037 534.865 319.561 533.033 323.914 530.57C331.358 526.275 336.856 520.148 338.688 510.871C338.86 509.382 338.917 507.721 338.516 506.347Z" fill="#DFE5F4" stroke="white" stroke-width="2" stroke-miterlimit="10"/>
<path d="M338.173 474.107C336.398 467.063 331.473 462.711 326.09 458.358C325.632 459.618 325.288 460.649 324.83 461.623C322.368 467.578 318.474 470.327 313.778 469.411C312.289 469.124 310.571 468.208 309.483 468.781C308.338 469.353 307.822 471.472 306.963 472.904C306.791 473.133 306.62 473.477 306.505 473.763C303.928 478.974 302.21 484.071 304.959 490.255C307.937 496.841 312.346 500.62 318.989 500.964C324.601 501.25 329.068 498.731 331.874 493.405C334.05 489.339 335.94 485.159 337.486 480.807C338.402 478.745 338.688 476.111 338.173 474.107Z" fill="#DFE5F4" stroke="white" stroke-width="2" stroke-miterlimit="10"/>
<path d="M307.479 515.28C311.888 515.109 317.557 519.232 318.531 522.61C318.703 523.069 318.76 523.584 318.703 524.157C318.474 527.822 311.945 533.548 308.051 530.57C306.505 529.425 304.787 528.566 303.47 527.134C302.096 525.703 300.778 523.985 301.867 521.522C303.298 518.43 304.902 515.452 307.479 515.28Z" fill="#EBEEF7"/>
<path d="M326.433 489.282C325.689 491.057 325.001 493.348 323.742 495.123C323.112 495.982 321.107 496.497 320.248 496.096C317.042 494.436 313.835 492.661 311.2 490.198C308.165 487.449 309.941 479.375 313.777 478.287C315.209 477.886 317.442 478.63 318.702 479.604C321.279 481.608 323.341 484.128 325.631 486.59C326.032 487.106 326.032 487.965 326.433 489.282Z" fill="#EBEEF7"/>
<path d="M308.28 444.386C315.324 443.87 322.081 453.205 319.561 459.046C318.13 462.482 316.24 463.283 313.09 461.852C311.258 460.993 309.425 459.962 307.765 458.759C302.668 455.037 303.584 450.055 306.161 445.817C306.677 444.901 307.937 444.557 308.28 444.386Z" fill="#EBEEF7"/>
</g>
<path d="M252.053 629.257C242.726 638.389 225.563 639.166 214.487 630.876C201.468 621.225 198.165 603.802 206.779 590.007C207.298 589.229 212.091 581.133 221.741 577.895C221.806 578.672 221.676 579.449 221.806 580.162C223.36 585.214 224.656 590.395 226.599 595.318C228.218 599.398 230.55 603.22 232.622 607.17C230.55 609.373 228.542 611.575 226.275 613.971C223.684 611.251 221.223 608.854 218.891 606.458C217.725 605.227 216.43 604.58 215.07 605.875C213.645 607.17 214.293 608.466 215.523 609.696C218.373 612.417 221.093 615.267 223.943 618.052C225.757 619.865 226.858 619.865 228.671 618.116C230.874 616.044 233.011 613.906 235.148 611.769C238.97 615.979 242.661 620.189 246.612 624.269C248.232 626.148 250.175 627.637 252.053 629.257Z" fill="#70E2AE"/>
<path d="M252.053 629.257C250.239 627.637 248.232 626.148 246.612 624.399C242.726 620.318 238.97 616.044 235.148 611.898C235.343 611.639 235.537 611.38 235.731 611.186C240.265 606.652 244.799 602.054 249.397 597.52C250.563 596.354 250.822 595.123 249.592 593.893C248.361 592.792 247.195 593.18 246.094 594.217C244.734 595.641 243.374 596.937 242.014 598.297C238.905 601.341 235.796 604.321 232.687 607.3C230.679 603.349 228.283 599.528 226.663 595.447C224.72 590.525 223.425 585.343 221.871 580.291C221.611 579.579 221.806 578.737 221.806 578.024C227.505 575.434 233.464 575.693 239.423 576.794C245.252 577.895 249.916 581.198 254.255 584.955C254.579 585.278 254.838 585.538 255.162 585.861C257.299 589.877 260.149 593.634 261.38 597.844C264.683 608.725 262.092 618.634 254.514 627.119C253.737 627.961 252.83 628.544 252.053 629.257Z" fill="#8DE8BE"/>
<path d="M232.557 607.3C235.666 604.32 238.775 601.341 241.884 598.297C243.309 596.937 244.604 595.577 245.965 594.217C247.066 593.115 248.231 592.792 249.462 593.893C250.757 595.123 250.434 596.354 249.268 597.52C244.734 602.054 240.135 606.587 235.601 611.186C235.342 611.445 235.213 611.639 235.019 611.898C232.881 613.971 230.679 616.108 228.542 618.246C226.728 619.995 225.627 619.995 223.814 618.181C221.028 615.396 218.243 612.546 215.394 609.826C214.163 608.595 213.58 607.3 214.94 606.004C216.3 604.774 217.596 605.357 218.762 606.587C221.158 609.049 223.49 611.445 226.145 614.101C228.477 611.639 230.485 609.437 232.557 607.3Z" fill="#FCFEFD"/>
<defs>
<linearGradient id="paint0_linear_6031_773" x1="205.422" y1="434.378" x2="286.494" y2="434.367" gradientUnits="userSpaceOnUse">
<stop offset="0.1229" stop-color="#A5D1FA"/>
<stop offset="0.8347" stop-color="#C2E7E5"/>
</linearGradient>
<clipPath id="clip0_6031_773">
<rect width="420" height="420" fill="white" transform="translate(5 279)"/>
</clipPath>
</defs>
</svg>
