<svg width="430" height="699" viewBox="0 0 430 699" fill="none" xmlns="http://www.w3.org/2000/svg">
<circle opacity="0.11" cx="182" cy="-86" r="233" fill="#00C2FF"/>
<ellipse opacity="0.11" cx="341" cy="-9.5" rx="157" ry="156.5" fill="#00C2FF"/>
<g clip-path="url(#clip0_6030_783)">
<rect width="420" height="420" transform="translate(5 279)" fill="white"/>
<path d="M312.804 531.487C312.232 531.086 311.659 530.685 311.086 530.284C310.914 530.112 310.743 529.941 310.571 529.769C306.734 515.452 297.686 507.55 291.501 508.18C289.096 508.409 279.476 505.316 277.071 505.717C269.912 507.321 264.987 506.233 257.829 507.779C245.174 510.413 167.865 491.172 165.861 482.582C163.799 480.864 161.566 479.089 159.561 477.256C157.958 475.825 156.641 474.164 155.209 472.56C155.209 472.789 153.377 469.812 151.487 466.891C151.487 465.23 151.602 463.627 151.602 461.966C153.319 457.27 156.183 448.91 156.355 448.394C156.927 446.791 164.143 428.18 162.768 424.801C162.711 424.629 163.226 401.093 150.857 401.15C146.791 400.692 139.805 400.52 137.571 403.727C134.88 407.621 132.818 411.973 131.1 416.44C129.096 421.708 128.294 427.492 125.947 432.589C123.484 438.029 119.762 442.954 116.669 448.108C114.665 451.372 112.26 454.751 112.89 458.759C113.978 465.402 115.352 471.873 116.899 478.401C119.59 489.626 122.969 500.678 125.202 511.902C127.378 522.84 128.581 533.892 130.07 544.887C131.387 554.622 132.36 564.357 133.792 574.092C134.479 578.674 135.567 583.198 136.999 587.55C137.972 590.642 139.919 593.448 141.408 596.369C146.39 605.989 164.2 622.425 165.288 623.398C165.059 623.799 142.783 599.805 142.267 599.289C139.232 606.791 135.567 617.614 132.074 624.658C123.713 641.895 114.952 658.96 106.247 676.025C102.582 683.183 98.5163 690.055 94.5649 697.099C135.224 697.614 175.882 698.072 216.541 698.588C219.461 692.231 222.21 685.818 225.36 679.576C227.822 674.708 230.113 669.611 233.606 665.488C239.447 658.674 246.376 652.775 252.504 646.133C258.345 639.833 264.014 633.305 269.34 626.548C278.502 614.923 285.889 602.152 291.788 588.638C294.078 583.484 296.254 578.273 298.431 573.062C298.431 573.062 298.431 573.062 298.373 573.062C300.263 568.595 304.558 560.005 305.99 556.684C309.139 549.239 312.69 541.909 313.95 533.777C314.064 533.033 314.121 532.288 314.179 531.544C313.95 531.544 313.377 531.544 312.804 531.487Z" fill="#DFE5F4" stroke="white" stroke-width="3" stroke-miterlimit="10"/>
<path d="M295.338 383.111C293.105 372.346 290.929 361.58 288.696 350.814C288.295 349.038 287.779 347.32 287.665 345.545C287.55 344.572 288.123 343.541 288.467 342.51C290.414 341.365 292.189 339.761 294.308 339.189C300.435 337.585 305.703 339.59 309.998 344.056C314.351 348.58 314.179 354.078 312.06 359.403C308.338 368.68 302.153 376.182 295.338 383.111Z" fill="#DFE5F4" stroke="white" stroke-width="3" stroke-miterlimit="10"/>
<path d="M218.717 560.349C217.571 554.737 216.426 549.182 215.281 543.57C216.197 543.512 217.171 543.398 218.087 543.341C219.118 547.922 220.206 552.446 221.179 557.027C221.408 558.115 221.408 559.26 221.523 560.349C220.549 560.349 219.633 560.349 218.717 560.349Z" fill="#FDFDFE"/>
<path d="M300.034 547.865L175.137 554.679C171.644 554.851 168.437 553.648 166.032 551.472C163.627 549.296 162.024 546.204 161.852 542.711L150.513 334.207C150.341 330.713 151.544 327.449 153.72 325.044C155.896 322.639 158.931 321.035 162.425 320.864L287.321 314.049C294.307 313.648 300.263 319.031 300.664 326.018L312.002 534.522C312.403 541.508 307.02 547.521 300.034 547.865Z" fill="#7386F6"/>
<path d="M189.34 319.375L202.053 553.19L175.08 554.679C168.094 555.08 162.138 549.697 161.738 542.711L150.399 334.207C149.998 327.22 155.381 321.265 162.367 320.864L189.34 319.375Z" fill="#F6F7F8"/>
<path d="M292.933 548.266L202.11 553.19L189.397 319.432L280.22 314.45L292.933 548.266Z" fill="url(#paint0_linear_6030_783)"/>
<path d="M240.536 333.095L234.074 333.448L237.034 387.768L243.496 387.416L240.536 333.095Z" fill="#D9F0EF"/>
<path d="M227.078 333.839L220.617 334.191L223.577 388.512L230.039 388.16L227.078 333.839Z" fill="#D9F0EF"/>
<path d="M266.419 315.194L274.837 469.411C274.837 469.583 274.837 469.754 274.837 469.926C274.837 469.926 274.837 469.926 274.837 469.983V470.041C274.608 481.322 265.732 490.714 254.279 491.286C244.086 491.859 235.152 485.273 232.289 475.882L211.502 499.074L276.727 495.524L279.648 548.953L274.78 549.239L272.146 500.678L239.333 502.453L241.967 551.014L237.099 551.301L234.465 502.739L202.74 504.457L200.965 504.572L199.991 504.629L201.996 502.396L203.542 500.678L231.945 468.953L236.527 463.512V469.468C236.527 475.137 239.161 480.635 243.914 483.727C246.777 485.617 250.27 486.59 253.993 486.419C263.27 485.903 270.428 477.943 269.97 468.609V468.552L261.552 315.481L266.419 315.194Z" fill="#F1F1F1"/>
<path d="M181.551 370.169L171.931 370.685L172.732 385.001L171.358 385.058L170.556 370.742L160.478 371.315C160.478 371.315 160.42 371.315 160.478 371.257L169.869 360.778L171.244 359.174V360.95C171.244 362.61 172.045 364.271 173.42 365.13C174.737 365.989 176.397 366.218 178.115 365.531C180.062 364.729 181.208 362.725 181.093 360.663L180.521 350.47L181.895 350.413L182.468 360.95C182.468 361.007 182.468 361.064 182.468 361.064C182.41 364.386 179.776 367.134 176.397 367.363C173.42 367.535 170.785 365.588 169.926 362.839C169.926 362.839 169.926 362.839 169.869 362.839L163.799 369.597V369.654L182.983 368.623L183.842 384.314L182.468 384.371L181.551 370.169Z" fill="#F1F1F1"/>
<path d="M197.586 417.986L187.965 418.502L188.767 432.818L187.393 432.875L186.591 418.559L176.512 419.132C176.512 419.132 176.455 419.132 176.512 419.074L185.904 408.595L187.278 406.991V408.766C187.278 410.427 188.08 412.088 189.454 412.947C190.771 413.806 192.432 414.035 194.15 413.348C196.097 412.546 197.242 410.542 197.128 408.48L196.555 398.287L197.93 398.23L198.502 408.766C198.502 408.824 198.502 408.881 198.502 408.881C198.445 412.202 195.811 414.951 192.432 415.18C189.454 415.352 186.82 413.405 185.961 410.656C185.961 410.656 185.961 410.656 185.904 410.656L179.834 417.414V417.471L199.018 416.44L199.877 432.131L198.502 432.188L197.586 417.986C197.643 417.986 197.643 417.986 197.586 417.986Z" fill="#F1F1F1"/>
<path d="M186.591 462.768L176.97 463.283L177.772 477.6L176.398 477.657L175.596 463.341L165.517 463.913C165.517 463.913 165.46 463.913 165.517 463.856L174.909 453.376L176.283 451.773V453.548C176.283 455.209 177.085 456.87 178.459 457.729C179.776 458.588 181.437 458.817 183.155 458.129C185.102 457.328 186.247 455.323 186.133 453.262L185.56 443.069L186.935 443.011L187.507 453.548C187.507 453.605 187.507 453.663 187.507 453.663C187.45 456.984 184.816 459.733 181.437 459.962C178.459 460.134 175.825 458.187 174.966 455.438C174.966 455.438 174.966 455.438 174.909 455.438L168.839 462.195V462.253L188.023 461.222L188.882 476.913L187.507 476.97L186.591 462.768Z" fill="#F1F1F1"/>
<path d="M202.625 510.527L193.004 511.043L193.806 525.359L192.432 525.417L191.63 511.1L181.551 511.673C181.551 511.673 181.494 511.673 181.551 511.615L190.943 501.136L192.317 499.532V501.308C192.317 502.968 193.119 504.629 194.493 505.488C195.81 506.347 197.471 506.576 199.189 505.889C201.136 505.087 202.281 503.083 202.167 501.021L201.594 490.828L202.969 490.771L203.541 501.308C203.541 501.365 203.541 501.422 203.541 501.422C203.484 504.744 200.85 507.492 197.471 507.721C194.493 507.893 191.859 505.946 191 503.197C191 503.197 191 503.197 190.943 503.197L184.873 509.955V510.012L204.057 508.981L204.916 524.787L203.541 524.844L202.625 510.527C202.682 510.585 202.682 510.527 202.625 510.527Z" fill="#F1F1F1"/>
<path d="M324.887 427.893C320.821 423.255 316.584 419.017 311.086 416.669C306.161 414.55 305.703 414.894 305.188 420.62C304.443 428.237 304.043 435.91 300.721 443.011C299.404 445.76 299.347 449.482 299.461 452.804C299.69 458.588 303.527 462.253 307.536 465.173C315.438 470.9 321.623 469.124 324.257 460.305C326.033 454.522 327.006 448.452 328.209 442.496C328.495 440.95 328.896 432.36 324.887 427.893Z" fill="#DFE5F4" stroke="white" stroke-width="2" stroke-miterlimit="10"/>
<path d="M338.516 506.347C337.257 502.281 335.023 498.903 331.587 496.096C326.72 501.651 320.993 503.197 314.579 500.964C312.804 500.334 311.773 500.792 310.8 502.052C307.078 506.347 303.183 510.585 299.69 515.166C298.144 517.17 296.598 519.747 296.598 522.21C296.541 527.65 304.901 535.037 310.055 534.98C315.037 534.865 319.561 533.033 323.914 530.57C331.358 526.275 336.856 520.148 338.688 510.871C338.86 509.382 338.917 507.721 338.516 506.347Z" fill="#DFE5F4" stroke="white" stroke-width="2" stroke-miterlimit="10"/>
<path d="M338.173 474.107C336.398 467.063 331.473 462.711 326.09 458.358C325.632 459.618 325.288 460.649 324.83 461.623C322.368 467.578 318.474 470.327 313.778 469.411C312.289 469.124 310.571 468.208 309.483 468.781C308.338 469.353 307.822 471.472 306.963 472.904C306.791 473.133 306.62 473.477 306.505 473.763C303.928 478.974 302.21 484.071 304.959 490.255C307.937 496.841 312.346 500.621 318.989 500.964C324.601 501.25 329.068 498.731 331.874 493.405C334.05 489.339 335.94 485.159 337.486 480.807C338.402 478.745 338.688 476.111 338.173 474.107Z" fill="#DFE5F4" stroke="white" stroke-width="2" stroke-miterlimit="10"/>
<path d="M307.479 515.28C311.888 515.109 317.557 519.232 318.531 522.611C318.703 523.069 318.76 523.584 318.703 524.157C318.474 527.822 311.945 533.548 308.051 530.57C306.505 529.425 304.787 528.566 303.47 527.134C302.096 525.703 300.778 523.985 301.867 521.522C303.298 518.43 304.902 515.452 307.479 515.28Z" fill="#EBEEF7"/>
<path d="M326.433 489.282C325.689 491.057 325.001 493.348 323.742 495.123C323.112 495.982 321.107 496.497 320.248 496.097C317.042 494.436 313.835 492.661 311.2 490.198C308.165 487.449 309.941 479.375 313.777 478.287C315.209 477.886 317.442 478.631 318.702 479.604C321.279 481.608 323.341 484.128 325.631 486.59C326.032 487.106 326.032 487.965 326.433 489.282Z" fill="#EBEEF7"/>
<path d="M308.28 444.386C315.324 443.87 322.081 453.205 319.561 459.046C318.13 462.482 316.24 463.283 313.09 461.852C311.258 460.993 309.425 459.962 307.765 458.759C302.668 455.037 303.584 450.055 306.161 445.817C306.677 444.901 307.937 444.557 308.28 444.386Z" fill="#EBEEF7"/>
<path d="M315.324 305.006C314.637 301.399 314.866 301.112 317.901 301.055C330.27 300.826 338.288 308.5 338.86 319.666C339.032 322.988 338.803 323.102 334.966 322.415C335.195 317.147 333.935 312.394 329.698 308.729C325.575 305.006 320.535 304.892 315.324 305.006Z" fill="#D1C0FB"/>
<path d="M168.037 305.694C168.724 302.086 168.495 301.799 165.46 301.742C153.091 301.513 145.073 309.187 144.501 320.354C144.329 323.675 144.558 323.789 148.395 323.102C148.166 317.834 149.426 313.081 153.663 309.416C157.844 305.751 162.826 305.636 168.037 305.694Z" fill="#D1C0FB"/>
<path d="M315.324 562.072C314.637 565.68 314.866 565.966 317.901 566.023C330.27 566.252 338.288 558.579 338.86 547.412C339.032 544.09 338.803 543.976 334.966 544.663C335.195 549.931 333.935 554.685 329.698 558.35C325.575 562.015 320.535 562.129 315.324 562.072Z" fill="#D1C0FB"/>
<path d="M168.037 561.327C168.724 564.935 168.495 565.221 165.46 565.279C153.091 565.508 145.073 557.834 144.501 546.667C144.329 543.346 144.558 543.231 148.395 543.919C148.166 549.187 149.426 553.94 153.663 557.605C157.844 561.327 162.826 561.442 168.037 561.327Z" fill="#D1C0FB"/>
</g>
<defs>
<linearGradient id="paint0_linear_6030_783" x1="205.461" y1="435.777" x2="286.412" y2="431.366" gradientUnits="userSpaceOnUse">
<stop offset="0.1229" stop-color="#A5D1FA"/>
<stop offset="0.8347" stop-color="#C2E7E5"/>
</linearGradient>
<clipPath id="clip0_6030_783">
<rect width="420" height="420" fill="white" transform="translate(5 279)"/>
</clipPath>
</defs>
</svg>
