<svg width="50" height="50" viewBox="0 0 50 50" fill="none" xmlns="http://www.w3.org/2000/svg">
<g clip-path="url(#clip0_9_2949)">
<path d="M28.9258 10.7902H6.95879C6.19337 10.7902 5.56787 11.4074 5.56787 12.1811V43.0453C5.56787 43.8107 6.18509 44.4362 6.95879 44.4362H22.1687C22.5062 44.4362 22.8272 44.3046 23.0823 44.0823V38.5926C23.0823 37.8272 23.6996 37.2017 24.4732 37.2017H29.9629C30.1851 36.9465 30.3169 36.6337 30.3169 36.2881V12.1811C30.3086 11.4074 29.6912 10.7902 28.9258 10.7902Z" fill="#00C2FF"/>
<path d="M25.8643 39.9754V45.2429L31.1317 39.9754H25.8643Z" fill="#00C2FF"/>
<path d="M38.5144 5.24283C37.749 5.24283 37.1235 5.86005 37.1235 6.63374C37.1235 7.40744 37.7407 8.02466 38.5144 8.02466C39.2798 8.02466 39.9053 8.64188 39.9053 9.41557V45.8271C39.9053 46.5925 39.2881 47.218 38.5144 47.218H31.7737C31.0083 47.218 30.3828 47.8353 30.3828 48.609C30.3828 49.3744 31 49.9999 31.7737 49.9999H38.5144C40.8107 49.9999 42.679 48.1315 42.679 45.8353V9.39915C42.6873 7.11117 40.8189 5.24283 38.5144 5.24283Z" fill="#474646"/>
<path d="M45.823 5.24283C45.0576 5.24283 44.4321 5.86005 44.4321 6.63374C44.4321 7.40744 45.0494 8.02466 45.823 8.02466C46.5885 8.02466 47.214 8.64188 47.214 9.41557V45.8271C47.214 46.5925 46.5967 47.218 45.823 47.218C45.0576 47.218 44.4321 47.8353 44.4321 48.609C44.4321 49.3744 45.0494 49.9999 45.823 49.9999C48.1193 49.9999 49.9876 48.1315 49.9876 45.8353V9.39915C49.9876 7.11117 48.1194 5.24283 45.823 5.24283Z" fill="#474646"/>
<path d="M35.8642 38.5926V9.39915C35.8642 7.1029 33.9959 5.23455 31.6996 5.23455H15.8889V5.21813C15.8889 2.34565 13.5514 0 10.6708 0C7.79013 0 5.45263 2.3375 5.45263 5.21813V5.23455H4.18508C1.88055 5.23455 0.012207 7.1029 0.012207 9.39915V45.8107C0.012207 48.1152 1.88055 49.9836 4.17681 49.9836H24.4649C24.827 49.9836 25.181 49.8354 25.4527 49.5802L35.4609 39.572C35.716 39.3087 35.8642 38.9548 35.8642 38.5926ZM8.22631 5.21813C8.22631 3.86834 9.32096 2.78196 10.6625 2.78196C12.004 2.78196 13.0987 3.87661 13.0987 5.21813V5.23455H8.21816V5.21813H8.22631ZM25.856 45.2429V39.9754H31.1152L25.856 45.2429ZM33.0905 37.2017H24.4651C23.6997 37.2017 23.0742 37.8189 23.0742 38.5926V47.2099H4.17693C3.41151 47.2099 2.78602 46.5927 2.78602 45.819V9.39915C2.78602 8.63373 3.40324 8.00823 4.17693 8.00823H13.1069V14.4609C13.1069 15.0782 12.5966 15.5886 11.9793 15.5886C11.3619 15.5886 10.8517 15.0783 10.8517 14.4609V11.926C10.8517 11.1606 10.2344 10.5351 9.46076 10.5351C8.68706 10.5351 8.06984 11.1523 8.06984 11.926V14.4609C8.06984 16.6173 9.82297 18.3704 11.9793 18.3704C14.1356 18.3704 15.8888 16.6173 15.8888 14.4609V8.00823H31.6995C32.4649 8.00823 33.0904 8.62546 33.0904 9.39915L33.0905 37.2017Z" fill="#474646"/>
<path d="M27.0082 22.033H8.88481C8.1194 22.033 7.4939 22.6502 7.4939 23.4239C7.4939 24.1976 8.11112 24.8148 8.88481 24.8148H27.0083C27.7738 24.8148 28.3993 24.1976 28.3993 23.4239C28.3993 22.6502 27.7738 22.033 27.0082 22.033Z" fill="white"/>
<path d="M27.0082 29.465H8.88481C8.1194 29.465 7.4939 30.0822 7.4939 30.8559C7.4939 31.6296 8.11112 32.2468 8.88481 32.2468H27.0083C27.7738 32.2468 28.3993 31.6296 28.3993 30.8559C28.3993 30.0822 27.7738 29.465 27.0082 29.465Z" fill="white"/>
<path d="M17.1976 36.8889H8.88481C8.1194 36.8889 7.4939 37.5061 7.4939 38.2798C7.4939 39.0535 8.11112 39.6707 8.88481 39.6707H17.1976C17.963 39.6707 18.5885 39.0533 18.5885 38.2798C18.5885 37.5062 17.963 36.8889 17.1976 36.8889Z" fill="white"/>
</g>
<defs>
<clipPath id="clip0_9_2949">
<rect width="50" height="50" fill="white"/>
</clipPath>
</defs>
</svg>
